M48
;DRILL file {KiCad 4.0.2+dfsg1-stable} date dim. 24 sept. 2017 10:50:19 CEST
;FORMAT={3:3/ absolute / metric / suppress leading zeros}
FMAT,2
METRIC,TZ
T1C0.508
T2C1.016
T3C1.400
T4C3.048
%
G90
G05
M71
T1
X112014Y-74549
X112014Y-77089
X112014Y-79629
X112014Y-82169
X112014Y-84709
X112014Y-87249
X112014Y-89789
X112014Y-92329
X112014Y-94869
X112014Y-97409
X112014Y-99949
X112014Y-102489
X112014Y-105029
X112014Y-107569
X112014Y-110109
X112014Y-112649
X112014Y-115189
X112014Y-117729
X112014Y-120269
X112014Y-122809
X112014Y-125349
X112014Y-127889
X112014Y-130429
X112014Y-132969
X112014Y-135509
X112014Y-138049
X112014Y-140589
X112014Y-143129
X112014Y-145669
X112014Y-148209
X112014Y-150749
X112014Y-153289
X126111Y-81915
X126111Y-84074
X126111Y-102235
X126111Y-104394
X126111Y-122555
X126111Y-124841
X126111Y-142875
X126111Y-145034
X134620Y-74041
X137033Y-71628
X140335Y-76581
X142367Y-71628
X145669Y-96139
X145669Y-136779
X147320Y-116967
X147828Y-82169
X151257Y-122809
X154813Y-118745
X156210Y-80645
X156464Y-149733
X158115Y-78994
X158242Y-132715
X159766Y-130429
X160020Y-106426
X160020Y-114935
X161163Y-106426
X161417Y-80645
X161671Y-69850
X162052Y-127889
X162306Y-106426
X162306Y-117094
X163195Y-126619
X163449Y-106426
X163449Y-117856
X164338Y-125349
X164465Y-67691
X164592Y-106426
X164592Y-118618
X165735Y-68580
X165735Y-106426
X166751Y-111633
X167005Y-126873
X167767Y-77724
X168021Y-111633
X169164Y-106299
X169291Y-91567
X170053Y-89154
X170815Y-78994
X171069Y-106934
X171450Y-109728
X171577Y-77978
X172339Y-76962
X172974Y-107315
X174498Y-99060
X177673Y-71628
X178689Y-75692
X180086Y-101981
X180106Y-110637
X181737Y-107569
X183007Y-71628
X183769Y-106807
X184500Y-121500
X187700Y-131318
T2
X104648Y-74549
X104648Y-77089
X104648Y-79629
X104648Y-82169
X104648Y-84709
X104648Y-87249
X104648Y-89789
X104648Y-92329
X104648Y-94869
X104648Y-97409
X104648Y-99949
X104648Y-102489
X104648Y-105029
X104648Y-107569
X104648Y-110109
X104648Y-112649
X104648Y-115189
X104648Y-117729
X104648Y-120269
X104648Y-122809
X104648Y-125349
X104648Y-127889
X104648Y-130429
X104648Y-132969
X104648Y-135509
X104648Y-138049
X104648Y-140589
X104648Y-143129
X104648Y-145669
X104648Y-148209
X104648Y-150749
X104648Y-153289
X120650Y-58674
X123190Y-58674
X125730Y-58674
X128270Y-58674
X130810Y-58674
X133350Y-58674
X135890Y-58674
X138430Y-58674
X140970Y-58674
X143510Y-58674
X146050Y-58674
X148590Y-58674
X151130Y-58674
X153670Y-58674
X156210Y-58674
X158750Y-58674
X161290Y-58674
X163830Y-58674
X166370Y-58674
X168910Y-58674
X171450Y-58674
X173990Y-58674
X176530Y-58674
X179070Y-58674
X181610Y-58674
X184150Y-58674
X186690Y-58674
X189230Y-58674
X191770Y-58674
X191770Y-87630
X191770Y-90170
X191770Y-96520
X191770Y-99060
X191770Y-101600
X191770Y-104140
X191770Y-106680
X194310Y-58674
X196850Y-58674
X199390Y-58674
T3
X170000Y-131000
X170000Y-136500
X170815Y-117983
X176315Y-117983
T4
X107500Y-61500
T0
M30
