M48
;DRILL file {KiCad 4.0.2+dfsg1-stable} date dim. 24 sept. 2017 13:03:24 CEST
;FORMAT={3:3/ absolute / metric / suppress leading zeros}
FMAT,2
METRIC,TZ
T1C0.508
T2C1.016
T3C3.048
%
G90
G05
M71
T1
X83058Y-57912
X83058Y-69088
X83058Y-80264
X83058Y-91440
X83058Y-102616
X83058Y-113792
X83058Y-124968
X83058Y-136144
X83058Y-147320
X83058Y-158496
X83058Y-169672
X83058Y-180848
X83058Y-192024
X83058Y-203200
X83058Y-214376
X83058Y-225552
X83087Y-52353
X83087Y-63529
X83087Y-74705
X83087Y-85881
X83087Y-97057
X83087Y-108233
X83087Y-119409
X83087Y-130585
X83087Y-141761
X83087Y-152937
X83087Y-164113
X83087Y-175289
X83087Y-186465
X83087Y-197641
X83087Y-208817
X83087Y-219993
X88646Y-57912
X88646Y-69088
X88646Y-80264
X88646Y-91440
X88646Y-102616
X88646Y-113792
X88646Y-124968
X88646Y-136144
X88646Y-147320
X88646Y-158496
X88646Y-169672
X88646Y-180848
X88646Y-192024
X88646Y-203200
X88646Y-214376
X88646Y-225552
X88675Y-52353
X88675Y-63529
X88675Y-74705
X88675Y-85881
X88675Y-97057
X88675Y-108233
X88675Y-119409
X88675Y-130585
X88675Y-141761
X88675Y-152937
X88675Y-164113
X88675Y-175289
X88675Y-186465
X88675Y-197641
X88675Y-208817
X88675Y-219993
X94234Y-57912
X94234Y-69088
X94234Y-80264
X94234Y-91440
X94234Y-102616
X94234Y-113792
X94234Y-124968
X94234Y-136144
X94234Y-147320
X94234Y-158496
X94234Y-169672
X94234Y-180848
X94234Y-192024
X94234Y-203200
X94234Y-214376
X94234Y-225552
X94263Y-52353
X94263Y-63529
X94263Y-74705
X94263Y-85881
X94263Y-97057
X94263Y-108233
X94263Y-119409
X94263Y-130585
X94263Y-141761
X94263Y-152937
X94263Y-164113
X94263Y-175289
X94263Y-186465
X94263Y-197641
X94263Y-208817
X94263Y-219993
X99822Y-57912
X99822Y-69088
X99822Y-80264
X99822Y-91440
X99822Y-102616
X99822Y-113792
X99822Y-124968
X99822Y-136144
X99822Y-147320
X99822Y-158496
X99822Y-169672
X99822Y-180848
X99822Y-192024
X99822Y-203200
X99822Y-214376
X99822Y-225552
X99851Y-52353
X99851Y-63529
X99851Y-74705
X99851Y-85881
X99851Y-97057
X99851Y-108233
X99851Y-119409
X99851Y-130585
X99851Y-141761
X99851Y-152937
X99851Y-164113
X99851Y-175289
X99851Y-186465
X99851Y-197641
X99851Y-208817
X99851Y-219993
X105410Y-57912
X105410Y-69088
X105410Y-80264
X105410Y-91440
X105410Y-102616
X105410Y-113792
X105410Y-124968
X105410Y-136144
X105410Y-147320
X105410Y-158496
X105410Y-169672
X105410Y-180848
X105410Y-192024
X105410Y-203200
X105410Y-214376
X105410Y-225552
X105439Y-52353
X105439Y-63529
X105439Y-74705
X105439Y-85881
X105439Y-97057
X105439Y-108233
X105439Y-119409
X105439Y-130585
X105439Y-141761
X105439Y-152937
X105439Y-164113
X105439Y-175289
X105439Y-186465
X105439Y-197641
X105439Y-208817
X105439Y-219993
X110998Y-57912
X110998Y-69088
X110998Y-80264
X110998Y-91440
X110998Y-102616
X110998Y-113792
X110998Y-124968
X110998Y-136144
X110998Y-147320
X110998Y-158496
X110998Y-169672
X110998Y-180848
X110998Y-192024
X110998Y-203200
X110998Y-214376
X110998Y-225552
X111027Y-52353
X111027Y-63529
X111027Y-74705
X111027Y-85881
X111027Y-97057
X111027Y-108233
X111027Y-119409
X111027Y-130585
X111027Y-141761
X111027Y-152937
X111027Y-164113
X111027Y-175289
X111027Y-186465
X111027Y-197641
X111027Y-208817
X111027Y-219993
X116586Y-57912
X116586Y-69088
X116586Y-80264
X116586Y-91440
X116586Y-102616
X116586Y-113792
X116586Y-124968
X116586Y-136144
X116586Y-147320
X116586Y-158496
X116586Y-169672
X116586Y-180848
X116586Y-192024
X116586Y-203200
X116586Y-214376
X116586Y-225552
X116615Y-52353
X116615Y-63529
X116615Y-74705
X116615Y-85881
X116615Y-97057
X116615Y-108233
X116615Y-119409
X116615Y-130585
X116615Y-141761
X116615Y-152937
X116615Y-164113
X116615Y-175289
X116615Y-186465
X116615Y-197641
X116615Y-208817
X116615Y-219993
X122174Y-57912
X122174Y-69088
X122174Y-80264
X122174Y-91440
X122174Y-102616
X122174Y-113792
X122174Y-124968
X122174Y-136144
X122174Y-147320
X122174Y-158496
X122174Y-169672
X122174Y-180848
X122174Y-192024
X122174Y-203200
X122174Y-214376
X122174Y-225552
X122203Y-52353
X122203Y-63529
X122203Y-74705
X122203Y-85881
X122203Y-97057
X122203Y-108233
X122203Y-119409
X122203Y-130585
X122203Y-141761
X122203Y-152937
X122203Y-164113
X122203Y-175289
X122203Y-186465
X122203Y-197641
X122203Y-208817
X122203Y-219993
X127762Y-57912
X127762Y-69088
X127762Y-80264
X127762Y-91440
X127762Y-102616
X127762Y-113792
X127762Y-124968
X127762Y-136144
X127762Y-147320
X127762Y-158496
X127762Y-169672
X127762Y-180848
X127762Y-192024
X127762Y-203200
X127762Y-214376
X127762Y-225552
X127791Y-52353
X127791Y-63529
X127791Y-74705
X127791Y-85881
X127791Y-97057
X127791Y-108233
X127791Y-119409
X127791Y-130585
X127791Y-141761
X127791Y-152937
X127791Y-164113
X127791Y-175289
X127791Y-186465
X127791Y-197641
X127791Y-208817
X127791Y-219993
X133350Y-57912
X133350Y-69088
X133350Y-80264
X133350Y-91440
X133350Y-102616
X133350Y-113792
X133350Y-124968
X133350Y-136144
X133350Y-147320
X133350Y-158496
X133350Y-169672
X133350Y-180848
X133350Y-192024
X133350Y-203200
X133350Y-214376
X133350Y-225552
X133379Y-52353
X133379Y-63529
X133379Y-74705
X133379Y-85881
X133379Y-97057
X133379Y-108233
X133379Y-119409
X133379Y-130585
X133379Y-141761
X133379Y-152937
X133379Y-164113
X133379Y-175289
X133379Y-186465
X133379Y-197641
X133379Y-208817
X133379Y-219993
X138938Y-57912
X138938Y-69088
X138938Y-80264
X138938Y-91440
X138938Y-102616
X138938Y-113792
X138938Y-124968
X138938Y-136144
X138938Y-147320
X138938Y-158496
X138938Y-169672
X138938Y-180848
X138938Y-192024
X138938Y-203200
X138938Y-214376
X138938Y-225552
X138967Y-52353
X138967Y-63529
X138967Y-74705
X138967Y-85881
X138967Y-97057
X138967Y-108233
X138967Y-119409
X138967Y-130585
X138967Y-141761
X138967Y-152937
X138967Y-164113
X138967Y-175289
X138967Y-186465
X138967Y-197641
X138967Y-208817
X138967Y-219993
X144526Y-57912
X144526Y-69088
X144526Y-80264
X144526Y-91440
X144526Y-102616
X144526Y-113792
X144526Y-124968
X144526Y-136144
X144526Y-147320
X144526Y-158496
X144526Y-169672
X144526Y-180848
X144526Y-192024
X144526Y-203200
X144526Y-214376
X144526Y-225552
X144555Y-52353
X144555Y-63529
X144555Y-74705
X144555Y-85881
X144555Y-97057
X144555Y-108233
X144555Y-119409
X144555Y-130585
X144555Y-141761
X144555Y-152937
X144555Y-164113
X144555Y-175289
X144555Y-186465
X144555Y-197641
X144555Y-208817
X144555Y-219993
X150114Y-57912
X150114Y-69088
X150114Y-80264
X150114Y-91440
X150114Y-102616
X150114Y-113792
X150114Y-124968
X150114Y-136144
X150114Y-147320
X150114Y-158496
X150114Y-169672
X150114Y-180848
X150114Y-192024
X150114Y-203200
X150114Y-214376
X150114Y-225552
X150143Y-52353
X150143Y-63529
X150143Y-74705
X150143Y-85881
X150143Y-97057
X150143Y-108233
X150143Y-119409
X150143Y-130585
X150143Y-141761
X150143Y-152937
X150143Y-164113
X150143Y-175289
X150143Y-186465
X150143Y-197641
X150143Y-208817
X150143Y-219993
X155702Y-57912
X155702Y-69088
X155702Y-80264
X155702Y-91440
X155702Y-102616
X155702Y-113792
X155702Y-124968
X155702Y-136144
X155702Y-147320
X155702Y-158496
X155702Y-169672
X155702Y-180848
X155702Y-192024
X155702Y-203200
X155702Y-214376
X155702Y-225552
X155731Y-52353
X155731Y-63529
X155731Y-74705
X155731Y-85881
X155731Y-97057
X155731Y-108233
X155731Y-119409
X155731Y-130585
X155731Y-141761
X155731Y-152937
X155731Y-164113
X155731Y-175289
X155731Y-186465
X155731Y-197641
X155731Y-208817
X155731Y-219993
X161290Y-57912
X161290Y-69088
X161290Y-80264
X161290Y-91440
X161290Y-102616
X161290Y-113792
X161290Y-124968
X161290Y-136144
X161290Y-147320
X161290Y-158496
X161290Y-169672
X161290Y-180848
X161290Y-192024
X161290Y-203200
X161290Y-214376
X161290Y-225552
X161319Y-52353
X161319Y-63529
X161319Y-74705
X161319Y-85881
X161319Y-97057
X161319Y-108233
X161319Y-119409
X161319Y-130585
X161319Y-141761
X161319Y-152937
X161319Y-164113
X161319Y-175289
X161319Y-186465
X161319Y-197641
X161319Y-208817
X161319Y-219993
X166878Y-57912
X166878Y-69088
X166878Y-80264
X166878Y-91440
X166878Y-102616
X166878Y-113792
X166878Y-124968
X166878Y-136144
X166878Y-147320
X166878Y-158496
X166878Y-169672
X166878Y-180848
X166878Y-192024
X166878Y-203200
X166878Y-214376
X166878Y-225552
X166907Y-52353
X166907Y-63529
X166907Y-74705
X166907Y-85881
X166907Y-97057
X166907Y-108233
X166907Y-119409
X166907Y-130585
X166907Y-141761
X166907Y-152937
X166907Y-164113
X166907Y-175289
X166907Y-186465
X166907Y-197641
X166907Y-208817
X166907Y-219993
X172466Y-57912
X172466Y-69088
X172466Y-80264
X172466Y-91440
X172466Y-102616
X172466Y-113792
X172466Y-124968
X172466Y-136144
X172466Y-147320
X172466Y-158496
X172466Y-169672
X172466Y-180848
X172466Y-192024
X172466Y-203200
X172466Y-214376
X172466Y-225552
X172495Y-52353
X172495Y-63529
X172495Y-74705
X172495Y-85881
X172495Y-97057
X172495Y-108233
X172495Y-119409
X172495Y-130585
X172495Y-141761
X172495Y-152937
X172495Y-164113
X172495Y-175289
X172495Y-186465
X172495Y-197641
X172495Y-208817
X172495Y-219993
X178054Y-57912
X178054Y-69088
X178054Y-80264
X178054Y-91440
X178054Y-102616
X178054Y-113792
X178054Y-124968
X178054Y-136144
X178054Y-147320
X178054Y-158496
X178054Y-169672
X178054Y-180848
X178054Y-192024
X178054Y-203200
X178054Y-214376
X178054Y-225552
X178083Y-52353
X178083Y-63529
X178083Y-74705
X178083Y-85881
X178083Y-97057
X178083Y-108233
X178083Y-119409
X178083Y-130585
X178083Y-141761
X178083Y-152937
X178083Y-164113
X178083Y-175289
X178083Y-186465
X178083Y-197641
X178083Y-208817
X178083Y-219993
X182626Y-40640
X183642Y-57912
X183642Y-69088
X183642Y-80264
X183642Y-91440
X183642Y-102616
X183642Y-113792
X183642Y-124968
X183642Y-136144
X183642Y-147320
X183642Y-158496
X183642Y-169672
X183642Y-180848
X183642Y-192024
X183642Y-203200
X183642Y-214376
X183642Y-225552
X183671Y-52353
X183671Y-63529
X183671Y-74705
X183671Y-85881
X183671Y-97057
X183671Y-108233
X183671Y-119409
X183671Y-130585
X183671Y-141761
X183671Y-152937
X183671Y-164113
X183671Y-175289
X183671Y-186465
X183671Y-197641
X183671Y-208817
X183671Y-219993
X187706Y-41275
X189230Y-57912
X189230Y-69088
X189230Y-80264
X189230Y-91440
X189230Y-102616
X189230Y-113792
X189230Y-124968
X189230Y-136144
X189230Y-147320
X189230Y-158496
X189230Y-169672
X189230Y-180848
X189230Y-192024
X189230Y-203200
X189230Y-214376
X189230Y-225552
X189259Y-52353
X189259Y-63529
X189259Y-74705
X189259Y-85881
X189259Y-97057
X189259Y-108233
X189259Y-119409
X189259Y-130585
X189259Y-141761
X189259Y-152937
X189259Y-164113
X189259Y-175289
X189259Y-186465
X189259Y-197641
X189259Y-208817
X189259Y-219993
X192786Y-41910
X194818Y-57912
X194818Y-69088
X194818Y-80264
X194818Y-91440
X194818Y-102616
X194818Y-113792
X194818Y-124968
X194818Y-136144
X194818Y-147320
X194818Y-158496
X194818Y-169672
X194818Y-180848
X194818Y-192024
X194818Y-203200
X194818Y-214376
X194818Y-225552
X194847Y-52353
X194847Y-63529
X194847Y-74705
X194847Y-85881
X194847Y-97057
X194847Y-108233
X194847Y-119409
X194847Y-130585
X194847Y-141761
X194847Y-152937
X194847Y-164113
X194847Y-175289
X194847Y-186465
X194847Y-197641
X194847Y-208817
X194847Y-219993
X197866Y-42545
X200406Y-57912
X200406Y-69088
X200406Y-80264
X200406Y-91440
X200406Y-102616
X200406Y-113792
X200406Y-124968
X200406Y-136144
X200406Y-147320
X200406Y-158496
X200406Y-169672
X200406Y-180848
X200406Y-192024
X200406Y-203200
X200406Y-214376
X200406Y-225552
X200435Y-52353
X200435Y-63529
X200435Y-74705
X200435Y-85881
X200435Y-97057
X200435Y-108233
X200435Y-119409
X200435Y-130585
X200435Y-141761
X200435Y-152937
X200435Y-164113
X200435Y-175289
X200435Y-186465
X200435Y-197641
X200435Y-208817
X200435Y-219993
X202946Y-43180
X205994Y-57912
X205994Y-69088
X205994Y-80264
X205994Y-91440
X205994Y-102616
X205994Y-113792
X205994Y-124968
X205994Y-136144
X205994Y-147320
X205994Y-158496
X205994Y-169672
X205994Y-180848
X205994Y-192024
X205994Y-203200
X205994Y-214376
X205994Y-225552
X206023Y-52353
X206023Y-63529
X206023Y-74705
X206023Y-85881
X206023Y-97057
X206023Y-108233
X206023Y-119409
X206023Y-130585
X206023Y-141761
X206023Y-152937
X206023Y-164113
X206023Y-175289
X206023Y-186465
X206023Y-197641
X206023Y-208817
X206023Y-219993
X208026Y-43815
X211582Y-57912
X211582Y-69088
X211582Y-80264
X211582Y-91440
X211582Y-102616
X211582Y-113792
X211582Y-124968
X211582Y-136144
X211582Y-147320
X211582Y-158496
X211582Y-169672
X211582Y-180848
X211582Y-192024
X211582Y-203200
X211582Y-214376
X211582Y-225552
X211611Y-52353
X211611Y-63529
X211611Y-74705
X211611Y-85881
X211611Y-97057
X211611Y-108233
X211611Y-119409
X211611Y-130585
X211611Y-141761
X211611Y-152937
X211611Y-164113
X211611Y-175289
X211611Y-186465
X211611Y-197641
X211611Y-208817
X211611Y-219993
X213106Y-44450
X217170Y-57912
X217170Y-69088
X217170Y-80264
X217170Y-91440
X217170Y-102616
X217170Y-113792
X217170Y-124968
X217170Y-136144
X217170Y-147320
X217170Y-158496
X217170Y-169672
X217170Y-180848
X217170Y-192024
X217170Y-203200
X217170Y-214376
X217170Y-225552
X217199Y-52353
X217199Y-63529
X217199Y-74705
X217199Y-85881
X217199Y-97057
X217199Y-108233
X217199Y-119409
X217199Y-130585
X217199Y-141761
X217199Y-152937
X217199Y-164113
X217199Y-175289
X217199Y-186465
X217199Y-197641
X217199Y-208817
X217199Y-219993
X218186Y-45085
X222758Y-57912
X222758Y-69088
X222758Y-80264
X222758Y-91440
X222758Y-102616
X222758Y-113792
X222758Y-124968
X222758Y-136144
X222758Y-147320
X222758Y-158496
X222758Y-169672
X222758Y-180848
X222758Y-192024
X222758Y-203200
X222758Y-214376
X222758Y-225552
X222787Y-52353
X222787Y-63529
X222787Y-74705
X222787Y-85881
X222787Y-97057
X222787Y-108233
X222787Y-119409
X222787Y-130585
X222787Y-141761
X222787Y-152937
X222787Y-164113
X222787Y-175289
X222787Y-186465
X222787Y-197641
X222787Y-208817
X222787Y-219993
X223266Y-45720
X228346Y-46355
X228346Y-57912
X228346Y-69088
X228346Y-80264
X228346Y-91440
X228346Y-102616
X228346Y-113792
X228346Y-124968
X228346Y-136144
X228346Y-147320
X228346Y-158496
X228346Y-169672
X228346Y-180848
X228346Y-192024
X228346Y-203200
X228346Y-214376
X228346Y-225552
X228375Y-52353
X228375Y-63529
X228375Y-74705
X228375Y-85881
X228375Y-97057
X228375Y-108233
X228375Y-119409
X228375Y-130585
X228375Y-141761
X228375Y-152937
X228375Y-164113
X228375Y-175289
X228375Y-186465
X228375Y-197641
X228375Y-208817
X228375Y-219993
X233426Y-46990
X233934Y-57912
X233934Y-69088
X233934Y-80264
X233934Y-91440
X233934Y-102616
X233934Y-113792
X233934Y-124968
X233934Y-136144
X233934Y-147320
X233934Y-158496
X233934Y-169672
X233934Y-180848
X233934Y-192024
X233934Y-203200
X233934Y-214376
X233934Y-225552
X233963Y-52353
X233963Y-63529
X233963Y-74705
X233963Y-85881
X233963Y-97057
X233963Y-108233
X233963Y-119409
X233963Y-130585
X233963Y-141761
X233963Y-152937
X233963Y-164113
X233963Y-175289
X233963Y-186465
X233963Y-197641
X233963Y-208817
X233963Y-219993
X238506Y-47625
X239522Y-57912
X239522Y-69088
X239522Y-80264
X239522Y-91440
X239522Y-102616
X239522Y-113792
X239522Y-124968
X239522Y-136144
X239522Y-147320
X239522Y-158496
X239522Y-169672
X239522Y-180848
X239522Y-192024
X239522Y-203200
X239522Y-214376
X239522Y-225552
X239551Y-52353
X239551Y-63529
X239551Y-74705
X239551Y-85881
X239551Y-97057
X239551Y-108233
X239551Y-119409
X239551Y-130585
X239551Y-141761
X239551Y-152937
X239551Y-164113
X239551Y-175289
X239551Y-186465
X239551Y-197641
X239551Y-208817
X239551Y-219993
X243586Y-48260
X245110Y-57912
X245110Y-69088
X245110Y-80264
X245110Y-91440
X245110Y-102616
X245110Y-113792
X245110Y-124968
X245110Y-136144
X245110Y-147320
X245110Y-158496
X245110Y-169672
X245110Y-180848
X245110Y-192024
X245110Y-203200
X245110Y-214376
X245110Y-225552
X245139Y-52353
X245139Y-63529
X245139Y-74705
X245139Y-85881
X245139Y-97057
X245139Y-108233
X245139Y-119409
X245139Y-130585
X245139Y-141761
X245139Y-152937
X245139Y-164113
X245139Y-175289
X245139Y-186465
X245139Y-197641
X245139Y-208817
X245139Y-219993
X248666Y-48895
X250698Y-57912
X250698Y-69088
X250698Y-80264
X250698Y-91440
X250698Y-102616
X250698Y-113792
X250698Y-124968
X250698Y-136144
X250698Y-147320
X250698Y-158496
X250698Y-169672
X250698Y-180848
X250698Y-192024
X250698Y-203200
X250698Y-214376
X250698Y-225552
X250727Y-52353
X250727Y-63529
X250727Y-74705
X250727Y-85881
X250727Y-97057
X250727Y-108233
X250727Y-119409
X250727Y-130585
X250727Y-141761
X250727Y-152937
X250727Y-164113
X250727Y-175289
X250727Y-186465
X250727Y-197641
X250727Y-208817
X250727Y-219993
X256286Y-57912
X256286Y-69088
X256286Y-80264
X256286Y-91440
X256286Y-102616
X256286Y-113792
X256286Y-124968
X256286Y-136144
X256286Y-147320
X256286Y-158496
X256286Y-169672
X256286Y-180848
X256286Y-192024
X256286Y-203200
X256286Y-214376
X256286Y-225552
X256315Y-52353
X256315Y-63529
X256315Y-74705
X256315Y-85881
X256315Y-97057
X256315Y-108233
X256315Y-119409
X256315Y-130585
X256315Y-141761
X256315Y-152937
X256315Y-164113
X256315Y-175289
X256315Y-186465
X256315Y-197641
X256315Y-208817
X256315Y-219993
X260096Y-72898
X260223Y-83947
X260223Y-95123
X260223Y-106299
X260223Y-117475
X260223Y-128651
X260223Y-139827
X260223Y-151003
X260223Y-162179
X260223Y-173355
X260223Y-184531
X260223Y-195707
X260223Y-206883
X260223Y-218059
T2
X177600Y-37650
X180140Y-37650
X182680Y-37650
X185220Y-37650
X187760Y-37650
X190300Y-37650
X192840Y-37650
X195380Y-37650
X197920Y-37650
X200460Y-37650
X203000Y-37650
X205540Y-37650
X208080Y-37650
X210620Y-37650
X213160Y-37650
X215700Y-37650
X218240Y-37650
X220780Y-37650
X223320Y-37650
X225860Y-37650
X228400Y-37650
X230940Y-37650
X233480Y-37650
X236020Y-37650
X238560Y-37650
X241100Y-37650
X243640Y-37650
X246180Y-37650
X248720Y-37650
X251260Y-37650
X253800Y-37650
X256340Y-37650
X272300Y-53600
X272300Y-56140
X272300Y-58680
X272300Y-61220
X272300Y-63760
X272300Y-66300
X272300Y-68840
X272300Y-71380
X272300Y-73920
X272300Y-76460
X272300Y-79000
X272300Y-81540
X272300Y-84080
X272300Y-86620
X272300Y-89160
X272300Y-91700
X272300Y-94240
X272300Y-96780
X272300Y-99320
X272300Y-101860
X272300Y-104400
X272300Y-106940
X272300Y-109480
X272300Y-112020
X272300Y-114560
X272300Y-117100
X272300Y-119640
X272300Y-122180
X272300Y-124720
X272300Y-127260
X272300Y-129800
X272300Y-132340
T3
X80500Y-40500
X80500Y-229500
X269500Y-40500
X269500Y-229500
T0
M30
