G04 #@! TF.FileFunction,Soldermask,Top*
%FSLAX46Y46*%
G04 Gerber Fmt 4.6, Leading zero omitted, Abs format (unit mm)*
G04 Created by KiCad (PCBNEW 4.0.2+dfsg1-stable) date dim. 24 sept. 2017 13:03:32 CEST*
%MOMM*%
G01*
G04 APERTURE LIST*
%ADD10C,0.100000*%
%ADD11R,1.198880X1.198880*%
%ADD12R,2.032000X1.727200*%
%ADD13O,2.032000X1.727200*%
%ADD14R,1.727200X2.032000*%
%ADD15O,1.727200X2.032000*%
%ADD16C,4.064000*%
G04 APERTURE END LIST*
D10*
D11*
X259831020Y-225581000D03*
X257732980Y-225581000D03*
X254243020Y-225581000D03*
X252144980Y-225581000D03*
X248655020Y-225581000D03*
X246556980Y-225581000D03*
X243067020Y-225581000D03*
X240968980Y-225581000D03*
X237479020Y-225581000D03*
X235380980Y-225581000D03*
X231891020Y-225581000D03*
X229792980Y-225581000D03*
X226303020Y-225581000D03*
X224204980Y-225581000D03*
X220715020Y-225581000D03*
X218616980Y-225581000D03*
X215127020Y-225581000D03*
X213028980Y-225581000D03*
X209539020Y-225581000D03*
X207440980Y-225581000D03*
X203951020Y-225581000D03*
X201852980Y-225581000D03*
X198363020Y-225581000D03*
X196264980Y-225581000D03*
X192775020Y-225581000D03*
X190676980Y-225581000D03*
X187187020Y-225581000D03*
X185088980Y-225581000D03*
X181599020Y-225581000D03*
X179500980Y-225581000D03*
X176011020Y-225581000D03*
X173912980Y-225581000D03*
X170423020Y-225581000D03*
X168324980Y-225581000D03*
X164835020Y-225581000D03*
X162736980Y-225581000D03*
X159247020Y-225581000D03*
X157148980Y-225581000D03*
X153659020Y-225581000D03*
X151560980Y-225581000D03*
X148071020Y-225581000D03*
X145972980Y-225581000D03*
X142483020Y-225581000D03*
X140384980Y-225581000D03*
X136895020Y-225581000D03*
X134796980Y-225581000D03*
X131307020Y-225581000D03*
X129208980Y-225581000D03*
X125719020Y-225581000D03*
X123620980Y-225581000D03*
X120131020Y-225581000D03*
X118032980Y-225581000D03*
X114543020Y-225581000D03*
X112444980Y-225581000D03*
X108955020Y-225581000D03*
X106856980Y-225581000D03*
X103367020Y-225581000D03*
X101268980Y-225581000D03*
X97779020Y-225581000D03*
X95680980Y-225581000D03*
X92191020Y-225581000D03*
X90092980Y-225581000D03*
X86603020Y-225581000D03*
X84504980Y-225581000D03*
X259831020Y-219993000D03*
X257732980Y-219993000D03*
X254243020Y-219993000D03*
X252144980Y-219993000D03*
X248655020Y-219993000D03*
X246556980Y-219993000D03*
X243067020Y-219993000D03*
X240968980Y-219993000D03*
X237479020Y-219993000D03*
X235380980Y-219993000D03*
X231891020Y-219993000D03*
X229792980Y-219993000D03*
X226303020Y-219993000D03*
X224204980Y-219993000D03*
X220715020Y-219993000D03*
X218616980Y-219993000D03*
X215127020Y-219993000D03*
X213028980Y-219993000D03*
X209539020Y-219993000D03*
X207440980Y-219993000D03*
X203951020Y-219993000D03*
X201852980Y-219993000D03*
X198363020Y-219993000D03*
X196264980Y-219993000D03*
X192775020Y-219993000D03*
X190676980Y-219993000D03*
X187187020Y-219993000D03*
X185088980Y-219993000D03*
X181599020Y-219993000D03*
X179500980Y-219993000D03*
X176011020Y-219993000D03*
X173912980Y-219993000D03*
X170423020Y-219993000D03*
X168324980Y-219993000D03*
X164835020Y-219993000D03*
X162736980Y-219993000D03*
X159247020Y-219993000D03*
X157148980Y-219993000D03*
X153659020Y-219993000D03*
X151560980Y-219993000D03*
X148071020Y-219993000D03*
X145972980Y-219993000D03*
X142483020Y-219993000D03*
X140384980Y-219993000D03*
X136895020Y-219993000D03*
X134796980Y-219993000D03*
X131307020Y-219993000D03*
X129208980Y-219993000D03*
X125719020Y-219993000D03*
X123620980Y-219993000D03*
X120131020Y-219993000D03*
X118032980Y-219993000D03*
X114543020Y-219993000D03*
X112444980Y-219993000D03*
X108955020Y-219993000D03*
X106856980Y-219993000D03*
X103367020Y-219993000D03*
X101268980Y-219993000D03*
X97779020Y-219993000D03*
X95680980Y-219993000D03*
X92191020Y-219993000D03*
X90092980Y-219993000D03*
X86603020Y-219993000D03*
X84504980Y-219993000D03*
X259831020Y-214405000D03*
X257732980Y-214405000D03*
X254243020Y-214405000D03*
X252144980Y-214405000D03*
X248655020Y-214405000D03*
X246556980Y-214405000D03*
X243067020Y-214405000D03*
X240968980Y-214405000D03*
X237479020Y-214405000D03*
X235380980Y-214405000D03*
X231891020Y-214405000D03*
X229792980Y-214405000D03*
X226303020Y-214405000D03*
X224204980Y-214405000D03*
X220715020Y-214405000D03*
X218616980Y-214405000D03*
X215127020Y-214405000D03*
X213028980Y-214405000D03*
X209539020Y-214405000D03*
X207440980Y-214405000D03*
X203951020Y-214405000D03*
X201852980Y-214405000D03*
X198363020Y-214405000D03*
X196264980Y-214405000D03*
X192775020Y-214405000D03*
X190676980Y-214405000D03*
X187187020Y-214405000D03*
X185088980Y-214405000D03*
X181599020Y-214405000D03*
X179500980Y-214405000D03*
X176011020Y-214405000D03*
X173912980Y-214405000D03*
X170423020Y-214405000D03*
X168324980Y-214405000D03*
X164835020Y-214405000D03*
X162736980Y-214405000D03*
X159247020Y-214405000D03*
X157148980Y-214405000D03*
X153659020Y-214405000D03*
X151560980Y-214405000D03*
X148071020Y-214405000D03*
X145972980Y-214405000D03*
X142483020Y-214405000D03*
X140384980Y-214405000D03*
X136895020Y-214405000D03*
X134796980Y-214405000D03*
X131307020Y-214405000D03*
X129208980Y-214405000D03*
X125719020Y-214405000D03*
X123620980Y-214405000D03*
X120131020Y-214405000D03*
X118032980Y-214405000D03*
X114543020Y-214405000D03*
X112444980Y-214405000D03*
X108955020Y-214405000D03*
X106856980Y-214405000D03*
X103367020Y-214405000D03*
X101268980Y-214405000D03*
X97779020Y-214405000D03*
X95680980Y-214405000D03*
X92191020Y-214405000D03*
X90092980Y-214405000D03*
X86603020Y-214405000D03*
X84504980Y-214405000D03*
X259831020Y-208817000D03*
X257732980Y-208817000D03*
X254243020Y-208817000D03*
X252144980Y-208817000D03*
X248655020Y-208817000D03*
X246556980Y-208817000D03*
X243067020Y-208817000D03*
X240968980Y-208817000D03*
X237479020Y-208817000D03*
X235380980Y-208817000D03*
X231891020Y-208817000D03*
X229792980Y-208817000D03*
X226303020Y-208817000D03*
X224204980Y-208817000D03*
X220715020Y-208817000D03*
X218616980Y-208817000D03*
X215127020Y-208817000D03*
X213028980Y-208817000D03*
X209539020Y-208817000D03*
X207440980Y-208817000D03*
X203951020Y-208817000D03*
X201852980Y-208817000D03*
X198363020Y-208817000D03*
X196264980Y-208817000D03*
X192775020Y-208817000D03*
X190676980Y-208817000D03*
X187187020Y-208817000D03*
X185088980Y-208817000D03*
X181599020Y-208817000D03*
X179500980Y-208817000D03*
X176011020Y-208817000D03*
X173912980Y-208817000D03*
X170423020Y-208817000D03*
X168324980Y-208817000D03*
X164835020Y-208817000D03*
X162736980Y-208817000D03*
X159247020Y-208817000D03*
X157148980Y-208817000D03*
X153659020Y-208817000D03*
X151560980Y-208817000D03*
X148071020Y-208817000D03*
X145972980Y-208817000D03*
X142483020Y-208817000D03*
X140384980Y-208817000D03*
X136895020Y-208817000D03*
X134796980Y-208817000D03*
X131307020Y-208817000D03*
X129208980Y-208817000D03*
X125719020Y-208817000D03*
X123620980Y-208817000D03*
X120131020Y-208817000D03*
X118032980Y-208817000D03*
X114543020Y-208817000D03*
X112444980Y-208817000D03*
X108955020Y-208817000D03*
X106856980Y-208817000D03*
X103367020Y-208817000D03*
X101268980Y-208817000D03*
X97779020Y-208817000D03*
X95680980Y-208817000D03*
X92191020Y-208817000D03*
X90092980Y-208817000D03*
X86603020Y-208817000D03*
X84504980Y-208817000D03*
X259831020Y-203229000D03*
X257732980Y-203229000D03*
X254243020Y-203229000D03*
X252144980Y-203229000D03*
X248655020Y-203229000D03*
X246556980Y-203229000D03*
X243067020Y-203229000D03*
X240968980Y-203229000D03*
X237479020Y-203229000D03*
X235380980Y-203229000D03*
X231891020Y-203229000D03*
X229792980Y-203229000D03*
X226303020Y-203229000D03*
X224204980Y-203229000D03*
X220715020Y-203229000D03*
X218616980Y-203229000D03*
X215127020Y-203229000D03*
X213028980Y-203229000D03*
X209539020Y-203229000D03*
X207440980Y-203229000D03*
X203951020Y-203229000D03*
X201852980Y-203229000D03*
X198363020Y-203229000D03*
X196264980Y-203229000D03*
X192775020Y-203229000D03*
X190676980Y-203229000D03*
X187187020Y-203229000D03*
X185088980Y-203229000D03*
X181599020Y-203229000D03*
X179500980Y-203229000D03*
X176011020Y-203229000D03*
X173912980Y-203229000D03*
X170423020Y-203229000D03*
X168324980Y-203229000D03*
X164835020Y-203229000D03*
X162736980Y-203229000D03*
X159247020Y-203229000D03*
X157148980Y-203229000D03*
X153659020Y-203229000D03*
X151560980Y-203229000D03*
X148071020Y-203229000D03*
X145972980Y-203229000D03*
X142483020Y-203229000D03*
X140384980Y-203229000D03*
X136895020Y-203229000D03*
X134796980Y-203229000D03*
X131307020Y-203229000D03*
X129208980Y-203229000D03*
X125719020Y-203229000D03*
X123620980Y-203229000D03*
X120131020Y-203229000D03*
X118032980Y-203229000D03*
X114543020Y-203229000D03*
X112444980Y-203229000D03*
X108955020Y-203229000D03*
X106856980Y-203229000D03*
X103367020Y-203229000D03*
X101268980Y-203229000D03*
X97779020Y-203229000D03*
X95680980Y-203229000D03*
X92191020Y-203229000D03*
X90092980Y-203229000D03*
X86603020Y-203229000D03*
X84504980Y-203229000D03*
X259831020Y-197641000D03*
X257732980Y-197641000D03*
X254243020Y-197641000D03*
X252144980Y-197641000D03*
X248655020Y-197641000D03*
X246556980Y-197641000D03*
X243067020Y-197641000D03*
X240968980Y-197641000D03*
X237479020Y-197641000D03*
X235380980Y-197641000D03*
X231891020Y-197641000D03*
X229792980Y-197641000D03*
X226303020Y-197641000D03*
X224204980Y-197641000D03*
X220715020Y-197641000D03*
X218616980Y-197641000D03*
X215127020Y-197641000D03*
X213028980Y-197641000D03*
X209539020Y-197641000D03*
X207440980Y-197641000D03*
X203951020Y-197641000D03*
X201852980Y-197641000D03*
X198363020Y-197641000D03*
X196264980Y-197641000D03*
X192775020Y-197641000D03*
X190676980Y-197641000D03*
X187187020Y-197641000D03*
X185088980Y-197641000D03*
X181599020Y-197641000D03*
X179500980Y-197641000D03*
X176011020Y-197641000D03*
X173912980Y-197641000D03*
X170423020Y-197641000D03*
X168324980Y-197641000D03*
X164835020Y-197641000D03*
X162736980Y-197641000D03*
X159247020Y-197641000D03*
X157148980Y-197641000D03*
X153659020Y-197641000D03*
X151560980Y-197641000D03*
X148071020Y-197641000D03*
X145972980Y-197641000D03*
X142483020Y-197641000D03*
X140384980Y-197641000D03*
X136895020Y-197641000D03*
X134796980Y-197641000D03*
X131307020Y-197641000D03*
X129208980Y-197641000D03*
X125719020Y-197641000D03*
X123620980Y-197641000D03*
X120131020Y-197641000D03*
X118032980Y-197641000D03*
X114543020Y-197641000D03*
X112444980Y-197641000D03*
X108955020Y-197641000D03*
X106856980Y-197641000D03*
X103367020Y-197641000D03*
X101268980Y-197641000D03*
X97779020Y-197641000D03*
X95680980Y-197641000D03*
X92191020Y-197641000D03*
X90092980Y-197641000D03*
X86603020Y-197641000D03*
X84504980Y-197641000D03*
X259831020Y-192053000D03*
X257732980Y-192053000D03*
X254243020Y-192053000D03*
X252144980Y-192053000D03*
X248655020Y-192053000D03*
X246556980Y-192053000D03*
X243067020Y-192053000D03*
X240968980Y-192053000D03*
X237479020Y-192053000D03*
X235380980Y-192053000D03*
X231891020Y-192053000D03*
X229792980Y-192053000D03*
X226303020Y-192053000D03*
X224204980Y-192053000D03*
X220715020Y-192053000D03*
X218616980Y-192053000D03*
X215127020Y-192053000D03*
X213028980Y-192053000D03*
X209539020Y-192053000D03*
X207440980Y-192053000D03*
X203951020Y-192053000D03*
X201852980Y-192053000D03*
X198363020Y-192053000D03*
X196264980Y-192053000D03*
X192775020Y-192053000D03*
X190676980Y-192053000D03*
X187187020Y-192053000D03*
X185088980Y-192053000D03*
X181599020Y-192053000D03*
X179500980Y-192053000D03*
X176011020Y-192053000D03*
X173912980Y-192053000D03*
X170423020Y-192053000D03*
X168324980Y-192053000D03*
X164835020Y-192053000D03*
X162736980Y-192053000D03*
X159247020Y-192053000D03*
X157148980Y-192053000D03*
X153659020Y-192053000D03*
X151560980Y-192053000D03*
X148071020Y-192053000D03*
X145972980Y-192053000D03*
X142483020Y-192053000D03*
X140384980Y-192053000D03*
X136895020Y-192053000D03*
X134796980Y-192053000D03*
X131307020Y-192053000D03*
X129208980Y-192053000D03*
X125719020Y-192053000D03*
X123620980Y-192053000D03*
X120131020Y-192053000D03*
X118032980Y-192053000D03*
X114543020Y-192053000D03*
X112444980Y-192053000D03*
X108955020Y-192053000D03*
X106856980Y-192053000D03*
X103367020Y-192053000D03*
X101268980Y-192053000D03*
X97779020Y-192053000D03*
X95680980Y-192053000D03*
X92191020Y-192053000D03*
X90092980Y-192053000D03*
X86603020Y-192053000D03*
X84504980Y-192053000D03*
X259831020Y-186465000D03*
X257732980Y-186465000D03*
X254243020Y-186465000D03*
X252144980Y-186465000D03*
X248655020Y-186465000D03*
X246556980Y-186465000D03*
X243067020Y-186465000D03*
X240968980Y-186465000D03*
X237479020Y-186465000D03*
X235380980Y-186465000D03*
X231891020Y-186465000D03*
X229792980Y-186465000D03*
X226303020Y-186465000D03*
X224204980Y-186465000D03*
X220715020Y-186465000D03*
X218616980Y-186465000D03*
X215127020Y-186465000D03*
X213028980Y-186465000D03*
X209539020Y-186465000D03*
X207440980Y-186465000D03*
X203951020Y-186465000D03*
X201852980Y-186465000D03*
X198363020Y-186465000D03*
X196264980Y-186465000D03*
X192775020Y-186465000D03*
X190676980Y-186465000D03*
X187187020Y-186465000D03*
X185088980Y-186465000D03*
X181599020Y-186465000D03*
X179500980Y-186465000D03*
X176011020Y-186465000D03*
X173912980Y-186465000D03*
X170423020Y-186465000D03*
X168324980Y-186465000D03*
X164835020Y-186465000D03*
X162736980Y-186465000D03*
X159247020Y-186465000D03*
X157148980Y-186465000D03*
X153659020Y-186465000D03*
X151560980Y-186465000D03*
X148071020Y-186465000D03*
X145972980Y-186465000D03*
X142483020Y-186465000D03*
X140384980Y-186465000D03*
X136895020Y-186465000D03*
X134796980Y-186465000D03*
X131307020Y-186465000D03*
X129208980Y-186465000D03*
X125719020Y-186465000D03*
X123620980Y-186465000D03*
X120131020Y-186465000D03*
X118032980Y-186465000D03*
X114543020Y-186465000D03*
X112444980Y-186465000D03*
X108955020Y-186465000D03*
X106856980Y-186465000D03*
X103367020Y-186465000D03*
X101268980Y-186465000D03*
X97779020Y-186465000D03*
X95680980Y-186465000D03*
X92191020Y-186465000D03*
X90092980Y-186465000D03*
X86603020Y-186465000D03*
X84504980Y-186465000D03*
X259831020Y-180877000D03*
X257732980Y-180877000D03*
X254243020Y-180877000D03*
X252144980Y-180877000D03*
X248655020Y-180877000D03*
X246556980Y-180877000D03*
X243067020Y-180877000D03*
X240968980Y-180877000D03*
X237479020Y-180877000D03*
X235380980Y-180877000D03*
X231891020Y-180877000D03*
X229792980Y-180877000D03*
X226303020Y-180877000D03*
X224204980Y-180877000D03*
X220715020Y-180877000D03*
X218616980Y-180877000D03*
X215127020Y-180877000D03*
X213028980Y-180877000D03*
X209539020Y-180877000D03*
X207440980Y-180877000D03*
X203951020Y-180877000D03*
X201852980Y-180877000D03*
X198363020Y-180877000D03*
X196264980Y-180877000D03*
X192775020Y-180877000D03*
X190676980Y-180877000D03*
X187187020Y-180877000D03*
X185088980Y-180877000D03*
X181599020Y-180877000D03*
X179500980Y-180877000D03*
X176011020Y-180877000D03*
X173912980Y-180877000D03*
X170423020Y-180877000D03*
X168324980Y-180877000D03*
X164835020Y-180877000D03*
X162736980Y-180877000D03*
X159247020Y-180877000D03*
X157148980Y-180877000D03*
X153659020Y-180877000D03*
X151560980Y-180877000D03*
X148071020Y-180877000D03*
X145972980Y-180877000D03*
X142483020Y-180877000D03*
X140384980Y-180877000D03*
X136895020Y-180877000D03*
X134796980Y-180877000D03*
X131307020Y-180877000D03*
X129208980Y-180877000D03*
X125719020Y-180877000D03*
X123620980Y-180877000D03*
X120131020Y-180877000D03*
X118032980Y-180877000D03*
X114543020Y-180877000D03*
X112444980Y-180877000D03*
X108955020Y-180877000D03*
X106856980Y-180877000D03*
X103367020Y-180877000D03*
X101268980Y-180877000D03*
X97779020Y-180877000D03*
X95680980Y-180877000D03*
X92191020Y-180877000D03*
X90092980Y-180877000D03*
X86603020Y-180877000D03*
X84504980Y-180877000D03*
X259831020Y-175289000D03*
X257732980Y-175289000D03*
X254243020Y-175289000D03*
X252144980Y-175289000D03*
X248655020Y-175289000D03*
X246556980Y-175289000D03*
X243067020Y-175289000D03*
X240968980Y-175289000D03*
X237479020Y-175289000D03*
X235380980Y-175289000D03*
X231891020Y-175289000D03*
X229792980Y-175289000D03*
X226303020Y-175289000D03*
X224204980Y-175289000D03*
X220715020Y-175289000D03*
X218616980Y-175289000D03*
X215127020Y-175289000D03*
X213028980Y-175289000D03*
X209539020Y-175289000D03*
X207440980Y-175289000D03*
X203951020Y-175289000D03*
X201852980Y-175289000D03*
X198363020Y-175289000D03*
X196264980Y-175289000D03*
X192775020Y-175289000D03*
X190676980Y-175289000D03*
X187187020Y-175289000D03*
X185088980Y-175289000D03*
X181599020Y-175289000D03*
X179500980Y-175289000D03*
X176011020Y-175289000D03*
X173912980Y-175289000D03*
X170423020Y-175289000D03*
X168324980Y-175289000D03*
X164835020Y-175289000D03*
X162736980Y-175289000D03*
X159247020Y-175289000D03*
X157148980Y-175289000D03*
X153659020Y-175289000D03*
X151560980Y-175289000D03*
X148071020Y-175289000D03*
X145972980Y-175289000D03*
X142483020Y-175289000D03*
X140384980Y-175289000D03*
X136895020Y-175289000D03*
X134796980Y-175289000D03*
X131307020Y-175289000D03*
X129208980Y-175289000D03*
X125719020Y-175289000D03*
X123620980Y-175289000D03*
X120131020Y-175289000D03*
X118032980Y-175289000D03*
X114543020Y-175289000D03*
X112444980Y-175289000D03*
X108955020Y-175289000D03*
X106856980Y-175289000D03*
X103367020Y-175289000D03*
X101268980Y-175289000D03*
X97779020Y-175289000D03*
X95680980Y-175289000D03*
X92191020Y-175289000D03*
X90092980Y-175289000D03*
X86603020Y-175289000D03*
X84504980Y-175289000D03*
X259831020Y-169701000D03*
X257732980Y-169701000D03*
X254243020Y-169701000D03*
X252144980Y-169701000D03*
X248655020Y-169701000D03*
X246556980Y-169701000D03*
X243067020Y-169701000D03*
X240968980Y-169701000D03*
X237479020Y-169701000D03*
X235380980Y-169701000D03*
X231891020Y-169701000D03*
X229792980Y-169701000D03*
X226303020Y-169701000D03*
X224204980Y-169701000D03*
X220715020Y-169701000D03*
X218616980Y-169701000D03*
X215127020Y-169701000D03*
X213028980Y-169701000D03*
X209539020Y-169701000D03*
X207440980Y-169701000D03*
X203951020Y-169701000D03*
X201852980Y-169701000D03*
X198363020Y-169701000D03*
X196264980Y-169701000D03*
X192775020Y-169701000D03*
X190676980Y-169701000D03*
X187187020Y-169701000D03*
X185088980Y-169701000D03*
X181599020Y-169701000D03*
X179500980Y-169701000D03*
X176011020Y-169701000D03*
X173912980Y-169701000D03*
X170423020Y-169701000D03*
X168324980Y-169701000D03*
X164835020Y-169701000D03*
X162736980Y-169701000D03*
X159247020Y-169701000D03*
X157148980Y-169701000D03*
X153659020Y-169701000D03*
X151560980Y-169701000D03*
X148071020Y-169701000D03*
X145972980Y-169701000D03*
X142483020Y-169701000D03*
X140384980Y-169701000D03*
X136895020Y-169701000D03*
X134796980Y-169701000D03*
X131307020Y-169701000D03*
X129208980Y-169701000D03*
X125719020Y-169701000D03*
X123620980Y-169701000D03*
X120131020Y-169701000D03*
X118032980Y-169701000D03*
X114543020Y-169701000D03*
X112444980Y-169701000D03*
X108955020Y-169701000D03*
X106856980Y-169701000D03*
X103367020Y-169701000D03*
X101268980Y-169701000D03*
X97779020Y-169701000D03*
X95680980Y-169701000D03*
X92191020Y-169701000D03*
X90092980Y-169701000D03*
X86603020Y-169701000D03*
X84504980Y-169701000D03*
X259831020Y-164113000D03*
X257732980Y-164113000D03*
X254243020Y-164113000D03*
X252144980Y-164113000D03*
X248655020Y-164113000D03*
X246556980Y-164113000D03*
X243067020Y-164113000D03*
X240968980Y-164113000D03*
X237479020Y-164113000D03*
X235380980Y-164113000D03*
X231891020Y-164113000D03*
X229792980Y-164113000D03*
X226303020Y-164113000D03*
X224204980Y-164113000D03*
X220715020Y-164113000D03*
X218616980Y-164113000D03*
X215127020Y-164113000D03*
X213028980Y-164113000D03*
X209539020Y-164113000D03*
X207440980Y-164113000D03*
X203951020Y-164113000D03*
X201852980Y-164113000D03*
X198363020Y-164113000D03*
X196264980Y-164113000D03*
X192775020Y-164113000D03*
X190676980Y-164113000D03*
X187187020Y-164113000D03*
X185088980Y-164113000D03*
X181599020Y-164113000D03*
X179500980Y-164113000D03*
X176011020Y-164113000D03*
X173912980Y-164113000D03*
X170423020Y-164113000D03*
X168324980Y-164113000D03*
X164835020Y-164113000D03*
X162736980Y-164113000D03*
X159247020Y-164113000D03*
X157148980Y-164113000D03*
X153659020Y-164113000D03*
X151560980Y-164113000D03*
X148071020Y-164113000D03*
X145972980Y-164113000D03*
X142483020Y-164113000D03*
X140384980Y-164113000D03*
X136895020Y-164113000D03*
X134796980Y-164113000D03*
X131307020Y-164113000D03*
X129208980Y-164113000D03*
X125719020Y-164113000D03*
X123620980Y-164113000D03*
X120131020Y-164113000D03*
X118032980Y-164113000D03*
X114543020Y-164113000D03*
X112444980Y-164113000D03*
X108955020Y-164113000D03*
X106856980Y-164113000D03*
X103367020Y-164113000D03*
X101268980Y-164113000D03*
X97779020Y-164113000D03*
X95680980Y-164113000D03*
X92191020Y-164113000D03*
X90092980Y-164113000D03*
X86603020Y-164113000D03*
X84504980Y-164113000D03*
X259831020Y-158525000D03*
X257732980Y-158525000D03*
X254243020Y-158525000D03*
X252144980Y-158525000D03*
X248655020Y-158525000D03*
X246556980Y-158525000D03*
X243067020Y-158525000D03*
X240968980Y-158525000D03*
X237479020Y-158525000D03*
X235380980Y-158525000D03*
X231891020Y-158525000D03*
X229792980Y-158525000D03*
X226303020Y-158525000D03*
X224204980Y-158525000D03*
X220715020Y-158525000D03*
X218616980Y-158525000D03*
X215127020Y-158525000D03*
X213028980Y-158525000D03*
X209539020Y-158525000D03*
X207440980Y-158525000D03*
X203951020Y-158525000D03*
X201852980Y-158525000D03*
X198363020Y-158525000D03*
X196264980Y-158525000D03*
X192775020Y-158525000D03*
X190676980Y-158525000D03*
X187187020Y-158525000D03*
X185088980Y-158525000D03*
X181599020Y-158525000D03*
X179500980Y-158525000D03*
X176011020Y-158525000D03*
X173912980Y-158525000D03*
X170423020Y-158525000D03*
X168324980Y-158525000D03*
X164835020Y-158525000D03*
X162736980Y-158525000D03*
X159247020Y-158525000D03*
X157148980Y-158525000D03*
X153659020Y-158525000D03*
X151560980Y-158525000D03*
X148071020Y-158525000D03*
X145972980Y-158525000D03*
X142483020Y-158525000D03*
X140384980Y-158525000D03*
X136895020Y-158525000D03*
X134796980Y-158525000D03*
X131307020Y-158525000D03*
X129208980Y-158525000D03*
X125719020Y-158525000D03*
X123620980Y-158525000D03*
X120131020Y-158525000D03*
X118032980Y-158525000D03*
X114543020Y-158525000D03*
X112444980Y-158525000D03*
X108955020Y-158525000D03*
X106856980Y-158525000D03*
X103367020Y-158525000D03*
X101268980Y-158525000D03*
X97779020Y-158525000D03*
X95680980Y-158525000D03*
X92191020Y-158525000D03*
X90092980Y-158525000D03*
X86603020Y-158525000D03*
X84504980Y-158525000D03*
X259831020Y-152937000D03*
X257732980Y-152937000D03*
X254243020Y-152937000D03*
X252144980Y-152937000D03*
X248655020Y-152937000D03*
X246556980Y-152937000D03*
X243067020Y-152937000D03*
X240968980Y-152937000D03*
X237479020Y-152937000D03*
X235380980Y-152937000D03*
X231891020Y-152937000D03*
X229792980Y-152937000D03*
X226303020Y-152937000D03*
X224204980Y-152937000D03*
X220715020Y-152937000D03*
X218616980Y-152937000D03*
X215127020Y-152937000D03*
X213028980Y-152937000D03*
X209539020Y-152937000D03*
X207440980Y-152937000D03*
X203951020Y-152937000D03*
X201852980Y-152937000D03*
X198363020Y-152937000D03*
X196264980Y-152937000D03*
X192775020Y-152937000D03*
X190676980Y-152937000D03*
X187187020Y-152937000D03*
X185088980Y-152937000D03*
X181599020Y-152937000D03*
X179500980Y-152937000D03*
X176011020Y-152937000D03*
X173912980Y-152937000D03*
X170423020Y-152937000D03*
X168324980Y-152937000D03*
X164835020Y-152937000D03*
X162736980Y-152937000D03*
X159247020Y-152937000D03*
X157148980Y-152937000D03*
X153659020Y-152937000D03*
X151560980Y-152937000D03*
X148071020Y-152937000D03*
X145972980Y-152937000D03*
X142483020Y-152937000D03*
X140384980Y-152937000D03*
X136895020Y-152937000D03*
X134796980Y-152937000D03*
X131307020Y-152937000D03*
X129208980Y-152937000D03*
X125719020Y-152937000D03*
X123620980Y-152937000D03*
X120131020Y-152937000D03*
X118032980Y-152937000D03*
X114543020Y-152937000D03*
X112444980Y-152937000D03*
X108955020Y-152937000D03*
X106856980Y-152937000D03*
X103367020Y-152937000D03*
X101268980Y-152937000D03*
X97779020Y-152937000D03*
X95680980Y-152937000D03*
X92191020Y-152937000D03*
X90092980Y-152937000D03*
X86603020Y-152937000D03*
X84504980Y-152937000D03*
X259831020Y-147349000D03*
X257732980Y-147349000D03*
X254243020Y-147349000D03*
X252144980Y-147349000D03*
X248655020Y-147349000D03*
X246556980Y-147349000D03*
X243067020Y-147349000D03*
X240968980Y-147349000D03*
X237479020Y-147349000D03*
X235380980Y-147349000D03*
X231891020Y-147349000D03*
X229792980Y-147349000D03*
X226303020Y-147349000D03*
X224204980Y-147349000D03*
X220715020Y-147349000D03*
X218616980Y-147349000D03*
X215127020Y-147349000D03*
X213028980Y-147349000D03*
X209539020Y-147349000D03*
X207440980Y-147349000D03*
X203951020Y-147349000D03*
X201852980Y-147349000D03*
X198363020Y-147349000D03*
X196264980Y-147349000D03*
X192775020Y-147349000D03*
X190676980Y-147349000D03*
X187187020Y-147349000D03*
X185088980Y-147349000D03*
X181599020Y-147349000D03*
X179500980Y-147349000D03*
X176011020Y-147349000D03*
X173912980Y-147349000D03*
X170423020Y-147349000D03*
X168324980Y-147349000D03*
X164835020Y-147349000D03*
X162736980Y-147349000D03*
X159247020Y-147349000D03*
X157148980Y-147349000D03*
X153659020Y-147349000D03*
X151560980Y-147349000D03*
X148071020Y-147349000D03*
X145972980Y-147349000D03*
X142483020Y-147349000D03*
X140384980Y-147349000D03*
X136895020Y-147349000D03*
X134796980Y-147349000D03*
X131307020Y-147349000D03*
X129208980Y-147349000D03*
X125719020Y-147349000D03*
X123620980Y-147349000D03*
X120131020Y-147349000D03*
X118032980Y-147349000D03*
X114543020Y-147349000D03*
X112444980Y-147349000D03*
X108955020Y-147349000D03*
X106856980Y-147349000D03*
X103367020Y-147349000D03*
X101268980Y-147349000D03*
X97779020Y-147349000D03*
X95680980Y-147349000D03*
X92191020Y-147349000D03*
X90092980Y-147349000D03*
X86603020Y-147349000D03*
X84504980Y-147349000D03*
X259831020Y-141761000D03*
X257732980Y-141761000D03*
X254243020Y-141761000D03*
X252144980Y-141761000D03*
X248655020Y-141761000D03*
X246556980Y-141761000D03*
X243067020Y-141761000D03*
X240968980Y-141761000D03*
X237479020Y-141761000D03*
X235380980Y-141761000D03*
X231891020Y-141761000D03*
X229792980Y-141761000D03*
X226303020Y-141761000D03*
X224204980Y-141761000D03*
X220715020Y-141761000D03*
X218616980Y-141761000D03*
X215127020Y-141761000D03*
X213028980Y-141761000D03*
X209539020Y-141761000D03*
X207440980Y-141761000D03*
X203951020Y-141761000D03*
X201852980Y-141761000D03*
X198363020Y-141761000D03*
X196264980Y-141761000D03*
X192775020Y-141761000D03*
X190676980Y-141761000D03*
X187187020Y-141761000D03*
X185088980Y-141761000D03*
X181599020Y-141761000D03*
X179500980Y-141761000D03*
X176011020Y-141761000D03*
X173912980Y-141761000D03*
X170423020Y-141761000D03*
X168324980Y-141761000D03*
X164835020Y-141761000D03*
X162736980Y-141761000D03*
X159247020Y-141761000D03*
X157148980Y-141761000D03*
X153659020Y-141761000D03*
X151560980Y-141761000D03*
X148071020Y-141761000D03*
X145972980Y-141761000D03*
X142483020Y-141761000D03*
X140384980Y-141761000D03*
X136895020Y-141761000D03*
X134796980Y-141761000D03*
X131307020Y-141761000D03*
X129208980Y-141761000D03*
X125719020Y-141761000D03*
X123620980Y-141761000D03*
X120131020Y-141761000D03*
X118032980Y-141761000D03*
X114543020Y-141761000D03*
X112444980Y-141761000D03*
X108955020Y-141761000D03*
X106856980Y-141761000D03*
X103367020Y-141761000D03*
X101268980Y-141761000D03*
X97779020Y-141761000D03*
X95680980Y-141761000D03*
X92191020Y-141761000D03*
X90092980Y-141761000D03*
X86603020Y-141761000D03*
X84504980Y-141761000D03*
X259831020Y-136173000D03*
X257732980Y-136173000D03*
X254243020Y-136173000D03*
X252144980Y-136173000D03*
X248655020Y-136173000D03*
X246556980Y-136173000D03*
X243067020Y-136173000D03*
X240968980Y-136173000D03*
X237479020Y-136173000D03*
X235380980Y-136173000D03*
X231891020Y-136173000D03*
X229792980Y-136173000D03*
X226303020Y-136173000D03*
X224204980Y-136173000D03*
X220715020Y-136173000D03*
X218616980Y-136173000D03*
X215127020Y-136173000D03*
X213028980Y-136173000D03*
X209539020Y-136173000D03*
X207440980Y-136173000D03*
X203951020Y-136173000D03*
X201852980Y-136173000D03*
X198363020Y-136173000D03*
X196264980Y-136173000D03*
X192775020Y-136173000D03*
X190676980Y-136173000D03*
X187187020Y-136173000D03*
X185088980Y-136173000D03*
X181599020Y-136173000D03*
X179500980Y-136173000D03*
X176011020Y-136173000D03*
X173912980Y-136173000D03*
X170423020Y-136173000D03*
X168324980Y-136173000D03*
X164835020Y-136173000D03*
X162736980Y-136173000D03*
X159247020Y-136173000D03*
X157148980Y-136173000D03*
X153659020Y-136173000D03*
X151560980Y-136173000D03*
X148071020Y-136173000D03*
X145972980Y-136173000D03*
X142483020Y-136173000D03*
X140384980Y-136173000D03*
X136895020Y-136173000D03*
X134796980Y-136173000D03*
X131307020Y-136173000D03*
X129208980Y-136173000D03*
X125719020Y-136173000D03*
X123620980Y-136173000D03*
X120131020Y-136173000D03*
X118032980Y-136173000D03*
X114543020Y-136173000D03*
X112444980Y-136173000D03*
X108955020Y-136173000D03*
X106856980Y-136173000D03*
X103367020Y-136173000D03*
X101268980Y-136173000D03*
X97779020Y-136173000D03*
X95680980Y-136173000D03*
X92191020Y-136173000D03*
X90092980Y-136173000D03*
X86603020Y-136173000D03*
X84504980Y-136173000D03*
X259831020Y-130585000D03*
X257732980Y-130585000D03*
X254243020Y-130585000D03*
X252144980Y-130585000D03*
X248655020Y-130585000D03*
X246556980Y-130585000D03*
X243067020Y-130585000D03*
X240968980Y-130585000D03*
X237479020Y-130585000D03*
X235380980Y-130585000D03*
X231891020Y-130585000D03*
X229792980Y-130585000D03*
X226303020Y-130585000D03*
X224204980Y-130585000D03*
X220715020Y-130585000D03*
X218616980Y-130585000D03*
X215127020Y-130585000D03*
X213028980Y-130585000D03*
X209539020Y-130585000D03*
X207440980Y-130585000D03*
X203951020Y-130585000D03*
X201852980Y-130585000D03*
X198363020Y-130585000D03*
X196264980Y-130585000D03*
X192775020Y-130585000D03*
X190676980Y-130585000D03*
X187187020Y-130585000D03*
X185088980Y-130585000D03*
X181599020Y-130585000D03*
X179500980Y-130585000D03*
X176011020Y-130585000D03*
X173912980Y-130585000D03*
X170423020Y-130585000D03*
X168324980Y-130585000D03*
X164835020Y-130585000D03*
X162736980Y-130585000D03*
X159247020Y-130585000D03*
X157148980Y-130585000D03*
X153659020Y-130585000D03*
X151560980Y-130585000D03*
X148071020Y-130585000D03*
X145972980Y-130585000D03*
X142483020Y-130585000D03*
X140384980Y-130585000D03*
X136895020Y-130585000D03*
X134796980Y-130585000D03*
X131307020Y-130585000D03*
X129208980Y-130585000D03*
X125719020Y-130585000D03*
X123620980Y-130585000D03*
X120131020Y-130585000D03*
X118032980Y-130585000D03*
X114543020Y-130585000D03*
X112444980Y-130585000D03*
X108955020Y-130585000D03*
X106856980Y-130585000D03*
X103367020Y-130585000D03*
X101268980Y-130585000D03*
X97779020Y-130585000D03*
X95680980Y-130585000D03*
X92191020Y-130585000D03*
X90092980Y-130585000D03*
X86603020Y-130585000D03*
X84504980Y-130585000D03*
X259831020Y-124997000D03*
X257732980Y-124997000D03*
X254243020Y-124997000D03*
X252144980Y-124997000D03*
X248655020Y-124997000D03*
X246556980Y-124997000D03*
X243067020Y-124997000D03*
X240968980Y-124997000D03*
X237479020Y-124997000D03*
X235380980Y-124997000D03*
X231891020Y-124997000D03*
X229792980Y-124997000D03*
X226303020Y-124997000D03*
X224204980Y-124997000D03*
X220715020Y-124997000D03*
X218616980Y-124997000D03*
X215127020Y-124997000D03*
X213028980Y-124997000D03*
X209539020Y-124997000D03*
X207440980Y-124997000D03*
X203951020Y-124997000D03*
X201852980Y-124997000D03*
X198363020Y-124997000D03*
X196264980Y-124997000D03*
X192775020Y-124997000D03*
X190676980Y-124997000D03*
X187187020Y-124997000D03*
X185088980Y-124997000D03*
X181599020Y-124997000D03*
X179500980Y-124997000D03*
X176011020Y-124997000D03*
X173912980Y-124997000D03*
X170423020Y-124997000D03*
X168324980Y-124997000D03*
X164835020Y-124997000D03*
X162736980Y-124997000D03*
X159247020Y-124997000D03*
X157148980Y-124997000D03*
X153659020Y-124997000D03*
X151560980Y-124997000D03*
X148071020Y-124997000D03*
X145972980Y-124997000D03*
X142483020Y-124997000D03*
X140384980Y-124997000D03*
X136895020Y-124997000D03*
X134796980Y-124997000D03*
X131307020Y-124997000D03*
X129208980Y-124997000D03*
X125719020Y-124997000D03*
X123620980Y-124997000D03*
X120131020Y-124997000D03*
X118032980Y-124997000D03*
X114543020Y-124997000D03*
X112444980Y-124997000D03*
X108955020Y-124997000D03*
X106856980Y-124997000D03*
X103367020Y-124997000D03*
X101268980Y-124997000D03*
X97779020Y-124997000D03*
X95680980Y-124997000D03*
X92191020Y-124997000D03*
X90092980Y-124997000D03*
X86603020Y-124997000D03*
X84504980Y-124997000D03*
X259831020Y-119409000D03*
X257732980Y-119409000D03*
X254243020Y-119409000D03*
X252144980Y-119409000D03*
X248655020Y-119409000D03*
X246556980Y-119409000D03*
X243067020Y-119409000D03*
X240968980Y-119409000D03*
X237479020Y-119409000D03*
X235380980Y-119409000D03*
X231891020Y-119409000D03*
X229792980Y-119409000D03*
X226303020Y-119409000D03*
X224204980Y-119409000D03*
X220715020Y-119409000D03*
X218616980Y-119409000D03*
X215127020Y-119409000D03*
X213028980Y-119409000D03*
X209539020Y-119409000D03*
X207440980Y-119409000D03*
X203951020Y-119409000D03*
X201852980Y-119409000D03*
X198363020Y-119409000D03*
X196264980Y-119409000D03*
X192775020Y-119409000D03*
X190676980Y-119409000D03*
X187187020Y-119409000D03*
X185088980Y-119409000D03*
X181599020Y-119409000D03*
X179500980Y-119409000D03*
X176011020Y-119409000D03*
X173912980Y-119409000D03*
X170423020Y-119409000D03*
X168324980Y-119409000D03*
X164835020Y-119409000D03*
X162736980Y-119409000D03*
X159247020Y-119409000D03*
X157148980Y-119409000D03*
X153659020Y-119409000D03*
X151560980Y-119409000D03*
X148071020Y-119409000D03*
X145972980Y-119409000D03*
X142483020Y-119409000D03*
X140384980Y-119409000D03*
X136895020Y-119409000D03*
X134796980Y-119409000D03*
X131307020Y-119409000D03*
X129208980Y-119409000D03*
X125719020Y-119409000D03*
X123620980Y-119409000D03*
X120131020Y-119409000D03*
X118032980Y-119409000D03*
X114543020Y-119409000D03*
X112444980Y-119409000D03*
X108955020Y-119409000D03*
X106856980Y-119409000D03*
X103367020Y-119409000D03*
X101268980Y-119409000D03*
X97779020Y-119409000D03*
X95680980Y-119409000D03*
X92191020Y-119409000D03*
X90092980Y-119409000D03*
X86603020Y-119409000D03*
X84504980Y-119409000D03*
X259831020Y-113821000D03*
X257732980Y-113821000D03*
X254243020Y-113821000D03*
X252144980Y-113821000D03*
X248655020Y-113821000D03*
X246556980Y-113821000D03*
X243067020Y-113821000D03*
X240968980Y-113821000D03*
X237479020Y-113821000D03*
X235380980Y-113821000D03*
X231891020Y-113821000D03*
X229792980Y-113821000D03*
X226303020Y-113821000D03*
X224204980Y-113821000D03*
X220715020Y-113821000D03*
X218616980Y-113821000D03*
X215127020Y-113821000D03*
X213028980Y-113821000D03*
X209539020Y-113821000D03*
X207440980Y-113821000D03*
X203951020Y-113821000D03*
X201852980Y-113821000D03*
X198363020Y-113821000D03*
X196264980Y-113821000D03*
X192775020Y-113821000D03*
X190676980Y-113821000D03*
X187187020Y-113821000D03*
X185088980Y-113821000D03*
X181599020Y-113821000D03*
X179500980Y-113821000D03*
X176011020Y-113821000D03*
X173912980Y-113821000D03*
X170423020Y-113821000D03*
X168324980Y-113821000D03*
X164835020Y-113821000D03*
X162736980Y-113821000D03*
X159247020Y-113821000D03*
X157148980Y-113821000D03*
X153659020Y-113821000D03*
X151560980Y-113821000D03*
X148071020Y-113821000D03*
X145972980Y-113821000D03*
X142483020Y-113821000D03*
X140384980Y-113821000D03*
X136895020Y-113821000D03*
X134796980Y-113821000D03*
X131307020Y-113821000D03*
X129208980Y-113821000D03*
X125719020Y-113821000D03*
X123620980Y-113821000D03*
X120131020Y-113821000D03*
X118032980Y-113821000D03*
X114543020Y-113821000D03*
X112444980Y-113821000D03*
X108955020Y-113821000D03*
X106856980Y-113821000D03*
X103367020Y-113821000D03*
X101268980Y-113821000D03*
X97779020Y-113821000D03*
X95680980Y-113821000D03*
X92191020Y-113821000D03*
X90092980Y-113821000D03*
X86603020Y-113821000D03*
X84504980Y-113821000D03*
X259831020Y-108233000D03*
X257732980Y-108233000D03*
X254243020Y-108233000D03*
X252144980Y-108233000D03*
X248655020Y-108233000D03*
X246556980Y-108233000D03*
X243067020Y-108233000D03*
X240968980Y-108233000D03*
X237479020Y-108233000D03*
X235380980Y-108233000D03*
X231891020Y-108233000D03*
X229792980Y-108233000D03*
X226303020Y-108233000D03*
X224204980Y-108233000D03*
X220715020Y-108233000D03*
X218616980Y-108233000D03*
X215127020Y-108233000D03*
X213028980Y-108233000D03*
X209539020Y-108233000D03*
X207440980Y-108233000D03*
X203951020Y-108233000D03*
X201852980Y-108233000D03*
X198363020Y-108233000D03*
X196264980Y-108233000D03*
X192775020Y-108233000D03*
X190676980Y-108233000D03*
X187187020Y-108233000D03*
X185088980Y-108233000D03*
X181599020Y-108233000D03*
X179500980Y-108233000D03*
X176011020Y-108233000D03*
X173912980Y-108233000D03*
X170423020Y-108233000D03*
X168324980Y-108233000D03*
X164835020Y-108233000D03*
X162736980Y-108233000D03*
X159247020Y-108233000D03*
X157148980Y-108233000D03*
X153659020Y-108233000D03*
X151560980Y-108233000D03*
X148071020Y-108233000D03*
X145972980Y-108233000D03*
X142483020Y-108233000D03*
X140384980Y-108233000D03*
X136895020Y-108233000D03*
X134796980Y-108233000D03*
X131307020Y-108233000D03*
X129208980Y-108233000D03*
X125719020Y-108233000D03*
X123620980Y-108233000D03*
X120131020Y-108233000D03*
X118032980Y-108233000D03*
X114543020Y-108233000D03*
X112444980Y-108233000D03*
X108955020Y-108233000D03*
X106856980Y-108233000D03*
X103367020Y-108233000D03*
X101268980Y-108233000D03*
X97779020Y-108233000D03*
X95680980Y-108233000D03*
X92191020Y-108233000D03*
X90092980Y-108233000D03*
X86603020Y-108233000D03*
X84504980Y-108233000D03*
X259831020Y-102645000D03*
X257732980Y-102645000D03*
X254243020Y-102645000D03*
X252144980Y-102645000D03*
X248655020Y-102645000D03*
X246556980Y-102645000D03*
X243067020Y-102645000D03*
X240968980Y-102645000D03*
X237479020Y-102645000D03*
X235380980Y-102645000D03*
X231891020Y-102645000D03*
X229792980Y-102645000D03*
X226303020Y-102645000D03*
X224204980Y-102645000D03*
X220715020Y-102645000D03*
X218616980Y-102645000D03*
X215127020Y-102645000D03*
X213028980Y-102645000D03*
X209539020Y-102645000D03*
X207440980Y-102645000D03*
X203951020Y-102645000D03*
X201852980Y-102645000D03*
X198363020Y-102645000D03*
X196264980Y-102645000D03*
X192775020Y-102645000D03*
X190676980Y-102645000D03*
X187187020Y-102645000D03*
X185088980Y-102645000D03*
X181599020Y-102645000D03*
X179500980Y-102645000D03*
X176011020Y-102645000D03*
X173912980Y-102645000D03*
X170423020Y-102645000D03*
X168324980Y-102645000D03*
X164835020Y-102645000D03*
X162736980Y-102645000D03*
X159247020Y-102645000D03*
X157148980Y-102645000D03*
X153659020Y-102645000D03*
X151560980Y-102645000D03*
X148071020Y-102645000D03*
X145972980Y-102645000D03*
X142483020Y-102645000D03*
X140384980Y-102645000D03*
X136895020Y-102645000D03*
X134796980Y-102645000D03*
X131307020Y-102645000D03*
X129208980Y-102645000D03*
X125719020Y-102645000D03*
X123620980Y-102645000D03*
X120131020Y-102645000D03*
X118032980Y-102645000D03*
X114543020Y-102645000D03*
X112444980Y-102645000D03*
X108955020Y-102645000D03*
X106856980Y-102645000D03*
X103367020Y-102645000D03*
X101268980Y-102645000D03*
X97779020Y-102645000D03*
X95680980Y-102645000D03*
X92191020Y-102645000D03*
X90092980Y-102645000D03*
X86603020Y-102645000D03*
X84504980Y-102645000D03*
X259831020Y-97057000D03*
X257732980Y-97057000D03*
X254243020Y-97057000D03*
X252144980Y-97057000D03*
X248655020Y-97057000D03*
X246556980Y-97057000D03*
X243067020Y-97057000D03*
X240968980Y-97057000D03*
X237479020Y-97057000D03*
X235380980Y-97057000D03*
X231891020Y-97057000D03*
X229792980Y-97057000D03*
X226303020Y-97057000D03*
X224204980Y-97057000D03*
X220715020Y-97057000D03*
X218616980Y-97057000D03*
X215127020Y-97057000D03*
X213028980Y-97057000D03*
X209539020Y-97057000D03*
X207440980Y-97057000D03*
X203951020Y-97057000D03*
X201852980Y-97057000D03*
X198363020Y-97057000D03*
X196264980Y-97057000D03*
X192775020Y-97057000D03*
X190676980Y-97057000D03*
X187187020Y-97057000D03*
X185088980Y-97057000D03*
X181599020Y-97057000D03*
X179500980Y-97057000D03*
X176011020Y-97057000D03*
X173912980Y-97057000D03*
X170423020Y-97057000D03*
X168324980Y-97057000D03*
X164835020Y-97057000D03*
X162736980Y-97057000D03*
X159247020Y-97057000D03*
X157148980Y-97057000D03*
X153659020Y-97057000D03*
X151560980Y-97057000D03*
X148071020Y-97057000D03*
X145972980Y-97057000D03*
X142483020Y-97057000D03*
X140384980Y-97057000D03*
X136895020Y-97057000D03*
X134796980Y-97057000D03*
X131307020Y-97057000D03*
X129208980Y-97057000D03*
X125719020Y-97057000D03*
X123620980Y-97057000D03*
X120131020Y-97057000D03*
X118032980Y-97057000D03*
X114543020Y-97057000D03*
X112444980Y-97057000D03*
X108955020Y-97057000D03*
X106856980Y-97057000D03*
X103367020Y-97057000D03*
X101268980Y-97057000D03*
X97779020Y-97057000D03*
X95680980Y-97057000D03*
X92191020Y-97057000D03*
X90092980Y-97057000D03*
X86603020Y-97057000D03*
X84504980Y-97057000D03*
X259831020Y-91469000D03*
X257732980Y-91469000D03*
X254243020Y-91469000D03*
X252144980Y-91469000D03*
X248655020Y-91469000D03*
X246556980Y-91469000D03*
X243067020Y-91469000D03*
X240968980Y-91469000D03*
X237479020Y-91469000D03*
X235380980Y-91469000D03*
X231891020Y-91469000D03*
X229792980Y-91469000D03*
X226303020Y-91469000D03*
X224204980Y-91469000D03*
X220715020Y-91469000D03*
X218616980Y-91469000D03*
X215127020Y-91469000D03*
X213028980Y-91469000D03*
X209539020Y-91469000D03*
X207440980Y-91469000D03*
X203951020Y-91469000D03*
X201852980Y-91469000D03*
X198363020Y-91469000D03*
X196264980Y-91469000D03*
X192775020Y-91469000D03*
X190676980Y-91469000D03*
X187187020Y-91469000D03*
X185088980Y-91469000D03*
X181599020Y-91469000D03*
X179500980Y-91469000D03*
X176011020Y-91469000D03*
X173912980Y-91469000D03*
X170423020Y-91469000D03*
X168324980Y-91469000D03*
X164835020Y-91469000D03*
X162736980Y-91469000D03*
X159247020Y-91469000D03*
X157148980Y-91469000D03*
X153659020Y-91469000D03*
X151560980Y-91469000D03*
X148071020Y-91469000D03*
X145972980Y-91469000D03*
X142483020Y-91469000D03*
X140384980Y-91469000D03*
X136895020Y-91469000D03*
X134796980Y-91469000D03*
X131307020Y-91469000D03*
X129208980Y-91469000D03*
X125719020Y-91469000D03*
X123620980Y-91469000D03*
X120131020Y-91469000D03*
X118032980Y-91469000D03*
X114543020Y-91469000D03*
X112444980Y-91469000D03*
X108955020Y-91469000D03*
X106856980Y-91469000D03*
X103367020Y-91469000D03*
X101268980Y-91469000D03*
X97779020Y-91469000D03*
X95680980Y-91469000D03*
X92191020Y-91469000D03*
X90092980Y-91469000D03*
X86603020Y-91469000D03*
X84504980Y-91469000D03*
X259831020Y-85881000D03*
X257732980Y-85881000D03*
X254243020Y-85881000D03*
X252144980Y-85881000D03*
X248655020Y-85881000D03*
X246556980Y-85881000D03*
X243067020Y-85881000D03*
X240968980Y-85881000D03*
X237479020Y-85881000D03*
X235380980Y-85881000D03*
X231891020Y-85881000D03*
X229792980Y-85881000D03*
X226303020Y-85881000D03*
X224204980Y-85881000D03*
X220715020Y-85881000D03*
X218616980Y-85881000D03*
X215127020Y-85881000D03*
X213028980Y-85881000D03*
X209539020Y-85881000D03*
X207440980Y-85881000D03*
X203951020Y-85881000D03*
X201852980Y-85881000D03*
X198363020Y-85881000D03*
X196264980Y-85881000D03*
X192775020Y-85881000D03*
X190676980Y-85881000D03*
X187187020Y-85881000D03*
X185088980Y-85881000D03*
X181599020Y-85881000D03*
X179500980Y-85881000D03*
X176011020Y-85881000D03*
X173912980Y-85881000D03*
X170423020Y-85881000D03*
X168324980Y-85881000D03*
X164835020Y-85881000D03*
X162736980Y-85881000D03*
X159247020Y-85881000D03*
X157148980Y-85881000D03*
X153659020Y-85881000D03*
X151560980Y-85881000D03*
X148071020Y-85881000D03*
X145972980Y-85881000D03*
X142483020Y-85881000D03*
X140384980Y-85881000D03*
X136895020Y-85881000D03*
X134796980Y-85881000D03*
X131307020Y-85881000D03*
X129208980Y-85881000D03*
X125719020Y-85881000D03*
X123620980Y-85881000D03*
X120131020Y-85881000D03*
X118032980Y-85881000D03*
X114543020Y-85881000D03*
X112444980Y-85881000D03*
X108955020Y-85881000D03*
X106856980Y-85881000D03*
X103367020Y-85881000D03*
X101268980Y-85881000D03*
X97779020Y-85881000D03*
X95680980Y-85881000D03*
X92191020Y-85881000D03*
X90092980Y-85881000D03*
X86603020Y-85881000D03*
X84504980Y-85881000D03*
X259831020Y-80293000D03*
X257732980Y-80293000D03*
X254243020Y-80293000D03*
X252144980Y-80293000D03*
X248655020Y-80293000D03*
X246556980Y-80293000D03*
X243067020Y-80293000D03*
X240968980Y-80293000D03*
X237479020Y-80293000D03*
X235380980Y-80293000D03*
X231891020Y-80293000D03*
X229792980Y-80293000D03*
X226303020Y-80293000D03*
X224204980Y-80293000D03*
X220715020Y-80293000D03*
X218616980Y-80293000D03*
X215127020Y-80293000D03*
X213028980Y-80293000D03*
X209539020Y-80293000D03*
X207440980Y-80293000D03*
X203951020Y-80293000D03*
X201852980Y-80293000D03*
X198363020Y-80293000D03*
X196264980Y-80293000D03*
X192775020Y-80293000D03*
X190676980Y-80293000D03*
X187187020Y-80293000D03*
X185088980Y-80293000D03*
X181599020Y-80293000D03*
X179500980Y-80293000D03*
X176011020Y-80293000D03*
X173912980Y-80293000D03*
X170423020Y-80293000D03*
X168324980Y-80293000D03*
X164835020Y-80293000D03*
X162736980Y-80293000D03*
X159247020Y-80293000D03*
X157148980Y-80293000D03*
X153659020Y-80293000D03*
X151560980Y-80293000D03*
X148071020Y-80293000D03*
X145972980Y-80293000D03*
X142483020Y-80293000D03*
X140384980Y-80293000D03*
X136895020Y-80293000D03*
X134796980Y-80293000D03*
X131307020Y-80293000D03*
X129208980Y-80293000D03*
X125719020Y-80293000D03*
X123620980Y-80293000D03*
X120131020Y-80293000D03*
X118032980Y-80293000D03*
X114543020Y-80293000D03*
X112444980Y-80293000D03*
X108955020Y-80293000D03*
X106856980Y-80293000D03*
X103367020Y-80293000D03*
X101268980Y-80293000D03*
X97779020Y-80293000D03*
X95680980Y-80293000D03*
X92191020Y-80293000D03*
X90092980Y-80293000D03*
X86603020Y-80293000D03*
X84504980Y-80293000D03*
X259831020Y-74705000D03*
X257732980Y-74705000D03*
X254243020Y-74705000D03*
X252144980Y-74705000D03*
X248655020Y-74705000D03*
X246556980Y-74705000D03*
X243067020Y-74705000D03*
X240968980Y-74705000D03*
X237479020Y-74705000D03*
X235380980Y-74705000D03*
X231891020Y-74705000D03*
X229792980Y-74705000D03*
X226303020Y-74705000D03*
X224204980Y-74705000D03*
X220715020Y-74705000D03*
X218616980Y-74705000D03*
X215127020Y-74705000D03*
X213028980Y-74705000D03*
X209539020Y-74705000D03*
X207440980Y-74705000D03*
X203951020Y-74705000D03*
X201852980Y-74705000D03*
X198363020Y-74705000D03*
X196264980Y-74705000D03*
X192775020Y-74705000D03*
X190676980Y-74705000D03*
X187187020Y-74705000D03*
X185088980Y-74705000D03*
X181599020Y-74705000D03*
X179500980Y-74705000D03*
X176011020Y-74705000D03*
X173912980Y-74705000D03*
X170423020Y-74705000D03*
X168324980Y-74705000D03*
X164835020Y-74705000D03*
X162736980Y-74705000D03*
X159247020Y-74705000D03*
X157148980Y-74705000D03*
X153659020Y-74705000D03*
X151560980Y-74705000D03*
X148071020Y-74705000D03*
X145972980Y-74705000D03*
X142483020Y-74705000D03*
X140384980Y-74705000D03*
X136895020Y-74705000D03*
X134796980Y-74705000D03*
X131307020Y-74705000D03*
X129208980Y-74705000D03*
X125719020Y-74705000D03*
X123620980Y-74705000D03*
X120131020Y-74705000D03*
X118032980Y-74705000D03*
X114543020Y-74705000D03*
X112444980Y-74705000D03*
X108955020Y-74705000D03*
X106856980Y-74705000D03*
X103367020Y-74705000D03*
X101268980Y-74705000D03*
X97779020Y-74705000D03*
X95680980Y-74705000D03*
X92191020Y-74705000D03*
X90092980Y-74705000D03*
X86603020Y-74705000D03*
X84504980Y-74705000D03*
X259831020Y-69117000D03*
X257732980Y-69117000D03*
X254243020Y-69117000D03*
X252144980Y-69117000D03*
X248655020Y-69117000D03*
X246556980Y-69117000D03*
X243067020Y-69117000D03*
X240968980Y-69117000D03*
X237479020Y-69117000D03*
X235380980Y-69117000D03*
X231891020Y-69117000D03*
X229792980Y-69117000D03*
X226303020Y-69117000D03*
X224204980Y-69117000D03*
X220715020Y-69117000D03*
X218616980Y-69117000D03*
X215127020Y-69117000D03*
X213028980Y-69117000D03*
X209539020Y-69117000D03*
X207440980Y-69117000D03*
X203951020Y-69117000D03*
X201852980Y-69117000D03*
X198363020Y-69117000D03*
X196264980Y-69117000D03*
X192775020Y-69117000D03*
X190676980Y-69117000D03*
X187187020Y-69117000D03*
X185088980Y-69117000D03*
X181599020Y-69117000D03*
X179500980Y-69117000D03*
X176011020Y-69117000D03*
X173912980Y-69117000D03*
X170423020Y-69117000D03*
X168324980Y-69117000D03*
X164835020Y-69117000D03*
X162736980Y-69117000D03*
X159247020Y-69117000D03*
X157148980Y-69117000D03*
X153659020Y-69117000D03*
X151560980Y-69117000D03*
X148071020Y-69117000D03*
X145972980Y-69117000D03*
X142483020Y-69117000D03*
X140384980Y-69117000D03*
X136895020Y-69117000D03*
X134796980Y-69117000D03*
X131307020Y-69117000D03*
X129208980Y-69117000D03*
X125719020Y-69117000D03*
X123620980Y-69117000D03*
X120131020Y-69117000D03*
X118032980Y-69117000D03*
X114543020Y-69117000D03*
X112444980Y-69117000D03*
X108955020Y-69117000D03*
X106856980Y-69117000D03*
X103367020Y-69117000D03*
X101268980Y-69117000D03*
X97779020Y-69117000D03*
X95680980Y-69117000D03*
X92191020Y-69117000D03*
X90092980Y-69117000D03*
X86603020Y-69117000D03*
X84504980Y-69117000D03*
X259831020Y-63529000D03*
X257732980Y-63529000D03*
X254243020Y-63529000D03*
X252144980Y-63529000D03*
X248655020Y-63529000D03*
X246556980Y-63529000D03*
X243067020Y-63529000D03*
X240968980Y-63529000D03*
X237479020Y-63529000D03*
X235380980Y-63529000D03*
X231891020Y-63529000D03*
X229792980Y-63529000D03*
X226303020Y-63529000D03*
X224204980Y-63529000D03*
X220715020Y-63529000D03*
X218616980Y-63529000D03*
X215127020Y-63529000D03*
X213028980Y-63529000D03*
X209539020Y-63529000D03*
X207440980Y-63529000D03*
X203951020Y-63529000D03*
X201852980Y-63529000D03*
X198363020Y-63529000D03*
X196264980Y-63529000D03*
X192775020Y-63529000D03*
X190676980Y-63529000D03*
X187187020Y-63529000D03*
X185088980Y-63529000D03*
X181599020Y-63529000D03*
X179500980Y-63529000D03*
X176011020Y-63529000D03*
X173912980Y-63529000D03*
X170423020Y-63529000D03*
X168324980Y-63529000D03*
X164835020Y-63529000D03*
X162736980Y-63529000D03*
X159247020Y-63529000D03*
X157148980Y-63529000D03*
X153659020Y-63529000D03*
X151560980Y-63529000D03*
X148071020Y-63529000D03*
X145972980Y-63529000D03*
X142483020Y-63529000D03*
X140384980Y-63529000D03*
X136895020Y-63529000D03*
X134796980Y-63529000D03*
X131307020Y-63529000D03*
X129208980Y-63529000D03*
X125719020Y-63529000D03*
X123620980Y-63529000D03*
X120131020Y-63529000D03*
X118032980Y-63529000D03*
X114543020Y-63529000D03*
X112444980Y-63529000D03*
X108955020Y-63529000D03*
X106856980Y-63529000D03*
X103367020Y-63529000D03*
X101268980Y-63529000D03*
X97779020Y-63529000D03*
X95680980Y-63529000D03*
X92191020Y-63529000D03*
X90092980Y-63529000D03*
X86603020Y-63529000D03*
X84504980Y-63529000D03*
X259831020Y-57941000D03*
X257732980Y-57941000D03*
X254243020Y-57941000D03*
X252144980Y-57941000D03*
X248655020Y-57941000D03*
X246556980Y-57941000D03*
X243067020Y-57941000D03*
X240968980Y-57941000D03*
X237479020Y-57941000D03*
X235380980Y-57941000D03*
X231891020Y-57941000D03*
X229792980Y-57941000D03*
X226303020Y-57941000D03*
X224204980Y-57941000D03*
X220715020Y-57941000D03*
X218616980Y-57941000D03*
X215127020Y-57941000D03*
X213028980Y-57941000D03*
X209539020Y-57941000D03*
X207440980Y-57941000D03*
X203951020Y-57941000D03*
X201852980Y-57941000D03*
X198363020Y-57941000D03*
X196264980Y-57941000D03*
X192775020Y-57941000D03*
X190676980Y-57941000D03*
X187187020Y-57941000D03*
X185088980Y-57941000D03*
X181599020Y-57941000D03*
X179500980Y-57941000D03*
X176011020Y-57941000D03*
X173912980Y-57941000D03*
X170423020Y-57941000D03*
X168324980Y-57941000D03*
X164835020Y-57941000D03*
X162736980Y-57941000D03*
X159247020Y-57941000D03*
X157148980Y-57941000D03*
X153659020Y-57941000D03*
X151560980Y-57941000D03*
X148071020Y-57941000D03*
X145972980Y-57941000D03*
X142483020Y-57941000D03*
X140384980Y-57941000D03*
X136895020Y-57941000D03*
X134796980Y-57941000D03*
X131307020Y-57941000D03*
X129208980Y-57941000D03*
X125719020Y-57941000D03*
X123620980Y-57941000D03*
X120131020Y-57941000D03*
X118032980Y-57941000D03*
X114543020Y-57941000D03*
X112444980Y-57941000D03*
X108955020Y-57941000D03*
X106856980Y-57941000D03*
X103367020Y-57941000D03*
X101268980Y-57941000D03*
X97779020Y-57941000D03*
X95680980Y-57941000D03*
X92191020Y-57941000D03*
X90092980Y-57941000D03*
X86603020Y-57941000D03*
X84504980Y-57941000D03*
X259831020Y-52353000D03*
X257732980Y-52353000D03*
X254243020Y-52353000D03*
X252144980Y-52353000D03*
X248655020Y-52353000D03*
X246556980Y-52353000D03*
X243067020Y-52353000D03*
X240968980Y-52353000D03*
X237479020Y-52353000D03*
X235380980Y-52353000D03*
X231891020Y-52353000D03*
X229792980Y-52353000D03*
X226303020Y-52353000D03*
X224204980Y-52353000D03*
X220715020Y-52353000D03*
X218616980Y-52353000D03*
X215127020Y-52353000D03*
X213028980Y-52353000D03*
X209539020Y-52353000D03*
X207440980Y-52353000D03*
X203951020Y-52353000D03*
X201852980Y-52353000D03*
X198363020Y-52353000D03*
X196264980Y-52353000D03*
X192775020Y-52353000D03*
X190676980Y-52353000D03*
X187187020Y-52353000D03*
X185088980Y-52353000D03*
X181599020Y-52353000D03*
X179500980Y-52353000D03*
X176011020Y-52353000D03*
X173912980Y-52353000D03*
X170423020Y-52353000D03*
X168324980Y-52353000D03*
X164835020Y-52353000D03*
X162736980Y-52353000D03*
X159247020Y-52353000D03*
X157148980Y-52353000D03*
X153659020Y-52353000D03*
X151560980Y-52353000D03*
X148071020Y-52353000D03*
X145972980Y-52353000D03*
X142483020Y-52353000D03*
X140384980Y-52353000D03*
X136895020Y-52353000D03*
X134796980Y-52353000D03*
X131307020Y-52353000D03*
X129208980Y-52353000D03*
X125719020Y-52353000D03*
X123620980Y-52353000D03*
X120131020Y-52353000D03*
X118032980Y-52353000D03*
X114543020Y-52353000D03*
X112444980Y-52353000D03*
X108955020Y-52353000D03*
X106856980Y-52353000D03*
X103367020Y-52353000D03*
X101268980Y-52353000D03*
X97779020Y-52353000D03*
X95680980Y-52353000D03*
X92191020Y-52353000D03*
X90092980Y-52353000D03*
X86603020Y-52353000D03*
X84504980Y-52353000D03*
D12*
X272300000Y-53600000D03*
D13*
X272300000Y-56140000D03*
X272300000Y-58680000D03*
X272300000Y-61220000D03*
X272300000Y-63760000D03*
X272300000Y-66300000D03*
X272300000Y-68840000D03*
X272300000Y-71380000D03*
X272300000Y-73920000D03*
X272300000Y-76460000D03*
X272300000Y-79000000D03*
X272300000Y-81540000D03*
X272300000Y-84080000D03*
X272300000Y-86620000D03*
X272300000Y-89160000D03*
X272300000Y-91700000D03*
X272300000Y-94240000D03*
X272300000Y-96780000D03*
X272300000Y-99320000D03*
X272300000Y-101860000D03*
X272300000Y-104400000D03*
X272300000Y-106940000D03*
X272300000Y-109480000D03*
X272300000Y-112020000D03*
X272300000Y-114560000D03*
X272300000Y-117100000D03*
X272300000Y-119640000D03*
X272300000Y-122180000D03*
X272300000Y-124720000D03*
X272300000Y-127260000D03*
X272300000Y-129800000D03*
X272300000Y-132340000D03*
D14*
X177600000Y-37650000D03*
D15*
X180140000Y-37650000D03*
X182680000Y-37650000D03*
X185220000Y-37650000D03*
X187760000Y-37650000D03*
X190300000Y-37650000D03*
X192840000Y-37650000D03*
X195380000Y-37650000D03*
X197920000Y-37650000D03*
X200460000Y-37650000D03*
X203000000Y-37650000D03*
X205540000Y-37650000D03*
X208080000Y-37650000D03*
X210620000Y-37650000D03*
X213160000Y-37650000D03*
X215700000Y-37650000D03*
X218240000Y-37650000D03*
X220780000Y-37650000D03*
X223320000Y-37650000D03*
X225860000Y-37650000D03*
X228400000Y-37650000D03*
X230940000Y-37650000D03*
X233480000Y-37650000D03*
X236020000Y-37650000D03*
X238560000Y-37650000D03*
X241100000Y-37650000D03*
X243640000Y-37650000D03*
X246180000Y-37650000D03*
X248720000Y-37650000D03*
X251260000Y-37650000D03*
X253800000Y-37650000D03*
X256340000Y-37650000D03*
D16*
X269500000Y-40500000D03*
X269500000Y-229500000D03*
X80500000Y-229500000D03*
X80500000Y-40500000D03*
M02*
