G04 #@! TF.FileFunction,Soldermask,Bot*
%FSLAX46Y46*%
G04 Gerber Fmt 4.6, Leading zero omitted, Abs format (unit mm)*
G04 Created by KiCad (PCBNEW 4.0.2+dfsg1-stable) date dim. 24 sept. 2017 13:03:32 CEST*
%MOMM*%
G01*
G04 APERTURE LIST*
%ADD10C,0.100000*%
%ADD11R,2.032000X1.727200*%
%ADD12O,2.032000X1.727200*%
%ADD13R,1.727200X2.032000*%
%ADD14O,1.727200X2.032000*%
%ADD15C,4.064000*%
G04 APERTURE END LIST*
D10*
D11*
X272300000Y-53600000D03*
D12*
X272300000Y-56140000D03*
X272300000Y-58680000D03*
X272300000Y-61220000D03*
X272300000Y-63760000D03*
X272300000Y-66300000D03*
X272300000Y-68840000D03*
X272300000Y-71380000D03*
X272300000Y-73920000D03*
X272300000Y-76460000D03*
X272300000Y-79000000D03*
X272300000Y-81540000D03*
X272300000Y-84080000D03*
X272300000Y-86620000D03*
X272300000Y-89160000D03*
X272300000Y-91700000D03*
X272300000Y-94240000D03*
X272300000Y-96780000D03*
X272300000Y-99320000D03*
X272300000Y-101860000D03*
X272300000Y-104400000D03*
X272300000Y-106940000D03*
X272300000Y-109480000D03*
X272300000Y-112020000D03*
X272300000Y-114560000D03*
X272300000Y-117100000D03*
X272300000Y-119640000D03*
X272300000Y-122180000D03*
X272300000Y-124720000D03*
X272300000Y-127260000D03*
X272300000Y-129800000D03*
X272300000Y-132340000D03*
D13*
X177600000Y-37650000D03*
D14*
X180140000Y-37650000D03*
X182680000Y-37650000D03*
X185220000Y-37650000D03*
X187760000Y-37650000D03*
X190300000Y-37650000D03*
X192840000Y-37650000D03*
X195380000Y-37650000D03*
X197920000Y-37650000D03*
X200460000Y-37650000D03*
X203000000Y-37650000D03*
X205540000Y-37650000D03*
X208080000Y-37650000D03*
X210620000Y-37650000D03*
X213160000Y-37650000D03*
X215700000Y-37650000D03*
X218240000Y-37650000D03*
X220780000Y-37650000D03*
X223320000Y-37650000D03*
X225860000Y-37650000D03*
X228400000Y-37650000D03*
X230940000Y-37650000D03*
X233480000Y-37650000D03*
X236020000Y-37650000D03*
X238560000Y-37650000D03*
X241100000Y-37650000D03*
X243640000Y-37650000D03*
X246180000Y-37650000D03*
X248720000Y-37650000D03*
X251260000Y-37650000D03*
X253800000Y-37650000D03*
X256340000Y-37650000D03*
D15*
X269500000Y-40500000D03*
X269500000Y-229500000D03*
X80500000Y-229500000D03*
X80500000Y-40500000D03*
M02*
