<?xml version="1.0" standalone="no"?>
 <!DOCTYPE svg PUBLIC "-//W3C//DTD SVG 1.1//EN" 
 "http://www.w3.org/Graphics/SVG/1.1/DTD/svg11.dtd"> 
<svg xmlns="http://www.w3.org/2000/svg" version="1.1" 
    width="41.9989cm" height="29.7002cm" viewBox="0 0 165350 116930 ">
<title>SVG Picture created as carte_alim-brd.svg date 2015/03/23 16:32:33 </title>
  <desc>Picture generated by PCBNEW </desc>
<g style="fill:#000000; fill-opacity:1;stroke:#000000; stroke-opacity:1;
stroke-linecap:round; stroke-linejoin:round; "
 transform="translate(0 0) scale(1 1)">
</g>
<g style="fill:#000000; fill-opacity:0.0; 
stroke:#000000; stroke-width:39.3701; stroke-opacity:1; 
stroke-linecap:round; stroke-linejoin:round;">
</g>
<g style="fill:#000000; fill-opacity:0.0; 
stroke:#000000; stroke-width:59.0551; stroke-opacity:1; 
stroke-linecap:round; stroke-linejoin:round;">
<rect x="118106" y="99607.2" width="42519.7" height="12598.4" rx="0" />
</g>
<g style="fill:#000000; fill-opacity:0.0; 
stroke:#000000; stroke-width:39.3701; stroke-opacity:1; 
stroke-linecap:round; stroke-linejoin:round;">
</g>
<g style="fill:#000000; fill-opacity:0.0; 
stroke:#000000; stroke-width:59.0551; stroke-opacity:1; 
stroke-linecap:round; stroke-linejoin:round;">
<rect x="3937.01" y="3937.01" width="157476" height="109056" rx="0" />
</g>
<g style="fill:#000000; fill-opacity:0.0; 
stroke:#000000; stroke-width:39.3701; stroke-opacity:1; 
stroke-linecap:round; stroke-linejoin:round;">
</g>
<g style="fill:#000000; fill-opacity:0.0; 
stroke:#000000; stroke-width:59.0551; stroke-opacity:1; 
stroke-linecap:round; stroke-linejoin:round;">
<rect x="4724.41" y="4724.41" width="155901" height="107481" rx="0" />
</g>
<g style="fill:#000000; fill-opacity:0.0; 
stroke:#000000; stroke-width:39.3701; stroke-opacity:1; 
stroke-linecap:round; stroke-linejoin:round;">
</g>
<g style="fill:#000000; fill-opacity:0.0; 
stroke:#000000; stroke-width:59.0551; stroke-opacity:1; 
stroke-linecap:round; stroke-linejoin:round;">
<path d="M23622 4724
L23622 3937
" />
</g>
<g style="fill:#000000; fill-opacity:0.0; 
stroke:#000000; stroke-width:39.3701; stroke-opacity:1; 
stroke-linecap:round; stroke-linejoin:round;">
</g>
<g style="fill:#000000; fill-opacity:0.0; 
stroke:#000000; stroke-width:59.0551; stroke-opacity:1; 
stroke-linecap:round; stroke-linejoin:round;">
<path d="M43307 4724
L43307 3937
" />
</g>
<g style="fill:#000000; fill-opacity:0.0; 
stroke:#000000; stroke-width:39.3701; stroke-opacity:1; 
stroke-linecap:round; stroke-linejoin:round;">
</g>
<g style="fill:#000000; fill-opacity:0.0; 
stroke:#000000; stroke-width:59.0551; stroke-opacity:1; 
stroke-linecap:round; stroke-linejoin:round;">
<path d="M62992 4724
L62992 3937
" />
</g>
<g style="fill:#000000; fill-opacity:0.0; 
stroke:#000000; stroke-width:39.3701; stroke-opacity:1; 
stroke-linecap:round; stroke-linejoin:round;">
</g>
<g style="fill:#000000; fill-opacity:0.0; 
stroke:#000000; stroke-width:59.0551; stroke-opacity:1; 
stroke-linecap:round; stroke-linejoin:round;">
<path d="M82677 4724
L82677 3937
" />
</g>
<g style="fill:#000000; fill-opacity:0.0; 
stroke:#000000; stroke-width:39.3701; stroke-opacity:1; 
stroke-linecap:round; stroke-linejoin:round;">
</g>
<g style="fill:#000000; fill-opacity:0.0; 
stroke:#000000; stroke-width:59.0551; stroke-opacity:1; 
stroke-linecap:round; stroke-linejoin:round;">
<path d="M102362 4724
L102362 3937
" />
</g>
<g style="fill:#000000; fill-opacity:0.0; 
stroke:#000000; stroke-width:39.3701; stroke-opacity:1; 
stroke-linecap:round; stroke-linejoin:round;">
</g>
<g style="fill:#000000; fill-opacity:0.0; 
stroke:#000000; stroke-width:59.0551; stroke-opacity:1; 
stroke-linecap:round; stroke-linejoin:round;">
<path d="M122047 4724
L122047 3937
" />
</g>
<g style="fill:#000000; fill-opacity:0.0; 
stroke:#000000; stroke-width:39.3701; stroke-opacity:1; 
stroke-linecap:round; stroke-linejoin:round;">
</g>
<g style="fill:#000000; fill-opacity:0.0; 
stroke:#000000; stroke-width:59.0551; stroke-opacity:1; 
stroke-linecap:round; stroke-linejoin:round;">
<path d="M141732 4724
L141732 3937
" />
</g>
<g style="fill:#000000; fill-opacity:0.0; 
stroke:#000000; stroke-width:39.3701; stroke-opacity:1; 
stroke-linecap:round; stroke-linejoin:round;">
</g>
<g style="fill:#000000; fill-opacity:0.0; 
stroke:#000000; stroke-width:59.0551; stroke-opacity:1; 
stroke-linecap:round; stroke-linejoin:round;">
<path d="M14169 4562
L13877 4562
" />
<path d="M14023 4562
L14023 4050
L13974 4123
L13925 4172
L13877 4196
" />
</g>
<g style="fill:#000000; fill-opacity:0.0; 
stroke:#000000; stroke-width:39.3701; stroke-opacity:1; 
stroke-linecap:round; stroke-linejoin:round;">
</g>
<g style="fill:#000000; fill-opacity:0.0; 
stroke:#000000; stroke-width:59.0551; stroke-opacity:1; 
stroke-linecap:round; stroke-linejoin:round;">
<path d="M33562 4099
L33586 4074
L33635 4050
L33757 4050
L33805 4074
L33830 4099
L33854 4147
L33854 4196
L33830 4269
L33537 4562
L33854 4562
" />
</g>
<g style="fill:#000000; fill-opacity:0.0; 
stroke:#000000; stroke-width:39.3701; stroke-opacity:1; 
stroke-linecap:round; stroke-linejoin:round;">
</g>
<g style="fill:#000000; fill-opacity:0.0; 
stroke:#000000; stroke-width:59.0551; stroke-opacity:1; 
stroke-linecap:round; stroke-linejoin:round;">
<path d="M53222 4050
L53539 4050
L53368 4245
L53442 4245
L53490 4269
L53515 4294
L53539 4342
L53539 4464
L53515 4513
L53490 4537
L53442 4562
L53295 4562
L53247 4537
L53222 4513
" />
</g>
<g style="fill:#000000; fill-opacity:0.0; 
stroke:#000000; stroke-width:39.3701; stroke-opacity:1; 
stroke-linecap:round; stroke-linejoin:round;">
</g>
<g style="fill:#000000; fill-opacity:0.0; 
stroke:#000000; stroke-width:59.0551; stroke-opacity:1; 
stroke-linecap:round; stroke-linejoin:round;">
<path d="M73175 4221
L73175 4562
" />
<path d="M73053 4026
L72932 4391
L73248 4391
" />
</g>
<g style="fill:#000000; fill-opacity:0.0; 
stroke:#000000; stroke-width:39.3701; stroke-opacity:1; 
stroke-linecap:round; stroke-linejoin:round;">
</g>
<g style="fill:#000000; fill-opacity:0.0; 
stroke:#000000; stroke-width:59.0551; stroke-opacity:1; 
stroke-linecap:round; stroke-linejoin:round;">
<path d="M92885 4050
L92641 4050
L92617 4294
L92641 4269
L92690 4245
L92812 4245
L92860 4269
L92885 4294
L92909 4342
L92909 4464
L92885 4513
L92860 4537
L92812 4562
L92690 4562
L92641 4537
L92617 4513
" />
</g>
<g style="fill:#000000; fill-opacity:0.0; 
stroke:#000000; stroke-width:39.3701; stroke-opacity:1; 
stroke-linecap:round; stroke-linejoin:round;">
</g>
<g style="fill:#000000; fill-opacity:0.0; 
stroke:#000000; stroke-width:59.0551; stroke-opacity:1; 
stroke-linecap:round; stroke-linejoin:round;">
<path d="M112545 4050
L112448 4050
L112399 4074
L112375 4099
L112326 4172
L112302 4269
L112302 4464
L112326 4513
L112350 4537
L112399 4562
L112497 4562
L112545 4537
L112570 4513
L112594 4464
L112594 4342
L112570 4294
L112545 4269
L112497 4245
L112399 4245
L112350 4269
L112326 4294
L112302 4342
" />
</g>
<g style="fill:#000000; fill-opacity:0.0; 
stroke:#000000; stroke-width:39.3701; stroke-opacity:1; 
stroke-linecap:round; stroke-linejoin:round;">
</g>
<g style="fill:#000000; fill-opacity:0.0; 
stroke:#000000; stroke-width:59.0551; stroke-opacity:1; 
stroke-linecap:round; stroke-linejoin:round;">
<path d="M131962 4050
L132304 4050
L132084 4562
" />
</g>
<g style="fill:#000000; fill-opacity:0.0; 
stroke:#000000; stroke-width:39.3701; stroke-opacity:1; 
stroke-linecap:round; stroke-linejoin:round;">
</g>
<g style="fill:#000000; fill-opacity:0.0; 
stroke:#000000; stroke-width:59.0551; stroke-opacity:1; 
stroke-linecap:round; stroke-linejoin:round;">
<path d="M151769 4269
L151721 4245
L151696 4221
L151672 4172
L151672 4147
L151696 4099
L151721 4074
L151769 4050
L151867 4050
L151916 4074
L151940 4099
L151964 4147
L151964 4172
L151940 4221
L151916 4245
L151867 4269
L151769 4269
L151721 4294
L151696 4318
L151672 4367
L151672 4464
L151696 4513
L151721 4537
L151769 4562
L151867 4562
L151916 4537
L151940 4513
L151964 4464
L151964 4367
L151940 4318
L151916 4294
L151867 4269
" />
</g>
<g style="fill:#000000; fill-opacity:0.0; 
stroke:#000000; stroke-width:39.3701; stroke-opacity:1; 
stroke-linecap:round; stroke-linejoin:round;">
</g>
<g style="fill:#000000; fill-opacity:0.0; 
stroke:#000000; stroke-width:59.0551; stroke-opacity:1; 
stroke-linecap:round; stroke-linejoin:round;">
<path d="M23622 112205
L23622 112992
" />
</g>
<g style="fill:#000000; fill-opacity:0.0; 
stroke:#000000; stroke-width:39.3701; stroke-opacity:1; 
stroke-linecap:round; stroke-linejoin:round;">
</g>
<g style="fill:#000000; fill-opacity:0.0; 
stroke:#000000; stroke-width:59.0551; stroke-opacity:1; 
stroke-linecap:round; stroke-linejoin:round;">
<path d="M43307 112205
L43307 112992
" />
</g>
<g style="fill:#000000; fill-opacity:0.0; 
stroke:#000000; stroke-width:39.3701; stroke-opacity:1; 
stroke-linecap:round; stroke-linejoin:round;">
</g>
<g style="fill:#000000; fill-opacity:0.0; 
stroke:#000000; stroke-width:59.0551; stroke-opacity:1; 
stroke-linecap:round; stroke-linejoin:round;">
<path d="M62992 112205
L62992 112992
" />
</g>
<g style="fill:#000000; fill-opacity:0.0; 
stroke:#000000; stroke-width:39.3701; stroke-opacity:1; 
stroke-linecap:round; stroke-linejoin:round;">
</g>
<g style="fill:#000000; fill-opacity:0.0; 
stroke:#000000; stroke-width:59.0551; stroke-opacity:1; 
stroke-linecap:round; stroke-linejoin:round;">
<path d="M82677 112205
L82677 112992
" />
</g>
<g style="fill:#000000; fill-opacity:0.0; 
stroke:#000000; stroke-width:39.3701; stroke-opacity:1; 
stroke-linecap:round; stroke-linejoin:round;">
</g>
<g style="fill:#000000; fill-opacity:0.0; 
stroke:#000000; stroke-width:59.0551; stroke-opacity:1; 
stroke-linecap:round; stroke-linejoin:round;">
<path d="M102362 112205
L102362 112992
" />
</g>
<g style="fill:#000000; fill-opacity:0.0; 
stroke:#000000; stroke-width:39.3701; stroke-opacity:1; 
stroke-linecap:round; stroke-linejoin:round;">
</g>
<g style="fill:#000000; fill-opacity:0.0; 
stroke:#000000; stroke-width:59.0551; stroke-opacity:1; 
stroke-linecap:round; stroke-linejoin:round;">
<path d="M122047 112205
L122047 112992
" />
</g>
<g style="fill:#000000; fill-opacity:0.0; 
stroke:#000000; stroke-width:39.3701; stroke-opacity:1; 
stroke-linecap:round; stroke-linejoin:round;">
</g>
<g style="fill:#000000; fill-opacity:0.0; 
stroke:#000000; stroke-width:59.0551; stroke-opacity:1; 
stroke-linecap:round; stroke-linejoin:round;">
<path d="M141732 112205
L141732 112992
" />
</g>
<g style="fill:#000000; fill-opacity:0.0; 
stroke:#000000; stroke-width:39.3701; stroke-opacity:1; 
stroke-linecap:round; stroke-linejoin:round;">
</g>
<g style="fill:#000000; fill-opacity:0.0; 
stroke:#000000; stroke-width:59.0551; stroke-opacity:1; 
stroke-linecap:round; stroke-linejoin:round;">
<path d="M14169 112830
L13877 112830
" />
<path d="M14023 112830
L14023 112319
L13974 112392
L13925 112440
L13877 112465
" />
</g>
<g style="fill:#000000; fill-opacity:0.0; 
stroke:#000000; stroke-width:39.3701; stroke-opacity:1; 
stroke-linecap:round; stroke-linejoin:round;">
</g>
<g style="fill:#000000; fill-opacity:0.0; 
stroke:#000000; stroke-width:59.0551; stroke-opacity:1; 
stroke-linecap:round; stroke-linejoin:round;">
<path d="M33562 112367
L33586 112343
L33635 112319
L33757 112319
L33805 112343
L33830 112367
L33854 112416
L33854 112465
L33830 112538
L33537 112830
L33854 112830
" />
</g>
<g style="fill:#000000; fill-opacity:0.0; 
stroke:#000000; stroke-width:39.3701; stroke-opacity:1; 
stroke-linecap:round; stroke-linejoin:round;">
</g>
<g style="fill:#000000; fill-opacity:0.0; 
stroke:#000000; stroke-width:59.0551; stroke-opacity:1; 
stroke-linecap:round; stroke-linejoin:round;">
<path d="M53222 112319
L53539 112319
L53368 112513
L53442 112513
L53490 112538
L53515 112562
L53539 112611
L53539 112733
L53515 112782
L53490 112806
L53442 112830
L53295 112830
L53247 112806
L53222 112782
" />
</g>
<g style="fill:#000000; fill-opacity:0.0; 
stroke:#000000; stroke-width:39.3701; stroke-opacity:1; 
stroke-linecap:round; stroke-linejoin:round;">
</g>
<g style="fill:#000000; fill-opacity:0.0; 
stroke:#000000; stroke-width:59.0551; stroke-opacity:1; 
stroke-linecap:round; stroke-linejoin:round;">
<path d="M73175 112489
L73175 112830
" />
<path d="M73053 112294
L72932 112660
L73248 112660
" />
</g>
<g style="fill:#000000; fill-opacity:0.0; 
stroke:#000000; stroke-width:39.3701; stroke-opacity:1; 
stroke-linecap:round; stroke-linejoin:round;">
</g>
<g style="fill:#000000; fill-opacity:0.0; 
stroke:#000000; stroke-width:59.0551; stroke-opacity:1; 
stroke-linecap:round; stroke-linejoin:round;">
<path d="M92885 112319
L92641 112319
L92617 112562
L92641 112538
L92690 112513
L92812 112513
L92860 112538
L92885 112562
L92909 112611
L92909 112733
L92885 112782
L92860 112806
L92812 112830
L92690 112830
L92641 112806
L92617 112782
" />
</g>
<g style="fill:#000000; fill-opacity:0.0; 
stroke:#000000; stroke-width:39.3701; stroke-opacity:1; 
stroke-linecap:round; stroke-linejoin:round;">
</g>
<g style="fill:#000000; fill-opacity:0.0; 
stroke:#000000; stroke-width:59.0551; stroke-opacity:1; 
stroke-linecap:round; stroke-linejoin:round;">
<path d="M112545 112319
L112448 112319
L112399 112343
L112375 112367
L112326 112440
L112302 112538
L112302 112733
L112326 112782
L112350 112806
L112399 112830
L112497 112830
L112545 112806
L112570 112782
L112594 112733
L112594 112611
L112570 112562
L112545 112538
L112497 112513
L112399 112513
L112350 112538
L112326 112562
L112302 112611
" />
</g>
<g style="fill:#000000; fill-opacity:0.0; 
stroke:#000000; stroke-width:39.3701; stroke-opacity:1; 
stroke-linecap:round; stroke-linejoin:round;">
</g>
<g style="fill:#000000; fill-opacity:0.0; 
stroke:#000000; stroke-width:59.0551; stroke-opacity:1; 
stroke-linecap:round; stroke-linejoin:round;">
<path d="M131962 112319
L132304 112319
L132084 112830
" />
</g>
<g style="fill:#000000; fill-opacity:0.0; 
stroke:#000000; stroke-width:39.3701; stroke-opacity:1; 
stroke-linecap:round; stroke-linejoin:round;">
</g>
<g style="fill:#000000; fill-opacity:0.0; 
stroke:#000000; stroke-width:59.0551; stroke-opacity:1; 
stroke-linecap:round; stroke-linejoin:round;">
<path d="M151769 112538
L151721 112513
L151696 112489
L151672 112440
L151672 112416
L151696 112367
L151721 112343
L151769 112319
L151867 112319
L151916 112343
L151940 112367
L151964 112416
L151964 112440
L151940 112489
L151916 112513
L151867 112538
L151769 112538
L151721 112562
L151696 112587
L151672 112635
L151672 112733
L151696 112782
L151721 112806
L151769 112830
L151867 112830
L151916 112806
L151940 112782
L151964 112733
L151964 112635
L151940 112587
L151916 112562
L151867 112538
" />
</g>
<g style="fill:#000000; fill-opacity:0.0; 
stroke:#000000; stroke-width:39.3701; stroke-opacity:1; 
stroke-linecap:round; stroke-linejoin:round;">
</g>
<g style="fill:#000000; fill-opacity:0.0; 
stroke:#000000; stroke-width:59.0551; stroke-opacity:1; 
stroke-linecap:round; stroke-linejoin:round;">
<path d="M3937 23622
L4724 23622
" />
</g>
<g style="fill:#000000; fill-opacity:0.0; 
stroke:#000000; stroke-width:39.3701; stroke-opacity:1; 
stroke-linecap:round; stroke-linejoin:round;">
</g>
<g style="fill:#000000; fill-opacity:0.0; 
stroke:#000000; stroke-width:59.0551; stroke-opacity:1; 
stroke-linecap:round; stroke-linejoin:round;">
<path d="M3937 43307
L4724 43307
" />
</g>
<g style="fill:#000000; fill-opacity:0.0; 
stroke:#000000; stroke-width:39.3701; stroke-opacity:1; 
stroke-linecap:round; stroke-linejoin:round;">
</g>
<g style="fill:#000000; fill-opacity:0.0; 
stroke:#000000; stroke-width:59.0551; stroke-opacity:1; 
stroke-linecap:round; stroke-linejoin:round;">
<path d="M3937 62992
L4724 62992
" />
</g>
<g style="fill:#000000; fill-opacity:0.0; 
stroke:#000000; stroke-width:39.3701; stroke-opacity:1; 
stroke-linecap:round; stroke-linejoin:round;">
</g>
<g style="fill:#000000; fill-opacity:0.0; 
stroke:#000000; stroke-width:59.0551; stroke-opacity:1; 
stroke-linecap:round; stroke-linejoin:round;">
<path d="M3937 82677
L4724 82677
" />
</g>
<g style="fill:#000000; fill-opacity:0.0; 
stroke:#000000; stroke-width:39.3701; stroke-opacity:1; 
stroke-linecap:round; stroke-linejoin:round;">
</g>
<g style="fill:#000000; fill-opacity:0.0; 
stroke:#000000; stroke-width:59.0551; stroke-opacity:1; 
stroke-linecap:round; stroke-linejoin:round;">
<path d="M3937 102362
L4724 102362
" />
</g>
<g style="fill:#000000; fill-opacity:0.0; 
stroke:#000000; stroke-width:39.3701; stroke-opacity:1; 
stroke-linecap:round; stroke-linejoin:round;">
</g>
<g style="fill:#000000; fill-opacity:0.0; 
stroke:#000000; stroke-width:59.0551; stroke-opacity:1; 
stroke-linecap:round; stroke-linejoin:round;">
<path d="M4208 13864
L4452 13864
" />
<path d="M4160 14011
L4330 13499
L4501 14011
" />
</g>
<g style="fill:#000000; fill-opacity:0.0; 
stroke:#000000; stroke-width:39.3701; stroke-opacity:1; 
stroke-linecap:round; stroke-linejoin:round;">
</g>
<g style="fill:#000000; fill-opacity:0.0; 
stroke:#000000; stroke-width:59.0551; stroke-opacity:1; 
stroke-linecap:round; stroke-linejoin:round;">
<path d="M4367 33428
L4440 33452
L4464 33476
L4489 33525
L4489 33598
L4464 33647
L4440 33671
L4391 33696
L4196 33696
L4196 33184
L4367 33184
L4416 33208
L4440 33233
L4464 33281
L4464 33330
L4440 33379
L4416 33403
L4367 33428
L4196 33428
" />
</g>
<g style="fill:#000000; fill-opacity:0.0; 
stroke:#000000; stroke-width:39.3701; stroke-opacity:1; 
stroke-linecap:round; stroke-linejoin:round;">
</g>
<g style="fill:#000000; fill-opacity:0.0; 
stroke:#000000; stroke-width:59.0551; stroke-opacity:1; 
stroke-linecap:round; stroke-linejoin:round;">
<path d="M4489 53332
L4464 53356
L4391 53381
L4342 53381
L4269 53356
L4221 53308
L4196 53259
L4172 53161
L4172 53088
L4196 52991
L4221 52942
L4269 52893
L4342 52869
L4391 52869
L4464 52893
L4489 52918
" />
</g>
<g style="fill:#000000; fill-opacity:0.0; 
stroke:#000000; stroke-width:39.3701; stroke-opacity:1; 
stroke-linecap:round; stroke-linejoin:round;">
</g>
<g style="fill:#000000; fill-opacity:0.0; 
stroke:#000000; stroke-width:59.0551; stroke-opacity:1; 
stroke-linecap:round; stroke-linejoin:round;">
<path d="M4196 73066
L4196 72554
L4318 72554
L4391 72578
L4440 72627
L4464 72676
L4489 72773
L4489 72846
L4464 72944
L4440 72993
L4391 73041
L4318 73066
L4196 73066
" />
</g>
<g style="fill:#000000; fill-opacity:0.0; 
stroke:#000000; stroke-width:39.3701; stroke-opacity:1; 
stroke-linecap:round; stroke-linejoin:round;">
</g>
<g style="fill:#000000; fill-opacity:0.0; 
stroke:#000000; stroke-width:59.0551; stroke-opacity:1; 
stroke-linecap:round; stroke-linejoin:round;">
<path d="M4221 92483
L4391 92483
" />
<path d="M4464 92751
L4221 92751
L4221 92239
L4464 92239
" />
</g>
<g style="fill:#000000; fill-opacity:0.0; 
stroke:#000000; stroke-width:39.3701; stroke-opacity:1; 
stroke-linecap:round; stroke-linejoin:round;">
</g>
<g style="fill:#000000; fill-opacity:0.0; 
stroke:#000000; stroke-width:59.0551; stroke-opacity:1; 
stroke-linecap:round; stroke-linejoin:round;">
<path d="M4403 112168
L4233 112168
" />
<path d="M4233 112436
L4233 111924
L4476 111924
" />
</g>
<g style="fill:#000000; fill-opacity:0.0; 
stroke:#000000; stroke-width:39.3701; stroke-opacity:1; 
stroke-linecap:round; stroke-linejoin:round;">
</g>
<g style="fill:#000000; fill-opacity:0.0; 
stroke:#000000; stroke-width:59.0551; stroke-opacity:1; 
stroke-linecap:round; stroke-linejoin:round;">
<path d="M161412 23622
L160625 23622
" />
</g>
<g style="fill:#000000; fill-opacity:0.0; 
stroke:#000000; stroke-width:39.3701; stroke-opacity:1; 
stroke-linecap:round; stroke-linejoin:round;">
</g>
<g style="fill:#000000; fill-opacity:0.0; 
stroke:#000000; stroke-width:59.0551; stroke-opacity:1; 
stroke-linecap:round; stroke-linejoin:round;">
<path d="M161412 43307
L160625 43307
" />
</g>
<g style="fill:#000000; fill-opacity:0.0; 
stroke:#000000; stroke-width:39.3701; stroke-opacity:1; 
stroke-linecap:round; stroke-linejoin:round;">
</g>
<g style="fill:#000000; fill-opacity:0.0; 
stroke:#000000; stroke-width:59.0551; stroke-opacity:1; 
stroke-linecap:round; stroke-linejoin:round;">
<path d="M161412 62992
L160625 62992
" />
</g>
<g style="fill:#000000; fill-opacity:0.0; 
stroke:#000000; stroke-width:39.3701; stroke-opacity:1; 
stroke-linecap:round; stroke-linejoin:round;">
</g>
<g style="fill:#000000; fill-opacity:0.0; 
stroke:#000000; stroke-width:59.0551; stroke-opacity:1; 
stroke-linecap:round; stroke-linejoin:round;">
<path d="M161412 82677
L160625 82677
" />
</g>
<g style="fill:#000000; fill-opacity:0.0; 
stroke:#000000; stroke-width:39.3701; stroke-opacity:1; 
stroke-linecap:round; stroke-linejoin:round;">
</g>
<g style="fill:#000000; fill-opacity:0.0; 
stroke:#000000; stroke-width:59.0551; stroke-opacity:1; 
stroke-linecap:round; stroke-linejoin:round;">
<path d="M161412 102362
L160625 102362
" />
</g>
<g style="fill:#000000; fill-opacity:0.0; 
stroke:#000000; stroke-width:39.3701; stroke-opacity:1; 
stroke-linecap:round; stroke-linejoin:round;">
</g>
<g style="fill:#000000; fill-opacity:0.0; 
stroke:#000000; stroke-width:59.0551; stroke-opacity:1; 
stroke-linecap:round; stroke-linejoin:round;">
<path d="M160897 13864
L161141 13864
" />
<path d="M160848 14011
L161019 13499
L161189 14011
" />
</g>
<g style="fill:#000000; fill-opacity:0.0; 
stroke:#000000; stroke-width:39.3701; stroke-opacity:1; 
stroke-linecap:round; stroke-linejoin:round;">
</g>
<g style="fill:#000000; fill-opacity:0.0; 
stroke:#000000; stroke-width:59.0551; stroke-opacity:1; 
stroke-linecap:round; stroke-linejoin:round;">
<path d="M161055 33428
L161128 33452
L161153 33476
L161177 33525
L161177 33598
L161153 33647
L161128 33671
L161080 33696
L160885 33696
L160885 33184
L161055 33184
L161104 33208
L161128 33233
L161153 33281
L161153 33330
L161128 33379
L161104 33403
L161055 33428
L160885 33428
" />
</g>
<g style="fill:#000000; fill-opacity:0.0; 
stroke:#000000; stroke-width:39.3701; stroke-opacity:1; 
stroke-linecap:round; stroke-linejoin:round;">
</g>
<g style="fill:#000000; fill-opacity:0.0; 
stroke:#000000; stroke-width:59.0551; stroke-opacity:1; 
stroke-linecap:round; stroke-linejoin:round;">
<path d="M161177 53332
L161153 53356
L161080 53381
L161031 53381
L160958 53356
L160909 53308
L160885 53259
L160860 53161
L160860 53088
L160885 52991
L160909 52942
L160958 52893
L161031 52869
L161080 52869
L161153 52893
L161177 52918
" />
</g>
<g style="fill:#000000; fill-opacity:0.0; 
stroke:#000000; stroke-width:39.3701; stroke-opacity:1; 
stroke-linecap:round; stroke-linejoin:round;">
</g>
<g style="fill:#000000; fill-opacity:0.0; 
stroke:#000000; stroke-width:59.0551; stroke-opacity:1; 
stroke-linecap:round; stroke-linejoin:round;">
<path d="M160885 73066
L160885 72554
L161007 72554
L161080 72578
L161128 72627
L161153 72676
L161177 72773
L161177 72846
L161153 72944
L161128 72993
L161080 73041
L161007 73066
L160885 73066
" />
</g>
<g style="fill:#000000; fill-opacity:0.0; 
stroke:#000000; stroke-width:39.3701; stroke-opacity:1; 
stroke-linecap:round; stroke-linejoin:round;">
</g>
<g style="fill:#000000; fill-opacity:0.0; 
stroke:#000000; stroke-width:59.0551; stroke-opacity:1; 
stroke-linecap:round; stroke-linejoin:round;">
<path d="M160909 92483
L161080 92483
" />
<path d="M161153 92751
L160909 92751
L160909 92239
L161153 92239
" />
</g>
<g style="fill:#000000; fill-opacity:0.0; 
stroke:#000000; stroke-width:39.3701; stroke-opacity:1; 
stroke-linecap:round; stroke-linejoin:round;">
</g>
<g style="fill:#000000; fill-opacity:0.0; 
stroke:#000000; stroke-width:59.0551; stroke-opacity:1; 
stroke-linecap:round; stroke-linejoin:round;">
<path d="M161092 112168
L160921 112168
" />
<path d="M160921 112436
L160921 111924
L161165 111924
" />
</g>
<g style="fill:#000000; fill-opacity:0.0; 
stroke:#000000; stroke-width:39.3701; stroke-opacity:1; 
stroke-linecap:round; stroke-linejoin:round;">
</g>
<g style="fill:#000000; fill-opacity:0.0; 
stroke:#000000; stroke-width:59.0551; stroke-opacity:1; 
stroke-linecap:round; stroke-linejoin:round;">
<path d="M127301 110543
L127301 109953
L127442 109953
L127526 109981
L127582 110037
L127610 110093
L127639 110206
L127639 110290
L127610 110403
L127582 110459
L127526 110515
L127442 110543
L127301 110543
" />
<path d="M128145 110543
L128145 110234
L128117 110178
L128060 110149
L127948 110149
L127892 110178
" />
<path d="M128145 110515
L128089 110543
L127948 110543
L127892 110515
L127864 110459
L127864 110403
L127892 110346
L127948 110318
L128089 110318
L128145 110290
" />
<path d="M128342 110149
L128567 110149
" />
<path d="M128426 109953
L128426 110459
L128454 110515
L128510 110543
L128567 110543
" />
<path d="M128988 110515
L128932 110543
L128820 110543
L128763 110515
L128735 110459
L128735 110234
L128763 110178
L128820 110149
L128932 110149
L128988 110178
L129017 110234
L129017 110290
L128735 110346
" />
<path d="M129270 110487
L129298 110515
L129270 110543
L129242 110515
L129270 110487
L129270 110543
" />
<path d="M129270 110178
L129298 110206
L129270 110234
L129242 110206
L129270 110178
L129270 110234
" />
</g>
<g style="fill:#000000; fill-opacity:0.0; 
stroke:#000000; stroke-width:39.3701; stroke-opacity:1; 
stroke-linecap:round; stroke-linejoin:round;">
</g>
<g style="fill:#000000; fill-opacity:0.0; 
stroke:#000000; stroke-width:59.0551; stroke-opacity:1; 
stroke-linecap:round; stroke-linejoin:round;">
<path d="M118105 110827
L160625 110827
" />
</g>
<g style="fill:#000000; fill-opacity:0.0; 
stroke:#000000; stroke-width:39.3701; stroke-opacity:1; 
stroke-linecap:round; stroke-linejoin:round;">
</g>
<g style="fill:#000000; fill-opacity:0.0; 
stroke:#000000; stroke-width:59.0551; stroke-opacity:1; 
stroke-linecap:round; stroke-linejoin:round;">
<path d="M118640 111645
L118640 111055
" />
<path d="M118977 111645
L118724 111308
" />
<path d="M118977 111055
L118640 111392
" />
<path d="M119230 111645
L119230 111252
" />
<path d="M119230 111055
L119202 111083
L119230 111111
L119258 111083
L119230 111055
L119230 111111
" />
<path d="M119849 111589
L119821 111617
L119736 111645
L119680 111645
L119596 111617
L119540 111561
L119511 111505
L119483 111392
L119483 111308
L119511 111196
L119540 111139
L119596 111083
L119680 111055
L119736 111055
L119821 111083
L119849 111111
" />
<path d="M120355 111645
L120355 111336
L120327 111280
L120271 111252
L120158 111252
L120102 111280
" />
<path d="M120355 111617
L120299 111645
L120158 111645
L120102 111617
L120074 111561
L120074 111505
L120102 111449
L120158 111421
L120299 111421
L120355 111392
" />
<path d="M120889 111645
L120889 111055
" />
<path d="M120889 111617
L120833 111645
L120721 111645
L120664 111617
L120636 111589
L120608 111533
L120608 111364
L120636 111308
L120664 111280
L120721 111252
L120833 111252
L120889 111280
" />
<path d="M121621 111336
L121817 111336
" />
<path d="M121902 111645
L121621 111645
L121621 111055
L121902 111055
" />
<path d="M122155 111589
L122183 111617
L122155 111645
L122127 111617
L122155 111589
L122155 111645
" />
<path d="M122436 111645
L122436 111055
L122577 111055
L122661 111083
L122717 111139
L122745 111196
L122774 111308
L122774 111392
L122745 111505
L122717 111561
L122661 111617
L122577 111645
L122436 111645
" />
<path d="M123027 111589
L123055 111617
L123027 111645
L122999 111617
L123027 111589
L123027 111645
" />
<path d="M123280 111477
L123561 111477
" />
<path d="M123224 111645
L123420 111055
L123617 111645
" />
<path d="M123814 111589
L123842 111617
L123814 111645
L123786 111617
L123814 111589
L123814 111645
" />
<path d="M124995 111645
L124995 111055
" />
<path d="M125051 111421
L125220 111645
" />
<path d="M125220 111252
L124995 111477
" />
<path d="M125473 111645
L125473 111252
" />
<path d="M125473 111055
L125445 111083
L125473 111111
L125501 111083
L125473 111055
L125473 111111
" />
<path d="M126008 111617
L125951 111645
L125839 111645
L125783 111617
L125754 111589
L125726 111533
L125726 111364
L125754 111308
L125783 111280
L125839 111252
L125951 111252
L126008 111280
" />
<path d="M126514 111645
L126514 111336
L126486 111280
L126429 111252
L126317 111252
L126261 111280
" />
<path d="M126514 111617
L126457 111645
L126317 111645
L126261 111617
L126233 111561
L126233 111505
L126261 111449
L126317 111421
L126457 111421
L126514 111392
" />
<path d="M127048 111645
L127048 111055
" />
<path d="M127048 111617
L126992 111645
L126879 111645
L126823 111617
L126795 111589
L126767 111533
L126767 111364
L126795 111308
L126823 111280
L126879 111252
L126992 111252
L127048 111280
" />
<path d="M127948 111870
L127920 111842
L127864 111758
L127835 111702
L127807 111617
L127779 111477
L127779 111364
L127807 111224
L127835 111139
L127864 111083
L127920 110999
L127948 110971
" />
<path d="M128145 111111
L128173 111083
L128229 111055
L128370 111055
L128426 111083
L128454 111111
L128482 111167
L128482 111224
L128454 111308
L128117 111645
L128482 111645
" />
<path d="M128848 111055
L128904 111055
L128960 111083
L128988 111111
L129017 111167
L129045 111280
L129045 111421
L129017 111533
L128988 111589
L128960 111617
L128904 111645
L128848 111645
L128792 111617
L128763 111589
L128735 111533
L128707 111421
L128707 111280
L128735 111167
L128763 111111
L128792 111083
L128848 111055
" />
<path d="M129607 111645
L129270 111645
" />
<path d="M129438 111645
L129438 111055
L129382 111139
L129326 111196
L129270 111224
" />
<path d="M130141 111055
L129860 111055
L129832 111336
L129860 111308
L129916 111280
L130057 111280
L130113 111308
L130141 111336
L130170 111392
L130170 111533
L130141 111589
L130113 111617
L130057 111645
L129916 111645
L129860 111617
L129832 111589
" />
<path d="M130423 111421
L130873 111421
" />
<path d="M131266 111055
L131323 111055
L131379 111083
L131407 111111
L131435 111167
L131463 111280
L131463 111421
L131435 111533
L131407 111589
L131379 111617
L131323 111645
L131266 111645
L131210 111617
L131182 111589
L131154 111533
L131126 111421
L131126 111280
L131154 111167
L131182 111111
L131210 111083
L131266 111055
" />
<path d="M131660 111055
L132026 111055
L131829 111280
L131913 111280
L131969 111308
L131997 111336
L132026 111392
L132026 111533
L131997 111589
L131969 111617
L131913 111645
L131744 111645
L131688 111617
L131660 111589
" />
<path d="M132279 111421
L132729 111421
" />
<path d="M133319 111645
L132982 111645
" />
<path d="M133150 111645
L133150 111055
L133094 111139
L133038 111196
L132982 111224
" />
<path d="M133657 111308
L133600 111280
L133572 111252
L133544 111196
L133544 111167
L133572 111111
L133600 111083
L133657 111055
L133769 111055
L133825 111083
L133853 111111
L133882 111167
L133882 111196
L133853 111252
L133825 111280
L133769 111308
L133657 111308
L133600 111336
L133572 111364
L133544 111421
L133544 111533
L133572 111589
L133600 111617
L133657 111645
L133769 111645
L133825 111617
L133853 111589
L133882 111533
L133882 111421
L133853 111364
L133825 111336
L133769 111308
" />
<path d="M134781 111336
L134866 111364
L134894 111392
L134922 111449
L134922 111533
L134894 111589
L134866 111617
L134810 111645
L134585 111645
L134585 111055
L134781 111055
L134838 111083
L134866 111111
L134894 111167
L134894 111224
L134866 111280
L134838 111308
L134781 111336
L134585 111336
" />
<path d="M135119 111055
L135513 111055
L135119 111645
L135513 111645
" />
<path d="M136075 111645
L135878 111364
" />
<path d="M135738 111645
L135738 111055
L135963 111055
L136019 111083
L136047 111111
L136075 111167
L136075 111252
L136047 111308
L136019 111336
L135963 111364
L135738 111364
" />
<path d="M137059 111055
L136778 111055
L136750 111336
L136778 111308
L136834 111280
L136975 111280
L137031 111308
L137059 111336
L137087 111392
L137087 111533
L137059 111589
L137031 111617
L136975 111645
L136834 111645
L136778 111617
L136750 111589
" />
<path d="M137622 111055
L137341 111055
L137312 111336
L137341 111308
L137397 111280
L137537 111280
L137594 111308
L137622 111336
L137650 111392
L137650 111533
L137622 111589
L137594 111617
L137537 111645
L137397 111645
L137341 111617
L137312 111589
" />
<path d="M137875 111111
L137903 111083
L137959 111055
L138100 111055
L138156 111083
L138184 111111
L138212 111167
L138212 111224
L138184 111308
L137847 111645
L138212 111645
" />
<path d="M138747 111055
L138465 111055
L138437 111336
L138465 111308
L138522 111280
L138662 111280
L138718 111308
L138747 111336
L138775 111392
L138775 111533
L138747 111589
L138718 111617
L138662 111645
L138522 111645
L138465 111617
L138437 111589
" />
<path d="M138972 111870
L139000 111842
L139056 111758
L139084 111702
L139112 111617
L139140 111477
L139140 111364
L139112 111224
L139084 111139
L139056 111083
L139000 110999
L138972 110971
" />
<path d="M139421 111421
L139871 111421
" />
<path d="M140153 111252
L140153 111842
" />
<path d="M140153 111280
L140209 111252
L140321 111252
L140378 111280
L140406 111308
L140434 111364
L140434 111533
L140406 111589
L140378 111617
L140321 111645
L140209 111645
L140153 111617
" />
<path d="M140687 111645
L140687 111252
" />
<path d="M140687 111364
L140715 111308
L140743 111280
L140799 111252
L140856 111252
" />
<path d="M141137 111645
L141081 111617
L141053 111589
L141024 111533
L141024 111364
L141053 111308
L141081 111280
L141137 111252
L141221 111252
L141278 111280
L141306 111308
L141334 111364
L141334 111533
L141306 111589
L141278 111617
L141221 111645
L141137 111645
" />
<path d="M141840 111645
L141840 111055
" />
<path d="M141840 111617
L141784 111645
L141671 111645
L141615 111617
L141587 111589
L141559 111533
L141559 111364
L141587 111308
L141615 111280
L141671 111252
L141784 111252
L141840 111280
" />
<path d="M142374 111252
L142374 111645
" />
<path d="M142121 111252
L142121 111561
L142149 111617
L142206 111645
L142290 111645
L142346 111617
L142374 111589
" />
<path d="M142909 111617
L142852 111645
L142740 111645
L142684 111617
L142655 111589
L142627 111533
L142627 111364
L142655 111308
L142684 111280
L142740 111252
L142852 111252
L142909 111280
" />
<path d="M143077 111252
L143302 111252
" />
<path d="M143162 111055
L143162 111561
L143190 111617
L143246 111645
L143302 111645
" />
</g>
<g style="fill:#000000; fill-opacity:0.0; 
stroke:#000000; stroke-width:39.3701; stroke-opacity:1; 
stroke-linecap:round; stroke-linejoin:round;">
</g>
<g style="fill:#000000; fill-opacity:0.0; 
stroke:#000000; stroke-width:59.0551; stroke-opacity:1; 
stroke-linecap:round; stroke-linejoin:round;">
<path d="M118105 109646
L160625 109646
" />
</g>
<g style="fill:#000000; fill-opacity:0.0; 
stroke:#000000; stroke-width:39.3701; stroke-opacity:1; 
stroke-linecap:round; stroke-linejoin:round;">
</g>
<g style="fill:#000000; fill-opacity:0.0; 
stroke:#000000; stroke-width:118.11; stroke-opacity:1; 
stroke-linecap:round; stroke-linejoin:round;">
<path d="M152442 110543
L152245 110262
" />
<path d="M152104 110543
L152104 109953
L152329 109953
L152385 109981
L152414 110009
L152442 110065
L152442 110149
L152414 110206
L152385 110234
L152329 110262
L152104 110262
" />
<path d="M152920 110515
L152864 110543
L152751 110543
L152695 110515
L152667 110459
L152667 110234
L152695 110178
L152751 110149
L152864 110149
L152920 110178
L152948 110234
L152948 110290
L152667 110346
" />
<path d="M153145 110149
L153285 110543
L153426 110149
" />
<path d="M153651 110487
L153679 110515
L153651 110543
L153623 110515
L153651 110487
L153651 110543
" />
<path d="M153651 110178
L153679 110206
L153651 110234
L153623 110206
L153651 110178
L153651 110234
" />
</g>
<g style="fill:#000000; fill-opacity:0.0; 
stroke:#000000; stroke-width:39.3701; stroke-opacity:1; 
stroke-linecap:round; stroke-linejoin:round;">
</g>
<g style="fill:#000000; fill-opacity:0.0; 
stroke:#000000; stroke-width:59.0551; stroke-opacity:1; 
stroke-linecap:round; stroke-linejoin:round;">
<path d="M118612 110515
L118696 110543
L118837 110543
L118893 110515
L118921 110487
L118949 110431
L118949 110374
L118921 110318
L118893 110290
L118837 110262
L118724 110234
L118668 110206
L118640 110178
L118612 110121
L118612 110065
L118640 110009
L118668 109981
L118724 109953
L118865 109953
L118949 109981
" />
<path d="M119202 110543
L119202 110149
" />
<path d="M119202 109953
L119174 109981
L119202 110009
L119230 109981
L119202 109953
L119202 110009
" />
<path d="M119427 110149
L119736 110149
L119427 110543
L119736 110543
" />
<path d="M120186 110515
L120130 110543
L120018 110543
L119961 110515
L119933 110459
L119933 110234
L119961 110178
L120018 110149
L120130 110149
L120186 110178
L120215 110234
L120215 110290
L119933 110346
" />
<path d="M120468 110487
L120496 110515
L120468 110543
L120439 110515
L120468 110487
L120468 110543
" />
<path d="M120468 110178
L120496 110206
L120468 110234
L120439 110206
L120468 110178
L120468 110234
" />
<path d="M121171 110374
L121452 110374
" />
<path d="M121114 110543
L121311 109953
L121508 110543
" />
<path d="M121649 109953
L122014 109953
L121817 110178
L121902 110178
L121958 110206
L121986 110234
L122014 110290
L122014 110431
L121986 110487
L121958 110515
L121902 110543
L121733 110543
L121677 110515
L121649 110487
" />
</g>
<g style="fill:#000000; fill-opacity:0.0; 
stroke:#000000; stroke-width:39.3701; stroke-opacity:1; 
stroke-linecap:round; stroke-linejoin:round;">
</g>
<g style="fill:#000000; fill-opacity:0.0; 
stroke:#000000; stroke-width:59.0551; stroke-opacity:1; 
stroke-linecap:round; stroke-linejoin:round;">
<path d="M152104 111645
L152104 111055
" />
<path d="M152639 111645
L152639 111055
" />
<path d="M152639 111617
L152582 111645
L152470 111645
L152414 111617
L152385 111589
L152357 111533
L152357 111364
L152385 111308
L152414 111280
L152470 111252
L152582 111252
L152639 111280
" />
<path d="M152920 111589
L152948 111617
L152920 111645
L152892 111617
L152920 111589
L152920 111645
" />
<path d="M152920 111280
L152948 111308
L152920 111336
L152892 111308
L152920 111280
L152920 111336
" />
<path d="M153960 111645
L153623 111645
" />
<path d="M153792 111645
L153792 111055
L153735 111139
L153679 111196
L153623 111224
" />
<path d="M154635 111027
L154129 111786
" />
<path d="M155141 111645
L154804 111645
" />
<path d="M154973 111645
L154973 111055
L154916 111139
L154860 111196
L154804 111224
" />
</g>
<g style="fill:#000000; fill-opacity:0.0; 
stroke:#000000; stroke-width:39.3701; stroke-opacity:1; 
stroke-linecap:round; stroke-linejoin:round;">
</g>
<g style="fill:#000000; fill-opacity:0.0; 
stroke:#000000; stroke-width:59.0551; stroke-opacity:1; 
stroke-linecap:round; stroke-linejoin:round;">
<path d="M118105 108071
L160625 108071
" />
</g>
<g style="fill:#000000; fill-opacity:0.0; 
stroke:#000000; stroke-width:39.3701; stroke-opacity:1; 
stroke-linecap:round; stroke-linejoin:round;">
</g>
<g style="fill:#000000; fill-opacity:0.0; 
stroke:#000000; stroke-width:157.48; stroke-opacity:1; 
stroke-linecap:round; stroke-linejoin:round;">
<path d="M118677 108349
L119127 108349
" />
<path d="M118804 109136
L118902 108349
" />
<path d="M119291 109136
L119357 108611
" />
<path d="M119390 108349
L119347 108386
L119380 108424
L119422 108386
L119390 108349
L119380 108424
" />
<path d="M119619 108611
L119919 108611
" />
<path d="M119765 108349
L119680 109024
L119708 109099
L119779 109136
L119854 109136
" />
<path d="M120229 109136
L120158 109099
L120130 109024
L120215 108349
" />
<path d="M120833 109099
L120754 109136
L120604 109136
L120533 109099
L120505 109024
L120543 108724
L120589 108649
L120669 108611
L120819 108611
L120889 108649
L120918 108724
L120908 108799
L120524 108874
" />
<path d="M121213 109061
L121246 109099
L121203 109136
L121171 109099
L121213 109061
L121203 109136
" />
<path d="M121264 108649
L121297 108686
L121255 108724
L121222 108686
L121264 108649
L121255 108724
" />
</g>
<g style="fill:#000000; fill-opacity:0.0; 
stroke:#000000; stroke-width:39.3701; stroke-opacity:1; 
stroke-linecap:round; stroke-linejoin:round;">
</g>
<g style="fill:#000000; fill-opacity:0.0; 
stroke:#000000; stroke-width:59.0551; stroke-opacity:1; 
stroke-linecap:round; stroke-linejoin:round;">
<path d="M118837 107320
L118640 107320
" />
<path d="M118640 107630
L118640 107039
L118921 107039
" />
<path d="M119146 107630
L119146 107236
" />
<path d="M119146 107039
L119118 107067
L119146 107095
L119174 107067
L119146 107039
L119146 107095
" />
<path d="M119511 107630
L119455 107602
L119427 107545
L119427 107039
" />
<path d="M119961 107602
L119905 107630
L119793 107630
L119736 107602
L119708 107545
L119708 107320
L119736 107264
L119793 107236
L119905 107236
L119961 107264
L119990 107320
L119990 107377
L119708 107433
" />
<path d="M120243 107573
L120271 107602
L120243 107630
L120215 107602
L120243 107573
L120243 107630
" />
<path d="M120243 107264
L120271 107292
L120243 107320
L120215 107292
L120243 107264
L120243 107320
" />
<path d="M121227 107602
L121171 107630
L121058 107630
L121002 107602
L120974 107573
L120946 107517
L120946 107349
L120974 107292
L121002 107264
L121058 107236
L121171 107236
L121227 107264
" />
<path d="M121733 107630
L121733 107320
L121705 107264
L121649 107236
L121536 107236
L121480 107264
" />
<path d="M121733 107602
L121677 107630
L121536 107630
L121480 107602
L121452 107545
L121452 107489
L121480 107433
L121536 107405
L121677 107405
L121733 107377
" />
<path d="M122014 107630
L122014 107236
" />
<path d="M122014 107349
L122042 107292
L122071 107264
L122127 107236
L122183 107236
" />
<path d="M122296 107236
L122520 107236
" />
<path d="M122380 107039
L122380 107545
L122408 107602
L122464 107630
L122520 107630
" />
<path d="M122942 107602
L122886 107630
L122774 107630
L122717 107602
L122689 107545
L122689 107320
L122717 107264
L122774 107236
L122886 107236
L122942 107264
L122970 107320
L122970 107377
L122689 107433
" />
<path d="M123083 107686
L123533 107686
" />
<path d="M123927 107630
L123927 107320
L123898 107264
L123842 107236
L123730 107236
L123673 107264
" />
<path d="M123927 107602
L123870 107630
L123730 107630
L123673 107602
L123645 107545
L123645 107489
L123673 107433
L123730 107405
L123870 107405
L123927 107377
" />
<path d="M124292 107630
L124236 107602
L124208 107545
L124208 107039
" />
<path d="M124517 107630
L124517 107236
" />
<path d="M124517 107039
L124489 107067
L124517 107095
L124545 107067
L124517 107039
L124517 107095
" />
<path d="M124798 107630
L124798 107236
" />
<path d="M124798 107292
L124826 107264
L124883 107236
L124967 107236
L125023 107264
L125051 107320
L125051 107630
" />
<path d="M125051 107320
L125080 107264
L125136 107236
L125220 107236
L125276 107264
L125305 107320
L125305 107630
" />
<path d="M125586 107573
L125614 107602
L125586 107630
L125558 107602
L125586 107573
L125586 107630
" />
<path d="M125867 107630
L125867 107039
" />
<path d="M125923 107405
L126092 107630
" />
<path d="M126092 107236
L125867 107461
" />
<path d="M126345 107630
L126345 107236
" />
<path d="M126345 107039
L126317 107067
L126345 107095
L126373 107067
L126345 107039
L126345 107095
" />
<path d="M126879 107602
L126823 107630
L126711 107630
L126654 107602
L126626 107573
L126598 107517
L126598 107349
L126626 107292
L126654 107264
L126711 107236
L126823 107236
L126879 107264
" />
<path d="M127385 107630
L127385 107320
L127357 107264
L127301 107236
L127189 107236
L127132 107264
" />
<path d="M127385 107602
L127329 107630
L127189 107630
L127132 107602
L127104 107545
L127104 107489
L127132 107433
L127189 107405
L127329 107405
L127385 107377
" />
<path d="M127920 107630
L127920 107039
" />
<path d="M127920 107602
L127864 107630
L127751 107630
L127695 107602
L127667 107573
L127639 107517
L127639 107349
L127667 107292
L127695 107264
L127751 107236
L127864 107236
L127920 107264
" />
<path d="M128060 107686
L128510 107686
" />
<path d="M128651 107236
L128651 107827
" />
<path d="M128651 107264
L128707 107236
L128820 107236
L128876 107264
L128904 107292
L128932 107349
L128932 107517
L128904 107573
L128876 107602
L128820 107630
L128707 107630
L128651 107602
" />
<path d="M129438 107602
L129382 107630
L129270 107630
L129213 107602
L129185 107573
L129157 107517
L129157 107349
L129185 107292
L129213 107264
L129270 107236
L129382 107236
L129438 107264
" />
<path d="M129691 107630
L129691 107039
" />
<path d="M129691 107264
L129748 107236
L129860 107236
L129916 107264
L129945 107292
L129973 107349
L129973 107517
L129945 107573
L129916 107602
L129860 107630
L129748 107630
L129691 107602
" />
</g>
<g style="fill:#000000; fill-opacity:0.0; 
stroke:#000000; stroke-width:39.3701; stroke-opacity:1; 
stroke-linecap:round; stroke-linejoin:round;">
</g>
<g style="fill:#000000; fill-opacity:0.0; 
stroke:#000000; stroke-width:59.0551; stroke-opacity:1; 
stroke-linecap:round; stroke-linejoin:round;">
<path d="M118105 105709
L160625 105709
" />
</g>
<g style="fill:#000000; fill-opacity:0.0; 
stroke:#000000; stroke-width:39.3701; stroke-opacity:1; 
stroke-linecap:round; stroke-linejoin:round;">
</g>
<g style="fill:#000000; fill-opacity:0.0; 
stroke:#000000; stroke-width:59.0551; stroke-opacity:1; 
stroke-linecap:round; stroke-linejoin:round;">
<path d="M118612 106539
L118696 106567
L118837 106567
L118893 106539
L118921 106510
L118949 106454
L118949 106398
L118921 106342
L118893 106314
L118837 106286
L118724 106257
L118668 106229
L118640 106201
L118612 106145
L118612 106089
L118640 106032
L118668 106004
L118724 105976
L118865 105976
L118949 106004
" />
<path d="M119202 106567
L119202 105976
" />
<path d="M119455 106567
L119455 106257
L119427 106201
L119371 106173
L119287 106173
L119230 106201
L119202 106229
" />
<path d="M119961 106539
L119905 106567
L119793 106567
L119736 106539
L119708 106482
L119708 106257
L119736 106201
L119793 106173
L119905 106173
L119961 106201
L119990 106257
L119990 106314
L119708 106370
" />
<path d="M120468 106539
L120411 106567
L120299 106567
L120243 106539
L120215 106482
L120215 106257
L120243 106201
L120299 106173
L120411 106173
L120468 106201
L120496 106257
L120496 106314
L120215 106370
" />
<path d="M120664 106173
L120889 106173
" />
<path d="M120749 105976
L120749 106482
L120777 106539
L120833 106567
L120889 106567
" />
<path d="M121086 106510
L121114 106539
L121086 106567
L121058 106539
L121086 106510
L121086 106567
" />
<path d="M121086 106201
L121114 106229
L121086 106257
L121058 106229
L121086 106201
L121086 106257
" />
</g>
<g style="fill:#000000; fill-opacity:0.0; 
stroke:#000000; stroke-width:39.3701; stroke-opacity:1; 
stroke-linecap:round; stroke-linejoin:round;">
</g>
<g style="fill:#000000; fill-opacity:0.0; 
stroke:#000000; stroke-width:59.0551; stroke-opacity:1; 
stroke-linecap:round; stroke-linejoin:round;">
<path d="M125979 109646
L125979 110827
" />
</g>
<g style="fill:#000000; fill-opacity:0.0; 
stroke:#000000; stroke-width:39.3701; stroke-opacity:1; 
stroke-linecap:round; stroke-linejoin:round;">
</g>
<g style="fill:#000000; fill-opacity:0.0; 
stroke:#000000; stroke-width:59.0551; stroke-opacity:1; 
stroke-linecap:round; stroke-linejoin:round;">
<path d="M151176 109646
L151176 112205
" />
</g>
<g style="fill:#000000; fill-opacity:0.0; 
stroke:#000000; stroke-width:118.11; stroke-opacity:1; 
stroke-linecap:round; stroke-linejoin:round;">
<path d="M46214 73706
L46242 73734
L46271 73818
L46271 73875
L46242 73959
L46186 74015
L46130 74043
L46017 74071
L45933 74071
L45821 74043
L45764 74015
L45708 73959
L45680 73875
L45680 73818
L45708 73734
L45736 73706
" />
<path d="M46271 73200
L45961 73200
L45905 73228
L45877 73284
L45877 73397
L45905 73453
" />
<path d="M46242 73200
L46271 73256
L46271 73397
L46242 73453
L46186 73481
L46130 73481
L46074 73453
L46046 73397
L46046 73256
L46017 73200
" />
<path d="M46271 72919
L45877 72919
" />
<path d="M45989 72919
L45933 72890
L45905 72862
L45877 72806
L45877 72750
" />
<path d="M45877 72637
L45877 72412
" />
<path d="M45680 72553
L46186 72553
L46242 72525
L46271 72469
L46271 72412
" />
<path d="M46242 71991
L46271 72047
L46271 72159
L46242 72215
L46186 72244
L45961 72244
L45905 72215
L45877 72159
L45877 72047
L45905 71991
L45961 71962
L46017 71962
L46074 72244
" />
<path d="M46102 71287
L46102 71006
" />
<path d="M46271 71344
L45680 71147
L46271 70950
" />
<path d="M46271 70669
L46242 70725
L46186 70753
L45680 70753
" />
<path d="M46271 70444
L45877 70444
" />
<path d="M45680 70444
L45708 70472
L45736 70444
L45708 70416
L45680 70444
L45736 70444
" />
<path d="M46271 70163
L45877 70163
" />
<path d="M45933 70163
L45905 70134
L45877 70078
L45877 69994
L45905 69938
L45961 69910
L46271 69910
" />
<path d="M45961 69910
L45905 69881
L45877 69825
L45877 69741
L45905 69685
L45961 69656
L46271 69656
" />
<path d="M47215 75590
L46934 75787
" />
<path d="M47215 75928
L46625 75928
L46625 75703
L46653 75646
L46681 75618
L46737 75590
L46822 75590
L46878 75618
L46906 75646
L46934 75703
L46934 75928
" />
<path d="M47215 75253
L47187 75309
L47159 75337
L47103 75365
L46934 75365
L46878 75337
L46850 75309
L46822 75253
L46822 75168
L46850 75112
L46878 75084
L46934 75056
L47103 75056
L47159 75084
L47187 75112
L47215 75168
L47215 75253
" />
<path d="M47215 74803
L46625 74803
" />
<path d="M46850 74803
L46822 74746
L46822 74634
L46850 74578
L46878 74550
L46934 74521
L47103 74521
L47159 74550
L47187 74578
L47215 74634
L47215 74746
L47187 74803
" />
<path d="M47215 74184
L47187 74240
L47159 74268
L47103 74296
L46934 74296
L46878 74268
L46850 74240
L46822 74184
L46822 74100
L46850 74043
L46878 74015
L46934 73987
L47103 73987
L47159 74015
L47187 74043
L47215 74100
L47215 74184
" />
<path d="M46822 73818
L46822 73593
" />
<path d="M46625 73734
L47131 73734
L47187 73706
L47215 73650
L47215 73593
" />
<path d="M47215 73397
L46822 73397
" />
<path d="M46934 73397
L46878 73368
L46850 73340
L46822 73284
L46822 73228
" />
<path d="M47215 72947
L47187 73003
L47159 73031
L47103 73059
L46934 73059
L46878 73031
L46850 73003
L46822 72947
L46822 72862
L46850 72806
L46878 72778
L46934 72750
L47103 72750
L47159 72778
L47187 72806
L47215 72862
L47215 72947
" />
<path d="M46822 72497
L47215 72497
" />
<path d="M46878 72497
L46850 72469
L46822 72412
L46822 72328
L46850 72272
L46906 72244
L47215 72244
" />
<path d="M47215 71962
L46822 71962
" />
<path d="M46625 71962
L46653 71991
L46681 71962
L46653 71934
L46625 71962
L46681 71962
" />
<path d="M47215 71681
L46625 71681
" />
<path d="M46991 71625
L47215 71456
" />
<path d="M46822 71456
L47047 71681
" />
<path d="M46766 70725
L46737 70781
L46737 70894
L46766 70950
L46822 71006
L46878 71034
L46991 71034
L47047 71006
L47103 70950
L47131 70894
L47131 70781
L47103 70725
" />
<path d="M46541 70838
L46569 70978
L46653 71119
L46794 71203
L46934 71231
L47075 71203
L47215 71119
L47300 70978
L47328 70838
L47300 70697
L47215 70556
L47075 70472
L46934 70444
L46794 70472
L46653 70556
L46569 70697
L46541 70838
" />
<path d="M46681 69769
L46653 69741
L46625 69685
L46625 69544
L46653 69488
L46681 69460
L46737 69431
L46794 69431
L46878 69460
L47215 69797
L47215 69431
" />
<path d="M46625 69066
L46625 69010
L46653 68953
L46681 68925
L46737 68897
L46850 68869
L46991 68869
L47103 68897
L47159 68925
L47187 68953
L47215 69010
L47215 69066
L47187 69122
L47159 69150
L47103 69178
L46991 69206
L46850 69206
L46737 69178
L46681 69150
L46653 69122
L46625 69066
" />
<path d="M47215 68307
L47215 68644
" />
<path d="M47215 68475
L46625 68475
L46709 68532
L46766 68588
L46794 68644
" />
<path d="M46625 67772
L46625 68053
L46906 68082
L46878 68053
L46850 67997
L46850 67857
L46878 67800
L46906 67772
L46962 67744
L47103 67744
L47159 67772
L47187 67800
L47215 67857
L47215 67997
L47187 68053
L47159 68082
" />
<path d="M48160 77305
L47767 77305
" />
<path d="M47879 77305
L47823 77277
L47795 77249
L47767 77193
L47767 77137
" />
<path d="M48160 76856
L48132 76912
L48104 76940
L48048 76968
L47879 76968
L47823 76940
L47795 76912
L47767 76856
L47767 76771
L47795 76715
L47823 76687
L47879 76659
L48048 76659
L48104 76687
L48132 76715
L48160 76771
L48160 76856
" />
<path d="M48160 76406
L47570 76406
" />
<path d="M47795 76406
L47767 76349
L47767 76237
L47795 76181
L47823 76152
L47879 76124
L48048 76124
L48104 76152
L48132 76181
L48160 76237
L48160 76349
L48132 76406
" />
<path d="M48160 75871
L47767 75871
" />
<path d="M47570 75871
L47598 75899
L47626 75871
L47598 75843
L47570 75871
L47626 75871
" />
<path d="M47767 75590
L48160 75590
" />
<path d="M47823 75590
L47795 75562
L47767 75506
L47767 75421
L47795 75365
L47851 75337
L48160 75337
" />
<path d="M48104 75056
L48132 75028
L48160 75056
L48132 75084
L48104 75056
L48160 75056
" />
<path d="M48160 74775
L47767 74775
" />
<path d="M47823 74775
L47795 74746
L47767 74690
L47767 74606
L47795 74550
L47851 74521
L48160 74521
" />
<path d="M47851 74521
L47795 74493
L47767 74437
L47767 74353
L47795 74296
L47851 74268
L48160 74268
" />
<path d="M48160 73903
L48132 73959
L48104 73987
L48048 74015
L47879 74015
L47823 73987
L47795 73959
L47767 73903
L47767 73818
L47795 73762
L47823 73734
L47879 73706
L48048 73706
L48104 73734
L48132 73762
L48160 73818
L48160 73903
" />
<path d="M47767 73200
L48160 73200
" />
<path d="M47767 73453
L48076 73453
L48132 73425
L48160 73368
L48160 73284
L48132 73228
L48104 73200
" />
<path d="M48132 72947
L48160 72890
L48160 72778
L48132 72722
L48076 72694
L48048 72694
L47992 72722
L47964 72778
L47964 72862
L47935 72919
L47879 72947
L47851 72947
L47795 72919
L47767 72862
L47767 72778
L47795 72722
" />
<path d="M48132 72469
L48160 72412
L48160 72300
L48132 72244
L48076 72215
L48048 72215
L47992 72244
L47964 72300
L47964 72384
L47935 72440
L47879 72469
L47851 72469
L47795 72440
L47767 72384
L47767 72300
L47795 72244
" />
<path d="M47767 71709
L48160 71709
" />
<path d="M47767 71962
L48076 71962
L48132 71934
L48160 71878
L48160 71794
L48132 71737
L48104 71709
" />
<path d="M47879 71062
L47851 71091
L47823 71147
L47823 71203
L47851 71259
L47879 71287
L47935 71316
L47992 71316
L48048 71287
L48076 71259
L48104 71203
L48104 71147
L48076 71091
L48048 71062
" />
<path d="M47823 71062
L48048 71062
L48076 71034
L48076 71006
L48048 70950
L47992 70922
L47851 70922
L47767 70978
L47710 71062
L47682 71175
L47710 71287
L47767 71372
L47851 71428
L47964 71456
L48076 71428
L48160 71372
L48217 71287
L48245 71175
L48217 71062
L48160 70978
" />
<path d="M47767 70416
L48245 70416
L48301 70444
L48329 70472
L48357 70528
L48357 70613
L48329 70669
" />
<path d="M48132 70416
L48160 70472
L48160 70584
L48132 70641
L48104 70669
L48048 70697
L47879 70697
L47823 70669
L47795 70641
L47767 70584
L47767 70472
L47795 70416
" />
<path d="M48160 70134
L47767 70134
" />
<path d="M47823 70134
L47795 70106
L47767 70050
L47767 69966
L47795 69910
L47851 69881
L48160 69881
" />
<path d="M47851 69881
L47795 69853
L47767 69797
L47767 69713
L47795 69656
L47851 69628
L48160 69628
" />
<path d="M48160 69094
L47851 69094
L47795 69122
L47767 69178
L47767 69291
L47795 69347
" />
<path d="M48132 69094
L48160 69150
L48160 69291
L48132 69347
L48076 69375
L48020 69375
L47964 69347
L47935 69291
L47935 69150
L47907 69094
" />
<path d="M48160 68813
L47767 68813
" />
<path d="M47570 68813
L47598 68841
L47626 68813
L47598 68785
L47570 68813
L47626 68813
" />
<path d="M48160 68447
L48132 68503
L48076 68532
L47570 68532
" />
<path d="M48104 68222
L48132 68194
L48160 68222
L48132 68250
L48104 68222
L48160 68222
" />
<path d="M48132 67688
L48160 67744
L48160 67857
L48132 67913
L48104 67941
L48048 67969
L47879 67969
L47823 67941
L47795 67913
L47767 67857
L47767 67744
L47795 67688
" />
<path d="M48160 67350
L48132 67407
L48104 67435
L48048 67463
L47879 67463
L47823 67435
L47795 67407
L47767 67350
L47767 67266
L47795 67210
L47823 67182
L47879 67154
L48048 67154
L48104 67182
L48132 67210
L48160 67266
L48160 67350
" />
<path d="M48160 66901
L47767 66901
" />
<path d="M47823 66901
L47795 66872
L47767 66816
L47767 66732
L47795 66676
L47851 66647
L48160 66647
" />
<path d="M47851 66647
L47795 66619
L47767 66563
L47767 66479
L47795 66422
L47851 66394
L48160 66394
" />
</g>
<g style="fill:#000000; fill-opacity:0.0; 
stroke:#000000; stroke-width:196.85; stroke-opacity:1; 
stroke-linecap:round; stroke-linejoin:round;">
<path d="M52996 65415
L53390 65415
" />
<path d="M53559 66034
L52996 66034
L52996 64853
L53559 64853
" />
<path d="M50690 66034
L50690 64853
L51140 64853
L51253 64909
L51309 64965
L51365 65078
L51365 65246
L51309 65359
L51253 65415
L51140 65471
L50690 65471
" />
<path d="M48240 65696
L48803 65696
" />
<path d="M48128 66034
L48521 64853
L48915 66034
" />
<path d="M49871 66034
L49309 66034
L49309 64853
" />
<path d="M45993 65415
L46162 65471
L46218 65528
L46275 65640
L46275 65809
L46218 65921
L46162 65978
L46050 66034
L45600 66034
L45600 64853
L45993 64853
L46106 64909
L46162 64965
L46218 65078
L46218 65190
L46162 65303
L46106 65359
L45993 65415
L45600 65415
" />
<path d="M46781 66034
L46781 64853
L47231 64853
L47343 64909
L47399 64965
L47456 65078
L47456 65246
L47399 65359
L47343 65415
L47231 65471
L46781 65471
" />
<path d="M43300 65415
L43468 65471
L43525 65528
L43581 65640
L43581 65809
L43525 65921
L43468 65978
L43356 66034
L42906 66034
L42906 64853
L43300 64853
L43412 64909
L43468 64965
L43525 65078
L43525 65190
L43468 65303
L43412 65359
L43300 65415
L42906 65415
" />
<path d="M44087 65415
L44481 65415
" />
<path d="M44649 66034
L44087 66034
L44087 64853
L44649 64853
" />
<path d="M59983 86979
L59420 87373
" />
<path d="M59983 87654
L58802 87654
L58802 87204
L58858 87092
L58914 87035
L59026 86979
L59195 86979
L59308 87035
L59364 87092
L59420 87204
L59420 87654
" />
<path d="M59364 86473
L59364 86079
" />
<path d="M59983 85911
L59983 86473
L58802 86473
L58802 85911
" />
<path d="M58858 84786
L58802 84898
L58802 85067
L58858 85236
L58970 85348
L59083 85404
L59308 85461
L59476 85461
L59701 85404
L59814 85348
L59926 85236
L59983 85067
L59983 84955
L59926 84786
L59870 84730
L59476 84730
L59476 84955
" />
<path d="M59983 82227
L58802 82227
L59983 81552
L58802 81552
" />
<path d="M59983 80314
L59420 80708
" />
<path d="M59983 80989
L58802 80989
L58802 80539
L58858 80427
L58914 80371
L59026 80314
L59195 80314
L59308 80371
L59364 80427
L59420 80539
L59420 80989
" />
<path d="M60800 65834
L61699 65834
" />
<path d="M60800 70584
L61699 70584
" />
<path d="M60573 82367
L61473 82367
" />
<path d="M60573 87289
L61473 87289
" />
<path d="M60573 85123
L61473 85123
" />
<path d="M61023 85573
L61023 84673
" />
<path d="M60573 80202
L61473 80202
" />
<path d="M61023 80652
L61023 79752
" />
<path d="M60800 63584
L61699 63584
" />
<path d="M61250 64034
L61250 63134
" />
<path d="M60800 68584
L61699 68584
" />
<path d="M61250 69034
L61250 68134
" />
<path d="M25300 65584
L26199 65584
" />
<path d="M30800 65584
L31699 65584
" />
<path d="M35800 65834
L36699 65834
" />
<path d="M38300 65834
L39199 65834
" />
<path d="M38750 66284
L38750 65384
" />
<path d="M33050 65584
L33949 65584
" />
<path d="M33500 66034
L33500 65134
" />
<path d="M28300 65584
L29199 65584
" />
<path d="M28750 66034
L28750 65134
" />
<path d="M59983 70444
L59420 70838
" />
<path d="M59983 71119
L58802 71119
L58802 70669
L58858 70556
L58914 70500
L59026 70444
L59195 70444
L59308 70500
L59364 70556
L59420 70669
L59420 71119
" />
<path d="M59364 69938
L59364 69544
" />
<path d="M59983 69375
L59983 69938
L58802 69938
L58802 69375
" />
<path d="M58858 68250
L58802 68363
L58802 68532
L58858 68700
L58970 68813
L59083 68869
L59308 68925
L59476 68925
L59701 68869
L59814 68813
L59926 68700
L59983 68532
L59983 68419
L59926 68250
L59870 68194
L59476 68194
L59476 68419
" />
<path d="M59983 65494
L58802 65494
L59983 64820
L58802 64820
" />
<path d="M59983 63582
L59420 63976
" />
<path d="M59983 64257
L58802 64257
L58802 63807
L58858 63695
L58914 63638
L59026 63582
L59195 63582
L59308 63638
L59364 63695
L59420 63807
L59420 64257
" />
<path d="M56524 77994
L56524 79176
" />
<path d="M56524 78051
L56636 77994
L56861 77994
L56974 78051
L57030 78107
L57086 78219
L57086 78557
L57030 78669
L56974 78726
L56861 78782
L56636 78782
L56524 78726
" />
<path d="M58098 77994
L58098 78782
" />
<path d="M57592 77994
L57592 78613
L57649 78726
L57761 78782
L57930 78782
L58042 78726
L58098 78669
" />
<path d="M58661 78782
L58661 77994
" />
<path d="M58661 77601
L58605 77657
L58661 77713
L58717 77657
L58661 77601
L58661 77713
" />
<path d="M59167 78726
L59280 78782
L59505 78782
L59617 78726
L59673 78613
L59673 78557
L59617 78444
L59505 78388
L59336 78388
L59223 78332
L59167 78219
L59167 78163
L59223 78051
L59336 77994
L59505 77994
L59617 78051
" />
<path d="M60123 78726
L60236 78782
L60461 78782
L60573 78726
L60629 78613
L60629 78557
L60573 78444
L60461 78388
L60292 78388
L60179 78332
L60123 78219
L60123 78163
L60179 78051
L60292 77994
L60461 77994
L60573 78051
" />
<path d="M61642 78782
L61642 78163
L61586 78051
L61473 77994
L61248 77994
L61136 78051
" />
<path d="M61642 78726
L61529 78782
L61248 78782
L61136 78726
L61079 78613
L61079 78501
L61136 78388
L61248 78332
L61529 78332
L61642 78276
" />
<path d="M62204 77994
L62204 78782
" />
<path d="M62204 78107
L62260 78051
L62373 77994
L62542 77994
L62654 78051
L62710 78163
L62710 78782
" />
<path d="M63779 78726
L63667 78782
L63442 78782
L63329 78726
L63273 78669
L63217 78557
L63217 78219
L63273 78107
L63329 78051
L63442 77994
L63667 77994
L63779 78051
" />
<path d="M64735 78726
L64623 78782
L64398 78782
L64285 78726
L64229 78613
L64229 78163
L64285 78051
L64398 77994
L64623 77994
L64735 78051
L64791 78163
L64791 78276
L64229 78388
" />
<path d="M59336 72919
L59223 72975
L58998 72975
L58886 72919
L58830 72806
L58830 72356
L58886 72244
L58998 72187
L59223 72187
L59336 72244
L59392 72356
L59392 72469
L58830 72581
" />
<path d="M60067 72975
L59955 72919
L59898 72806
L59898 71794
" />
<path d="M60967 72919
L60854 72975
L60629 72975
L60517 72919
L60461 72806
L60461 72356
L60517 72244
L60629 72187
L60854 72187
L60967 72244
L61023 72356
L61023 72469
L60461 72581
" />
<path d="M62035 72919
L61923 72975
L61698 72975
L61586 72919
L61529 72862
L61473 72750
L61473 72412
L61529 72300
L61586 72244
L61698 72187
L61923 72187
L62035 72244
" />
<path d="M26375 67284
L26375 66665
L26318 66553
L26206 66496
L25981 66496
L25868 66553
" />
<path d="M26375 67228
L26262 67284
L25981 67284
L25868 67228
L25812 67115
L25812 67003
L25868 66890
L25981 66834
L26262 66834
L26375 66778
" />
<path d="M27106 67284
L26993 67228
L26937 67115
L26937 66103
" />
<path d="M27556 67284
L27556 66496
" />
<path d="M27556 66103
L27500 66159
L27556 66215
L27612 66159
L27556 66103
L27556 66215
" />
<path d="M28118 67284
L28118 66496
" />
<path d="M28118 66609
L28174 66553
L28287 66496
L28456 66496
L28568 66553
L28624 66665
L28624 67284
" />
<path d="M28624 66665
L28681 66553
L28793 66496
L28962 66496
L29074 66553
L29131 66665
L29131 67284
" />
<path d="M31743 66915
L31912 66971
L31968 67028
L32025 67140
L32025 67309
L31968 67421
L31912 67478
L31800 67534
L31350 67534
L31350 66353
L31743 66353
L31856 66409
L31912 66465
L31968 66578
L31968 66690
L31912 66803
L31856 66859
L31743 66915
L31350 66915
" />
<path d="M32531 67534
L32531 66353
L32981 66353
L33093 66409
L33149 66465
L33206 66578
L33206 66746
L33149 66859
L33093 66915
L32981 66971
L32531 66971
" />
<path d="M36800 66915
L36968 66971
L37025 67028
L37081 67140
L37081 67309
L37025 67421
L36968 67478
L36856 67534
L36406 67534
L36406 66353
L36800 66353
L36912 66409
L36968 66465
L37025 66578
L37025 66690
L36968 66803
L36912 66859
L36800 66915
L36406 66915
" />
<path d="M37587 66915
L37981 66915
" />
<path d="M38149 67534
L37587 67534
L37587 66353
L38149 66353
" />
</g>
<g style="fill:#000000; fill-opacity:0.0; 
stroke:#000000; stroke-width:98.4252; stroke-opacity:1; 
stroke-linecap:round; stroke-linejoin:round;">
<path d="M60709 83002
L60803 83264
L60896 83002
" />
</g>
<g style="fill:#000000; fill-opacity:0.0; 
stroke:#000000; stroke-width:39.3701; stroke-opacity:1; 
stroke-linecap:round; stroke-linejoin:round;">
</g>
<g style="fill:#000000; fill-opacity:1.0; 
stroke:#000000; stroke-width:39.3701; stroke-opacity:1; 
stroke-linecap:round; stroke-linejoin:round;">
<polyline style="fill-rule:evenodd;"
points="32755,81614
32755,81054
33315,81054
33315,81614
32755,81614
" /> 
<circle cx="34035.4" cy="81334.6" r="280.315" /> 
<circle cx="35035.4" cy="81334.6" r="280.315" /> 
<circle cx="36035.4" cy="81334.6" r="280.315" /> 
<polyline style="fill-rule:evenodd;"
points="33255,79614
33255,79054
33815,79054
33815,79614
33255,79614
" /> 
<circle cx="34535.4" cy="79334.6" r="280.315" /> 
<circle cx="35535.4" cy="79334.6" r="280.315" /> 
<polyline style="fill-rule:evenodd;"
points="61303,81677
60743,81677
60743,81117
61303,81117
61303,81677
" /> 
<polyline style="fill-rule:evenodd;"
points="60940,65142
60940,64581
61500,64581
61500,65142
60940,65142
" /> 
<polyline style="fill-rule:evenodd;"
points="60743,86599
60743,86038
61303,86038
61303,86599
60743,86599
" /> 
<polyline style="fill-rule:evenodd;"
points="60940,69965
60940,69404
61500,69404
61500,69965
60940,69965
" /> 
<polyline style="fill-rule:evenodd;"
points="26780,78329
27290,78329
27290,78839
26780,78839
26780,78329
" /> 
<circle cx="27035.4" cy="82584.6" r="255.315" /> 
<polyline style="fill-rule:evenodd;"
points="28780,78329
29290,78329
29290,78839
28780,78839
28780,78329
" /> 
<circle cx="29035.4" cy="82584.6" r="255.315" /> 
<polyline style="fill-rule:evenodd;"
points="30780,78329
31290,78329
31290,78839
30780,78839
30780,78329
" /> 
<circle cx="31035.4" cy="82584.6" r="255.315" /> 
<polyline style="fill-rule:evenodd;"
points="36358,84752
36869,84752
36869,85263
36358,85263
36358,84752
" /> 
<circle cx="36614.2" cy="89007.9" r="255.315" /> 
<polyline style="fill-rule:evenodd;"
points="34735,86752
34735,87263
34225,87263
34225,86752
34735,86752
" /> 
<circle cx="30480.3" cy="87007.9" r="255.315" /> 
<circle cx="46750" cy="63250" r="730.315" /> 
<circle cx="48750" cy="63250" r="730.315" /> 
<polyline style="fill-rule:evenodd;"
points="44019,63980
44019,62519
45480,62519
45480,63980
44019,63980
" /> 
<circle cx="50750" cy="63250" r="730.315" /> 
<circle cx="52750" cy="63250" r="730.315" /> 
<polyline style="fill-rule:evenodd;"
points="30769,63980
30769,63019
31730,63019
31730,63980
30769,63980
" /> 
<circle cx="33250" cy="63500" r="480.315" /> 
<polyline style="fill-rule:evenodd;"
points="63866,87700
62905,87700
62905,86740
63866,86740
63866,87700
" /> 
<circle cx="63385.8" cy="85220.5" r="480.315" /> 
<polyline style="fill-rule:evenodd;"
points="63866,82779
62905,82779
62905,81818
63866,81818
63866,82779
" /> 
<circle cx="63385.8" cy="80299.2" r="480.315" /> 
<polyline style="fill-rule:evenodd;"
points="63980,70980
63019,70980
63019,70019
63980,70019
63980,70980
" /> 
<circle cx="63500" cy="68500" r="480.315" /> 
<polyline style="fill-rule:evenodd;"
points="63980,66230
63019,66230
63019,65269
63980,65269
63980,66230
" /> 
<circle cx="63500" cy="63750" r="480.315" /> 
<polyline style="fill-rule:evenodd;"
points="35769,63980
35769,63019
36730,63019
36730,63980
35769,63980
" /> 
<circle cx="38250" cy="63500" r="480.315" /> 
<circle cx="27338.6" cy="74252" r="730.315" /> 
<circle cx="29338.6" cy="74252" r="730.315" /> 
<circle cx="33338.6" cy="74252" r="730.315" /> 
<circle cx="35338.6" cy="74252" r="730.315" /> 
<circle cx="27338.6" cy="71456.7" r="730.315" /> 
<circle cx="29338.6" cy="71456.7" r="730.315" /> 
<circle cx="33338.6" cy="71456.7" r="730.315" /> 
<circle cx="35338.6" cy="71456.7" r="730.315" /> 
<polyline style="fill-rule:evenodd;"
points="52469,69780
52469,69219
53030,69219
53030,69780
52469,69780
" /> 
<circle cx="53750" cy="69500" r="280.315" /> 
<circle cx="54750" cy="69500" r="280.315" /> 
<circle cx="32535.4" cy="77834.6" r="255.315" /> 
<circle cx="34535.4" cy="77834.6" r="255.315" /> 
<circle cx="44488.2" cy="76444.9" r="280.315" /> 
<circle cx="44488.2" cy="80444.9" r="280.315" /> 
<circle cx="43110.2" cy="83236.2" r="280.315" /> 
<circle cx="43110.2" cy="87236.2" r="280.315" /> 
<circle cx="57185" cy="83078.7" r="310.315" /> 
<circle cx="57185" cy="82078.7" r="310.315" /> 
<circle cx="57185" cy="84539.4" r="310.315" /> 
<circle cx="57185" cy="85539.4" r="310.315" /> 
<circle cx="57185" cy="88098.4" r="310.315" /> 
<circle cx="57185" cy="87098.4" r="310.315" /> 
<circle cx="36704.7" cy="68897.6" r="310.315" /> 
<circle cx="37704.7" cy="68897.6" r="310.315" /> 
<circle cx="31586.6" cy="68897.6" r="310.315" /> 
<circle cx="32586.6" cy="68897.6" r="310.315" /> 
<circle cx="26862.2" cy="68897.6" r="310.315" /> 
<circle cx="27862.2" cy="68897.6" r="310.315" /> 
<circle cx="57185" cy="79519.7" r="310.315" /> 
<circle cx="57185" cy="80519.7" r="310.315" /> 
<circle cx="40551.2" cy="88417.3" r="330.315" /> 
<polyline style="fill-rule:evenodd;"
points="40881,84747
40220,84747
40220,84087
40881,84087
40881,84747
" /> 
<circle cx="27285.4" cy="84084.6" r="330.315" /> 
<polyline style="fill-rule:evenodd;"
points="30955,84414
30955,83754
31615,83754
31615,84414
30955,84414
" /> 
<circle cx="42913.4" cy="76444.9" r="330.315" /> 
<polyline style="fill-rule:evenodd;"
points="42583,80114
43243,80114
43243,80775
42583,80775
42583,80114
" /> 
<circle cx="38354.3" cy="72519.7" r="330.315" /> 
<polyline style="fill-rule:evenodd;"
points="42024,72850
42024,72189
42684,72189
42684,72850
42024,72850
" /> 
<circle cx="38354.3" cy="73937" r="330.315" /> 
<polyline style="fill-rule:evenodd;"
points="42024,74267
42024,73606
42684,73606
42684,74267
42024,74267
" /> 
<circle cx="33035.4" cy="83834.6" r="255.315" /> 
<circle cx="35035.4" cy="83834.6" r="255.315" /> 
<circle cx="39566.9" cy="70641.7" r="280.315" /> 
<circle cx="39566.9" cy="66641.7" r="280.315" /> 
<circle cx="56200.8" cy="77196.9" r="280.315" /> 
<circle cx="56200.8" cy="73196.9" r="280.315" /> 
<circle cx="41338.6" cy="80444.9" r="280.315" /> 
<circle cx="41338.6" cy="76444.9" r="280.315" /> 
<circle cx="46063" cy="76444.9" r="280.315" /> 
<circle cx="46063" cy="80444.9" r="280.315" /> 
<circle cx="53740.2" cy="77295.3" r="280.315" /> 
<circle cx="53740.2" cy="73295.3" r="280.315" /> 
<circle cx="42519.7" cy="70641.7" r="280.315" /> 
<circle cx="42519.7" cy="66641.7" r="280.315" /> 
<circle cx="41063" cy="70641.7" r="280.315" /> 
<circle cx="41063" cy="66641.7" r="280.315" /> 
<circle cx="44586.6" cy="83039.4" r="280.315" /> 
<circle cx="44586.6" cy="87039.4" r="280.315" /> 
<circle cx="38976.4" cy="84417.3" r="280.315" /> 
<circle cx="38976.4" cy="88417.3" r="280.315" /> 
<circle cx="53444.9" cy="84909.4" r="280.315" /> 
<circle cx="53444.9" cy="88909.4" r="280.315" /> 
<circle cx="55118.1" cy="84122" r="280.315" /> 
<circle cx="55118.1" cy="88122" r="280.315" /> 
<circle cx="52750" cy="71250" r="255.315" /> 
<circle cx="54750" cy="71250" r="255.315" /> 
<circle cx="56692.9" cy="68488.2" r="255.315" /> 
<circle cx="56692.9" cy="70488.2" r="255.315" /> 
<circle cx="39582.7" cy="82185" r="255.315" /> 
<circle cx="37582.7" cy="82185" r="255.315" /> 
<circle cx="57874" cy="68488.2" r="255.315" /> 
<circle cx="57874" cy="70488.2" r="255.315" /> 
<circle cx="56889.8" cy="63763.8" r="255.315" /> 
<circle cx="56889.8" cy="65763.8" r="255.315" /> 
<circle cx="62500" cy="76984.3" r="255.315" /> 
<circle cx="62500" cy="74984.3" r="255.315" /> 
<circle cx="27755.9" cy="86007.9" r="255.315" /> 
<circle cx="27755.9" cy="88007.9" r="255.315" /> 
<polyline style="fill-rule:evenodd;"
points="25519,63980
25519,63019
26480,63019
26480,63980
25519,63980
" /> 
<circle cx="28000" cy="63500" r="480.315" /> 
<polyline style="fill-rule:evenodd;"
points="48835,78165
49345,78165
49345,78676
48835,78676
48835,78165
" /> 
<circle cx="49090.6" cy="79421.3" r="255.315" /> 
<circle cx="49090.6" cy="80421.3" r="255.315" /> 
<circle cx="49090.6" cy="81421.3" r="255.315" /> 
<circle cx="52090.6" cy="81421.3" r="255.315" /> 
<circle cx="52090.6" cy="80421.3" r="255.315" /> 
<circle cx="52090.6" cy="79421.3" r="255.315" /> 
<circle cx="52090.6" cy="78421.3" r="255.315" /> 
<polyline style="fill-rule:evenodd;"
points="46079,83185
46589,83185
46589,83696
46079,83696
46079,83185
" /> 
<circle cx="46334.6" cy="84440.9" r="255.315" /> 
<circle cx="46334.6" cy="85440.9" r="255.315" /> 
<circle cx="46334.6" cy="86440.9" r="255.315" /> 
<circle cx="49334.6" cy="86440.9" r="255.315" /> 
<circle cx="49334.6" cy="85440.9" r="255.315" /> 
<circle cx="49334.6" cy="84440.9" r="255.315" /> 
<circle cx="49334.6" cy="83440.9" r="255.315" /> 
</g>
<g style="fill:#FFFFFF; fill-opacity:1.0; 
stroke:#FFFFFF; stroke-width:39.3701; stroke-opacity:1; 
stroke-linecap:round; stroke-linejoin:round;">
<circle cx="33035.4" cy="81334.6" r="180.315" /> 
<circle cx="34035.4" cy="81334.6" r="180.315" /> 
<circle cx="35035.4" cy="81334.6" r="180.315" /> 
<circle cx="36035.4" cy="81334.6" r="180.315" /> 
<circle cx="33535.4" cy="79334.6" r="180.315" /> 
<circle cx="34535.4" cy="79334.6" r="180.315" /> 
<circle cx="35535.4" cy="79334.6" r="180.315" /> 
<circle cx="61023.6" cy="81397.6" r="180.315" /> 
<circle cx="61220.5" cy="64862.2" r="180.315" /> 
<circle cx="61023.6" cy="86318.9" r="180.315" /> 
<circle cx="61220.5" cy="69685" r="180.315" /> 
<circle cx="27035.4" cy="78584.6" r="140.315" /> 
<circle cx="27035.4" cy="82584.6" r="140.315" /> 
<circle cx="29035.4" cy="78584.6" r="140.315" /> 
<circle cx="29035.4" cy="82584.6" r="140.315" /> 
<circle cx="31035.4" cy="78584.6" r="140.315" /> 
<circle cx="31035.4" cy="82584.6" r="140.315" /> 
<circle cx="36614.2" cy="85007.9" r="140.315" /> 
<circle cx="36614.2" cy="89007.9" r="140.315" /> 
<circle cx="34480.3" cy="87007.9" r="140.315" /> 
<circle cx="30480.3" cy="87007.9" r="140.315" /> 
<circle cx="46750" cy="63250" r="280.315" /> 
<circle cx="48750" cy="63250" r="280.315" /> 
<circle cx="44750" cy="63250" r="280.315" /> 
<circle cx="50750" cy="63250" r="280.315" /> 
<circle cx="52750" cy="63250" r="280.315" /> 
<circle cx="31250" cy="63500" r="280.315" /> 
<circle cx="33250" cy="63500" r="280.315" /> 
<circle cx="63385.8" cy="87220.5" r="280.315" /> 
<circle cx="63385.8" cy="85220.5" r="280.315" /> 
<circle cx="63385.8" cy="82299.2" r="280.315" /> 
<circle cx="63385.8" cy="80299.2" r="280.315" /> 
<circle cx="63500" cy="70500" r="280.315" /> 
<circle cx="63500" cy="68500" r="280.315" /> 
<circle cx="63500" cy="65750" r="280.315" /> 
<circle cx="63500" cy="63750" r="280.315" /> 
<circle cx="36250" cy="63500" r="280.315" /> 
<circle cx="38250" cy="63500" r="280.315" /> 
<circle cx="27338.6" cy="74252" r="255.315" /> 
<circle cx="29338.6" cy="74252" r="255.315" /> 
<circle cx="33338.6" cy="74252" r="255.315" /> 
<circle cx="35338.6" cy="74252" r="255.315" /> 
<circle cx="27338.6" cy="71456.7" r="255.315" /> 
<circle cx="29338.6" cy="71456.7" r="255.315" /> 
<circle cx="33338.6" cy="71456.7" r="255.315" /> 
<circle cx="35338.6" cy="71456.7" r="255.315" /> 
<circle cx="52750" cy="69500" r="180.315" /> 
<circle cx="53750" cy="69500" r="180.315" /> 
<circle cx="54750" cy="69500" r="180.315" /> 
<circle cx="32535.4" cy="77834.6" r="140.315" /> 
<circle cx="34535.4" cy="77834.6" r="140.315" /> 
<circle cx="44488.2" cy="76444.9" r="140.315" /> 
<circle cx="44488.2" cy="80444.9" r="140.315" /> 
<circle cx="43110.2" cy="83236.2" r="140.315" /> 
<circle cx="43110.2" cy="87236.2" r="140.315" /> 
<circle cx="57185" cy="83078.7" r="140.315" /> 
<circle cx="57185" cy="82078.7" r="140.315" /> 
<circle cx="57185" cy="84539.4" r="140.315" /> 
<circle cx="57185" cy="85539.4" r="140.315" /> 
<circle cx="57185" cy="88098.4" r="140.315" /> 
<circle cx="57185" cy="87098.4" r="140.315" /> 
<circle cx="36704.7" cy="68897.6" r="140.315" /> 
<circle cx="37704.7" cy="68897.6" r="140.315" /> 
<circle cx="31586.6" cy="68897.6" r="140.315" /> 
<circle cx="32586.6" cy="68897.6" r="140.315" /> 
<circle cx="26862.2" cy="68897.6" r="140.315" /> 
<circle cx="27862.2" cy="68897.6" r="140.315" /> 
<circle cx="57185" cy="79519.7" r="140.315" /> 
<circle cx="57185" cy="80519.7" r="140.315" /> 
<circle cx="40551.2" cy="88417.3" r="180.315" /> 
<circle cx="40551.2" cy="84417.3" r="180.315" /> 
<circle cx="27285.4" cy="84084.6" r="180.315" /> 
<circle cx="31285.4" cy="84084.6" r="180.315" /> 
<circle cx="42913.4" cy="76444.9" r="180.315" /> 
<circle cx="42913.4" cy="80444.9" r="180.315" /> 
<circle cx="38354.3" cy="72519.7" r="180.315" /> 
<circle cx="42354.3" cy="72519.7" r="180.315" /> 
<circle cx="38354.3" cy="73937" r="180.315" /> 
<circle cx="42354.3" cy="73937" r="180.315" /> 
<circle cx="33035.4" cy="83834.6" r="140.315" /> 
<circle cx="35035.4" cy="83834.6" r="140.315" /> 
<circle cx="39566.9" cy="70641.7" r="140.315" /> 
<circle cx="39566.9" cy="66641.7" r="140.315" /> 
<circle cx="56200.8" cy="77196.9" r="140.315" /> 
<circle cx="56200.8" cy="73196.9" r="140.315" /> 
<circle cx="41338.6" cy="80444.9" r="140.315" /> 
<circle cx="41338.6" cy="76444.9" r="140.315" /> 
<circle cx="46063" cy="76444.9" r="140.315" /> 
<circle cx="46063" cy="80444.9" r="140.315" /> 
<circle cx="53740.2" cy="77295.3" r="140.315" /> 
<circle cx="53740.2" cy="73295.3" r="140.315" /> 
<circle cx="42519.7" cy="70641.7" r="140.315" /> 
<circle cx="42519.7" cy="66641.7" r="140.315" /> 
<circle cx="41063" cy="70641.7" r="140.315" /> 
<circle cx="41063" cy="66641.7" r="140.315" /> 
<circle cx="44586.6" cy="83039.4" r="140.315" /> 
<circle cx="44586.6" cy="87039.4" r="140.315" /> 
<circle cx="38976.4" cy="84417.3" r="140.315" /> 
<circle cx="38976.4" cy="88417.3" r="140.315" /> 
<circle cx="53444.9" cy="84909.4" r="140.315" /> 
<circle cx="53444.9" cy="88909.4" r="140.315" /> 
<circle cx="55118.1" cy="84122" r="140.315" /> 
<circle cx="55118.1" cy="88122" r="140.315" /> 
<circle cx="52750" cy="71250" r="140.315" /> 
<circle cx="54750" cy="71250" r="140.315" /> 
<circle cx="56692.9" cy="68488.2" r="140.315" /> 
<circle cx="56692.9" cy="70488.2" r="140.315" /> 
<circle cx="39582.7" cy="82185" r="140.315" /> 
<circle cx="37582.7" cy="82185" r="140.315" /> 
<circle cx="57874" cy="68488.2" r="140.315" /> 
<circle cx="57874" cy="70488.2" r="140.315" /> 
<circle cx="56889.8" cy="63763.8" r="140.315" /> 
<circle cx="56889.8" cy="65763.8" r="140.315" /> 
<circle cx="62500" cy="76984.3" r="140.315" /> 
<circle cx="62500" cy="74984.3" r="140.315" /> 
<circle cx="27755.9" cy="86007.9" r="140.315" /> 
<circle cx="27755.9" cy="88007.9" r="140.315" /> 
<circle cx="26000" cy="63500" r="280.315" /> 
<circle cx="28000" cy="63500" r="280.315" /> 
<circle cx="49090.6" cy="78421.3" r="140.315" /> 
<circle cx="49090.6" cy="79421.3" r="140.315" /> 
<circle cx="49090.6" cy="80421.3" r="140.315" /> 
<circle cx="49090.6" cy="81421.3" r="140.315" /> 
<circle cx="52090.6" cy="81421.3" r="140.315" /> 
<circle cx="52090.6" cy="80421.3" r="140.315" /> 
<circle cx="52090.6" cy="79421.3" r="140.315" /> 
<circle cx="52090.6" cy="78421.3" r="140.315" /> 
<circle cx="46334.6" cy="83440.9" r="140.315" /> 
<circle cx="46334.6" cy="84440.9" r="140.315" /> 
<circle cx="46334.6" cy="85440.9" r="140.315" /> 
<circle cx="46334.6" cy="86440.9" r="140.315" /> 
<circle cx="49334.6" cy="86440.9" r="140.315" /> 
<circle cx="49334.6" cy="85440.9" r="140.315" /> 
<circle cx="49334.6" cy="84440.9" r="140.315" /> 
<circle cx="49334.6" cy="83440.9" r="140.315" /> 
</g>
<g style="fill:#000000; fill-opacity:1.0; 
stroke:#000000; stroke-width:59.0551; stroke-opacity:1; 
stroke-linecap:round; stroke-linejoin:round;">
</g>
<g style="fill:#000000; fill-opacity:0.0; 
stroke:#000000; stroke-width:59.0551; stroke-opacity:1; 
stroke-linecap:round; stroke-linejoin:round;">
<circle cx="68500" cy="92500" r="656.168" /> 
<path d="M67515 92500
L69484 92500
" />
<path d="M68500 91515
L68500 93484
" />
<circle cx="68000" cy="57500" r="656.168" /> 
<path d="M67015 57500
L68984 57500
" />
<path d="M68000 56515
L68000 58484
" />
<circle cx="20500" cy="58000" r="656.168" /> 
<path d="M19515 58000
L21484 58000
" />
<path d="M20500 57015
L20500 58984
" />
<path d="M24750 62000
L28750 62000
" />
<path d="M24750 89750
L24750 62000
" />
<path d="M65250 89750
L24750 89750
" />
<path d="M65250 62000
L65250 89750
" />
<path d="M24750 62000
L65250 62000
" />
</g> 
</svg>
