G04 #@! TF.FileFunction,Legend,Top*
%FSLAX46Y46*%
G04 Gerber Fmt 4.6, Leading zero omitted, Abs format (unit mm)*
G04 Created by KiCad (PCBNEW 4.0.2+dfsg1-stable) date ven. 05 janv. 2018 23:32:36 CET*
%MOMM*%
G01*
G04 APERTURE LIST*
%ADD10C,0.100000*%
%ADD11C,0.200000*%
%ADD12C,0.300000*%
%ADD13C,0.120000*%
%ADD14C,0.150000*%
%ADD15C,0.350000*%
G04 APERTURE END LIST*
D10*
D11*
X185238096Y-82000000D02*
X185142858Y-81952381D01*
X185000001Y-81952381D01*
X184857143Y-82000000D01*
X184761905Y-82095238D01*
X184714286Y-82190476D01*
X184666667Y-82380952D01*
X184666667Y-82523810D01*
X184714286Y-82714286D01*
X184761905Y-82809524D01*
X184857143Y-82904762D01*
X185000001Y-82952381D01*
X185095239Y-82952381D01*
X185238096Y-82904762D01*
X185285715Y-82857143D01*
X185285715Y-82523810D01*
X185095239Y-82523810D01*
X185714286Y-82952381D02*
X185714286Y-81952381D01*
X186285715Y-82952381D01*
X186285715Y-81952381D01*
X186761905Y-82952381D02*
X186761905Y-81952381D01*
X187000000Y-81952381D01*
X187142858Y-82000000D01*
X187238096Y-82095238D01*
X187285715Y-82190476D01*
X187333334Y-82380952D01*
X187333334Y-82523810D01*
X187285715Y-82714286D01*
X187238096Y-82809524D01*
X187142858Y-82904762D01*
X187000000Y-82952381D01*
X186761905Y-82952381D01*
X184238095Y-85071429D02*
X185000000Y-85071429D01*
X184619048Y-85452381D02*
X184619048Y-84690476D01*
X185380952Y-84452381D02*
X186000000Y-84452381D01*
X185666666Y-84833333D01*
X185809524Y-84833333D01*
X185904762Y-84880952D01*
X185952381Y-84928571D01*
X186000000Y-85023810D01*
X186000000Y-85261905D01*
X185952381Y-85357143D01*
X185904762Y-85404762D01*
X185809524Y-85452381D01*
X185523809Y-85452381D01*
X185428571Y-85404762D01*
X185380952Y-85357143D01*
X186285714Y-84452381D02*
X186619047Y-85452381D01*
X186952381Y-84452381D01*
X187190476Y-84452381D02*
X187809524Y-84452381D01*
X187476190Y-84833333D01*
X187619048Y-84833333D01*
X187714286Y-84880952D01*
X187761905Y-84928571D01*
X187809524Y-85023810D01*
X187809524Y-85261905D01*
X187761905Y-85357143D01*
X187714286Y-85404762D01*
X187619048Y-85452381D01*
X187333333Y-85452381D01*
X187238095Y-85404762D01*
X187190476Y-85357143D01*
X187198096Y-96020000D02*
X187102858Y-95972381D01*
X186960001Y-95972381D01*
X186817143Y-96020000D01*
X186721905Y-96115238D01*
X186674286Y-96210476D01*
X186626667Y-96400952D01*
X186626667Y-96543810D01*
X186674286Y-96734286D01*
X186721905Y-96829524D01*
X186817143Y-96924762D01*
X186960001Y-96972381D01*
X187055239Y-96972381D01*
X187198096Y-96924762D01*
X187245715Y-96877143D01*
X187245715Y-96543810D01*
X187055239Y-96543810D01*
X187674286Y-96972381D02*
X187674286Y-95972381D01*
X188245715Y-96972381D01*
X188245715Y-95972381D01*
X188721905Y-96972381D02*
X188721905Y-95972381D01*
X188960000Y-95972381D01*
X189102858Y-96020000D01*
X189198096Y-96115238D01*
X189245715Y-96210476D01*
X189293334Y-96400952D01*
X189293334Y-96543810D01*
X189245715Y-96734286D01*
X189198096Y-96829524D01*
X189102858Y-96924762D01*
X188960000Y-96972381D01*
X188721905Y-96972381D01*
D12*
X149802002Y-153078571D02*
X149802002Y-151578571D01*
X150159145Y-151578571D01*
X150373430Y-151650000D01*
X150516288Y-151792857D01*
X150587716Y-151935714D01*
X150659145Y-152221429D01*
X150659145Y-152435714D01*
X150587716Y-152721429D01*
X150516288Y-152864286D01*
X150373430Y-153007143D01*
X150159145Y-153078571D01*
X149802002Y-153078571D01*
X151302002Y-153078571D02*
X151302002Y-152078571D01*
X151302002Y-152364286D02*
X151373430Y-152221429D01*
X151444859Y-152150000D01*
X151587716Y-152078571D01*
X151730573Y-152078571D01*
X152230573Y-153078571D02*
X152230573Y-152078571D01*
X152230573Y-151578571D02*
X152159144Y-151650000D01*
X152230573Y-151721429D01*
X152302001Y-151650000D01*
X152230573Y-151578571D01*
X152230573Y-151721429D01*
X152802002Y-152078571D02*
X153159145Y-153078571D01*
X153516287Y-152078571D01*
X154659144Y-153007143D02*
X154516287Y-153078571D01*
X154230573Y-153078571D01*
X154087716Y-153007143D01*
X154016287Y-152864286D01*
X154016287Y-152292857D01*
X154087716Y-152150000D01*
X154230573Y-152078571D01*
X154516287Y-152078571D01*
X154659144Y-152150000D01*
X154730573Y-152292857D01*
X154730573Y-152435714D01*
X154016287Y-152578571D01*
X155373430Y-153078571D02*
X155373430Y-152078571D01*
X155373430Y-152364286D02*
X155444858Y-152221429D01*
X155516287Y-152150000D01*
X155659144Y-152078571D01*
X155802001Y-152078571D01*
X157730572Y-151578571D02*
X158016286Y-151578571D01*
X158159144Y-151650000D01*
X158302001Y-151792857D01*
X158373429Y-152078571D01*
X158373429Y-152578571D01*
X158302001Y-152864286D01*
X158159144Y-153007143D01*
X158016286Y-153078571D01*
X157730572Y-153078571D01*
X157587715Y-153007143D01*
X157444858Y-152864286D01*
X157373429Y-152578571D01*
X157373429Y-152078571D01*
X157444858Y-151792857D01*
X157587715Y-151650000D01*
X157730572Y-151578571D01*
X159230573Y-153078571D02*
X159087715Y-153007143D01*
X159016287Y-152864286D01*
X159016287Y-151578571D01*
X159873429Y-151578571D02*
X159730572Y-151864286D01*
X160516287Y-153078571D02*
X160516287Y-151578571D01*
X161230573Y-153078571D02*
X161230573Y-151578571D01*
X162087716Y-153078571D01*
X162087716Y-151578571D01*
X162802002Y-153078571D02*
X162802002Y-151578571D01*
X163373430Y-151578571D01*
X163516288Y-151650000D01*
X163587716Y-151721429D01*
X163659145Y-151864286D01*
X163659145Y-152078571D01*
X163587716Y-152221429D01*
X163516288Y-152292857D01*
X163373430Y-152364286D01*
X162802002Y-152364286D01*
X165373430Y-151721429D02*
X165444859Y-151650000D01*
X165587716Y-151578571D01*
X165944859Y-151578571D01*
X166087716Y-151650000D01*
X166159145Y-151721429D01*
X166230573Y-151864286D01*
X166230573Y-152007143D01*
X166159145Y-152221429D01*
X165302002Y-153078571D01*
X166230573Y-153078571D01*
X167159144Y-151578571D02*
X167302001Y-151578571D01*
X167444858Y-151650000D01*
X167516287Y-151721429D01*
X167587716Y-151864286D01*
X167659144Y-152150000D01*
X167659144Y-152507143D01*
X167587716Y-152792857D01*
X167516287Y-152935714D01*
X167444858Y-153007143D01*
X167302001Y-153078571D01*
X167159144Y-153078571D01*
X167016287Y-153007143D01*
X166944858Y-152935714D01*
X166873430Y-152792857D01*
X166802001Y-152507143D01*
X166802001Y-152150000D01*
X166873430Y-151864286D01*
X166944858Y-151721429D01*
X167016287Y-151650000D01*
X167159144Y-151578571D01*
X169087715Y-153078571D02*
X168230572Y-153078571D01*
X168659144Y-153078571D02*
X168659144Y-151578571D01*
X168516287Y-151792857D01*
X168373429Y-151935714D01*
X168230572Y-152007143D01*
X169587715Y-151578571D02*
X170587715Y-151578571D01*
X169944858Y-153078571D01*
X172087714Y-151578571D02*
X172587714Y-153078571D01*
X173087714Y-151578571D01*
X173516285Y-151721429D02*
X173587714Y-151650000D01*
X173730571Y-151578571D01*
X174087714Y-151578571D01*
X174230571Y-151650000D01*
X174302000Y-151721429D01*
X174373428Y-151864286D01*
X174373428Y-152007143D01*
X174302000Y-152221429D01*
X173444857Y-153078571D01*
X174373428Y-153078571D01*
X175736715Y-112462571D02*
X176593858Y-112462571D01*
X176165287Y-113962571D02*
X176165287Y-112462571D01*
X176951001Y-112462571D02*
X177951001Y-113962571D01*
X177951001Y-112462571D02*
X176951001Y-113962571D01*
X178165286Y-114105429D02*
X179308143Y-114105429D01*
X179665286Y-113176857D02*
X180165286Y-113176857D01*
X180379572Y-113962571D02*
X179665286Y-113962571D01*
X179665286Y-112462571D01*
X180379572Y-112462571D01*
X181308143Y-113248286D02*
X181308143Y-113962571D01*
X180808143Y-112462571D02*
X181308143Y-113248286D01*
X181808143Y-112462571D01*
X182308143Y-113176857D02*
X182808143Y-113176857D01*
X183022429Y-113962571D02*
X182308143Y-113962571D01*
X182308143Y-112462571D01*
X183022429Y-112462571D01*
X165178572Y-123678571D02*
X164678572Y-122964286D01*
X164321429Y-123678571D02*
X164321429Y-122178571D01*
X164892857Y-122178571D01*
X165035715Y-122250000D01*
X165107143Y-122321429D01*
X165178572Y-122464286D01*
X165178572Y-122678571D01*
X165107143Y-122821429D01*
X165035715Y-122892857D01*
X164892857Y-122964286D01*
X164321429Y-122964286D01*
X165678572Y-122178571D02*
X166678572Y-123678571D01*
X166678572Y-122178571D02*
X165678572Y-123678571D01*
X166892857Y-123821429D02*
X168035714Y-123821429D01*
X168392857Y-122892857D02*
X168892857Y-122892857D01*
X169107143Y-123678571D02*
X168392857Y-123678571D01*
X168392857Y-122178571D01*
X169107143Y-122178571D01*
X170035714Y-122964286D02*
X170035714Y-123678571D01*
X169535714Y-122178571D02*
X170035714Y-122964286D01*
X170535714Y-122178571D01*
X171035714Y-122892857D02*
X171535714Y-122892857D01*
X171750000Y-123678571D02*
X171035714Y-123678571D01*
X171035714Y-122178571D01*
X171750000Y-122178571D01*
X157143144Y-130242571D02*
X156428858Y-130242571D01*
X156357429Y-130956857D01*
X156428858Y-130885429D01*
X156571715Y-130814000D01*
X156928858Y-130814000D01*
X157071715Y-130885429D01*
X157143144Y-130956857D01*
X157214572Y-131099714D01*
X157214572Y-131456857D01*
X157143144Y-131599714D01*
X157071715Y-131671143D01*
X156928858Y-131742571D01*
X156571715Y-131742571D01*
X156428858Y-131671143D01*
X156357429Y-131599714D01*
X157643143Y-130242571D02*
X158143143Y-131742571D01*
X158643143Y-130242571D01*
X160786000Y-130956857D02*
X161000286Y-131028286D01*
X161071714Y-131099714D01*
X161143143Y-131242571D01*
X161143143Y-131456857D01*
X161071714Y-131599714D01*
X161000286Y-131671143D01*
X160857428Y-131742571D01*
X160286000Y-131742571D01*
X160286000Y-130242571D01*
X160786000Y-130242571D01*
X160928857Y-130314000D01*
X161000286Y-130385429D01*
X161071714Y-130528286D01*
X161071714Y-130671143D01*
X161000286Y-130814000D01*
X160928857Y-130885429D01*
X160786000Y-130956857D01*
X160286000Y-130956857D01*
X161786000Y-130242571D02*
X161786000Y-131456857D01*
X161857428Y-131599714D01*
X161928857Y-131671143D01*
X162071714Y-131742571D01*
X162357428Y-131742571D01*
X162500286Y-131671143D01*
X162571714Y-131599714D01*
X162643143Y-131456857D01*
X162643143Y-130242571D01*
X164214572Y-131599714D02*
X164143143Y-131671143D01*
X163928857Y-131742571D01*
X163786000Y-131742571D01*
X163571715Y-131671143D01*
X163428857Y-131528286D01*
X163357429Y-131385429D01*
X163286000Y-131099714D01*
X163286000Y-130885429D01*
X163357429Y-130599714D01*
X163428857Y-130456857D01*
X163571715Y-130314000D01*
X163786000Y-130242571D01*
X163928857Y-130242571D01*
X164143143Y-130314000D01*
X164214572Y-130385429D01*
X164857429Y-131742571D02*
X164857429Y-130242571D01*
X165714572Y-131742571D02*
X165071715Y-130885429D01*
X165714572Y-130242571D02*
X164857429Y-131099714D01*
X174625143Y-137299000D02*
X174482286Y-137227571D01*
X174268000Y-137227571D01*
X174053715Y-137299000D01*
X173910857Y-137441857D01*
X173839429Y-137584714D01*
X173768000Y-137870429D01*
X173768000Y-138084714D01*
X173839429Y-138370429D01*
X173910857Y-138513286D01*
X174053715Y-138656143D01*
X174268000Y-138727571D01*
X174410857Y-138727571D01*
X174625143Y-138656143D01*
X174696572Y-138584714D01*
X174696572Y-138084714D01*
X174410857Y-138084714D01*
X175339429Y-138727571D02*
X175339429Y-137227571D01*
X176196572Y-138727571D01*
X176196572Y-137227571D01*
X176910858Y-138727571D02*
X176910858Y-137227571D01*
X177268001Y-137227571D01*
X177482286Y-137299000D01*
X177625144Y-137441857D01*
X177696572Y-137584714D01*
X177768001Y-137870429D01*
X177768001Y-138084714D01*
X177696572Y-138370429D01*
X177625144Y-138513286D01*
X177482286Y-138656143D01*
X177268001Y-138727571D01*
X176910858Y-138727571D01*
D11*
X186983810Y-108672381D02*
X186983810Y-109386667D01*
X186936190Y-109529524D01*
X186840952Y-109624762D01*
X186698095Y-109672381D01*
X186602857Y-109672381D01*
X187317143Y-108672381D02*
X187888572Y-108672381D01*
X187602857Y-109672381D02*
X187602857Y-108672381D01*
X188221905Y-109672381D02*
X188221905Y-108672381D01*
X188460000Y-108672381D01*
X188602858Y-108720000D01*
X188698096Y-108815238D01*
X188745715Y-108910476D01*
X188793334Y-109100952D01*
X188793334Y-109243810D01*
X188745715Y-109434286D01*
X188698096Y-109529524D01*
X188602858Y-109624762D01*
X188460000Y-109672381D01*
X188221905Y-109672381D01*
X189221905Y-109672381D02*
X189221905Y-108672381D01*
X186698096Y-106132381D02*
X186698096Y-106846667D01*
X186650476Y-106989524D01*
X186555238Y-107084762D01*
X186412381Y-107132381D01*
X186317143Y-107132381D01*
X187031429Y-106132381D02*
X187602858Y-106132381D01*
X187317143Y-107132381D02*
X187317143Y-106132381D01*
X187936191Y-107132381D02*
X187936191Y-106132381D01*
X188174286Y-106132381D01*
X188317144Y-106180000D01*
X188412382Y-106275238D01*
X188460001Y-106370476D01*
X188507620Y-106560952D01*
X188507620Y-106703810D01*
X188460001Y-106894286D01*
X188412382Y-106989524D01*
X188317144Y-107084762D01*
X188174286Y-107132381D01*
X187936191Y-107132381D01*
X189126667Y-106132381D02*
X189317144Y-106132381D01*
X189412382Y-106180000D01*
X189507620Y-106275238D01*
X189555239Y-106465714D01*
X189555239Y-106799048D01*
X189507620Y-106989524D01*
X189412382Y-107084762D01*
X189317144Y-107132381D01*
X189126667Y-107132381D01*
X189031429Y-107084762D01*
X188936191Y-106989524D01*
X188888572Y-106799048D01*
X188888572Y-106465714D01*
X188936191Y-106275238D01*
X189031429Y-106180000D01*
X189126667Y-106132381D01*
X186317143Y-104592381D02*
X186317143Y-103592381D01*
X186888572Y-104592381D01*
X186888572Y-103592381D01*
X187936191Y-104592381D02*
X187602857Y-104116190D01*
X187364762Y-104592381D02*
X187364762Y-103592381D01*
X187745715Y-103592381D01*
X187840953Y-103640000D01*
X187888572Y-103687619D01*
X187936191Y-103782857D01*
X187936191Y-103925714D01*
X187888572Y-104020952D01*
X187840953Y-104068571D01*
X187745715Y-104116190D01*
X187364762Y-104116190D01*
X188317143Y-104544762D02*
X188460000Y-104592381D01*
X188698096Y-104592381D01*
X188793334Y-104544762D01*
X188840953Y-104497143D01*
X188888572Y-104401905D01*
X188888572Y-104306667D01*
X188840953Y-104211429D01*
X188793334Y-104163810D01*
X188698096Y-104116190D01*
X188507619Y-104068571D01*
X188412381Y-104020952D01*
X188364762Y-103973333D01*
X188317143Y-103878095D01*
X188317143Y-103782857D01*
X188364762Y-103687619D01*
X188412381Y-103640000D01*
X188507619Y-103592381D01*
X188745715Y-103592381D01*
X188888572Y-103640000D01*
X189174286Y-103592381D02*
X189745715Y-103592381D01*
X189460000Y-104592381D02*
X189460000Y-103592381D01*
X185840953Y-102004762D02*
X185983810Y-102052381D01*
X186221906Y-102052381D01*
X186317144Y-102004762D01*
X186364763Y-101957143D01*
X186412382Y-101861905D01*
X186412382Y-101766667D01*
X186364763Y-101671429D01*
X186317144Y-101623810D01*
X186221906Y-101576190D01*
X186031429Y-101528571D01*
X185936191Y-101480952D01*
X185888572Y-101433333D01*
X185840953Y-101338095D01*
X185840953Y-101242857D01*
X185888572Y-101147619D01*
X185936191Y-101100000D01*
X186031429Y-101052381D01*
X186269525Y-101052381D01*
X186412382Y-101100000D01*
X186745715Y-101052381D02*
X186983810Y-102052381D01*
X187174287Y-101338095D01*
X187364763Y-102052381D01*
X187602858Y-101052381D01*
X187983810Y-102052381D02*
X187983810Y-101052381D01*
X188221905Y-101052381D01*
X188364763Y-101100000D01*
X188460001Y-101195238D01*
X188507620Y-101290476D01*
X188555239Y-101480952D01*
X188555239Y-101623810D01*
X188507620Y-101814286D01*
X188460001Y-101909524D01*
X188364763Y-102004762D01*
X188221905Y-102052381D01*
X187983810Y-102052381D01*
X188983810Y-102052381D02*
X188983810Y-101052381D01*
X189650476Y-101052381D02*
X189840953Y-101052381D01*
X189936191Y-101100000D01*
X190031429Y-101195238D01*
X190079048Y-101385714D01*
X190079048Y-101719048D01*
X190031429Y-101909524D01*
X189936191Y-102004762D01*
X189840953Y-102052381D01*
X189650476Y-102052381D01*
X189555238Y-102004762D01*
X189460000Y-101909524D01*
X189412381Y-101719048D01*
X189412381Y-101385714D01*
X189460000Y-101195238D01*
X189555238Y-101100000D01*
X189650476Y-101052381D01*
X185190095Y-99464762D02*
X185332952Y-99512381D01*
X185571048Y-99512381D01*
X185666286Y-99464762D01*
X185713905Y-99417143D01*
X185761524Y-99321905D01*
X185761524Y-99226667D01*
X185713905Y-99131429D01*
X185666286Y-99083810D01*
X185571048Y-99036190D01*
X185380571Y-98988571D01*
X185285333Y-98940952D01*
X185237714Y-98893333D01*
X185190095Y-98798095D01*
X185190095Y-98702857D01*
X185237714Y-98607619D01*
X185285333Y-98560000D01*
X185380571Y-98512381D01*
X185618667Y-98512381D01*
X185761524Y-98560000D01*
X186094857Y-98512381D02*
X186332952Y-99512381D01*
X186523429Y-98798095D01*
X186713905Y-99512381D01*
X186952000Y-98512381D01*
X187904381Y-99417143D02*
X187856762Y-99464762D01*
X187713905Y-99512381D01*
X187618667Y-99512381D01*
X187475809Y-99464762D01*
X187380571Y-99369524D01*
X187332952Y-99274286D01*
X187285333Y-99083810D01*
X187285333Y-98940952D01*
X187332952Y-98750476D01*
X187380571Y-98655238D01*
X187475809Y-98560000D01*
X187618667Y-98512381D01*
X187713905Y-98512381D01*
X187856762Y-98560000D01*
X187904381Y-98607619D01*
X188809143Y-99512381D02*
X188332952Y-99512381D01*
X188332952Y-98512381D01*
X189142476Y-99512381D02*
X189142476Y-98512381D01*
X189713905Y-99512381D02*
X189285333Y-98940952D01*
X189713905Y-98512381D02*
X189142476Y-99083810D01*
X182357143Y-89452381D02*
X182928572Y-89452381D01*
X182642857Y-90452381D02*
X182642857Y-89452381D01*
X183166667Y-89452381D02*
X183833334Y-90452381D01*
X183833334Y-89452381D02*
X183166667Y-90452381D01*
X183976191Y-90547619D02*
X184738096Y-90547619D01*
X184928572Y-90404762D02*
X185071429Y-90452381D01*
X185309525Y-90452381D01*
X185404763Y-90404762D01*
X185452382Y-90357143D01*
X185500001Y-90261905D01*
X185500001Y-90166667D01*
X185452382Y-90071429D01*
X185404763Y-90023810D01*
X185309525Y-89976190D01*
X185119048Y-89928571D01*
X185023810Y-89880952D01*
X184976191Y-89833333D01*
X184928572Y-89738095D01*
X184928572Y-89642857D01*
X184976191Y-89547619D01*
X185023810Y-89500000D01*
X185119048Y-89452381D01*
X185357144Y-89452381D01*
X185500001Y-89500000D01*
X185928572Y-89928571D02*
X186261906Y-89928571D01*
X186404763Y-90452381D02*
X185928572Y-90452381D01*
X185928572Y-89452381D01*
X186404763Y-89452381D01*
X187404763Y-90452381D02*
X187071429Y-89976190D01*
X186833334Y-90452381D02*
X186833334Y-89452381D01*
X187214287Y-89452381D01*
X187309525Y-89500000D01*
X187357144Y-89547619D01*
X187404763Y-89642857D01*
X187404763Y-89785714D01*
X187357144Y-89880952D01*
X187309525Y-89928571D01*
X187214287Y-89976190D01*
X186833334Y-89976190D01*
X187833334Y-90452381D02*
X187833334Y-89452381D01*
X188261905Y-90166667D02*
X188738096Y-90166667D01*
X188166667Y-90452381D02*
X188500000Y-89452381D01*
X188833334Y-90452381D01*
X189642858Y-90452381D02*
X189166667Y-90452381D01*
X189166667Y-89452381D01*
X182952381Y-87952381D02*
X182619047Y-87476190D01*
X182380952Y-87952381D02*
X182380952Y-86952381D01*
X182761905Y-86952381D01*
X182857143Y-87000000D01*
X182904762Y-87047619D01*
X182952381Y-87142857D01*
X182952381Y-87285714D01*
X182904762Y-87380952D01*
X182857143Y-87428571D01*
X182761905Y-87476190D01*
X182380952Y-87476190D01*
X183285714Y-86952381D02*
X183952381Y-87952381D01*
X183952381Y-86952381D02*
X183285714Y-87952381D01*
X184095238Y-88047619D02*
X184857143Y-88047619D01*
X185047619Y-87904762D02*
X185190476Y-87952381D01*
X185428572Y-87952381D01*
X185523810Y-87904762D01*
X185571429Y-87857143D01*
X185619048Y-87761905D01*
X185619048Y-87666667D01*
X185571429Y-87571429D01*
X185523810Y-87523810D01*
X185428572Y-87476190D01*
X185238095Y-87428571D01*
X185142857Y-87380952D01*
X185095238Y-87333333D01*
X185047619Y-87238095D01*
X185047619Y-87142857D01*
X185095238Y-87047619D01*
X185142857Y-87000000D01*
X185238095Y-86952381D01*
X185476191Y-86952381D01*
X185619048Y-87000000D01*
X186047619Y-87428571D02*
X186380953Y-87428571D01*
X186523810Y-87952381D02*
X186047619Y-87952381D01*
X186047619Y-86952381D01*
X186523810Y-86952381D01*
X187523810Y-87952381D02*
X187190476Y-87476190D01*
X186952381Y-87952381D02*
X186952381Y-86952381D01*
X187333334Y-86952381D01*
X187428572Y-87000000D01*
X187476191Y-87047619D01*
X187523810Y-87142857D01*
X187523810Y-87285714D01*
X187476191Y-87380952D01*
X187428572Y-87428571D01*
X187333334Y-87476190D01*
X186952381Y-87476190D01*
X187952381Y-87952381D02*
X187952381Y-86952381D01*
X188380952Y-87666667D02*
X188857143Y-87666667D01*
X188285714Y-87952381D02*
X188619047Y-86952381D01*
X188952381Y-87952381D01*
X189761905Y-87952381D02*
X189285714Y-87952381D01*
X189285714Y-86952381D01*
D13*
X167250000Y-95090000D02*
X167250000Y-93090000D01*
X169390000Y-93090000D02*
X169390000Y-95090000D01*
X169430000Y-141160000D02*
X172230000Y-141160000D01*
X172230000Y-141160000D02*
X172230000Y-131260000D01*
X172230000Y-131260000D02*
X171230000Y-131260000D01*
X171230000Y-131260000D02*
X171230000Y-129860000D01*
X171230000Y-129860000D02*
X169430000Y-129860000D01*
X169430000Y-141160000D02*
X166630000Y-141160000D01*
X166630000Y-141160000D02*
X166630000Y-131260000D01*
X166630000Y-131260000D02*
X167630000Y-131260000D01*
X167630000Y-131260000D02*
X167630000Y-129860000D01*
X167630000Y-129860000D02*
X169430000Y-129860000D01*
X169630000Y-141410000D02*
X172480000Y-141410000D01*
X172480000Y-141410000D02*
X172480000Y-138560000D01*
D14*
X171800000Y-108040000D02*
X172800000Y-108040000D01*
X172800000Y-106340000D02*
X171800000Y-106340000D01*
X131326000Y-74509000D02*
X132326000Y-74509000D01*
X132326000Y-75859000D02*
X131326000Y-75859000D01*
X131326000Y-77049000D02*
X132326000Y-77049000D01*
X132326000Y-78399000D02*
X131326000Y-78399000D01*
D13*
X169380000Y-125470000D02*
X169380000Y-128270000D01*
X169380000Y-128270000D02*
X179280000Y-128270000D01*
X179280000Y-128270000D02*
X179280000Y-127270000D01*
X179280000Y-127270000D02*
X180680000Y-127270000D01*
X180680000Y-127270000D02*
X180680000Y-125470000D01*
X169380000Y-125470000D02*
X169380000Y-122670000D01*
X169380000Y-122670000D02*
X179280000Y-122670000D01*
X179280000Y-122670000D02*
X179280000Y-123670000D01*
X179280000Y-123670000D02*
X180680000Y-123670000D01*
X180680000Y-123670000D02*
X180680000Y-125470000D01*
X169130000Y-125670000D02*
X169130000Y-128520000D01*
X169130000Y-128520000D02*
X171980000Y-128520000D01*
D15*
X152503000Y-118495000D02*
X152503000Y-118995000D01*
X152503000Y-118995000D02*
X149503000Y-118995000D01*
X149503000Y-118995000D02*
X149503000Y-118495000D01*
X149503000Y-118495000D02*
X152503000Y-118495000D01*
D14*
X114765000Y-73284000D02*
X114765000Y-73389000D01*
X118915000Y-73284000D02*
X118915000Y-73389000D01*
X118915000Y-83434000D02*
X118915000Y-83329000D01*
X114765000Y-83434000D02*
X114765000Y-83329000D01*
X114765000Y-73284000D02*
X118915000Y-73284000D01*
X114765000Y-83434000D02*
X118915000Y-83434000D01*
X114765000Y-73389000D02*
X113390000Y-73389000D01*
X122766000Y-83444000D02*
X122766000Y-83549000D01*
X126916000Y-83444000D02*
X126916000Y-83549000D01*
X126916000Y-93594000D02*
X126916000Y-93489000D01*
X122766000Y-93594000D02*
X122766000Y-93489000D01*
X122766000Y-83444000D02*
X126916000Y-83444000D01*
X122766000Y-93594000D02*
X126916000Y-93594000D01*
X122766000Y-83549000D02*
X121391000Y-83549000D01*
X114765000Y-93604000D02*
X114765000Y-93709000D01*
X118915000Y-93604000D02*
X118915000Y-93709000D01*
X118915000Y-103754000D02*
X118915000Y-103649000D01*
X114765000Y-103754000D02*
X114765000Y-103649000D01*
X114765000Y-93604000D02*
X118915000Y-93604000D01*
X114765000Y-103754000D02*
X118915000Y-103754000D01*
X114765000Y-93709000D02*
X113390000Y-93709000D01*
X122766000Y-103764000D02*
X122766000Y-103869000D01*
X126916000Y-103764000D02*
X126916000Y-103869000D01*
X126916000Y-113914000D02*
X126916000Y-113809000D01*
X122766000Y-113914000D02*
X122766000Y-113809000D01*
X122766000Y-103764000D02*
X126916000Y-103764000D01*
X122766000Y-113914000D02*
X126916000Y-113914000D01*
X122766000Y-103869000D02*
X121391000Y-103869000D01*
X114765000Y-113924000D02*
X114765000Y-114029000D01*
X118915000Y-113924000D02*
X118915000Y-114029000D01*
X118915000Y-124074000D02*
X118915000Y-123969000D01*
X114765000Y-124074000D02*
X114765000Y-123969000D01*
X114765000Y-113924000D02*
X118915000Y-113924000D01*
X114765000Y-124074000D02*
X118915000Y-124074000D01*
X114765000Y-114029000D02*
X113390000Y-114029000D01*
X122766000Y-124084000D02*
X122766000Y-124189000D01*
X126916000Y-124084000D02*
X126916000Y-124189000D01*
X126916000Y-134234000D02*
X126916000Y-134129000D01*
X122766000Y-134234000D02*
X122766000Y-134129000D01*
X122766000Y-124084000D02*
X126916000Y-124084000D01*
X122766000Y-134234000D02*
X126916000Y-134234000D01*
X122766000Y-124189000D02*
X121391000Y-124189000D01*
X114765000Y-134244000D02*
X114765000Y-134349000D01*
X118915000Y-134244000D02*
X118915000Y-134349000D01*
X118915000Y-144394000D02*
X118915000Y-144289000D01*
X114765000Y-144394000D02*
X114765000Y-144289000D01*
X114765000Y-134244000D02*
X118915000Y-134244000D01*
X114765000Y-144394000D02*
X118915000Y-144394000D01*
X114765000Y-134349000D02*
X113390000Y-134349000D01*
X122766000Y-144404000D02*
X122766000Y-144509000D01*
X126916000Y-144404000D02*
X126916000Y-144509000D01*
X126916000Y-154554000D02*
X126916000Y-154449000D01*
X122766000Y-154554000D02*
X122766000Y-154449000D01*
X122766000Y-144404000D02*
X126916000Y-144404000D01*
X122766000Y-154554000D02*
X126916000Y-154554000D01*
X122766000Y-144509000D02*
X121391000Y-144509000D01*
X131326000Y-79589000D02*
X132326000Y-79589000D01*
X132326000Y-80939000D02*
X131326000Y-80939000D01*
X131326000Y-82129000D02*
X132326000Y-82129000D01*
X132326000Y-83479000D02*
X131326000Y-83479000D01*
X131326000Y-84669000D02*
X132326000Y-84669000D01*
X132326000Y-86019000D02*
X131326000Y-86019000D01*
X131326000Y-87209000D02*
X132326000Y-87209000D01*
X132326000Y-88559000D02*
X131326000Y-88559000D01*
X131326000Y-89749000D02*
X132326000Y-89749000D01*
X132326000Y-91099000D02*
X131326000Y-91099000D01*
X131326000Y-92289000D02*
X132326000Y-92289000D01*
X132326000Y-93639000D02*
X131326000Y-93639000D01*
X131326000Y-94829000D02*
X132326000Y-94829000D01*
X132326000Y-96179000D02*
X131326000Y-96179000D01*
X131326000Y-97369000D02*
X132326000Y-97369000D01*
X132326000Y-98719000D02*
X131326000Y-98719000D01*
X131326000Y-99909000D02*
X132326000Y-99909000D01*
X132326000Y-101259000D02*
X131326000Y-101259000D01*
X131326000Y-102449000D02*
X132326000Y-102449000D01*
X132326000Y-103799000D02*
X131326000Y-103799000D01*
X131326000Y-104989000D02*
X132326000Y-104989000D01*
X132326000Y-106339000D02*
X131326000Y-106339000D01*
X131326000Y-107529000D02*
X132326000Y-107529000D01*
X132326000Y-108879000D02*
X131326000Y-108879000D01*
X131326000Y-110069000D02*
X132326000Y-110069000D01*
X132326000Y-111419000D02*
X131326000Y-111419000D01*
X131326000Y-112609000D02*
X132326000Y-112609000D01*
X132326000Y-113959000D02*
X131326000Y-113959000D01*
X131326000Y-115149000D02*
X132326000Y-115149000D01*
X132326000Y-116499000D02*
X131326000Y-116499000D01*
X131326000Y-117689000D02*
X132326000Y-117689000D01*
X132326000Y-119039000D02*
X131326000Y-119039000D01*
X131326000Y-120229000D02*
X132326000Y-120229000D01*
X132326000Y-121579000D02*
X131326000Y-121579000D01*
X131326000Y-122769000D02*
X132326000Y-122769000D01*
X132326000Y-124119000D02*
X131326000Y-124119000D01*
X131326000Y-125309000D02*
X132326000Y-125309000D01*
X132326000Y-126659000D02*
X131326000Y-126659000D01*
X131326000Y-127849000D02*
X132326000Y-127849000D01*
X132326000Y-129199000D02*
X131326000Y-129199000D01*
X131326000Y-130389000D02*
X132326000Y-130389000D01*
X132326000Y-131739000D02*
X131326000Y-131739000D01*
X131326000Y-132929000D02*
X132326000Y-132929000D01*
X132326000Y-134279000D02*
X131326000Y-134279000D01*
X131326000Y-135469000D02*
X132326000Y-135469000D01*
X132326000Y-136819000D02*
X131326000Y-136819000D01*
X131326000Y-138009000D02*
X132326000Y-138009000D01*
X132326000Y-139359000D02*
X131326000Y-139359000D01*
X131326000Y-140549000D02*
X132326000Y-140549000D01*
X132326000Y-141899000D02*
X131326000Y-141899000D01*
X131326000Y-143089000D02*
X132326000Y-143089000D01*
X132326000Y-144439000D02*
X131326000Y-144439000D01*
X131326000Y-145629000D02*
X132326000Y-145629000D01*
X132326000Y-146979000D02*
X131326000Y-146979000D01*
X131326000Y-148169000D02*
X132326000Y-148169000D01*
X132326000Y-149519000D02*
X131326000Y-149519000D01*
X131326000Y-150709000D02*
X132326000Y-150709000D01*
X132326000Y-152059000D02*
X131326000Y-152059000D01*
X131326000Y-153249000D02*
X132326000Y-153249000D01*
X132326000Y-154599000D02*
X131326000Y-154599000D01*
X174538000Y-70493000D02*
X174538000Y-71493000D01*
X173188000Y-71493000D02*
X173188000Y-70493000D01*
X133898000Y-70493000D02*
X133898000Y-71493000D01*
X132548000Y-71493000D02*
X132548000Y-70493000D01*
X182665000Y-70065000D02*
X182665000Y-70040000D01*
X178015000Y-70065000D02*
X178015000Y-70040000D01*
X178015000Y-62015000D02*
X178015000Y-62040000D01*
X182665000Y-62015000D02*
X182665000Y-62040000D01*
X182665000Y-70065000D02*
X178015000Y-70065000D01*
X182665000Y-62015000D02*
X178015000Y-62015000D01*
X182665000Y-70040000D02*
X183740000Y-70040000D01*
X142025000Y-70065000D02*
X142025000Y-70040000D01*
X137375000Y-70065000D02*
X137375000Y-70040000D01*
X137375000Y-62015000D02*
X137375000Y-62040000D01*
X142025000Y-62015000D02*
X142025000Y-62040000D01*
X142025000Y-70065000D02*
X137375000Y-70065000D01*
X142025000Y-62015000D02*
X137375000Y-62015000D01*
X142025000Y-70040000D02*
X143100000Y-70040000D01*
X144588000Y-81279000D02*
X144588000Y-81644000D01*
X152338000Y-81279000D02*
X152338000Y-81644000D01*
X152338000Y-97029000D02*
X152338000Y-96664000D01*
X144588000Y-97029000D02*
X144588000Y-96664000D01*
X144588000Y-81279000D02*
X152338000Y-81279000D01*
X144588000Y-97029000D02*
X152338000Y-97029000D01*
X144588000Y-81644000D02*
X142763000Y-81644000D01*
X144588000Y-121919000D02*
X144588000Y-122284000D01*
X152338000Y-121919000D02*
X152338000Y-122284000D01*
X152338000Y-137669000D02*
X152338000Y-137304000D01*
X144588000Y-137669000D02*
X144588000Y-137304000D01*
X144588000Y-121919000D02*
X152338000Y-121919000D01*
X144588000Y-137669000D02*
X152338000Y-137669000D01*
X144588000Y-122284000D02*
X142763000Y-122284000D01*
D13*
X193210000Y-95190000D02*
X193210000Y-110550000D01*
X193210000Y-110550000D02*
X195870000Y-110550000D01*
X195870000Y-110550000D02*
X195870000Y-95190000D01*
X195870000Y-95190000D02*
X193210000Y-95190000D01*
X195870000Y-96140000D02*
X201870000Y-96140000D01*
X201870000Y-96140000D02*
X201870000Y-96900000D01*
X201870000Y-96900000D02*
X195870000Y-96900000D01*
X195870000Y-96200000D02*
X201870000Y-96200000D01*
X195870000Y-96320000D02*
X201870000Y-96320000D01*
X195870000Y-96440000D02*
X201870000Y-96440000D01*
X195870000Y-96560000D02*
X201870000Y-96560000D01*
X195870000Y-96680000D02*
X201870000Y-96680000D01*
X195870000Y-96800000D02*
X201870000Y-96800000D01*
X192880000Y-96140000D02*
X193210000Y-96140000D01*
X192880000Y-96900000D02*
X193210000Y-96900000D01*
X193210000Y-97790000D02*
X195870000Y-97790000D01*
X195870000Y-98680000D02*
X201870000Y-98680000D01*
X201870000Y-98680000D02*
X201870000Y-99440000D01*
X201870000Y-99440000D02*
X195870000Y-99440000D01*
X192812929Y-98680000D02*
X193210000Y-98680000D01*
X192812929Y-99440000D02*
X193210000Y-99440000D01*
X193210000Y-100330000D02*
X195870000Y-100330000D01*
X195870000Y-101220000D02*
X201870000Y-101220000D01*
X201870000Y-101220000D02*
X201870000Y-101980000D01*
X201870000Y-101980000D02*
X195870000Y-101980000D01*
X192812929Y-101220000D02*
X193210000Y-101220000D01*
X192812929Y-101980000D02*
X193210000Y-101980000D01*
X193210000Y-102870000D02*
X195870000Y-102870000D01*
X195870000Y-103760000D02*
X201870000Y-103760000D01*
X201870000Y-103760000D02*
X201870000Y-104520000D01*
X201870000Y-104520000D02*
X195870000Y-104520000D01*
X192812929Y-103760000D02*
X193210000Y-103760000D01*
X192812929Y-104520000D02*
X193210000Y-104520000D01*
X193210000Y-105410000D02*
X195870000Y-105410000D01*
X195870000Y-106300000D02*
X201870000Y-106300000D01*
X201870000Y-106300000D02*
X201870000Y-107060000D01*
X201870000Y-107060000D02*
X195870000Y-107060000D01*
X192812929Y-106300000D02*
X193210000Y-106300000D01*
X192812929Y-107060000D02*
X193210000Y-107060000D01*
X193210000Y-107950000D02*
X195870000Y-107950000D01*
X195870000Y-108840000D02*
X201870000Y-108840000D01*
X201870000Y-108840000D02*
X201870000Y-109600000D01*
X201870000Y-109600000D02*
X195870000Y-109600000D01*
X192812929Y-108840000D02*
X193210000Y-108840000D01*
X192812929Y-109600000D02*
X193210000Y-109600000D01*
X190500000Y-96520000D02*
X190500000Y-95250000D01*
X190500000Y-95250000D02*
X191770000Y-95250000D01*
X161860000Y-84370000D02*
X161860000Y-87030000D01*
X167000000Y-84370000D02*
X161860000Y-84370000D01*
X167000000Y-87030000D02*
X161860000Y-87030000D01*
X167000000Y-84370000D02*
X167000000Y-87030000D01*
X168270000Y-84370000D02*
X169600000Y-84370000D01*
X169600000Y-84370000D02*
X169600000Y-85700000D01*
X193050000Y-112820000D02*
X190390000Y-112820000D01*
X193050000Y-117960000D02*
X193050000Y-112820000D01*
X190390000Y-117960000D02*
X190390000Y-112820000D01*
X193050000Y-117960000D02*
X190390000Y-117960000D01*
X193050000Y-119230000D02*
X193050000Y-120560000D01*
X193050000Y-120560000D02*
X191720000Y-120560000D01*
X171590000Y-116135000D02*
X177990000Y-116135000D01*
X171590000Y-121185000D02*
X177990000Y-121185000D01*
X171590000Y-121185000D02*
G75*
G02X171590000Y-116135000I0J2525000D01*
G01*
X177990000Y-121185000D02*
G75*
G03X177990000Y-116135000I0J2525000D01*
G01*
X179210000Y-113990000D02*
X177210000Y-113990000D01*
X177210000Y-111850000D02*
X179210000Y-111850000D01*
X192940000Y-81090000D02*
X192940000Y-91370000D01*
X192940000Y-91370000D02*
X195600000Y-91370000D01*
X195600000Y-91370000D02*
X195600000Y-81090000D01*
X195600000Y-81090000D02*
X192940000Y-81090000D01*
X195600000Y-82040000D02*
X201600000Y-82040000D01*
X201600000Y-82040000D02*
X201600000Y-82800000D01*
X201600000Y-82800000D02*
X195600000Y-82800000D01*
X195600000Y-82100000D02*
X201600000Y-82100000D01*
X195600000Y-82220000D02*
X201600000Y-82220000D01*
X195600000Y-82340000D02*
X201600000Y-82340000D01*
X195600000Y-82460000D02*
X201600000Y-82460000D01*
X195600000Y-82580000D02*
X201600000Y-82580000D01*
X195600000Y-82700000D02*
X201600000Y-82700000D01*
X192610000Y-82040000D02*
X192940000Y-82040000D01*
X192610000Y-82800000D02*
X192940000Y-82800000D01*
X192940000Y-83690000D02*
X195600000Y-83690000D01*
X195600000Y-84580000D02*
X201600000Y-84580000D01*
X201600000Y-84580000D02*
X201600000Y-85340000D01*
X201600000Y-85340000D02*
X195600000Y-85340000D01*
X192542929Y-84580000D02*
X192940000Y-84580000D01*
X192542929Y-85340000D02*
X192940000Y-85340000D01*
X192940000Y-86230000D02*
X195600000Y-86230000D01*
X195600000Y-87120000D02*
X201600000Y-87120000D01*
X201600000Y-87120000D02*
X201600000Y-87880000D01*
X201600000Y-87880000D02*
X195600000Y-87880000D01*
X192542929Y-87120000D02*
X192940000Y-87120000D01*
X192542929Y-87880000D02*
X192940000Y-87880000D01*
X192940000Y-88770000D02*
X195600000Y-88770000D01*
X195600000Y-89660000D02*
X201600000Y-89660000D01*
X201600000Y-89660000D02*
X201600000Y-90420000D01*
X201600000Y-90420000D02*
X195600000Y-90420000D01*
X192542929Y-89660000D02*
X192940000Y-89660000D01*
X192542929Y-90420000D02*
X192940000Y-90420000D01*
X190230000Y-82420000D02*
X190230000Y-81150000D01*
X190230000Y-81150000D02*
X191500000Y-81150000D01*
D14*
X170622381Y-94732857D02*
X170146190Y-95066191D01*
X170622381Y-95304286D02*
X169622381Y-95304286D01*
X169622381Y-94923333D01*
X169670000Y-94828095D01*
X169717619Y-94780476D01*
X169812857Y-94732857D01*
X169955714Y-94732857D01*
X170050952Y-94780476D01*
X170098571Y-94828095D01*
X170146190Y-94923333D01*
X170146190Y-95304286D01*
X169622381Y-94399524D02*
X169622381Y-93780476D01*
X170003333Y-94113810D01*
X170003333Y-93970952D01*
X170050952Y-93875714D01*
X170098571Y-93828095D01*
X170193810Y-93780476D01*
X170431905Y-93780476D01*
X170527143Y-93828095D01*
X170574762Y-93875714D01*
X170622381Y-93970952D01*
X170622381Y-94256667D01*
X170574762Y-94351905D01*
X170527143Y-94399524D01*
X170050952Y-93209048D02*
X170003333Y-93304286D01*
X169955714Y-93351905D01*
X169860476Y-93399524D01*
X169812857Y-93399524D01*
X169717619Y-93351905D01*
X169670000Y-93304286D01*
X169622381Y-93209048D01*
X169622381Y-93018571D01*
X169670000Y-92923333D01*
X169717619Y-92875714D01*
X169812857Y-92828095D01*
X169860476Y-92828095D01*
X169955714Y-92875714D01*
X170003333Y-92923333D01*
X170050952Y-93018571D01*
X170050952Y-93209048D01*
X170098571Y-93304286D01*
X170146190Y-93351905D01*
X170241429Y-93399524D01*
X170431905Y-93399524D01*
X170527143Y-93351905D01*
X170574762Y-93304286D01*
X170622381Y-93209048D01*
X170622381Y-93018571D01*
X170574762Y-92923333D01*
X170527143Y-92875714D01*
X170431905Y-92828095D01*
X170241429Y-92828095D01*
X170146190Y-92875714D01*
X170098571Y-92923333D01*
X170050952Y-93018571D01*
X168691905Y-129262381D02*
X168691905Y-128262381D01*
X169072858Y-128262381D01*
X169168096Y-128310000D01*
X169215715Y-128357619D01*
X169263334Y-128452857D01*
X169263334Y-128595714D01*
X169215715Y-128690952D01*
X169168096Y-128738571D01*
X169072858Y-128786190D01*
X168691905Y-128786190D01*
X169596667Y-128262381D02*
X170215715Y-128262381D01*
X169882381Y-128643333D01*
X170025239Y-128643333D01*
X170120477Y-128690952D01*
X170168096Y-128738571D01*
X170215715Y-128833810D01*
X170215715Y-129071905D01*
X170168096Y-129167143D01*
X170120477Y-129214762D01*
X170025239Y-129262381D01*
X169739524Y-129262381D01*
X169644286Y-129214762D01*
X169596667Y-129167143D01*
X172133334Y-109647143D02*
X172085715Y-109694762D01*
X171942858Y-109742381D01*
X171847620Y-109742381D01*
X171704762Y-109694762D01*
X171609524Y-109599524D01*
X171561905Y-109504286D01*
X171514286Y-109313810D01*
X171514286Y-109170952D01*
X171561905Y-108980476D01*
X171609524Y-108885238D01*
X171704762Y-108790000D01*
X171847620Y-108742381D01*
X171942858Y-108742381D01*
X172085715Y-108790000D01*
X172133334Y-108837619D01*
X172466667Y-108742381D02*
X173085715Y-108742381D01*
X172752381Y-109123333D01*
X172895239Y-109123333D01*
X172990477Y-109170952D01*
X173038096Y-109218571D01*
X173085715Y-109313810D01*
X173085715Y-109551905D01*
X173038096Y-109647143D01*
X172990477Y-109694762D01*
X172895239Y-109742381D01*
X172609524Y-109742381D01*
X172514286Y-109694762D01*
X172466667Y-109647143D01*
X131659334Y-77536381D02*
X131326000Y-77060190D01*
X131087905Y-77536381D02*
X131087905Y-76536381D01*
X131468858Y-76536381D01*
X131564096Y-76584000D01*
X131611715Y-76631619D01*
X131659334Y-76726857D01*
X131659334Y-76869714D01*
X131611715Y-76964952D01*
X131564096Y-77012571D01*
X131468858Y-77060190D01*
X131087905Y-77060190D01*
X132611715Y-77536381D02*
X132040286Y-77536381D01*
X132326000Y-77536381D02*
X132326000Y-76536381D01*
X132230762Y-76679238D01*
X132135524Y-76774476D01*
X132040286Y-76822095D01*
X131659334Y-80076381D02*
X131326000Y-79600190D01*
X131087905Y-80076381D02*
X131087905Y-79076381D01*
X131468858Y-79076381D01*
X131564096Y-79124000D01*
X131611715Y-79171619D01*
X131659334Y-79266857D01*
X131659334Y-79409714D01*
X131611715Y-79504952D01*
X131564096Y-79552571D01*
X131468858Y-79600190D01*
X131087905Y-79600190D01*
X132040286Y-79171619D02*
X132087905Y-79124000D01*
X132183143Y-79076381D01*
X132421239Y-79076381D01*
X132516477Y-79124000D01*
X132564096Y-79171619D01*
X132611715Y-79266857D01*
X132611715Y-79362095D01*
X132564096Y-79504952D01*
X131992667Y-80076381D01*
X132611715Y-80076381D01*
X182182381Y-126208095D02*
X181182381Y-126208095D01*
X181182381Y-125827142D01*
X181230000Y-125731904D01*
X181277619Y-125684285D01*
X181372857Y-125636666D01*
X181515714Y-125636666D01*
X181610952Y-125684285D01*
X181658571Y-125731904D01*
X181706190Y-125827142D01*
X181706190Y-126208095D01*
X181182381Y-124779523D02*
X181182381Y-124970000D01*
X181230000Y-125065238D01*
X181277619Y-125112857D01*
X181420476Y-125208095D01*
X181610952Y-125255714D01*
X181991905Y-125255714D01*
X182087143Y-125208095D01*
X182134762Y-125160476D01*
X182182381Y-125065238D01*
X182182381Y-124874761D01*
X182134762Y-124779523D01*
X182087143Y-124731904D01*
X181991905Y-124684285D01*
X181753810Y-124684285D01*
X181658571Y-124731904D01*
X181610952Y-124779523D01*
X181563333Y-124874761D01*
X181563333Y-125065238D01*
X181610952Y-125160476D01*
X181658571Y-125208095D01*
X181753810Y-125255714D01*
X150564905Y-119354524D02*
X151212524Y-119354524D01*
X151288714Y-119316429D01*
X151326810Y-119278333D01*
X151364905Y-119202143D01*
X151364905Y-119049762D01*
X151326810Y-118973571D01*
X151288714Y-118935476D01*
X151212524Y-118897381D01*
X150564905Y-118897381D01*
X151364905Y-118097381D02*
X151364905Y-118554524D01*
X151364905Y-118325953D02*
X150564905Y-118325953D01*
X150679190Y-118402143D01*
X150755381Y-118478334D01*
X150793476Y-118554524D01*
X116744762Y-72906619D02*
X116649524Y-72859000D01*
X116554286Y-72763762D01*
X116411429Y-72620905D01*
X116316190Y-72573286D01*
X116220952Y-72573286D01*
X116268571Y-72811381D02*
X116173333Y-72763762D01*
X116078095Y-72668524D01*
X116030476Y-72478048D01*
X116030476Y-72144714D01*
X116078095Y-71954238D01*
X116173333Y-71859000D01*
X116268571Y-71811381D01*
X116459048Y-71811381D01*
X116554286Y-71859000D01*
X116649524Y-71954238D01*
X116697143Y-72144714D01*
X116697143Y-72478048D01*
X116649524Y-72668524D01*
X116554286Y-72763762D01*
X116459048Y-72811381D01*
X116268571Y-72811381D01*
X117649524Y-72811381D02*
X117078095Y-72811381D01*
X117363809Y-72811381D02*
X117363809Y-71811381D01*
X117268571Y-71954238D01*
X117173333Y-72049476D01*
X117078095Y-72097095D01*
X124745762Y-83066619D02*
X124650524Y-83019000D01*
X124555286Y-82923762D01*
X124412429Y-82780905D01*
X124317190Y-82733286D01*
X124221952Y-82733286D01*
X124269571Y-82971381D02*
X124174333Y-82923762D01*
X124079095Y-82828524D01*
X124031476Y-82638048D01*
X124031476Y-82304714D01*
X124079095Y-82114238D01*
X124174333Y-82019000D01*
X124269571Y-81971381D01*
X124460048Y-81971381D01*
X124555286Y-82019000D01*
X124650524Y-82114238D01*
X124698143Y-82304714D01*
X124698143Y-82638048D01*
X124650524Y-82828524D01*
X124555286Y-82923762D01*
X124460048Y-82971381D01*
X124269571Y-82971381D01*
X125079095Y-82066619D02*
X125126714Y-82019000D01*
X125221952Y-81971381D01*
X125460048Y-81971381D01*
X125555286Y-82019000D01*
X125602905Y-82066619D01*
X125650524Y-82161857D01*
X125650524Y-82257095D01*
X125602905Y-82399952D01*
X125031476Y-82971381D01*
X125650524Y-82971381D01*
X116744762Y-93226619D02*
X116649524Y-93179000D01*
X116554286Y-93083762D01*
X116411429Y-92940905D01*
X116316190Y-92893286D01*
X116220952Y-92893286D01*
X116268571Y-93131381D02*
X116173333Y-93083762D01*
X116078095Y-92988524D01*
X116030476Y-92798048D01*
X116030476Y-92464714D01*
X116078095Y-92274238D01*
X116173333Y-92179000D01*
X116268571Y-92131381D01*
X116459048Y-92131381D01*
X116554286Y-92179000D01*
X116649524Y-92274238D01*
X116697143Y-92464714D01*
X116697143Y-92798048D01*
X116649524Y-92988524D01*
X116554286Y-93083762D01*
X116459048Y-93131381D01*
X116268571Y-93131381D01*
X117030476Y-92131381D02*
X117649524Y-92131381D01*
X117316190Y-92512333D01*
X117459048Y-92512333D01*
X117554286Y-92559952D01*
X117601905Y-92607571D01*
X117649524Y-92702810D01*
X117649524Y-92940905D01*
X117601905Y-93036143D01*
X117554286Y-93083762D01*
X117459048Y-93131381D01*
X117173333Y-93131381D01*
X117078095Y-93083762D01*
X117030476Y-93036143D01*
X124745762Y-103386619D02*
X124650524Y-103339000D01*
X124555286Y-103243762D01*
X124412429Y-103100905D01*
X124317190Y-103053286D01*
X124221952Y-103053286D01*
X124269571Y-103291381D02*
X124174333Y-103243762D01*
X124079095Y-103148524D01*
X124031476Y-102958048D01*
X124031476Y-102624714D01*
X124079095Y-102434238D01*
X124174333Y-102339000D01*
X124269571Y-102291381D01*
X124460048Y-102291381D01*
X124555286Y-102339000D01*
X124650524Y-102434238D01*
X124698143Y-102624714D01*
X124698143Y-102958048D01*
X124650524Y-103148524D01*
X124555286Y-103243762D01*
X124460048Y-103291381D01*
X124269571Y-103291381D01*
X125555286Y-102624714D02*
X125555286Y-103291381D01*
X125317190Y-102243762D02*
X125079095Y-102958048D01*
X125698143Y-102958048D01*
X116744762Y-113546619D02*
X116649524Y-113499000D01*
X116554286Y-113403762D01*
X116411429Y-113260905D01*
X116316190Y-113213286D01*
X116220952Y-113213286D01*
X116268571Y-113451381D02*
X116173333Y-113403762D01*
X116078095Y-113308524D01*
X116030476Y-113118048D01*
X116030476Y-112784714D01*
X116078095Y-112594238D01*
X116173333Y-112499000D01*
X116268571Y-112451381D01*
X116459048Y-112451381D01*
X116554286Y-112499000D01*
X116649524Y-112594238D01*
X116697143Y-112784714D01*
X116697143Y-113118048D01*
X116649524Y-113308524D01*
X116554286Y-113403762D01*
X116459048Y-113451381D01*
X116268571Y-113451381D01*
X117601905Y-112451381D02*
X117125714Y-112451381D01*
X117078095Y-112927571D01*
X117125714Y-112879952D01*
X117220952Y-112832333D01*
X117459048Y-112832333D01*
X117554286Y-112879952D01*
X117601905Y-112927571D01*
X117649524Y-113022810D01*
X117649524Y-113260905D01*
X117601905Y-113356143D01*
X117554286Y-113403762D01*
X117459048Y-113451381D01*
X117220952Y-113451381D01*
X117125714Y-113403762D01*
X117078095Y-113356143D01*
X124745762Y-123706619D02*
X124650524Y-123659000D01*
X124555286Y-123563762D01*
X124412429Y-123420905D01*
X124317190Y-123373286D01*
X124221952Y-123373286D01*
X124269571Y-123611381D02*
X124174333Y-123563762D01*
X124079095Y-123468524D01*
X124031476Y-123278048D01*
X124031476Y-122944714D01*
X124079095Y-122754238D01*
X124174333Y-122659000D01*
X124269571Y-122611381D01*
X124460048Y-122611381D01*
X124555286Y-122659000D01*
X124650524Y-122754238D01*
X124698143Y-122944714D01*
X124698143Y-123278048D01*
X124650524Y-123468524D01*
X124555286Y-123563762D01*
X124460048Y-123611381D01*
X124269571Y-123611381D01*
X125555286Y-122611381D02*
X125364809Y-122611381D01*
X125269571Y-122659000D01*
X125221952Y-122706619D01*
X125126714Y-122849476D01*
X125079095Y-123039952D01*
X125079095Y-123420905D01*
X125126714Y-123516143D01*
X125174333Y-123563762D01*
X125269571Y-123611381D01*
X125460048Y-123611381D01*
X125555286Y-123563762D01*
X125602905Y-123516143D01*
X125650524Y-123420905D01*
X125650524Y-123182810D01*
X125602905Y-123087571D01*
X125555286Y-123039952D01*
X125460048Y-122992333D01*
X125269571Y-122992333D01*
X125174333Y-123039952D01*
X125126714Y-123087571D01*
X125079095Y-123182810D01*
X116744762Y-133866619D02*
X116649524Y-133819000D01*
X116554286Y-133723762D01*
X116411429Y-133580905D01*
X116316190Y-133533286D01*
X116220952Y-133533286D01*
X116268571Y-133771381D02*
X116173333Y-133723762D01*
X116078095Y-133628524D01*
X116030476Y-133438048D01*
X116030476Y-133104714D01*
X116078095Y-132914238D01*
X116173333Y-132819000D01*
X116268571Y-132771381D01*
X116459048Y-132771381D01*
X116554286Y-132819000D01*
X116649524Y-132914238D01*
X116697143Y-133104714D01*
X116697143Y-133438048D01*
X116649524Y-133628524D01*
X116554286Y-133723762D01*
X116459048Y-133771381D01*
X116268571Y-133771381D01*
X117030476Y-132771381D02*
X117697143Y-132771381D01*
X117268571Y-133771381D01*
X124745762Y-144026619D02*
X124650524Y-143979000D01*
X124555286Y-143883762D01*
X124412429Y-143740905D01*
X124317190Y-143693286D01*
X124221952Y-143693286D01*
X124269571Y-143931381D02*
X124174333Y-143883762D01*
X124079095Y-143788524D01*
X124031476Y-143598048D01*
X124031476Y-143264714D01*
X124079095Y-143074238D01*
X124174333Y-142979000D01*
X124269571Y-142931381D01*
X124460048Y-142931381D01*
X124555286Y-142979000D01*
X124650524Y-143074238D01*
X124698143Y-143264714D01*
X124698143Y-143598048D01*
X124650524Y-143788524D01*
X124555286Y-143883762D01*
X124460048Y-143931381D01*
X124269571Y-143931381D01*
X125269571Y-143359952D02*
X125174333Y-143312333D01*
X125126714Y-143264714D01*
X125079095Y-143169476D01*
X125079095Y-143121857D01*
X125126714Y-143026619D01*
X125174333Y-142979000D01*
X125269571Y-142931381D01*
X125460048Y-142931381D01*
X125555286Y-142979000D01*
X125602905Y-143026619D01*
X125650524Y-143121857D01*
X125650524Y-143169476D01*
X125602905Y-143264714D01*
X125555286Y-143312333D01*
X125460048Y-143359952D01*
X125269571Y-143359952D01*
X125174333Y-143407571D01*
X125126714Y-143455190D01*
X125079095Y-143550429D01*
X125079095Y-143740905D01*
X125126714Y-143836143D01*
X125174333Y-143883762D01*
X125269571Y-143931381D01*
X125460048Y-143931381D01*
X125555286Y-143883762D01*
X125602905Y-143836143D01*
X125650524Y-143740905D01*
X125650524Y-143550429D01*
X125602905Y-143455190D01*
X125555286Y-143407571D01*
X125460048Y-143359952D01*
X131659334Y-82616381D02*
X131326000Y-82140190D01*
X131087905Y-82616381D02*
X131087905Y-81616381D01*
X131468858Y-81616381D01*
X131564096Y-81664000D01*
X131611715Y-81711619D01*
X131659334Y-81806857D01*
X131659334Y-81949714D01*
X131611715Y-82044952D01*
X131564096Y-82092571D01*
X131468858Y-82140190D01*
X131087905Y-82140190D01*
X131992667Y-81616381D02*
X132611715Y-81616381D01*
X132278381Y-81997333D01*
X132421239Y-81997333D01*
X132516477Y-82044952D01*
X132564096Y-82092571D01*
X132611715Y-82187810D01*
X132611715Y-82425905D01*
X132564096Y-82521143D01*
X132516477Y-82568762D01*
X132421239Y-82616381D01*
X132135524Y-82616381D01*
X132040286Y-82568762D01*
X131992667Y-82521143D01*
X131659334Y-85156381D02*
X131326000Y-84680190D01*
X131087905Y-85156381D02*
X131087905Y-84156381D01*
X131468858Y-84156381D01*
X131564096Y-84204000D01*
X131611715Y-84251619D01*
X131659334Y-84346857D01*
X131659334Y-84489714D01*
X131611715Y-84584952D01*
X131564096Y-84632571D01*
X131468858Y-84680190D01*
X131087905Y-84680190D01*
X132516477Y-84489714D02*
X132516477Y-85156381D01*
X132278381Y-84108762D02*
X132040286Y-84823048D01*
X132659334Y-84823048D01*
X131659334Y-87696381D02*
X131326000Y-87220190D01*
X131087905Y-87696381D02*
X131087905Y-86696381D01*
X131468858Y-86696381D01*
X131564096Y-86744000D01*
X131611715Y-86791619D01*
X131659334Y-86886857D01*
X131659334Y-87029714D01*
X131611715Y-87124952D01*
X131564096Y-87172571D01*
X131468858Y-87220190D01*
X131087905Y-87220190D01*
X132564096Y-86696381D02*
X132087905Y-86696381D01*
X132040286Y-87172571D01*
X132087905Y-87124952D01*
X132183143Y-87077333D01*
X132421239Y-87077333D01*
X132516477Y-87124952D01*
X132564096Y-87172571D01*
X132611715Y-87267810D01*
X132611715Y-87505905D01*
X132564096Y-87601143D01*
X132516477Y-87648762D01*
X132421239Y-87696381D01*
X132183143Y-87696381D01*
X132087905Y-87648762D01*
X132040286Y-87601143D01*
X131659334Y-90236381D02*
X131326000Y-89760190D01*
X131087905Y-90236381D02*
X131087905Y-89236381D01*
X131468858Y-89236381D01*
X131564096Y-89284000D01*
X131611715Y-89331619D01*
X131659334Y-89426857D01*
X131659334Y-89569714D01*
X131611715Y-89664952D01*
X131564096Y-89712571D01*
X131468858Y-89760190D01*
X131087905Y-89760190D01*
X132516477Y-89236381D02*
X132326000Y-89236381D01*
X132230762Y-89284000D01*
X132183143Y-89331619D01*
X132087905Y-89474476D01*
X132040286Y-89664952D01*
X132040286Y-90045905D01*
X132087905Y-90141143D01*
X132135524Y-90188762D01*
X132230762Y-90236381D01*
X132421239Y-90236381D01*
X132516477Y-90188762D01*
X132564096Y-90141143D01*
X132611715Y-90045905D01*
X132611715Y-89807810D01*
X132564096Y-89712571D01*
X132516477Y-89664952D01*
X132421239Y-89617333D01*
X132230762Y-89617333D01*
X132135524Y-89664952D01*
X132087905Y-89712571D01*
X132040286Y-89807810D01*
X131659334Y-92776381D02*
X131326000Y-92300190D01*
X131087905Y-92776381D02*
X131087905Y-91776381D01*
X131468858Y-91776381D01*
X131564096Y-91824000D01*
X131611715Y-91871619D01*
X131659334Y-91966857D01*
X131659334Y-92109714D01*
X131611715Y-92204952D01*
X131564096Y-92252571D01*
X131468858Y-92300190D01*
X131087905Y-92300190D01*
X131992667Y-91776381D02*
X132659334Y-91776381D01*
X132230762Y-92776381D01*
X131659334Y-95316381D02*
X131326000Y-94840190D01*
X131087905Y-95316381D02*
X131087905Y-94316381D01*
X131468858Y-94316381D01*
X131564096Y-94364000D01*
X131611715Y-94411619D01*
X131659334Y-94506857D01*
X131659334Y-94649714D01*
X131611715Y-94744952D01*
X131564096Y-94792571D01*
X131468858Y-94840190D01*
X131087905Y-94840190D01*
X132230762Y-94744952D02*
X132135524Y-94697333D01*
X132087905Y-94649714D01*
X132040286Y-94554476D01*
X132040286Y-94506857D01*
X132087905Y-94411619D01*
X132135524Y-94364000D01*
X132230762Y-94316381D01*
X132421239Y-94316381D01*
X132516477Y-94364000D01*
X132564096Y-94411619D01*
X132611715Y-94506857D01*
X132611715Y-94554476D01*
X132564096Y-94649714D01*
X132516477Y-94697333D01*
X132421239Y-94744952D01*
X132230762Y-94744952D01*
X132135524Y-94792571D01*
X132087905Y-94840190D01*
X132040286Y-94935429D01*
X132040286Y-95125905D01*
X132087905Y-95221143D01*
X132135524Y-95268762D01*
X132230762Y-95316381D01*
X132421239Y-95316381D01*
X132516477Y-95268762D01*
X132564096Y-95221143D01*
X132611715Y-95125905D01*
X132611715Y-94935429D01*
X132564096Y-94840190D01*
X132516477Y-94792571D01*
X132421239Y-94744952D01*
X131659334Y-97856381D02*
X131326000Y-97380190D01*
X131087905Y-97856381D02*
X131087905Y-96856381D01*
X131468858Y-96856381D01*
X131564096Y-96904000D01*
X131611715Y-96951619D01*
X131659334Y-97046857D01*
X131659334Y-97189714D01*
X131611715Y-97284952D01*
X131564096Y-97332571D01*
X131468858Y-97380190D01*
X131087905Y-97380190D01*
X132135524Y-97856381D02*
X132326000Y-97856381D01*
X132421239Y-97808762D01*
X132468858Y-97761143D01*
X132564096Y-97618286D01*
X132611715Y-97427810D01*
X132611715Y-97046857D01*
X132564096Y-96951619D01*
X132516477Y-96904000D01*
X132421239Y-96856381D01*
X132230762Y-96856381D01*
X132135524Y-96904000D01*
X132087905Y-96951619D01*
X132040286Y-97046857D01*
X132040286Y-97284952D01*
X132087905Y-97380190D01*
X132135524Y-97427810D01*
X132230762Y-97475429D01*
X132421239Y-97475429D01*
X132516477Y-97427810D01*
X132564096Y-97380190D01*
X132611715Y-97284952D01*
X131183143Y-100396381D02*
X130849809Y-99920190D01*
X130611714Y-100396381D02*
X130611714Y-99396381D01*
X130992667Y-99396381D01*
X131087905Y-99444000D01*
X131135524Y-99491619D01*
X131183143Y-99586857D01*
X131183143Y-99729714D01*
X131135524Y-99824952D01*
X131087905Y-99872571D01*
X130992667Y-99920190D01*
X130611714Y-99920190D01*
X132135524Y-100396381D02*
X131564095Y-100396381D01*
X131849809Y-100396381D02*
X131849809Y-99396381D01*
X131754571Y-99539238D01*
X131659333Y-99634476D01*
X131564095Y-99682095D01*
X132754571Y-99396381D02*
X132849810Y-99396381D01*
X132945048Y-99444000D01*
X132992667Y-99491619D01*
X133040286Y-99586857D01*
X133087905Y-99777333D01*
X133087905Y-100015429D01*
X133040286Y-100205905D01*
X132992667Y-100301143D01*
X132945048Y-100348762D01*
X132849810Y-100396381D01*
X132754571Y-100396381D01*
X132659333Y-100348762D01*
X132611714Y-100301143D01*
X132564095Y-100205905D01*
X132516476Y-100015429D01*
X132516476Y-99777333D01*
X132564095Y-99586857D01*
X132611714Y-99491619D01*
X132659333Y-99444000D01*
X132754571Y-99396381D01*
X131183143Y-102936381D02*
X130849809Y-102460190D01*
X130611714Y-102936381D02*
X130611714Y-101936381D01*
X130992667Y-101936381D01*
X131087905Y-101984000D01*
X131135524Y-102031619D01*
X131183143Y-102126857D01*
X131183143Y-102269714D01*
X131135524Y-102364952D01*
X131087905Y-102412571D01*
X130992667Y-102460190D01*
X130611714Y-102460190D01*
X132135524Y-102936381D02*
X131564095Y-102936381D01*
X131849809Y-102936381D02*
X131849809Y-101936381D01*
X131754571Y-102079238D01*
X131659333Y-102174476D01*
X131564095Y-102222095D01*
X133087905Y-102936381D02*
X132516476Y-102936381D01*
X132802190Y-102936381D02*
X132802190Y-101936381D01*
X132706952Y-102079238D01*
X132611714Y-102174476D01*
X132516476Y-102222095D01*
X131183143Y-105476381D02*
X130849809Y-105000190D01*
X130611714Y-105476381D02*
X130611714Y-104476381D01*
X130992667Y-104476381D01*
X131087905Y-104524000D01*
X131135524Y-104571619D01*
X131183143Y-104666857D01*
X131183143Y-104809714D01*
X131135524Y-104904952D01*
X131087905Y-104952571D01*
X130992667Y-105000190D01*
X130611714Y-105000190D01*
X132135524Y-105476381D02*
X131564095Y-105476381D01*
X131849809Y-105476381D02*
X131849809Y-104476381D01*
X131754571Y-104619238D01*
X131659333Y-104714476D01*
X131564095Y-104762095D01*
X132516476Y-104571619D02*
X132564095Y-104524000D01*
X132659333Y-104476381D01*
X132897429Y-104476381D01*
X132992667Y-104524000D01*
X133040286Y-104571619D01*
X133087905Y-104666857D01*
X133087905Y-104762095D01*
X133040286Y-104904952D01*
X132468857Y-105476381D01*
X133087905Y-105476381D01*
X131183143Y-108016381D02*
X130849809Y-107540190D01*
X130611714Y-108016381D02*
X130611714Y-107016381D01*
X130992667Y-107016381D01*
X131087905Y-107064000D01*
X131135524Y-107111619D01*
X131183143Y-107206857D01*
X131183143Y-107349714D01*
X131135524Y-107444952D01*
X131087905Y-107492571D01*
X130992667Y-107540190D01*
X130611714Y-107540190D01*
X132135524Y-108016381D02*
X131564095Y-108016381D01*
X131849809Y-108016381D02*
X131849809Y-107016381D01*
X131754571Y-107159238D01*
X131659333Y-107254476D01*
X131564095Y-107302095D01*
X132468857Y-107016381D02*
X133087905Y-107016381D01*
X132754571Y-107397333D01*
X132897429Y-107397333D01*
X132992667Y-107444952D01*
X133040286Y-107492571D01*
X133087905Y-107587810D01*
X133087905Y-107825905D01*
X133040286Y-107921143D01*
X132992667Y-107968762D01*
X132897429Y-108016381D01*
X132611714Y-108016381D01*
X132516476Y-107968762D01*
X132468857Y-107921143D01*
X131183143Y-110556381D02*
X130849809Y-110080190D01*
X130611714Y-110556381D02*
X130611714Y-109556381D01*
X130992667Y-109556381D01*
X131087905Y-109604000D01*
X131135524Y-109651619D01*
X131183143Y-109746857D01*
X131183143Y-109889714D01*
X131135524Y-109984952D01*
X131087905Y-110032571D01*
X130992667Y-110080190D01*
X130611714Y-110080190D01*
X132135524Y-110556381D02*
X131564095Y-110556381D01*
X131849809Y-110556381D02*
X131849809Y-109556381D01*
X131754571Y-109699238D01*
X131659333Y-109794476D01*
X131564095Y-109842095D01*
X132992667Y-109889714D02*
X132992667Y-110556381D01*
X132754571Y-109508762D02*
X132516476Y-110223048D01*
X133135524Y-110223048D01*
X131183143Y-113096381D02*
X130849809Y-112620190D01*
X130611714Y-113096381D02*
X130611714Y-112096381D01*
X130992667Y-112096381D01*
X131087905Y-112144000D01*
X131135524Y-112191619D01*
X131183143Y-112286857D01*
X131183143Y-112429714D01*
X131135524Y-112524952D01*
X131087905Y-112572571D01*
X130992667Y-112620190D01*
X130611714Y-112620190D01*
X132135524Y-113096381D02*
X131564095Y-113096381D01*
X131849809Y-113096381D02*
X131849809Y-112096381D01*
X131754571Y-112239238D01*
X131659333Y-112334476D01*
X131564095Y-112382095D01*
X133040286Y-112096381D02*
X132564095Y-112096381D01*
X132516476Y-112572571D01*
X132564095Y-112524952D01*
X132659333Y-112477333D01*
X132897429Y-112477333D01*
X132992667Y-112524952D01*
X133040286Y-112572571D01*
X133087905Y-112667810D01*
X133087905Y-112905905D01*
X133040286Y-113001143D01*
X132992667Y-113048762D01*
X132897429Y-113096381D01*
X132659333Y-113096381D01*
X132564095Y-113048762D01*
X132516476Y-113001143D01*
X131183143Y-115636381D02*
X130849809Y-115160190D01*
X130611714Y-115636381D02*
X130611714Y-114636381D01*
X130992667Y-114636381D01*
X131087905Y-114684000D01*
X131135524Y-114731619D01*
X131183143Y-114826857D01*
X131183143Y-114969714D01*
X131135524Y-115064952D01*
X131087905Y-115112571D01*
X130992667Y-115160190D01*
X130611714Y-115160190D01*
X132135524Y-115636381D02*
X131564095Y-115636381D01*
X131849809Y-115636381D02*
X131849809Y-114636381D01*
X131754571Y-114779238D01*
X131659333Y-114874476D01*
X131564095Y-114922095D01*
X132992667Y-114636381D02*
X132802190Y-114636381D01*
X132706952Y-114684000D01*
X132659333Y-114731619D01*
X132564095Y-114874476D01*
X132516476Y-115064952D01*
X132516476Y-115445905D01*
X132564095Y-115541143D01*
X132611714Y-115588762D01*
X132706952Y-115636381D01*
X132897429Y-115636381D01*
X132992667Y-115588762D01*
X133040286Y-115541143D01*
X133087905Y-115445905D01*
X133087905Y-115207810D01*
X133040286Y-115112571D01*
X132992667Y-115064952D01*
X132897429Y-115017333D01*
X132706952Y-115017333D01*
X132611714Y-115064952D01*
X132564095Y-115112571D01*
X132516476Y-115207810D01*
X131183143Y-118176381D02*
X130849809Y-117700190D01*
X130611714Y-118176381D02*
X130611714Y-117176381D01*
X130992667Y-117176381D01*
X131087905Y-117224000D01*
X131135524Y-117271619D01*
X131183143Y-117366857D01*
X131183143Y-117509714D01*
X131135524Y-117604952D01*
X131087905Y-117652571D01*
X130992667Y-117700190D01*
X130611714Y-117700190D01*
X132135524Y-118176381D02*
X131564095Y-118176381D01*
X131849809Y-118176381D02*
X131849809Y-117176381D01*
X131754571Y-117319238D01*
X131659333Y-117414476D01*
X131564095Y-117462095D01*
X132468857Y-117176381D02*
X133135524Y-117176381D01*
X132706952Y-118176381D01*
X131183143Y-120716381D02*
X130849809Y-120240190D01*
X130611714Y-120716381D02*
X130611714Y-119716381D01*
X130992667Y-119716381D01*
X131087905Y-119764000D01*
X131135524Y-119811619D01*
X131183143Y-119906857D01*
X131183143Y-120049714D01*
X131135524Y-120144952D01*
X131087905Y-120192571D01*
X130992667Y-120240190D01*
X130611714Y-120240190D01*
X132135524Y-120716381D02*
X131564095Y-120716381D01*
X131849809Y-120716381D02*
X131849809Y-119716381D01*
X131754571Y-119859238D01*
X131659333Y-119954476D01*
X131564095Y-120002095D01*
X132706952Y-120144952D02*
X132611714Y-120097333D01*
X132564095Y-120049714D01*
X132516476Y-119954476D01*
X132516476Y-119906857D01*
X132564095Y-119811619D01*
X132611714Y-119764000D01*
X132706952Y-119716381D01*
X132897429Y-119716381D01*
X132992667Y-119764000D01*
X133040286Y-119811619D01*
X133087905Y-119906857D01*
X133087905Y-119954476D01*
X133040286Y-120049714D01*
X132992667Y-120097333D01*
X132897429Y-120144952D01*
X132706952Y-120144952D01*
X132611714Y-120192571D01*
X132564095Y-120240190D01*
X132516476Y-120335429D01*
X132516476Y-120525905D01*
X132564095Y-120621143D01*
X132611714Y-120668762D01*
X132706952Y-120716381D01*
X132897429Y-120716381D01*
X132992667Y-120668762D01*
X133040286Y-120621143D01*
X133087905Y-120525905D01*
X133087905Y-120335429D01*
X133040286Y-120240190D01*
X132992667Y-120192571D01*
X132897429Y-120144952D01*
X131183143Y-123256381D02*
X130849809Y-122780190D01*
X130611714Y-123256381D02*
X130611714Y-122256381D01*
X130992667Y-122256381D01*
X131087905Y-122304000D01*
X131135524Y-122351619D01*
X131183143Y-122446857D01*
X131183143Y-122589714D01*
X131135524Y-122684952D01*
X131087905Y-122732571D01*
X130992667Y-122780190D01*
X130611714Y-122780190D01*
X132135524Y-123256381D02*
X131564095Y-123256381D01*
X131849809Y-123256381D02*
X131849809Y-122256381D01*
X131754571Y-122399238D01*
X131659333Y-122494476D01*
X131564095Y-122542095D01*
X132611714Y-123256381D02*
X132802190Y-123256381D01*
X132897429Y-123208762D01*
X132945048Y-123161143D01*
X133040286Y-123018286D01*
X133087905Y-122827810D01*
X133087905Y-122446857D01*
X133040286Y-122351619D01*
X132992667Y-122304000D01*
X132897429Y-122256381D01*
X132706952Y-122256381D01*
X132611714Y-122304000D01*
X132564095Y-122351619D01*
X132516476Y-122446857D01*
X132516476Y-122684952D01*
X132564095Y-122780190D01*
X132611714Y-122827810D01*
X132706952Y-122875429D01*
X132897429Y-122875429D01*
X132992667Y-122827810D01*
X133040286Y-122780190D01*
X133087905Y-122684952D01*
X131183143Y-125796381D02*
X130849809Y-125320190D01*
X130611714Y-125796381D02*
X130611714Y-124796381D01*
X130992667Y-124796381D01*
X131087905Y-124844000D01*
X131135524Y-124891619D01*
X131183143Y-124986857D01*
X131183143Y-125129714D01*
X131135524Y-125224952D01*
X131087905Y-125272571D01*
X130992667Y-125320190D01*
X130611714Y-125320190D01*
X131564095Y-124891619D02*
X131611714Y-124844000D01*
X131706952Y-124796381D01*
X131945048Y-124796381D01*
X132040286Y-124844000D01*
X132087905Y-124891619D01*
X132135524Y-124986857D01*
X132135524Y-125082095D01*
X132087905Y-125224952D01*
X131516476Y-125796381D01*
X132135524Y-125796381D01*
X132754571Y-124796381D02*
X132849810Y-124796381D01*
X132945048Y-124844000D01*
X132992667Y-124891619D01*
X133040286Y-124986857D01*
X133087905Y-125177333D01*
X133087905Y-125415429D01*
X133040286Y-125605905D01*
X132992667Y-125701143D01*
X132945048Y-125748762D01*
X132849810Y-125796381D01*
X132754571Y-125796381D01*
X132659333Y-125748762D01*
X132611714Y-125701143D01*
X132564095Y-125605905D01*
X132516476Y-125415429D01*
X132516476Y-125177333D01*
X132564095Y-124986857D01*
X132611714Y-124891619D01*
X132659333Y-124844000D01*
X132754571Y-124796381D01*
X131183143Y-128336381D02*
X130849809Y-127860190D01*
X130611714Y-128336381D02*
X130611714Y-127336381D01*
X130992667Y-127336381D01*
X131087905Y-127384000D01*
X131135524Y-127431619D01*
X131183143Y-127526857D01*
X131183143Y-127669714D01*
X131135524Y-127764952D01*
X131087905Y-127812571D01*
X130992667Y-127860190D01*
X130611714Y-127860190D01*
X131564095Y-127431619D02*
X131611714Y-127384000D01*
X131706952Y-127336381D01*
X131945048Y-127336381D01*
X132040286Y-127384000D01*
X132087905Y-127431619D01*
X132135524Y-127526857D01*
X132135524Y-127622095D01*
X132087905Y-127764952D01*
X131516476Y-128336381D01*
X132135524Y-128336381D01*
X133087905Y-128336381D02*
X132516476Y-128336381D01*
X132802190Y-128336381D02*
X132802190Y-127336381D01*
X132706952Y-127479238D01*
X132611714Y-127574476D01*
X132516476Y-127622095D01*
X131183143Y-130876381D02*
X130849809Y-130400190D01*
X130611714Y-130876381D02*
X130611714Y-129876381D01*
X130992667Y-129876381D01*
X131087905Y-129924000D01*
X131135524Y-129971619D01*
X131183143Y-130066857D01*
X131183143Y-130209714D01*
X131135524Y-130304952D01*
X131087905Y-130352571D01*
X130992667Y-130400190D01*
X130611714Y-130400190D01*
X131564095Y-129971619D02*
X131611714Y-129924000D01*
X131706952Y-129876381D01*
X131945048Y-129876381D01*
X132040286Y-129924000D01*
X132087905Y-129971619D01*
X132135524Y-130066857D01*
X132135524Y-130162095D01*
X132087905Y-130304952D01*
X131516476Y-130876381D01*
X132135524Y-130876381D01*
X132516476Y-129971619D02*
X132564095Y-129924000D01*
X132659333Y-129876381D01*
X132897429Y-129876381D01*
X132992667Y-129924000D01*
X133040286Y-129971619D01*
X133087905Y-130066857D01*
X133087905Y-130162095D01*
X133040286Y-130304952D01*
X132468857Y-130876381D01*
X133087905Y-130876381D01*
X131183143Y-133416381D02*
X130849809Y-132940190D01*
X130611714Y-133416381D02*
X130611714Y-132416381D01*
X130992667Y-132416381D01*
X131087905Y-132464000D01*
X131135524Y-132511619D01*
X131183143Y-132606857D01*
X131183143Y-132749714D01*
X131135524Y-132844952D01*
X131087905Y-132892571D01*
X130992667Y-132940190D01*
X130611714Y-132940190D01*
X131564095Y-132511619D02*
X131611714Y-132464000D01*
X131706952Y-132416381D01*
X131945048Y-132416381D01*
X132040286Y-132464000D01*
X132087905Y-132511619D01*
X132135524Y-132606857D01*
X132135524Y-132702095D01*
X132087905Y-132844952D01*
X131516476Y-133416381D01*
X132135524Y-133416381D01*
X132468857Y-132416381D02*
X133087905Y-132416381D01*
X132754571Y-132797333D01*
X132897429Y-132797333D01*
X132992667Y-132844952D01*
X133040286Y-132892571D01*
X133087905Y-132987810D01*
X133087905Y-133225905D01*
X133040286Y-133321143D01*
X132992667Y-133368762D01*
X132897429Y-133416381D01*
X132611714Y-133416381D01*
X132516476Y-133368762D01*
X132468857Y-133321143D01*
X131183143Y-135956381D02*
X130849809Y-135480190D01*
X130611714Y-135956381D02*
X130611714Y-134956381D01*
X130992667Y-134956381D01*
X131087905Y-135004000D01*
X131135524Y-135051619D01*
X131183143Y-135146857D01*
X131183143Y-135289714D01*
X131135524Y-135384952D01*
X131087905Y-135432571D01*
X130992667Y-135480190D01*
X130611714Y-135480190D01*
X131564095Y-135051619D02*
X131611714Y-135004000D01*
X131706952Y-134956381D01*
X131945048Y-134956381D01*
X132040286Y-135004000D01*
X132087905Y-135051619D01*
X132135524Y-135146857D01*
X132135524Y-135242095D01*
X132087905Y-135384952D01*
X131516476Y-135956381D01*
X132135524Y-135956381D01*
X132992667Y-135289714D02*
X132992667Y-135956381D01*
X132754571Y-134908762D02*
X132516476Y-135623048D01*
X133135524Y-135623048D01*
X131183143Y-138496381D02*
X130849809Y-138020190D01*
X130611714Y-138496381D02*
X130611714Y-137496381D01*
X130992667Y-137496381D01*
X131087905Y-137544000D01*
X131135524Y-137591619D01*
X131183143Y-137686857D01*
X131183143Y-137829714D01*
X131135524Y-137924952D01*
X131087905Y-137972571D01*
X130992667Y-138020190D01*
X130611714Y-138020190D01*
X131564095Y-137591619D02*
X131611714Y-137544000D01*
X131706952Y-137496381D01*
X131945048Y-137496381D01*
X132040286Y-137544000D01*
X132087905Y-137591619D01*
X132135524Y-137686857D01*
X132135524Y-137782095D01*
X132087905Y-137924952D01*
X131516476Y-138496381D01*
X132135524Y-138496381D01*
X133040286Y-137496381D02*
X132564095Y-137496381D01*
X132516476Y-137972571D01*
X132564095Y-137924952D01*
X132659333Y-137877333D01*
X132897429Y-137877333D01*
X132992667Y-137924952D01*
X133040286Y-137972571D01*
X133087905Y-138067810D01*
X133087905Y-138305905D01*
X133040286Y-138401143D01*
X132992667Y-138448762D01*
X132897429Y-138496381D01*
X132659333Y-138496381D01*
X132564095Y-138448762D01*
X132516476Y-138401143D01*
X131183143Y-141036381D02*
X130849809Y-140560190D01*
X130611714Y-141036381D02*
X130611714Y-140036381D01*
X130992667Y-140036381D01*
X131087905Y-140084000D01*
X131135524Y-140131619D01*
X131183143Y-140226857D01*
X131183143Y-140369714D01*
X131135524Y-140464952D01*
X131087905Y-140512571D01*
X130992667Y-140560190D01*
X130611714Y-140560190D01*
X131564095Y-140131619D02*
X131611714Y-140084000D01*
X131706952Y-140036381D01*
X131945048Y-140036381D01*
X132040286Y-140084000D01*
X132087905Y-140131619D01*
X132135524Y-140226857D01*
X132135524Y-140322095D01*
X132087905Y-140464952D01*
X131516476Y-141036381D01*
X132135524Y-141036381D01*
X132992667Y-140036381D02*
X132802190Y-140036381D01*
X132706952Y-140084000D01*
X132659333Y-140131619D01*
X132564095Y-140274476D01*
X132516476Y-140464952D01*
X132516476Y-140845905D01*
X132564095Y-140941143D01*
X132611714Y-140988762D01*
X132706952Y-141036381D01*
X132897429Y-141036381D01*
X132992667Y-140988762D01*
X133040286Y-140941143D01*
X133087905Y-140845905D01*
X133087905Y-140607810D01*
X133040286Y-140512571D01*
X132992667Y-140464952D01*
X132897429Y-140417333D01*
X132706952Y-140417333D01*
X132611714Y-140464952D01*
X132564095Y-140512571D01*
X132516476Y-140607810D01*
X131183143Y-143576381D02*
X130849809Y-143100190D01*
X130611714Y-143576381D02*
X130611714Y-142576381D01*
X130992667Y-142576381D01*
X131087905Y-142624000D01*
X131135524Y-142671619D01*
X131183143Y-142766857D01*
X131183143Y-142909714D01*
X131135524Y-143004952D01*
X131087905Y-143052571D01*
X130992667Y-143100190D01*
X130611714Y-143100190D01*
X131564095Y-142671619D02*
X131611714Y-142624000D01*
X131706952Y-142576381D01*
X131945048Y-142576381D01*
X132040286Y-142624000D01*
X132087905Y-142671619D01*
X132135524Y-142766857D01*
X132135524Y-142862095D01*
X132087905Y-143004952D01*
X131516476Y-143576381D01*
X132135524Y-143576381D01*
X132468857Y-142576381D02*
X133135524Y-142576381D01*
X132706952Y-143576381D01*
X131183143Y-146116381D02*
X130849809Y-145640190D01*
X130611714Y-146116381D02*
X130611714Y-145116381D01*
X130992667Y-145116381D01*
X131087905Y-145164000D01*
X131135524Y-145211619D01*
X131183143Y-145306857D01*
X131183143Y-145449714D01*
X131135524Y-145544952D01*
X131087905Y-145592571D01*
X130992667Y-145640190D01*
X130611714Y-145640190D01*
X131564095Y-145211619D02*
X131611714Y-145164000D01*
X131706952Y-145116381D01*
X131945048Y-145116381D01*
X132040286Y-145164000D01*
X132087905Y-145211619D01*
X132135524Y-145306857D01*
X132135524Y-145402095D01*
X132087905Y-145544952D01*
X131516476Y-146116381D01*
X132135524Y-146116381D01*
X132706952Y-145544952D02*
X132611714Y-145497333D01*
X132564095Y-145449714D01*
X132516476Y-145354476D01*
X132516476Y-145306857D01*
X132564095Y-145211619D01*
X132611714Y-145164000D01*
X132706952Y-145116381D01*
X132897429Y-145116381D01*
X132992667Y-145164000D01*
X133040286Y-145211619D01*
X133087905Y-145306857D01*
X133087905Y-145354476D01*
X133040286Y-145449714D01*
X132992667Y-145497333D01*
X132897429Y-145544952D01*
X132706952Y-145544952D01*
X132611714Y-145592571D01*
X132564095Y-145640190D01*
X132516476Y-145735429D01*
X132516476Y-145925905D01*
X132564095Y-146021143D01*
X132611714Y-146068762D01*
X132706952Y-146116381D01*
X132897429Y-146116381D01*
X132992667Y-146068762D01*
X133040286Y-146021143D01*
X133087905Y-145925905D01*
X133087905Y-145735429D01*
X133040286Y-145640190D01*
X132992667Y-145592571D01*
X132897429Y-145544952D01*
X131183143Y-148656381D02*
X130849809Y-148180190D01*
X130611714Y-148656381D02*
X130611714Y-147656381D01*
X130992667Y-147656381D01*
X131087905Y-147704000D01*
X131135524Y-147751619D01*
X131183143Y-147846857D01*
X131183143Y-147989714D01*
X131135524Y-148084952D01*
X131087905Y-148132571D01*
X130992667Y-148180190D01*
X130611714Y-148180190D01*
X131564095Y-147751619D02*
X131611714Y-147704000D01*
X131706952Y-147656381D01*
X131945048Y-147656381D01*
X132040286Y-147704000D01*
X132087905Y-147751619D01*
X132135524Y-147846857D01*
X132135524Y-147942095D01*
X132087905Y-148084952D01*
X131516476Y-148656381D01*
X132135524Y-148656381D01*
X132611714Y-148656381D02*
X132802190Y-148656381D01*
X132897429Y-148608762D01*
X132945048Y-148561143D01*
X133040286Y-148418286D01*
X133087905Y-148227810D01*
X133087905Y-147846857D01*
X133040286Y-147751619D01*
X132992667Y-147704000D01*
X132897429Y-147656381D01*
X132706952Y-147656381D01*
X132611714Y-147704000D01*
X132564095Y-147751619D01*
X132516476Y-147846857D01*
X132516476Y-148084952D01*
X132564095Y-148180190D01*
X132611714Y-148227810D01*
X132706952Y-148275429D01*
X132897429Y-148275429D01*
X132992667Y-148227810D01*
X133040286Y-148180190D01*
X133087905Y-148084952D01*
X131183143Y-151196381D02*
X130849809Y-150720190D01*
X130611714Y-151196381D02*
X130611714Y-150196381D01*
X130992667Y-150196381D01*
X131087905Y-150244000D01*
X131135524Y-150291619D01*
X131183143Y-150386857D01*
X131183143Y-150529714D01*
X131135524Y-150624952D01*
X131087905Y-150672571D01*
X130992667Y-150720190D01*
X130611714Y-150720190D01*
X131516476Y-150196381D02*
X132135524Y-150196381D01*
X131802190Y-150577333D01*
X131945048Y-150577333D01*
X132040286Y-150624952D01*
X132087905Y-150672571D01*
X132135524Y-150767810D01*
X132135524Y-151005905D01*
X132087905Y-151101143D01*
X132040286Y-151148762D01*
X131945048Y-151196381D01*
X131659333Y-151196381D01*
X131564095Y-151148762D01*
X131516476Y-151101143D01*
X132754571Y-150196381D02*
X132849810Y-150196381D01*
X132945048Y-150244000D01*
X132992667Y-150291619D01*
X133040286Y-150386857D01*
X133087905Y-150577333D01*
X133087905Y-150815429D01*
X133040286Y-151005905D01*
X132992667Y-151101143D01*
X132945048Y-151148762D01*
X132849810Y-151196381D01*
X132754571Y-151196381D01*
X132659333Y-151148762D01*
X132611714Y-151101143D01*
X132564095Y-151005905D01*
X132516476Y-150815429D01*
X132516476Y-150577333D01*
X132564095Y-150386857D01*
X132611714Y-150291619D01*
X132659333Y-150244000D01*
X132754571Y-150196381D01*
X131183143Y-153736381D02*
X130849809Y-153260190D01*
X130611714Y-153736381D02*
X130611714Y-152736381D01*
X130992667Y-152736381D01*
X131087905Y-152784000D01*
X131135524Y-152831619D01*
X131183143Y-152926857D01*
X131183143Y-153069714D01*
X131135524Y-153164952D01*
X131087905Y-153212571D01*
X130992667Y-153260190D01*
X130611714Y-153260190D01*
X131516476Y-152736381D02*
X132135524Y-152736381D01*
X131802190Y-153117333D01*
X131945048Y-153117333D01*
X132040286Y-153164952D01*
X132087905Y-153212571D01*
X132135524Y-153307810D01*
X132135524Y-153545905D01*
X132087905Y-153641143D01*
X132040286Y-153688762D01*
X131945048Y-153736381D01*
X131659333Y-153736381D01*
X131564095Y-153688762D01*
X131516476Y-153641143D01*
X133087905Y-153736381D02*
X132516476Y-153736381D01*
X132802190Y-153736381D02*
X132802190Y-152736381D01*
X132706952Y-152879238D01*
X132611714Y-152974476D01*
X132516476Y-153022095D01*
X131183143Y-156276381D02*
X130849809Y-155800190D01*
X130611714Y-156276381D02*
X130611714Y-155276381D01*
X130992667Y-155276381D01*
X131087905Y-155324000D01*
X131135524Y-155371619D01*
X131183143Y-155466857D01*
X131183143Y-155609714D01*
X131135524Y-155704952D01*
X131087905Y-155752571D01*
X130992667Y-155800190D01*
X130611714Y-155800190D01*
X131516476Y-155276381D02*
X132135524Y-155276381D01*
X131802190Y-155657333D01*
X131945048Y-155657333D01*
X132040286Y-155704952D01*
X132087905Y-155752571D01*
X132135524Y-155847810D01*
X132135524Y-156085905D01*
X132087905Y-156181143D01*
X132040286Y-156228762D01*
X131945048Y-156276381D01*
X131659333Y-156276381D01*
X131564095Y-156228762D01*
X131516476Y-156181143D01*
X132516476Y-155371619D02*
X132564095Y-155324000D01*
X132659333Y-155276381D01*
X132897429Y-155276381D01*
X132992667Y-155324000D01*
X133040286Y-155371619D01*
X133087905Y-155466857D01*
X133087905Y-155562095D01*
X133040286Y-155704952D01*
X132468857Y-156276381D01*
X133087905Y-156276381D01*
X172415381Y-71635857D02*
X171939190Y-71969191D01*
X172415381Y-72207286D02*
X171415381Y-72207286D01*
X171415381Y-71826333D01*
X171463000Y-71731095D01*
X171510619Y-71683476D01*
X171605857Y-71635857D01*
X171748714Y-71635857D01*
X171843952Y-71683476D01*
X171891571Y-71731095D01*
X171939190Y-71826333D01*
X171939190Y-72207286D01*
X171415381Y-71302524D02*
X171415381Y-70683476D01*
X171796333Y-71016810D01*
X171796333Y-70873952D01*
X171843952Y-70778714D01*
X171891571Y-70731095D01*
X171986810Y-70683476D01*
X172224905Y-70683476D01*
X172320143Y-70731095D01*
X172367762Y-70778714D01*
X172415381Y-70873952D01*
X172415381Y-71159667D01*
X172367762Y-71254905D01*
X172320143Y-71302524D01*
X171415381Y-69778714D02*
X171415381Y-70254905D01*
X171891571Y-70302524D01*
X171843952Y-70254905D01*
X171796333Y-70159667D01*
X171796333Y-69921571D01*
X171843952Y-69826333D01*
X171891571Y-69778714D01*
X171986810Y-69731095D01*
X172224905Y-69731095D01*
X172320143Y-69778714D01*
X172367762Y-69826333D01*
X172415381Y-69921571D01*
X172415381Y-70159667D01*
X172367762Y-70254905D01*
X172320143Y-70302524D01*
X131775381Y-71635857D02*
X131299190Y-71969191D01*
X131775381Y-72207286D02*
X130775381Y-72207286D01*
X130775381Y-71826333D01*
X130823000Y-71731095D01*
X130870619Y-71683476D01*
X130965857Y-71635857D01*
X131108714Y-71635857D01*
X131203952Y-71683476D01*
X131251571Y-71731095D01*
X131299190Y-71826333D01*
X131299190Y-72207286D01*
X130775381Y-71302524D02*
X130775381Y-70683476D01*
X131156333Y-71016810D01*
X131156333Y-70873952D01*
X131203952Y-70778714D01*
X131251571Y-70731095D01*
X131346810Y-70683476D01*
X131584905Y-70683476D01*
X131680143Y-70731095D01*
X131727762Y-70778714D01*
X131775381Y-70873952D01*
X131775381Y-71159667D01*
X131727762Y-71254905D01*
X131680143Y-71302524D01*
X130775381Y-69826333D02*
X130775381Y-70016810D01*
X130823000Y-70112048D01*
X130870619Y-70159667D01*
X131013476Y-70254905D01*
X131203952Y-70302524D01*
X131584905Y-70302524D01*
X131680143Y-70254905D01*
X131727762Y-70207286D01*
X131775381Y-70112048D01*
X131775381Y-69921571D01*
X131727762Y-69826333D01*
X131680143Y-69778714D01*
X131584905Y-69731095D01*
X131346810Y-69731095D01*
X131251571Y-69778714D01*
X131203952Y-69826333D01*
X131156333Y-69921571D01*
X131156333Y-70112048D01*
X131203952Y-70207286D01*
X131251571Y-70254905D01*
X131346810Y-70302524D01*
X179578095Y-71394762D02*
X179720952Y-71442381D01*
X179959048Y-71442381D01*
X180054286Y-71394762D01*
X180101905Y-71347143D01*
X180149524Y-71251905D01*
X180149524Y-71156667D01*
X180101905Y-71061429D01*
X180054286Y-71013810D01*
X179959048Y-70966190D01*
X179768571Y-70918571D01*
X179673333Y-70870952D01*
X179625714Y-70823333D01*
X179578095Y-70728095D01*
X179578095Y-70632857D01*
X179625714Y-70537619D01*
X179673333Y-70490000D01*
X179768571Y-70442381D01*
X180006667Y-70442381D01*
X180149524Y-70490000D01*
X181101905Y-71442381D02*
X180530476Y-71442381D01*
X180816190Y-71442381D02*
X180816190Y-70442381D01*
X180720952Y-70585238D01*
X180625714Y-70680476D01*
X180530476Y-70728095D01*
X138938095Y-71394762D02*
X139080952Y-71442381D01*
X139319048Y-71442381D01*
X139414286Y-71394762D01*
X139461905Y-71347143D01*
X139509524Y-71251905D01*
X139509524Y-71156667D01*
X139461905Y-71061429D01*
X139414286Y-71013810D01*
X139319048Y-70966190D01*
X139128571Y-70918571D01*
X139033333Y-70870952D01*
X138985714Y-70823333D01*
X138938095Y-70728095D01*
X138938095Y-70632857D01*
X138985714Y-70537619D01*
X139033333Y-70490000D01*
X139128571Y-70442381D01*
X139366667Y-70442381D01*
X139509524Y-70490000D01*
X139890476Y-70537619D02*
X139938095Y-70490000D01*
X140033333Y-70442381D01*
X140271429Y-70442381D01*
X140366667Y-70490000D01*
X140414286Y-70537619D01*
X140461905Y-70632857D01*
X140461905Y-70728095D01*
X140414286Y-70870952D01*
X139842857Y-71442381D01*
X140461905Y-71442381D01*
X147701095Y-79806381D02*
X147701095Y-80615905D01*
X147748714Y-80711143D01*
X147796333Y-80758762D01*
X147891571Y-80806381D01*
X148082048Y-80806381D01*
X148177286Y-80758762D01*
X148224905Y-80711143D01*
X148272524Y-80615905D01*
X148272524Y-79806381D01*
X148701095Y-79901619D02*
X148748714Y-79854000D01*
X148843952Y-79806381D01*
X149082048Y-79806381D01*
X149177286Y-79854000D01*
X149224905Y-79901619D01*
X149272524Y-79996857D01*
X149272524Y-80092095D01*
X149224905Y-80234952D01*
X148653476Y-80806381D01*
X149272524Y-80806381D01*
X147701095Y-120446381D02*
X147701095Y-121255905D01*
X147748714Y-121351143D01*
X147796333Y-121398762D01*
X147891571Y-121446381D01*
X148082048Y-121446381D01*
X148177286Y-121398762D01*
X148224905Y-121351143D01*
X148272524Y-121255905D01*
X148272524Y-120446381D01*
X148653476Y-120446381D02*
X149272524Y-120446381D01*
X148939190Y-120827333D01*
X149082048Y-120827333D01*
X149177286Y-120874952D01*
X149224905Y-120922571D01*
X149272524Y-121017810D01*
X149272524Y-121255905D01*
X149224905Y-121351143D01*
X149177286Y-121398762D01*
X149082048Y-121446381D01*
X148796333Y-121446381D01*
X148701095Y-121398762D01*
X148653476Y-121351143D01*
X195416905Y-94702381D02*
X195416905Y-93702381D01*
X195797858Y-93702381D01*
X195893096Y-93750000D01*
X195940715Y-93797619D01*
X195988334Y-93892857D01*
X195988334Y-94035714D01*
X195940715Y-94130952D01*
X195893096Y-94178571D01*
X195797858Y-94226190D01*
X195416905Y-94226190D01*
X196845477Y-94035714D02*
X196845477Y-94702381D01*
X196607381Y-93654762D02*
X196369286Y-94369048D01*
X196988334Y-94369048D01*
X170052381Y-86533333D02*
X170766667Y-86533333D01*
X170909524Y-86580953D01*
X171004762Y-86676191D01*
X171052381Y-86819048D01*
X171052381Y-86914286D01*
X171052381Y-86057143D02*
X170052381Y-86057143D01*
X170052381Y-85676190D01*
X170100000Y-85580952D01*
X170147619Y-85533333D01*
X170242857Y-85485714D01*
X170385714Y-85485714D01*
X170480952Y-85533333D01*
X170528571Y-85580952D01*
X170576190Y-85676190D01*
X170576190Y-86057143D01*
X171052381Y-84533333D02*
X171052381Y-85104762D01*
X171052381Y-84819048D02*
X170052381Y-84819048D01*
X170195238Y-84914286D01*
X170290476Y-85009524D01*
X170338095Y-85104762D01*
X190981905Y-122012381D02*
X190981905Y-121012381D01*
X191362858Y-121012381D01*
X191458096Y-121060000D01*
X191505715Y-121107619D01*
X191553334Y-121202857D01*
X191553334Y-121345714D01*
X191505715Y-121440952D01*
X191458096Y-121488571D01*
X191362858Y-121536190D01*
X190981905Y-121536190D01*
X191886667Y-121012381D02*
X192553334Y-121012381D01*
X192124762Y-122012381D01*
X174313809Y-115111190D02*
X174313809Y-115587381D01*
X173980476Y-114587381D02*
X174313809Y-115111190D01*
X174647143Y-114587381D01*
X175504286Y-115587381D02*
X174932857Y-115587381D01*
X175218571Y-115587381D02*
X175218571Y-114587381D01*
X175123333Y-114730238D01*
X175028095Y-114825476D01*
X174932857Y-114873095D01*
X177376667Y-110522381D02*
X177376667Y-111236667D01*
X177329047Y-111379524D01*
X177233809Y-111474762D01*
X177090952Y-111522381D01*
X176995714Y-111522381D01*
X177852857Y-111522381D02*
X177852857Y-110522381D01*
X178233810Y-110522381D01*
X178329048Y-110570000D01*
X178376667Y-110617619D01*
X178424286Y-110712857D01*
X178424286Y-110855714D01*
X178376667Y-110950952D01*
X178329048Y-110998571D01*
X178233810Y-111046190D01*
X177852857Y-111046190D01*
X178805238Y-110617619D02*
X178852857Y-110570000D01*
X178948095Y-110522381D01*
X179186191Y-110522381D01*
X179281429Y-110570000D01*
X179329048Y-110617619D01*
X179376667Y-110712857D01*
X179376667Y-110808095D01*
X179329048Y-110950952D01*
X178757619Y-111522381D01*
X179376667Y-111522381D01*
X195146905Y-80602381D02*
X195146905Y-79602381D01*
X195527858Y-79602381D01*
X195623096Y-79650000D01*
X195670715Y-79697619D01*
X195718334Y-79792857D01*
X195718334Y-79935714D01*
X195670715Y-80030952D01*
X195623096Y-80078571D01*
X195527858Y-80126190D01*
X195146905Y-80126190D01*
X196623096Y-79602381D02*
X196146905Y-79602381D01*
X196099286Y-80078571D01*
X196146905Y-80030952D01*
X196242143Y-79983333D01*
X196480239Y-79983333D01*
X196575477Y-80030952D01*
X196623096Y-80078571D01*
X196670715Y-80173810D01*
X196670715Y-80411905D01*
X196623096Y-80507143D01*
X196575477Y-80554762D01*
X196480239Y-80602381D01*
X196242143Y-80602381D01*
X196146905Y-80554762D01*
X196099286Y-80507143D01*
M02*
