G04 #@! TF.FileFunction,Paste,Top*
%FSLAX46Y46*%
G04 Gerber Fmt 4.6, Leading zero omitted, Abs format (unit mm)*
G04 Created by KiCad (PCBNEW 4.0.2+dfsg1-stable) date ven. 05 janv. 2018 23:32:36 CET*
%MOMM*%
G01*
G04 APERTURE LIST*
%ADD10C,0.100000*%
%ADD11R,1.700000X2.000000*%
%ADD12R,1.500000X1.250000*%
%ADD13R,1.200000X0.900000*%
%ADD14R,0.600000X1.100000*%
%ADD15R,1.500000X0.600000*%
%ADD16R,0.900000X1.200000*%
%ADD17R,1.100000X0.400000*%
%ADD18R,2.000000X0.600000*%
%ADD19R,2.000000X1.700000*%
G04 APERTURE END LIST*
D10*
D11*
X168320000Y-92090000D03*
X168320000Y-96090000D03*
D12*
X173550000Y-107190000D03*
X171050000Y-107190000D03*
D13*
X132926000Y-75184000D03*
X130726000Y-75184000D03*
X132926000Y-77724000D03*
X130726000Y-77724000D03*
D14*
X151953000Y-117645000D03*
X150053000Y-117645000D03*
X151003000Y-117645000D03*
X150053000Y-119845000D03*
X151953000Y-119845000D03*
D15*
X114140000Y-73914000D03*
X114140000Y-75184000D03*
X114140000Y-76454000D03*
X114140000Y-77724000D03*
X114140000Y-78994000D03*
X114140000Y-80264000D03*
X114140000Y-81534000D03*
X114140000Y-82804000D03*
X119540000Y-82804000D03*
X119540000Y-81534000D03*
X119540000Y-80264000D03*
X119540000Y-78994000D03*
X119540000Y-77724000D03*
X119540000Y-76454000D03*
X119540000Y-75184000D03*
X119540000Y-73914000D03*
X122141000Y-84074000D03*
X122141000Y-85344000D03*
X122141000Y-86614000D03*
X122141000Y-87884000D03*
X122141000Y-89154000D03*
X122141000Y-90424000D03*
X122141000Y-91694000D03*
X122141000Y-92964000D03*
X127541000Y-92964000D03*
X127541000Y-91694000D03*
X127541000Y-90424000D03*
X127541000Y-89154000D03*
X127541000Y-87884000D03*
X127541000Y-86614000D03*
X127541000Y-85344000D03*
X127541000Y-84074000D03*
X114140000Y-94234000D03*
X114140000Y-95504000D03*
X114140000Y-96774000D03*
X114140000Y-98044000D03*
X114140000Y-99314000D03*
X114140000Y-100584000D03*
X114140000Y-101854000D03*
X114140000Y-103124000D03*
X119540000Y-103124000D03*
X119540000Y-101854000D03*
X119540000Y-100584000D03*
X119540000Y-99314000D03*
X119540000Y-98044000D03*
X119540000Y-96774000D03*
X119540000Y-95504000D03*
X119540000Y-94234000D03*
X122141000Y-104394000D03*
X122141000Y-105664000D03*
X122141000Y-106934000D03*
X122141000Y-108204000D03*
X122141000Y-109474000D03*
X122141000Y-110744000D03*
X122141000Y-112014000D03*
X122141000Y-113284000D03*
X127541000Y-113284000D03*
X127541000Y-112014000D03*
X127541000Y-110744000D03*
X127541000Y-109474000D03*
X127541000Y-108204000D03*
X127541000Y-106934000D03*
X127541000Y-105664000D03*
X127541000Y-104394000D03*
X114140000Y-114554000D03*
X114140000Y-115824000D03*
X114140000Y-117094000D03*
X114140000Y-118364000D03*
X114140000Y-119634000D03*
X114140000Y-120904000D03*
X114140000Y-122174000D03*
X114140000Y-123444000D03*
X119540000Y-123444000D03*
X119540000Y-122174000D03*
X119540000Y-120904000D03*
X119540000Y-119634000D03*
X119540000Y-118364000D03*
X119540000Y-117094000D03*
X119540000Y-115824000D03*
X119540000Y-114554000D03*
X122141000Y-124714000D03*
X122141000Y-125984000D03*
X122141000Y-127254000D03*
X122141000Y-128524000D03*
X122141000Y-129794000D03*
X122141000Y-131064000D03*
X122141000Y-132334000D03*
X122141000Y-133604000D03*
X127541000Y-133604000D03*
X127541000Y-132334000D03*
X127541000Y-131064000D03*
X127541000Y-129794000D03*
X127541000Y-128524000D03*
X127541000Y-127254000D03*
X127541000Y-125984000D03*
X127541000Y-124714000D03*
X114140000Y-134874000D03*
X114140000Y-136144000D03*
X114140000Y-137414000D03*
X114140000Y-138684000D03*
X114140000Y-139954000D03*
X114140000Y-141224000D03*
X114140000Y-142494000D03*
X114140000Y-143764000D03*
X119540000Y-143764000D03*
X119540000Y-142494000D03*
X119540000Y-141224000D03*
X119540000Y-139954000D03*
X119540000Y-138684000D03*
X119540000Y-137414000D03*
X119540000Y-136144000D03*
X119540000Y-134874000D03*
X122141000Y-145034000D03*
X122141000Y-146304000D03*
X122141000Y-147574000D03*
X122141000Y-148844000D03*
X122141000Y-150114000D03*
X122141000Y-151384000D03*
X122141000Y-152654000D03*
X122141000Y-153924000D03*
X127541000Y-153924000D03*
X127541000Y-152654000D03*
X127541000Y-151384000D03*
X127541000Y-150114000D03*
X127541000Y-148844000D03*
X127541000Y-147574000D03*
X127541000Y-146304000D03*
X127541000Y-145034000D03*
D13*
X132926000Y-80264000D03*
X130726000Y-80264000D03*
X132926000Y-82804000D03*
X130726000Y-82804000D03*
X132926000Y-85344000D03*
X130726000Y-85344000D03*
X132926000Y-87884000D03*
X130726000Y-87884000D03*
X132926000Y-90424000D03*
X130726000Y-90424000D03*
X132926000Y-92964000D03*
X130726000Y-92964000D03*
X132926000Y-95504000D03*
X130726000Y-95504000D03*
X132926000Y-98044000D03*
X130726000Y-98044000D03*
X132926000Y-100584000D03*
X130726000Y-100584000D03*
X132926000Y-103124000D03*
X130726000Y-103124000D03*
X132926000Y-105664000D03*
X130726000Y-105664000D03*
X132926000Y-108204000D03*
X130726000Y-108204000D03*
X132926000Y-110744000D03*
X130726000Y-110744000D03*
X132926000Y-113284000D03*
X130726000Y-113284000D03*
X132926000Y-115824000D03*
X130726000Y-115824000D03*
X132926000Y-118364000D03*
X130726000Y-118364000D03*
X132926000Y-120904000D03*
X130726000Y-120904000D03*
X132926000Y-123444000D03*
X130726000Y-123444000D03*
X132926000Y-125984000D03*
X130726000Y-125984000D03*
X132926000Y-128524000D03*
X130726000Y-128524000D03*
X132926000Y-131064000D03*
X130726000Y-131064000D03*
X132926000Y-133604000D03*
X130726000Y-133604000D03*
X132926000Y-136144000D03*
X130726000Y-136144000D03*
X132926000Y-138684000D03*
X130726000Y-138684000D03*
X132926000Y-141224000D03*
X130726000Y-141224000D03*
X132926000Y-143764000D03*
X130726000Y-143764000D03*
X132926000Y-146304000D03*
X130726000Y-146304000D03*
X132926000Y-148844000D03*
X130726000Y-148844000D03*
X132926000Y-151384000D03*
X130726000Y-151384000D03*
X132926000Y-153924000D03*
X130726000Y-153924000D03*
D16*
X173863000Y-72093000D03*
X173863000Y-69893000D03*
X133223000Y-72093000D03*
X133223000Y-69893000D03*
D17*
X183190000Y-69615000D03*
X183190000Y-68965000D03*
X183190000Y-68315000D03*
X183190000Y-67665000D03*
X183190000Y-67015000D03*
X183190000Y-66365000D03*
X183190000Y-65715000D03*
X183190000Y-65065000D03*
X183190000Y-64415000D03*
X183190000Y-63765000D03*
X183190000Y-63115000D03*
X183190000Y-62465000D03*
X177490000Y-62465000D03*
X177490000Y-63115000D03*
X177490000Y-63765000D03*
X177490000Y-64415000D03*
X177490000Y-65065000D03*
X177490000Y-65715000D03*
X177490000Y-66365000D03*
X177490000Y-67015000D03*
X177490000Y-67665000D03*
X177490000Y-68315000D03*
X177490000Y-68965000D03*
X177490000Y-69615000D03*
X142550000Y-69615000D03*
X142550000Y-68965000D03*
X142550000Y-68315000D03*
X142550000Y-67665000D03*
X142550000Y-67015000D03*
X142550000Y-66365000D03*
X142550000Y-65715000D03*
X142550000Y-65065000D03*
X142550000Y-64415000D03*
X142550000Y-63765000D03*
X142550000Y-63115000D03*
X142550000Y-62465000D03*
X136850000Y-62465000D03*
X136850000Y-63115000D03*
X136850000Y-63765000D03*
X136850000Y-64415000D03*
X136850000Y-65065000D03*
X136850000Y-65715000D03*
X136850000Y-66365000D03*
X136850000Y-67015000D03*
X136850000Y-67665000D03*
X136850000Y-68315000D03*
X136850000Y-68965000D03*
X136850000Y-69615000D03*
D18*
X143763000Y-82169000D03*
X143763000Y-83439000D03*
X143763000Y-84709000D03*
X143763000Y-85979000D03*
X143763000Y-87249000D03*
X143763000Y-88519000D03*
X143763000Y-89789000D03*
X143763000Y-91059000D03*
X143763000Y-92329000D03*
X143763000Y-93599000D03*
X143763000Y-94869000D03*
X143763000Y-96139000D03*
X153163000Y-96139000D03*
X153163000Y-94869000D03*
X153163000Y-93599000D03*
X153163000Y-92329000D03*
X153163000Y-91059000D03*
X153163000Y-89789000D03*
X153163000Y-88519000D03*
X153163000Y-87249000D03*
X153163000Y-85979000D03*
X153163000Y-84709000D03*
X153163000Y-83439000D03*
X153163000Y-82169000D03*
X143763000Y-122809000D03*
X143763000Y-124079000D03*
X143763000Y-125349000D03*
X143763000Y-126619000D03*
X143763000Y-127889000D03*
X143763000Y-129159000D03*
X143763000Y-130429000D03*
X143763000Y-131699000D03*
X143763000Y-132969000D03*
X143763000Y-134239000D03*
X143763000Y-135509000D03*
X143763000Y-136779000D03*
X153163000Y-136779000D03*
X153163000Y-135509000D03*
X153163000Y-134239000D03*
X153163000Y-132969000D03*
X153163000Y-131699000D03*
X153163000Y-130429000D03*
X153163000Y-129159000D03*
X153163000Y-127889000D03*
X153163000Y-126619000D03*
X153163000Y-125349000D03*
X153163000Y-124079000D03*
X153163000Y-122809000D03*
D19*
X176210000Y-112920000D03*
X180210000Y-112920000D03*
M02*
