G04 #@! TF.FileFunction,Copper,L1,Top,Signal*
%FSLAX46Y46*%
G04 Gerber Fmt 4.6, Leading zero omitted, Abs format (unit mm)*
G04 Created by KiCad (PCBNEW 4.0.2+dfsg1-stable) date ven. 05 janv. 2018 23:32:36 CET*
%MOMM*%
G01*
G04 APERTURE LIST*
%ADD10C,0.100000*%
%ADD11R,1.700000X2.000000*%
%ADD12R,2.800000X2.800000*%
%ADD13C,2.800000*%
%ADD14R,1.500000X1.250000*%
%ADD15R,1.200000X0.900000*%
%ADD16R,2.032000X1.727200*%
%ADD17O,2.032000X1.727200*%
%ADD18R,0.600000X1.100000*%
%ADD19R,1.500000X0.600000*%
%ADD20R,0.900000X1.200000*%
%ADD21R,1.100000X0.400000*%
%ADD22R,2.000000X0.600000*%
%ADD23R,1.727200X2.032000*%
%ADD24O,1.727200X2.032000*%
%ADD25R,1.700000X1.700000*%
%ADD26O,1.700000X1.700000*%
%ADD27C,1.500000*%
%ADD28R,2.000000X1.700000*%
%ADD29C,0.762000*%
%ADD30C,0.381000*%
%ADD31C,0.600000*%
%ADD32C,0.254000*%
G04 APERTURE END LIST*
D10*
D11*
X168320000Y-92090000D03*
X168320000Y-96090000D03*
D12*
X169430000Y-138810000D03*
D13*
X169430000Y-133310000D03*
D14*
X173550000Y-107190000D03*
X171050000Y-107190000D03*
D15*
X132926000Y-75184000D03*
X130726000Y-75184000D03*
X132926000Y-77724000D03*
X130726000Y-77724000D03*
D16*
X104648000Y-74549000D03*
D17*
X104648000Y-77089000D03*
X104648000Y-79629000D03*
X104648000Y-82169000D03*
X104648000Y-84709000D03*
X104648000Y-87249000D03*
X104648000Y-89789000D03*
X104648000Y-92329000D03*
X104648000Y-94869000D03*
X104648000Y-97409000D03*
X104648000Y-99949000D03*
X104648000Y-102489000D03*
X104648000Y-105029000D03*
X104648000Y-107569000D03*
X104648000Y-110109000D03*
X104648000Y-112649000D03*
X104648000Y-115189000D03*
X104648000Y-117729000D03*
X104648000Y-120269000D03*
X104648000Y-122809000D03*
X104648000Y-125349000D03*
X104648000Y-127889000D03*
X104648000Y-130429000D03*
X104648000Y-132969000D03*
X104648000Y-135509000D03*
X104648000Y-138049000D03*
X104648000Y-140589000D03*
X104648000Y-143129000D03*
X104648000Y-145669000D03*
X104648000Y-148209000D03*
X104648000Y-150749000D03*
X104648000Y-153289000D03*
D12*
X171730000Y-125470000D03*
D13*
X177230000Y-125470000D03*
D18*
X151953000Y-117645000D03*
X150053000Y-117645000D03*
X151003000Y-117645000D03*
X150053000Y-119845000D03*
X151953000Y-119845000D03*
D19*
X114140000Y-73914000D03*
X114140000Y-75184000D03*
X114140000Y-76454000D03*
X114140000Y-77724000D03*
X114140000Y-78994000D03*
X114140000Y-80264000D03*
X114140000Y-81534000D03*
X114140000Y-82804000D03*
X119540000Y-82804000D03*
X119540000Y-81534000D03*
X119540000Y-80264000D03*
X119540000Y-78994000D03*
X119540000Y-77724000D03*
X119540000Y-76454000D03*
X119540000Y-75184000D03*
X119540000Y-73914000D03*
X122141000Y-84074000D03*
X122141000Y-85344000D03*
X122141000Y-86614000D03*
X122141000Y-87884000D03*
X122141000Y-89154000D03*
X122141000Y-90424000D03*
X122141000Y-91694000D03*
X122141000Y-92964000D03*
X127541000Y-92964000D03*
X127541000Y-91694000D03*
X127541000Y-90424000D03*
X127541000Y-89154000D03*
X127541000Y-87884000D03*
X127541000Y-86614000D03*
X127541000Y-85344000D03*
X127541000Y-84074000D03*
X114140000Y-94234000D03*
X114140000Y-95504000D03*
X114140000Y-96774000D03*
X114140000Y-98044000D03*
X114140000Y-99314000D03*
X114140000Y-100584000D03*
X114140000Y-101854000D03*
X114140000Y-103124000D03*
X119540000Y-103124000D03*
X119540000Y-101854000D03*
X119540000Y-100584000D03*
X119540000Y-99314000D03*
X119540000Y-98044000D03*
X119540000Y-96774000D03*
X119540000Y-95504000D03*
X119540000Y-94234000D03*
X122141000Y-104394000D03*
X122141000Y-105664000D03*
X122141000Y-106934000D03*
X122141000Y-108204000D03*
X122141000Y-109474000D03*
X122141000Y-110744000D03*
X122141000Y-112014000D03*
X122141000Y-113284000D03*
X127541000Y-113284000D03*
X127541000Y-112014000D03*
X127541000Y-110744000D03*
X127541000Y-109474000D03*
X127541000Y-108204000D03*
X127541000Y-106934000D03*
X127541000Y-105664000D03*
X127541000Y-104394000D03*
X114140000Y-114554000D03*
X114140000Y-115824000D03*
X114140000Y-117094000D03*
X114140000Y-118364000D03*
X114140000Y-119634000D03*
X114140000Y-120904000D03*
X114140000Y-122174000D03*
X114140000Y-123444000D03*
X119540000Y-123444000D03*
X119540000Y-122174000D03*
X119540000Y-120904000D03*
X119540000Y-119634000D03*
X119540000Y-118364000D03*
X119540000Y-117094000D03*
X119540000Y-115824000D03*
X119540000Y-114554000D03*
X122141000Y-124714000D03*
X122141000Y-125984000D03*
X122141000Y-127254000D03*
X122141000Y-128524000D03*
X122141000Y-129794000D03*
X122141000Y-131064000D03*
X122141000Y-132334000D03*
X122141000Y-133604000D03*
X127541000Y-133604000D03*
X127541000Y-132334000D03*
X127541000Y-131064000D03*
X127541000Y-129794000D03*
X127541000Y-128524000D03*
X127541000Y-127254000D03*
X127541000Y-125984000D03*
X127541000Y-124714000D03*
X114140000Y-134874000D03*
X114140000Y-136144000D03*
X114140000Y-137414000D03*
X114140000Y-138684000D03*
X114140000Y-139954000D03*
X114140000Y-141224000D03*
X114140000Y-142494000D03*
X114140000Y-143764000D03*
X119540000Y-143764000D03*
X119540000Y-142494000D03*
X119540000Y-141224000D03*
X119540000Y-139954000D03*
X119540000Y-138684000D03*
X119540000Y-137414000D03*
X119540000Y-136144000D03*
X119540000Y-134874000D03*
X122141000Y-145034000D03*
X122141000Y-146304000D03*
X122141000Y-147574000D03*
X122141000Y-148844000D03*
X122141000Y-150114000D03*
X122141000Y-151384000D03*
X122141000Y-152654000D03*
X122141000Y-153924000D03*
X127541000Y-153924000D03*
X127541000Y-152654000D03*
X127541000Y-151384000D03*
X127541000Y-150114000D03*
X127541000Y-148844000D03*
X127541000Y-147574000D03*
X127541000Y-146304000D03*
X127541000Y-145034000D03*
D15*
X132926000Y-80264000D03*
X130726000Y-80264000D03*
X132926000Y-82804000D03*
X130726000Y-82804000D03*
X132926000Y-85344000D03*
X130726000Y-85344000D03*
X132926000Y-87884000D03*
X130726000Y-87884000D03*
X132926000Y-90424000D03*
X130726000Y-90424000D03*
X132926000Y-92964000D03*
X130726000Y-92964000D03*
X132926000Y-95504000D03*
X130726000Y-95504000D03*
X132926000Y-98044000D03*
X130726000Y-98044000D03*
X132926000Y-100584000D03*
X130726000Y-100584000D03*
X132926000Y-103124000D03*
X130726000Y-103124000D03*
X132926000Y-105664000D03*
X130726000Y-105664000D03*
X132926000Y-108204000D03*
X130726000Y-108204000D03*
X132926000Y-110744000D03*
X130726000Y-110744000D03*
X132926000Y-113284000D03*
X130726000Y-113284000D03*
X132926000Y-115824000D03*
X130726000Y-115824000D03*
X132926000Y-118364000D03*
X130726000Y-118364000D03*
X132926000Y-120904000D03*
X130726000Y-120904000D03*
X132926000Y-123444000D03*
X130726000Y-123444000D03*
X132926000Y-125984000D03*
X130726000Y-125984000D03*
X132926000Y-128524000D03*
X130726000Y-128524000D03*
X132926000Y-131064000D03*
X130726000Y-131064000D03*
X132926000Y-133604000D03*
X130726000Y-133604000D03*
X132926000Y-136144000D03*
X130726000Y-136144000D03*
X132926000Y-138684000D03*
X130726000Y-138684000D03*
X132926000Y-141224000D03*
X130726000Y-141224000D03*
X132926000Y-143764000D03*
X130726000Y-143764000D03*
X132926000Y-146304000D03*
X130726000Y-146304000D03*
X132926000Y-148844000D03*
X130726000Y-148844000D03*
X132926000Y-151384000D03*
X130726000Y-151384000D03*
X132926000Y-153924000D03*
X130726000Y-153924000D03*
D20*
X173863000Y-72093000D03*
X173863000Y-69893000D03*
X133223000Y-72093000D03*
X133223000Y-69893000D03*
D21*
X183190000Y-69615000D03*
X183190000Y-68965000D03*
X183190000Y-68315000D03*
X183190000Y-67665000D03*
X183190000Y-67015000D03*
X183190000Y-66365000D03*
X183190000Y-65715000D03*
X183190000Y-65065000D03*
X183190000Y-64415000D03*
X183190000Y-63765000D03*
X183190000Y-63115000D03*
X183190000Y-62465000D03*
X177490000Y-62465000D03*
X177490000Y-63115000D03*
X177490000Y-63765000D03*
X177490000Y-64415000D03*
X177490000Y-65065000D03*
X177490000Y-65715000D03*
X177490000Y-66365000D03*
X177490000Y-67015000D03*
X177490000Y-67665000D03*
X177490000Y-68315000D03*
X177490000Y-68965000D03*
X177490000Y-69615000D03*
X142550000Y-69615000D03*
X142550000Y-68965000D03*
X142550000Y-68315000D03*
X142550000Y-67665000D03*
X142550000Y-67015000D03*
X142550000Y-66365000D03*
X142550000Y-65715000D03*
X142550000Y-65065000D03*
X142550000Y-64415000D03*
X142550000Y-63765000D03*
X142550000Y-63115000D03*
X142550000Y-62465000D03*
X136850000Y-62465000D03*
X136850000Y-63115000D03*
X136850000Y-63765000D03*
X136850000Y-64415000D03*
X136850000Y-65065000D03*
X136850000Y-65715000D03*
X136850000Y-66365000D03*
X136850000Y-67015000D03*
X136850000Y-67665000D03*
X136850000Y-68315000D03*
X136850000Y-68965000D03*
X136850000Y-69615000D03*
D22*
X143763000Y-82169000D03*
X143763000Y-83439000D03*
X143763000Y-84709000D03*
X143763000Y-85979000D03*
X143763000Y-87249000D03*
X143763000Y-88519000D03*
X143763000Y-89789000D03*
X143763000Y-91059000D03*
X143763000Y-92329000D03*
X143763000Y-93599000D03*
X143763000Y-94869000D03*
X143763000Y-96139000D03*
X153163000Y-96139000D03*
X153163000Y-94869000D03*
X153163000Y-93599000D03*
X153163000Y-92329000D03*
X153163000Y-91059000D03*
X153163000Y-89789000D03*
X153163000Y-88519000D03*
X153163000Y-87249000D03*
X153163000Y-85979000D03*
X153163000Y-84709000D03*
X153163000Y-83439000D03*
X153163000Y-82169000D03*
X143763000Y-122809000D03*
X143763000Y-124079000D03*
X143763000Y-125349000D03*
X143763000Y-126619000D03*
X143763000Y-127889000D03*
X143763000Y-129159000D03*
X143763000Y-130429000D03*
X143763000Y-131699000D03*
X143763000Y-132969000D03*
X143763000Y-134239000D03*
X143763000Y-135509000D03*
X143763000Y-136779000D03*
X153163000Y-136779000D03*
X153163000Y-135509000D03*
X153163000Y-134239000D03*
X153163000Y-132969000D03*
X153163000Y-131699000D03*
X153163000Y-130429000D03*
X153163000Y-129159000D03*
X153163000Y-127889000D03*
X153163000Y-126619000D03*
X153163000Y-125349000D03*
X153163000Y-124079000D03*
X153163000Y-122809000D03*
D23*
X199390000Y-58674000D03*
D24*
X196850000Y-58674000D03*
X194310000Y-58674000D03*
X191770000Y-58674000D03*
X189230000Y-58674000D03*
X186690000Y-58674000D03*
X184150000Y-58674000D03*
X181610000Y-58674000D03*
X179070000Y-58674000D03*
X176530000Y-58674000D03*
X173990000Y-58674000D03*
X171450000Y-58674000D03*
X168910000Y-58674000D03*
X166370000Y-58674000D03*
X163830000Y-58674000D03*
X161290000Y-58674000D03*
X158750000Y-58674000D03*
X156210000Y-58674000D03*
X153670000Y-58674000D03*
X151130000Y-58674000D03*
X148590000Y-58674000D03*
X146050000Y-58674000D03*
X143510000Y-58674000D03*
X140970000Y-58674000D03*
X138430000Y-58674000D03*
X135890000Y-58674000D03*
X133350000Y-58674000D03*
X130810000Y-58674000D03*
X128270000Y-58674000D03*
X125730000Y-58674000D03*
X123190000Y-58674000D03*
X120650000Y-58674000D03*
D25*
X191770000Y-96520000D03*
D26*
X191770000Y-99060000D03*
X191770000Y-101600000D03*
X191770000Y-104140000D03*
X191770000Y-106680000D03*
X191770000Y-109220000D03*
D25*
X168270000Y-85700000D03*
D26*
X165730000Y-85700000D03*
X163190000Y-85700000D03*
D25*
X191720000Y-119230000D03*
D26*
X191720000Y-116690000D03*
X191720000Y-114150000D03*
D27*
X172350000Y-118660000D03*
X177230000Y-118660000D03*
D28*
X176210000Y-112920000D03*
X180210000Y-112920000D03*
D25*
X191500000Y-82420000D03*
D26*
X191500000Y-84960000D03*
X191500000Y-87500000D03*
X191500000Y-90040000D03*
D29*
X184500000Y-115000000D03*
X175050000Y-107060000D03*
X170370000Y-103870000D03*
X184500000Y-121500000D03*
X154813000Y-118745000D03*
X134620000Y-74041000D03*
X147320000Y-116967000D03*
X140335000Y-76581000D03*
X178689000Y-75692000D03*
X156210000Y-80645000D03*
X161417000Y-80645000D03*
X142367000Y-71628000D03*
X183007000Y-71628000D03*
X145669000Y-96139000D03*
X145669000Y-136779000D03*
X172130000Y-106000000D03*
X156464000Y-149733000D03*
X187700000Y-131318000D03*
X158242000Y-132715000D03*
X167767000Y-77724000D03*
X137033000Y-71628000D03*
X177673000Y-71628000D03*
X147828000Y-82169000D03*
X151257000Y-122809000D03*
X126111000Y-142875000D03*
X126111000Y-145034000D03*
X126111000Y-124841000D03*
X126111000Y-122555000D03*
X126111000Y-104394000D03*
X126111000Y-102235000D03*
X126111000Y-84074000D03*
X126111000Y-81915000D03*
X171430000Y-78994000D03*
X171577000Y-77978000D03*
X174740000Y-76962000D03*
X164465000Y-67691000D03*
X158115000Y-78994000D03*
X161163000Y-106426000D03*
X160020000Y-108480000D03*
X159766000Y-130429000D03*
X160020000Y-114935000D03*
X162306000Y-104990000D03*
X162052000Y-127889000D03*
X162306000Y-117094000D03*
X163449000Y-104470000D03*
X163195000Y-126619000D03*
X163449000Y-117856000D03*
X164592000Y-103750000D03*
X164338000Y-125349000D03*
X164592000Y-118618000D03*
X165735000Y-102830000D03*
X174400000Y-112910000D03*
X168390000Y-110760000D03*
X166860000Y-121470000D03*
X166600000Y-108800000D03*
X171406090Y-91550000D03*
X172206090Y-89750000D03*
X178540000Y-99960000D03*
X175270000Y-99630000D03*
X180520000Y-102560000D03*
X179770000Y-103570000D03*
X181440000Y-105210000D03*
X112014000Y-74549000D03*
X112014000Y-79629000D03*
X112014000Y-84709000D03*
X112014000Y-89789000D03*
X112014000Y-94869000D03*
X112014000Y-99949000D03*
X112014000Y-105029000D03*
X112014000Y-110109000D03*
X112014000Y-115189000D03*
X112014000Y-120269000D03*
X112014000Y-125349000D03*
X112014000Y-130429000D03*
X112014000Y-135509000D03*
X112014000Y-140589000D03*
X112014000Y-145669000D03*
X112014000Y-150749000D03*
X161671000Y-69850000D03*
X165735000Y-68580000D03*
X112014000Y-77089000D03*
X112014000Y-82169000D03*
X112014000Y-87249000D03*
X112014000Y-92329000D03*
X112014000Y-97409000D03*
X112014000Y-102489000D03*
X112014000Y-107569000D03*
X112014000Y-112649000D03*
X112014000Y-117729000D03*
X112014000Y-122809000D03*
X112014000Y-127889000D03*
X112014000Y-132969000D03*
X112014000Y-138049000D03*
X112014000Y-143129000D03*
X112014000Y-148209000D03*
X112014000Y-153289000D03*
X175226381Y-111203619D03*
X172980000Y-112950000D03*
X186270000Y-114400000D03*
X186830000Y-113650000D03*
X188050000Y-112290000D03*
X172960000Y-103280000D03*
X178710000Y-104340000D03*
D30*
X201000000Y-133000000D02*
X195190000Y-138810000D01*
X195190000Y-138810000D02*
X169430000Y-138810000D01*
X201000000Y-87000000D02*
X201000000Y-133000000D01*
X196420000Y-82420000D02*
X201000000Y-87000000D01*
X191500000Y-82420000D02*
X196420000Y-82420000D01*
X193340000Y-122460000D02*
X185460000Y-122460000D01*
X185460000Y-122460000D02*
X184500000Y-121500000D01*
X197590000Y-118210000D02*
X193340000Y-122460000D01*
X197590000Y-101109000D02*
X197590000Y-118210000D01*
X191770000Y-96520000D02*
X193001000Y-96520000D01*
X193001000Y-96520000D02*
X197590000Y-101109000D01*
X173550000Y-107190000D02*
X174920000Y-107190000D01*
X174920000Y-107190000D02*
X175050000Y-107060000D01*
X170370000Y-103870000D02*
X171860000Y-103870000D01*
X171860000Y-103870000D02*
X175050000Y-107060000D01*
X184500000Y-115500000D02*
X184500000Y-115000000D01*
X184500000Y-121500000D02*
X184500000Y-115500000D01*
X134620000Y-74041000D02*
X133223000Y-72644000D01*
X133223000Y-72644000D02*
X133223000Y-72093000D01*
X147320000Y-116967000D02*
X148590000Y-118237000D01*
X150053000Y-117645000D02*
X149182000Y-117645000D01*
X149182000Y-117645000D02*
X148590000Y-118237000D01*
X148082000Y-136779000D02*
X145669000Y-136779000D01*
X148590000Y-136271000D02*
X148082000Y-136779000D01*
X148590000Y-118237000D02*
X148590000Y-136271000D01*
X133223000Y-72093000D02*
X134577000Y-72093000D01*
X139065000Y-76581000D02*
X140335000Y-76581000D01*
X134577000Y-72093000D02*
X139065000Y-76581000D01*
X173863000Y-72093000D02*
X175090000Y-72093000D01*
X175090000Y-72093000D02*
X178689000Y-75692000D01*
X161417000Y-80645000D02*
X156210000Y-80645000D01*
X142550000Y-69615000D02*
X142550000Y-71445000D01*
X142550000Y-71445000D02*
X142367000Y-71628000D01*
X183190000Y-69615000D02*
X183190000Y-71445000D01*
X183190000Y-71445000D02*
X183007000Y-71628000D01*
X143763000Y-96139000D02*
X145669000Y-96139000D01*
X145669000Y-136779000D02*
X143763000Y-136779000D01*
D31*
X199500000Y-89000000D02*
X199500000Y-119518000D01*
X199500000Y-119518000D02*
X187700000Y-131318000D01*
X195460000Y-84960000D02*
X199500000Y-89000000D01*
X191500000Y-84960000D02*
X195460000Y-84960000D01*
D30*
X161163000Y-132715000D02*
X164125000Y-132715000D01*
X164125000Y-132715000D02*
X166670000Y-130170000D01*
X166670000Y-130170000D02*
X186552000Y-130170000D01*
X186552000Y-130170000D02*
X187700000Y-131318000D01*
X153163000Y-82169000D02*
X159420000Y-82169000D01*
X160861081Y-82169000D02*
X159420000Y-82169000D01*
X159420000Y-82169000D02*
X163322000Y-82169000D01*
X163190000Y-85700000D02*
X163190000Y-84497919D01*
X163190000Y-84497919D02*
X160861081Y-82169000D01*
X171050000Y-107190000D02*
X171050000Y-107080000D01*
X171050000Y-107080000D02*
X172130000Y-106000000D01*
X161163000Y-148971000D02*
X161163000Y-132715000D01*
X160401000Y-149733000D02*
X161163000Y-148971000D01*
X156464000Y-149733000D02*
X160401000Y-149733000D01*
X158242000Y-132715000D02*
X161163000Y-132715000D01*
X151953000Y-119845000D02*
X152865000Y-119845000D01*
X153163000Y-120143000D02*
X153163000Y-122809000D01*
X152865000Y-119845000D02*
X153163000Y-120143000D01*
X163322000Y-82169000D02*
X167767000Y-77724000D01*
X153163000Y-82169000D02*
X153163000Y-78487000D01*
X140462000Y-75057000D02*
X137033000Y-71628000D01*
X149733000Y-75057000D02*
X140462000Y-75057000D01*
X153163000Y-78487000D02*
X149733000Y-75057000D01*
X136850000Y-69615000D02*
X136850000Y-71445000D01*
X136850000Y-71445000D02*
X137033000Y-71628000D01*
X177490000Y-69615000D02*
X177490000Y-71445000D01*
X177490000Y-71445000D02*
X177673000Y-71628000D01*
X147828000Y-82169000D02*
X153163000Y-82169000D01*
X153163000Y-122809000D02*
X151257000Y-122809000D01*
X119540000Y-142494000D02*
X125730000Y-142494000D01*
X125730000Y-142494000D02*
X126111000Y-142875000D01*
X119540000Y-122174000D02*
X125730000Y-122174000D01*
X126111000Y-124841000D02*
X126111000Y-124714000D01*
X125730000Y-122174000D02*
X126111000Y-122555000D01*
X126111000Y-132334000D02*
X125603000Y-132842000D01*
X125095000Y-134874000D02*
X119540000Y-134874000D01*
X125603000Y-134366000D02*
X125095000Y-134874000D01*
X125603000Y-132842000D02*
X125603000Y-134366000D01*
X126111000Y-112014000D02*
X125603000Y-112522000D01*
X125095000Y-114554000D02*
X119540000Y-114554000D01*
X125603000Y-114046000D02*
X125095000Y-114554000D01*
X125603000Y-112522000D02*
X125603000Y-114046000D01*
X119540000Y-101854000D02*
X125730000Y-101854000D01*
X125730000Y-101854000D02*
X126111000Y-102235000D01*
X126111000Y-91694000D02*
X125603000Y-92202000D01*
X125095000Y-94234000D02*
X119540000Y-94234000D01*
X125603000Y-93726000D02*
X125095000Y-94234000D01*
X125603000Y-92202000D02*
X125603000Y-93726000D01*
X126111000Y-150114000D02*
X125603000Y-150622000D01*
X126111000Y-152654000D02*
X127541000Y-152654000D01*
X125603000Y-152146000D02*
X126111000Y-152654000D01*
X125603000Y-150622000D02*
X125603000Y-152146000D01*
X126111000Y-147574000D02*
X125603000Y-148082000D01*
X126111000Y-150114000D02*
X127541000Y-150114000D01*
X125603000Y-149606000D02*
X126111000Y-150114000D01*
X125603000Y-148082000D02*
X125603000Y-149606000D01*
X127541000Y-145034000D02*
X126111000Y-145034000D01*
X126111000Y-147574000D02*
X127541000Y-147574000D01*
X125603000Y-147066000D02*
X126111000Y-147574000D01*
X125603000Y-145542000D02*
X125603000Y-147066000D01*
X126111000Y-145034000D02*
X125603000Y-145542000D01*
X118110000Y-134874000D02*
X117602000Y-135382000D01*
X119540000Y-134874000D02*
X118110000Y-134874000D01*
X117602000Y-136906000D02*
X118110000Y-137414000D01*
X117602000Y-135382000D02*
X117602000Y-136906000D01*
X118110000Y-137414000D02*
X119540000Y-137414000D01*
X117602000Y-137922000D02*
X117602000Y-139446000D01*
X117602000Y-139446000D02*
X118110000Y-139954000D01*
X118110000Y-139954000D02*
X119540000Y-139954000D01*
X118110000Y-137414000D02*
X117602000Y-137922000D01*
X117602000Y-140462000D02*
X117602000Y-141986000D01*
X117602000Y-141986000D02*
X118110000Y-142494000D01*
X118110000Y-142494000D02*
X119540000Y-142494000D01*
X118110000Y-139954000D02*
X117602000Y-140462000D01*
X126111000Y-129794000D02*
X125603000Y-130302000D01*
X126111000Y-132334000D02*
X127541000Y-132334000D01*
X125603000Y-131826000D02*
X126111000Y-132334000D01*
X125603000Y-130302000D02*
X125603000Y-131826000D01*
X126111000Y-127254000D02*
X125603000Y-127762000D01*
X126111000Y-129794000D02*
X127541000Y-129794000D01*
X125603000Y-129286000D02*
X126111000Y-129794000D01*
X125603000Y-127762000D02*
X125603000Y-129286000D01*
X127541000Y-124714000D02*
X126111000Y-124714000D01*
X126111000Y-127254000D02*
X127541000Y-127254000D01*
X125603000Y-126746000D02*
X126111000Y-127254000D01*
X125603000Y-125222000D02*
X125603000Y-126746000D01*
X126111000Y-124714000D02*
X125603000Y-125222000D01*
X118110000Y-114554000D02*
X117602000Y-115062000D01*
X119540000Y-114554000D02*
X118110000Y-114554000D01*
X117602000Y-116586000D02*
X118110000Y-117094000D01*
X117602000Y-115062000D02*
X117602000Y-116586000D01*
X118110000Y-117094000D02*
X119540000Y-117094000D01*
X117602000Y-117602000D02*
X117602000Y-119126000D01*
X117602000Y-119126000D02*
X118110000Y-119634000D01*
X118110000Y-119634000D02*
X119540000Y-119634000D01*
X118110000Y-117094000D02*
X117602000Y-117602000D01*
X117602000Y-120142000D02*
X117602000Y-121666000D01*
X117602000Y-121666000D02*
X118110000Y-122174000D01*
X118110000Y-122174000D02*
X119540000Y-122174000D01*
X118110000Y-119634000D02*
X117602000Y-120142000D01*
X126111000Y-109474000D02*
X125603000Y-109982000D01*
X126111000Y-112014000D02*
X127541000Y-112014000D01*
X125603000Y-111506000D02*
X126111000Y-112014000D01*
X125603000Y-109982000D02*
X125603000Y-111506000D01*
X126111000Y-106934000D02*
X125603000Y-107442000D01*
X126111000Y-109474000D02*
X127541000Y-109474000D01*
X125603000Y-108966000D02*
X126111000Y-109474000D01*
X125603000Y-107442000D02*
X125603000Y-108966000D01*
X127541000Y-104394000D02*
X126111000Y-104394000D01*
X126111000Y-106934000D02*
X127541000Y-106934000D01*
X125603000Y-106426000D02*
X126111000Y-106934000D01*
X126111000Y-104394000D02*
X125603000Y-104902000D01*
X125603000Y-104902000D02*
X125603000Y-106426000D01*
X118110000Y-94234000D02*
X117602000Y-94742000D01*
X119540000Y-94234000D02*
X118110000Y-94234000D01*
X117602000Y-96266000D02*
X118110000Y-96774000D01*
X117602000Y-94742000D02*
X117602000Y-96266000D01*
X118110000Y-96774000D02*
X119540000Y-96774000D01*
X117602000Y-97282000D02*
X117602000Y-98806000D01*
X117602000Y-98806000D02*
X118110000Y-99314000D01*
X118110000Y-99314000D02*
X119540000Y-99314000D01*
X118110000Y-96774000D02*
X117602000Y-97282000D01*
X117602000Y-99822000D02*
X117602000Y-101346000D01*
X117602000Y-101346000D02*
X118110000Y-101854000D01*
X118110000Y-101854000D02*
X119540000Y-101854000D01*
X118110000Y-99314000D02*
X117602000Y-99822000D01*
X119540000Y-81534000D02*
X125730000Y-81534000D01*
X126111000Y-81915000D02*
X125730000Y-81534000D01*
X126111000Y-84074000D02*
X125603000Y-84582000D01*
X125603000Y-86106000D02*
X126111000Y-86614000D01*
X125603000Y-84582000D02*
X125603000Y-86106000D01*
X126111000Y-86614000D02*
X127541000Y-86614000D01*
X127541000Y-84074000D02*
X126111000Y-84074000D01*
X125603000Y-87122000D02*
X125603000Y-88646000D01*
X125603000Y-88646000D02*
X126111000Y-89154000D01*
X126111000Y-89154000D02*
X127541000Y-89154000D01*
X126111000Y-86614000D02*
X125603000Y-87122000D01*
X125603000Y-89662000D02*
X125603000Y-91186000D01*
X125603000Y-91186000D02*
X126111000Y-91694000D01*
X126111000Y-91694000D02*
X127541000Y-91694000D01*
X126111000Y-89154000D02*
X125603000Y-89662000D01*
X118110000Y-78994000D02*
X117602000Y-79502000D01*
X118110000Y-81534000D02*
X119540000Y-81534000D01*
X117602000Y-81026000D02*
X118110000Y-81534000D01*
X117602000Y-79502000D02*
X117602000Y-81026000D01*
X118110000Y-76454000D02*
X117602000Y-76962000D01*
X118110000Y-78994000D02*
X119540000Y-78994000D01*
X117602000Y-78486000D02*
X118110000Y-78994000D01*
X117602000Y-76962000D02*
X117602000Y-78486000D01*
X119540000Y-73914000D02*
X118110000Y-73914000D01*
X118110000Y-76454000D02*
X119540000Y-76454000D01*
X117602000Y-75946000D02*
X118110000Y-76454000D01*
X117602000Y-74422000D02*
X117602000Y-75946000D01*
X118110000Y-73914000D02*
X117602000Y-74422000D01*
X180975000Y-78994000D02*
X171430000Y-78994000D01*
X181610000Y-78232000D02*
X181610000Y-78359000D01*
X181987000Y-68965000D02*
X181610000Y-69342000D01*
X181610000Y-69342000D02*
X181610000Y-78232000D01*
X181987000Y-68965000D02*
X183190000Y-68965000D01*
X181610000Y-78359000D02*
X180975000Y-78994000D01*
X183190000Y-68315000D02*
X181621000Y-68315000D01*
X180467000Y-77978000D02*
X171577000Y-77978000D01*
X180848000Y-77597000D02*
X180467000Y-77978000D01*
X180848000Y-69088000D02*
X180848000Y-77597000D01*
X181621000Y-68315000D02*
X180848000Y-69088000D01*
X161914000Y-68315000D02*
X161428000Y-68315000D01*
X171577000Y-77978000D02*
X161914000Y-68315000D01*
X142550000Y-68315000D02*
X161417000Y-68315000D01*
X179832000Y-76962000D02*
X174740000Y-76962000D01*
X174740000Y-76962000D02*
X173720000Y-76962000D01*
X173720000Y-76962000D02*
X172339000Y-76962000D01*
X183190000Y-67665000D02*
X181382000Y-67665000D01*
X180086000Y-76708000D02*
X179832000Y-76962000D01*
X180086000Y-68961000D02*
X180086000Y-76708000D01*
X181382000Y-67665000D02*
X180086000Y-68961000D01*
X170307000Y-74930000D02*
X163042000Y-67665000D01*
X142550000Y-67665000D02*
X163042000Y-67665000D01*
X172339000Y-76962000D02*
X170307000Y-74930000D01*
X152654000Y-72771000D02*
X139954000Y-72771000D01*
X139446000Y-72263000D02*
X139446000Y-70612000D01*
X139954000Y-72771000D02*
X139446000Y-72263000D01*
X164465000Y-67691000D02*
X164491000Y-67665000D01*
X164491000Y-67665000D02*
X177490000Y-67665000D01*
X136850000Y-67665000D02*
X138531000Y-67665000D01*
X138531000Y-67665000D02*
X139446000Y-68580000D01*
X139446000Y-68580000D02*
X139446000Y-70612000D01*
X158115000Y-78232000D02*
X152654000Y-72771000D01*
X158115000Y-78994000D02*
X158115000Y-78232000D01*
X161163000Y-106426000D02*
X161163000Y-115570000D01*
X158623000Y-116078000D02*
X160655000Y-116078000D01*
X151003000Y-116459000D02*
X151384000Y-116078000D01*
X151384000Y-116078000D02*
X158623000Y-116078000D01*
X151003000Y-117645000D02*
X151003000Y-116459000D01*
X160655000Y-116078000D02*
X161163000Y-115570000D01*
X161163000Y-106426000D02*
X161163000Y-94742000D01*
X153163000Y-88519000D02*
X154940000Y-88519000D01*
X161163000Y-94742000D02*
X154940000Y-88519000D01*
X160020000Y-114935000D02*
X160020000Y-108480000D01*
X160020000Y-108480000D02*
X160020000Y-106426000D01*
X153163000Y-130429000D02*
X159766000Y-130429000D01*
X160020000Y-106426000D02*
X160020000Y-94869000D01*
X153163000Y-89789000D02*
X154940000Y-89789000D01*
X160020000Y-94869000D02*
X154940000Y-89789000D01*
X162306000Y-106426000D02*
X162306000Y-104990000D01*
X162306000Y-104990000D02*
X162306000Y-94615000D01*
X153163000Y-127889000D02*
X162052000Y-127889000D01*
X162306000Y-117094000D02*
X162306000Y-106426000D01*
X162306000Y-94615000D02*
X161544000Y-93853000D01*
X153163000Y-87249000D02*
X154940000Y-87249000D01*
X154940000Y-87249000D02*
X161544000Y-93853000D01*
X163449000Y-106426000D02*
X163449000Y-104470000D01*
X163449000Y-104470000D02*
X163449000Y-94488000D01*
X163449000Y-106426000D02*
X163449000Y-117856000D01*
X163195000Y-126619000D02*
X153163000Y-126619000D01*
X163449000Y-94488000D02*
X162687000Y-93726000D01*
X153163000Y-85979000D02*
X154940000Y-85979000D01*
X154940000Y-85979000D02*
X162687000Y-93726000D01*
X164592000Y-106426000D02*
X164592000Y-103750000D01*
X164592000Y-103750000D02*
X164592000Y-94361000D01*
X153163000Y-125349000D02*
X164338000Y-125349000D01*
X164592000Y-118618000D02*
X164592000Y-106426000D01*
X154940000Y-84709000D02*
X164338000Y-94107000D01*
X153163000Y-84709000D02*
X154940000Y-84709000D01*
X164592000Y-94361000D02*
X164338000Y-94107000D01*
X165735000Y-106426000D02*
X165735000Y-102830000D01*
X165735000Y-102830000D02*
X165735000Y-94234000D01*
X165735000Y-106426000D02*
X165735000Y-122936000D01*
X164592000Y-124079000D02*
X153163000Y-124079000D01*
X165735000Y-122936000D02*
X164592000Y-124079000D01*
X165735000Y-94234000D02*
X164719000Y-93218000D01*
X154940000Y-83439000D02*
X153163000Y-83439000D01*
X154940000Y-83439000D02*
X164719000Y-93218000D01*
X174400000Y-112910000D02*
X176200000Y-112910000D01*
X176200000Y-112910000D02*
X176210000Y-112920000D01*
X169750000Y-123240000D02*
X175000000Y-123240000D01*
X175000000Y-123240000D02*
X177230000Y-125470000D01*
X168009001Y-121499001D02*
X169750000Y-123240000D01*
X168390000Y-110760000D02*
X168009001Y-111140999D01*
X168009001Y-111140999D02*
X168009001Y-121499001D01*
X166800000Y-114270000D02*
X166800000Y-121410000D01*
X166800000Y-121410000D02*
X166860000Y-121470000D01*
X166800000Y-114270000D02*
X166800000Y-109000000D01*
X166800000Y-109000000D02*
X166600000Y-108800000D01*
X190333160Y-90170000D02*
X191370000Y-90170000D01*
X191370000Y-90170000D02*
X191500000Y-90040000D01*
X171406090Y-91550000D02*
X171787089Y-91169001D01*
X171787089Y-91169001D02*
X189334159Y-91169001D01*
X189334159Y-91169001D02*
X190333160Y-90170000D01*
X172206090Y-89750000D02*
X174456090Y-87500000D01*
X174456090Y-87500000D02*
X191500000Y-87500000D01*
X187706000Y-101600000D02*
X180180000Y-101600000D01*
X180180000Y-101600000D02*
X178540000Y-99960000D01*
X187706000Y-101600000D02*
X191770000Y-101600000D01*
X191770000Y-99060000D02*
X175840000Y-99060000D01*
X175840000Y-99060000D02*
X175270000Y-99630000D01*
X180520000Y-102560000D02*
X187180000Y-109220000D01*
X187180000Y-109220000D02*
X191770000Y-109220000D01*
X181440000Y-105210000D02*
X181410000Y-105210000D01*
X181410000Y-105210000D02*
X179770000Y-103570000D01*
X104648000Y-74549000D02*
X112014000Y-74549000D01*
X114140000Y-75184000D02*
X112649000Y-75184000D01*
X112649000Y-75184000D02*
X112014000Y-74549000D01*
X112649000Y-73914000D02*
X114140000Y-73914000D01*
X112014000Y-74549000D02*
X112649000Y-73914000D01*
X104648000Y-79629000D02*
X112014000Y-79629000D01*
X114140000Y-80264000D02*
X112649000Y-80264000D01*
X112649000Y-80264000D02*
X112014000Y-79629000D01*
X112649000Y-78994000D02*
X114140000Y-78994000D01*
X112014000Y-79629000D02*
X112649000Y-78994000D01*
X122141000Y-85344000D02*
X112649000Y-85344000D01*
X112649000Y-85344000D02*
X112014000Y-84709000D01*
X122141000Y-84074000D02*
X112649000Y-84074000D01*
X112649000Y-84074000D02*
X112014000Y-84709000D01*
X104648000Y-84709000D02*
X112014000Y-84709000D01*
X122141000Y-90424000D02*
X114140000Y-90424000D01*
X114140000Y-90424000D02*
X112649000Y-90424000D01*
X112649000Y-90424000D02*
X112014000Y-89789000D01*
X122141000Y-89154000D02*
X114140000Y-89154000D01*
X112649000Y-89154000D02*
X114140000Y-89154000D01*
X112649000Y-89154000D02*
X112014000Y-89789000D01*
X104648000Y-89789000D02*
X112014000Y-89789000D01*
X114140000Y-94234000D02*
X112649000Y-94234000D01*
X112649000Y-94234000D02*
X112014000Y-94869000D01*
X112649000Y-95504000D02*
X112014000Y-94869000D01*
X114140000Y-95504000D02*
X112649000Y-95504000D01*
X104648000Y-94869000D02*
X112014000Y-94869000D01*
X112014000Y-99949000D02*
X112649000Y-99314000D01*
X112649000Y-99314000D02*
X114140000Y-99314000D01*
X112649000Y-100584000D02*
X112014000Y-99949000D01*
X114140000Y-100584000D02*
X112649000Y-100584000D01*
X104648000Y-99949000D02*
X112014000Y-99949000D01*
X104648000Y-105029000D02*
X112014000Y-105029000D01*
X112649000Y-104394000D02*
X112014000Y-105029000D01*
X122141000Y-104394000D02*
X112649000Y-104394000D01*
X112649000Y-105664000D02*
X112014000Y-105029000D01*
X122141000Y-105664000D02*
X112649000Y-105664000D01*
X104648000Y-110109000D02*
X112014000Y-110109000D01*
X112649000Y-109474000D02*
X112014000Y-110109000D01*
X112649000Y-109474000D02*
X114140000Y-109474000D01*
X122141000Y-109474000D02*
X114140000Y-109474000D01*
X112649000Y-110744000D02*
X112014000Y-110109000D01*
X114140000Y-110744000D02*
X112649000Y-110744000D01*
X122141000Y-110744000D02*
X114140000Y-110744000D01*
X114140000Y-114554000D02*
X112649000Y-114554000D01*
X112649000Y-114554000D02*
X112014000Y-115189000D01*
X112649000Y-115824000D02*
X112014000Y-115189000D01*
X114140000Y-115824000D02*
X112649000Y-115824000D01*
X104648000Y-115189000D02*
X112014000Y-115189000D01*
X112014000Y-120269000D02*
X112649000Y-119634000D01*
X112649000Y-119634000D02*
X114140000Y-119634000D01*
X112649000Y-120904000D02*
X112014000Y-120269000D01*
X114140000Y-120904000D02*
X112649000Y-120904000D01*
X104648000Y-120269000D02*
X112014000Y-120269000D01*
X104648000Y-125349000D02*
X112014000Y-125349000D01*
X112649000Y-124714000D02*
X112014000Y-125349000D01*
X122141000Y-124714000D02*
X112649000Y-124714000D01*
X112649000Y-125984000D02*
X112014000Y-125349000D01*
X122141000Y-125984000D02*
X112649000Y-125984000D01*
X104648000Y-130429000D02*
X112014000Y-130429000D01*
X112649000Y-129794000D02*
X112014000Y-130429000D01*
X112649000Y-129794000D02*
X114140000Y-129794000D01*
X122141000Y-129794000D02*
X114140000Y-129794000D01*
X112649000Y-131064000D02*
X112014000Y-130429000D01*
X114140000Y-131064000D02*
X112649000Y-131064000D01*
X122141000Y-131064000D02*
X114140000Y-131064000D01*
X114140000Y-134874000D02*
X112649000Y-134874000D01*
X112649000Y-134874000D02*
X112014000Y-135509000D01*
X104648000Y-135509000D02*
X112014000Y-135509000D01*
X114140000Y-136144000D02*
X112649000Y-136144000D01*
X112649000Y-136144000D02*
X112014000Y-135509000D01*
X104648000Y-140589000D02*
X112014000Y-140589000D01*
X114140000Y-141224000D02*
X112649000Y-141224000D01*
X112649000Y-141224000D02*
X112014000Y-140589000D01*
X112649000Y-139954000D02*
X114140000Y-139954000D01*
X112014000Y-140589000D02*
X112649000Y-139954000D01*
X122141000Y-146304000D02*
X112649000Y-146304000D01*
X112649000Y-146304000D02*
X112014000Y-145669000D01*
X122141000Y-145034000D02*
X112649000Y-145034000D01*
X112649000Y-145034000D02*
X112014000Y-145669000D01*
X104648000Y-145669000D02*
X112014000Y-145669000D01*
X122141000Y-151384000D02*
X114140000Y-151384000D01*
X114140000Y-151384000D02*
X112649000Y-151384000D01*
X112649000Y-151384000D02*
X112014000Y-150749000D01*
X122141000Y-150114000D02*
X114140000Y-150114000D01*
X112649000Y-150114000D02*
X114140000Y-150114000D01*
X112649000Y-150114000D02*
X112014000Y-150749000D01*
X104648000Y-150749000D02*
X112014000Y-150749000D01*
X195113000Y-67015000D02*
X199390000Y-62738000D01*
X199390000Y-62738000D02*
X199390000Y-58674000D01*
X183190000Y-67015000D02*
X195113000Y-67015000D01*
X193223000Y-66365000D02*
X196850000Y-62738000D01*
X196850000Y-62738000D02*
X196850000Y-58674000D01*
X183190000Y-66365000D02*
X193223000Y-66365000D01*
X191333000Y-65715000D02*
X194310000Y-62738000D01*
X194310000Y-62738000D02*
X194310000Y-58674000D01*
X183190000Y-65715000D02*
X191333000Y-65715000D01*
X189443000Y-65065000D02*
X191770000Y-62738000D01*
X191770000Y-62738000D02*
X191770000Y-58674000D01*
X183190000Y-65065000D02*
X189443000Y-65065000D01*
X187553000Y-64415000D02*
X189230000Y-62738000D01*
X189230000Y-62738000D02*
X189230000Y-58674000D01*
X183190000Y-64415000D02*
X187553000Y-64415000D01*
X185663000Y-63765000D02*
X186690000Y-62738000D01*
X186690000Y-62738000D02*
X186690000Y-58674000D01*
X183190000Y-63765000D02*
X185663000Y-63765000D01*
X184535000Y-63115000D02*
X184912000Y-62738000D01*
X184912000Y-62738000D02*
X184912000Y-61976000D01*
X184912000Y-61976000D02*
X184150000Y-61214000D01*
X184150000Y-61214000D02*
X184150000Y-58674000D01*
X183190000Y-63115000D02*
X184535000Y-63115000D01*
X182099000Y-62465000D02*
X181610000Y-61976000D01*
X181610000Y-61976000D02*
X181610000Y-58674000D01*
X183190000Y-62465000D02*
X182099000Y-62465000D01*
X178581000Y-62465000D02*
X179070000Y-61976000D01*
X179070000Y-61976000D02*
X179070000Y-58674000D01*
X177490000Y-62465000D02*
X178581000Y-62465000D01*
X176145000Y-63115000D02*
X175768000Y-62738000D01*
X175768000Y-62738000D02*
X175768000Y-61976000D01*
X175768000Y-61976000D02*
X176530000Y-61214000D01*
X176530000Y-61214000D02*
X176530000Y-58674000D01*
X177490000Y-63115000D02*
X176145000Y-63115000D01*
X175017000Y-63765000D02*
X173990000Y-62738000D01*
X173990000Y-62738000D02*
X173990000Y-58674000D01*
X177490000Y-63765000D02*
X175017000Y-63765000D01*
X173127000Y-64415000D02*
X171450000Y-62738000D01*
X171450000Y-62738000D02*
X171450000Y-58674000D01*
X177490000Y-64415000D02*
X173127000Y-64415000D01*
X171237000Y-65065000D02*
X168910000Y-62738000D01*
X168910000Y-62738000D02*
X168910000Y-58674000D01*
X177490000Y-65065000D02*
X171237000Y-65065000D01*
X169347000Y-65715000D02*
X166370000Y-62738000D01*
X166370000Y-62738000D02*
X166370000Y-58674000D01*
X177490000Y-65715000D02*
X169347000Y-65715000D01*
X167330000Y-66365000D02*
X163830000Y-62865000D01*
X163830000Y-62865000D02*
X163830000Y-58674000D01*
X177490000Y-66365000D02*
X167330000Y-66365000D01*
X165313000Y-67015000D02*
X161290000Y-62992000D01*
X161290000Y-62992000D02*
X161290000Y-58674000D01*
X177490000Y-67015000D02*
X165313000Y-67015000D01*
X142550000Y-67015000D02*
X154473000Y-67015000D01*
X158750000Y-62738000D02*
X158750000Y-58674000D01*
X154473000Y-67015000D02*
X158750000Y-62738000D01*
X142550000Y-66365000D02*
X152583000Y-66365000D01*
X156210000Y-62738000D02*
X156210000Y-58674000D01*
X152583000Y-66365000D02*
X156210000Y-62738000D01*
X142550000Y-65715000D02*
X150693000Y-65715000D01*
X153670000Y-62738000D02*
X153670000Y-58674000D01*
X150693000Y-65715000D02*
X153670000Y-62738000D01*
X142550000Y-65065000D02*
X148803000Y-65065000D01*
X151130000Y-62738000D02*
X151130000Y-58674000D01*
X148803000Y-65065000D02*
X151130000Y-62738000D01*
X142550000Y-64415000D02*
X146913000Y-64415000D01*
X148590000Y-62738000D02*
X148590000Y-58674000D01*
X146913000Y-64415000D02*
X148590000Y-62738000D01*
X142550000Y-63765000D02*
X145023000Y-63765000D01*
X146050000Y-62738000D02*
X146050000Y-58674000D01*
X145023000Y-63765000D02*
X146050000Y-62738000D01*
X142550000Y-63115000D02*
X143895000Y-63115000D01*
X143510000Y-61214000D02*
X143510000Y-58674000D01*
X144272000Y-61976000D02*
X143510000Y-61214000D01*
X144272000Y-62738000D02*
X144272000Y-61976000D01*
X143895000Y-63115000D02*
X144272000Y-62738000D01*
X142550000Y-62465000D02*
X141459000Y-62465000D01*
X140970000Y-61976000D02*
X140970000Y-58674000D01*
X141459000Y-62465000D02*
X140970000Y-61976000D01*
X136850000Y-62465000D02*
X137941000Y-62465000D01*
X138430000Y-61976000D02*
X138430000Y-58674000D01*
X137941000Y-62465000D02*
X138430000Y-61976000D01*
X136850000Y-63115000D02*
X135505000Y-63115000D01*
X135890000Y-61214000D02*
X135890000Y-58674000D01*
X135128000Y-61976000D02*
X135890000Y-61214000D01*
X135128000Y-62738000D02*
X135128000Y-61976000D01*
X135505000Y-63115000D02*
X135128000Y-62738000D01*
X136850000Y-63765000D02*
X134377000Y-63765000D01*
X133350000Y-62738000D02*
X133350000Y-58674000D01*
X134377000Y-63765000D02*
X133350000Y-62738000D01*
X136850000Y-64415000D02*
X132487000Y-64415000D01*
X130810000Y-62738000D02*
X130810000Y-58674000D01*
X132487000Y-64415000D02*
X130810000Y-62738000D01*
X136850000Y-65065000D02*
X130597000Y-65065000D01*
X128270000Y-62738000D02*
X128270000Y-58674000D01*
X130597000Y-65065000D02*
X128270000Y-62738000D01*
X136850000Y-65715000D02*
X128707000Y-65715000D01*
X125730000Y-62738000D02*
X125730000Y-58674000D01*
X128707000Y-65715000D02*
X125730000Y-62738000D01*
X136850000Y-66365000D02*
X126690000Y-66365000D01*
X123190000Y-62865000D02*
X123190000Y-58674000D01*
X126690000Y-66365000D02*
X123190000Y-62865000D01*
X136850000Y-67015000D02*
X124673000Y-67015000D01*
X120650000Y-62992000D02*
X120650000Y-58674000D01*
X124673000Y-67015000D02*
X120650000Y-62992000D01*
X119540000Y-82804000D02*
X130726000Y-82804000D01*
X119540000Y-80264000D02*
X130726000Y-80264000D01*
X119540000Y-77724000D02*
X130726000Y-77724000D01*
X119540000Y-75184000D02*
X130726000Y-75184000D01*
X127541000Y-92964000D02*
X130726000Y-92964000D01*
X130726000Y-90424000D02*
X127541000Y-90424000D01*
X127541000Y-87884000D02*
X130726000Y-87884000D01*
X130726000Y-85344000D02*
X127541000Y-85344000D01*
X119540000Y-103124000D02*
X130726000Y-103124000D01*
X119540000Y-100584000D02*
X130726000Y-100584000D01*
X130726000Y-98044000D02*
X119540000Y-98044000D01*
X119540000Y-95504000D02*
X130726000Y-95504000D01*
X130726000Y-113284000D02*
X127541000Y-113284000D01*
X127541000Y-110744000D02*
X130726000Y-110744000D01*
X130726000Y-108204000D02*
X127541000Y-108204000D01*
X127541000Y-105664000D02*
X130726000Y-105664000D01*
X119540000Y-123444000D02*
X130726000Y-123444000D01*
X130726000Y-120904000D02*
X119540000Y-120904000D01*
X130726000Y-118364000D02*
X119540000Y-118364000D01*
X119540000Y-115824000D02*
X130726000Y-115824000D01*
X127541000Y-133604000D02*
X130726000Y-133604000D01*
X130726000Y-131064000D02*
X127541000Y-131064000D01*
X127541000Y-128524000D02*
X130726000Y-128524000D01*
X130726000Y-125984000D02*
X127541000Y-125984000D01*
X119540000Y-143764000D02*
X130726000Y-143764000D01*
X130726000Y-141224000D02*
X119540000Y-141224000D01*
X119540000Y-138684000D02*
X130726000Y-138684000D01*
X119540000Y-136144000D02*
X130726000Y-136144000D01*
X127541000Y-153924000D02*
X130726000Y-153924000D01*
X130726000Y-151384000D02*
X127541000Y-151384000D01*
X127541000Y-148844000D02*
X130726000Y-148844000D01*
X130726000Y-146304000D02*
X127541000Y-146304000D01*
X143763000Y-82169000D02*
X142748000Y-82169000D01*
X132926000Y-75184000D02*
X134747000Y-75184000D01*
X141732000Y-82169000D02*
X142748000Y-82169000D01*
X142748000Y-82169000D02*
X143128000Y-82169000D01*
X134747000Y-75184000D02*
X141732000Y-82169000D01*
X143763000Y-83439000D02*
X141731000Y-83439000D01*
X134747000Y-77724000D02*
X140462000Y-83439000D01*
X140462000Y-83439000D02*
X141731000Y-83439000D01*
X134747000Y-77724000D02*
X132926000Y-77724000D01*
X143763000Y-84709000D02*
X141731000Y-84709000D01*
X134747000Y-80264000D02*
X139192000Y-84709000D01*
X139192000Y-84709000D02*
X141731000Y-84709000D01*
X134747000Y-80264000D02*
X132926000Y-80264000D01*
X143763000Y-85979000D02*
X141731000Y-85979000D01*
X134747000Y-82804000D02*
X137922000Y-85979000D01*
X137922000Y-85979000D02*
X141731000Y-85979000D01*
X134747000Y-82804000D02*
X132926000Y-82804000D01*
X143763000Y-87249000D02*
X141478000Y-87249000D01*
X132926000Y-85344000D02*
X134747000Y-85344000D01*
X136652000Y-87249000D02*
X141478000Y-87249000D01*
X141478000Y-87249000D02*
X141731000Y-87249000D01*
X134747000Y-85344000D02*
X136652000Y-87249000D01*
X143763000Y-88519000D02*
X141731000Y-88519000D01*
X134747000Y-87884000D02*
X135382000Y-88519000D01*
X135382000Y-88519000D02*
X141731000Y-88519000D01*
X134747000Y-87884000D02*
X132926000Y-87884000D01*
X143763000Y-89789000D02*
X141731000Y-89789000D01*
X135382000Y-89789000D02*
X134747000Y-90424000D01*
X134747000Y-90424000D02*
X132926000Y-90424000D01*
X141731000Y-89789000D02*
X135382000Y-89789000D01*
X132926000Y-92964000D02*
X134747000Y-92964000D01*
X136652000Y-91059000D02*
X143763000Y-91059000D01*
X134747000Y-92964000D02*
X136652000Y-91059000D01*
X132926000Y-95504000D02*
X134747000Y-95504000D01*
X137922000Y-92329000D02*
X143763000Y-92329000D01*
X134747000Y-95504000D02*
X137922000Y-92329000D01*
X132926000Y-98044000D02*
X134747000Y-98044000D01*
X139192000Y-93599000D02*
X143763000Y-93599000D01*
X134747000Y-98044000D02*
X139192000Y-93599000D01*
X132926000Y-100584000D02*
X134747000Y-100584000D01*
X140462000Y-94869000D02*
X143763000Y-94869000D01*
X134747000Y-100584000D02*
X140462000Y-94869000D01*
X132926000Y-103124000D02*
X148336000Y-103124000D01*
X153163000Y-98297000D02*
X153163000Y-96139000D01*
X148336000Y-103124000D02*
X153163000Y-98297000D01*
X155448000Y-98552000D02*
X155702000Y-98298000D01*
X148336000Y-105664000D02*
X155448000Y-98552000D01*
X132926000Y-105664000D02*
X148336000Y-105664000D01*
X154813000Y-94869000D02*
X153163000Y-94869000D01*
X155702000Y-95758000D02*
X154813000Y-94869000D01*
X155702000Y-98298000D02*
X155702000Y-95758000D01*
X153163000Y-93599000D02*
X154940000Y-93599000D01*
X148336000Y-108204000D02*
X132926000Y-108204000D01*
X148336000Y-108204000D02*
X156464000Y-100076000D01*
X156464000Y-95123000D02*
X156464000Y-100076000D01*
X154940000Y-93599000D02*
X156464000Y-95123000D01*
X157226000Y-94615000D02*
X157226000Y-101854000D01*
X154940000Y-92329000D02*
X157226000Y-94615000D01*
X153163000Y-92329000D02*
X154940000Y-92329000D01*
X157226000Y-101854000D02*
X156845000Y-102235000D01*
X132926000Y-110744000D02*
X148336000Y-110744000D01*
X148336000Y-110744000D02*
X156845000Y-102235000D01*
X153163000Y-91059000D02*
X154940000Y-91059000D01*
X157988000Y-103632000D02*
X157353000Y-104267000D01*
X157988000Y-94107000D02*
X157988000Y-103632000D01*
X154940000Y-91059000D02*
X157988000Y-94107000D01*
X148336000Y-113284000D02*
X156083000Y-105537000D01*
X132926000Y-113284000D02*
X148336000Y-113284000D01*
X156083000Y-105537000D02*
X157353000Y-104267000D01*
X134747000Y-115824000D02*
X141732000Y-122809000D01*
X141732000Y-122809000D02*
X142748000Y-122809000D01*
X132926000Y-115824000D02*
X134747000Y-115824000D01*
X142748000Y-122809000D02*
X143128000Y-122809000D01*
X143763000Y-122809000D02*
X142748000Y-122809000D01*
X134747000Y-118364000D02*
X132926000Y-118364000D01*
X140462000Y-124079000D02*
X141731000Y-124079000D01*
X134747000Y-118364000D02*
X140462000Y-124079000D01*
X143763000Y-124079000D02*
X141731000Y-124079000D01*
X134747000Y-120904000D02*
X132926000Y-120904000D01*
X139192000Y-125349000D02*
X141731000Y-125349000D01*
X134747000Y-120904000D02*
X139192000Y-125349000D01*
X143763000Y-125349000D02*
X141731000Y-125349000D01*
X134747000Y-123444000D02*
X132926000Y-123444000D01*
X137922000Y-126619000D02*
X141731000Y-126619000D01*
X134747000Y-123444000D02*
X137922000Y-126619000D01*
X143763000Y-126619000D02*
X141731000Y-126619000D01*
X134747000Y-125984000D02*
X136652000Y-127889000D01*
X136652000Y-127889000D02*
X141478000Y-127889000D01*
X132926000Y-125984000D02*
X134747000Y-125984000D01*
X141478000Y-127889000D02*
X141731000Y-127889000D01*
X143763000Y-127889000D02*
X141478000Y-127889000D01*
X134747000Y-128524000D02*
X132926000Y-128524000D01*
X135382000Y-129159000D02*
X141731000Y-129159000D01*
X134747000Y-128524000D02*
X135382000Y-129159000D01*
X143763000Y-129159000D02*
X141731000Y-129159000D01*
X134747000Y-131064000D02*
X132926000Y-131064000D01*
X135382000Y-130429000D02*
X134747000Y-131064000D01*
X141731000Y-130429000D02*
X135382000Y-130429000D01*
X143763000Y-130429000D02*
X141731000Y-130429000D01*
X134747000Y-133604000D02*
X136652000Y-131699000D01*
X132926000Y-133604000D02*
X134747000Y-133604000D01*
X136652000Y-131699000D02*
X143763000Y-131699000D01*
X134747000Y-136144000D02*
X137922000Y-132969000D01*
X132926000Y-136144000D02*
X134747000Y-136144000D01*
X137922000Y-132969000D02*
X143763000Y-132969000D01*
X134747000Y-138684000D02*
X139192000Y-134239000D01*
X132926000Y-138684000D02*
X134747000Y-138684000D01*
X139192000Y-134239000D02*
X143763000Y-134239000D01*
X134747000Y-141224000D02*
X140462000Y-135509000D01*
X132926000Y-141224000D02*
X134747000Y-141224000D01*
X140462000Y-135509000D02*
X143763000Y-135509000D01*
X148336000Y-143764000D02*
X153163000Y-138937000D01*
X132926000Y-143764000D02*
X148336000Y-143764000D01*
X153163000Y-138937000D02*
X153163000Y-136779000D01*
X132926000Y-146304000D02*
X148336000Y-146304000D01*
X148336000Y-146304000D02*
X155448000Y-139192000D01*
X155448000Y-139192000D02*
X155702000Y-138938000D01*
X155702000Y-138938000D02*
X155702000Y-136398000D01*
X155702000Y-136398000D02*
X154813000Y-135509000D01*
X154813000Y-135509000D02*
X153163000Y-135509000D01*
X148336000Y-148844000D02*
X132926000Y-148844000D01*
X148336000Y-148844000D02*
X156464000Y-140716000D01*
X156464000Y-135763000D02*
X156464000Y-140716000D01*
X154940000Y-134239000D02*
X156464000Y-135763000D01*
X153163000Y-134239000D02*
X154940000Y-134239000D01*
X148336000Y-151384000D02*
X156845000Y-142875000D01*
X132926000Y-151384000D02*
X148336000Y-151384000D01*
X157226000Y-142494000D02*
X156845000Y-142875000D01*
X157226000Y-135255000D02*
X157226000Y-142494000D01*
X154940000Y-132969000D02*
X157226000Y-135255000D01*
X153163000Y-132969000D02*
X154940000Y-132969000D01*
X153163000Y-131699000D02*
X154940000Y-131699000D01*
X148336000Y-153924000D02*
X156591000Y-145669000D01*
X148336000Y-153924000D02*
X132926000Y-153924000D01*
X157988000Y-144272000D02*
X156591000Y-145669000D01*
X157988000Y-134747000D02*
X157988000Y-144272000D01*
X154940000Y-131699000D02*
X157988000Y-134747000D01*
X173863000Y-69893000D02*
X174836000Y-69893000D01*
X175764000Y-68965000D02*
X177490000Y-68965000D01*
X174836000Y-69893000D02*
X175764000Y-68965000D01*
X133223000Y-69893000D02*
X134196000Y-69893000D01*
X135124000Y-68965000D02*
X136850000Y-68965000D01*
X134196000Y-69893000D02*
X135124000Y-68965000D01*
X177490000Y-68315000D02*
X166000000Y-68315000D01*
X160786000Y-68965000D02*
X161671000Y-69850000D01*
X160786000Y-68965000D02*
X142550000Y-68965000D01*
X166000000Y-68315000D02*
X165735000Y-68580000D01*
X153163000Y-129159000D02*
X151003000Y-129159000D01*
X150053000Y-128209000D02*
X150053000Y-119845000D01*
X151003000Y-129159000D02*
X150053000Y-128209000D01*
X104648000Y-77089000D02*
X112014000Y-77089000D01*
X114140000Y-77724000D02*
X112649000Y-77724000D01*
X112649000Y-77724000D02*
X112014000Y-77089000D01*
X112649000Y-76454000D02*
X114140000Y-76454000D01*
X112014000Y-77089000D02*
X112649000Y-76454000D01*
X104648000Y-82169000D02*
X112014000Y-82169000D01*
X114140000Y-82804000D02*
X112649000Y-82804000D01*
X112649000Y-82804000D02*
X112014000Y-82169000D01*
X112649000Y-81534000D02*
X114140000Y-81534000D01*
X112014000Y-82169000D02*
X112649000Y-81534000D01*
X122141000Y-87884000D02*
X114140000Y-87884000D01*
X114140000Y-87884000D02*
X112649000Y-87884000D01*
X112649000Y-87884000D02*
X112014000Y-87249000D01*
X122141000Y-86614000D02*
X114140000Y-86614000D01*
X112649000Y-86614000D02*
X114140000Y-86614000D01*
X112649000Y-86614000D02*
X112014000Y-87249000D01*
X104648000Y-87249000D02*
X112014000Y-87249000D01*
X122141000Y-92964000D02*
X114140000Y-92964000D01*
X114140000Y-92964000D02*
X112649000Y-92964000D01*
X112649000Y-92964000D02*
X112014000Y-92329000D01*
X122141000Y-91694000D02*
X114140000Y-91694000D01*
X112649000Y-91694000D02*
X114140000Y-91694000D01*
X112649000Y-91694000D02*
X112014000Y-92329000D01*
X104648000Y-92329000D02*
X112014000Y-92329000D01*
X112014000Y-97409000D02*
X112649000Y-96774000D01*
X112649000Y-96774000D02*
X114140000Y-96774000D01*
X112649000Y-98044000D02*
X112014000Y-97409000D01*
X114140000Y-98044000D02*
X112649000Y-98044000D01*
X104648000Y-97409000D02*
X112014000Y-97409000D01*
X112014000Y-102489000D02*
X112649000Y-101854000D01*
X112649000Y-101854000D02*
X114140000Y-101854000D01*
X112649000Y-103124000D02*
X112014000Y-102489000D01*
X114140000Y-103124000D02*
X112649000Y-103124000D01*
X104648000Y-102489000D02*
X112014000Y-102489000D01*
X104648000Y-107569000D02*
X112014000Y-107569000D01*
X112649000Y-106934000D02*
X112014000Y-107569000D01*
X112649000Y-106934000D02*
X114140000Y-106934000D01*
X122141000Y-106934000D02*
X114140000Y-106934000D01*
X112649000Y-108204000D02*
X112014000Y-107569000D01*
X114140000Y-108204000D02*
X112649000Y-108204000D01*
X122141000Y-108204000D02*
X114140000Y-108204000D01*
X104648000Y-112649000D02*
X112014000Y-112649000D01*
X112649000Y-112014000D02*
X112014000Y-112649000D01*
X112649000Y-112014000D02*
X114140000Y-112014000D01*
X122141000Y-112014000D02*
X114140000Y-112014000D01*
X112649000Y-113284000D02*
X112014000Y-112649000D01*
X114140000Y-113284000D02*
X112649000Y-113284000D01*
X122141000Y-113284000D02*
X114140000Y-113284000D01*
X112014000Y-117729000D02*
X112649000Y-117094000D01*
X112649000Y-117094000D02*
X114140000Y-117094000D01*
X112649000Y-118364000D02*
X112014000Y-117729000D01*
X114140000Y-118364000D02*
X112649000Y-118364000D01*
X104648000Y-117729000D02*
X112014000Y-117729000D01*
X112014000Y-122809000D02*
X112649000Y-122174000D01*
X112649000Y-122174000D02*
X114140000Y-122174000D01*
X112649000Y-123444000D02*
X112014000Y-122809000D01*
X114140000Y-123444000D02*
X112649000Y-123444000D01*
X104648000Y-122809000D02*
X112014000Y-122809000D01*
X104648000Y-127889000D02*
X112014000Y-127889000D01*
X112649000Y-127254000D02*
X112014000Y-127889000D01*
X112649000Y-127254000D02*
X114140000Y-127254000D01*
X122141000Y-127254000D02*
X114140000Y-127254000D01*
X112649000Y-128524000D02*
X112014000Y-127889000D01*
X114140000Y-128524000D02*
X112649000Y-128524000D01*
X122141000Y-128524000D02*
X114140000Y-128524000D01*
X104648000Y-132969000D02*
X112014000Y-132969000D01*
X112649000Y-132334000D02*
X112014000Y-132969000D01*
X112649000Y-132334000D02*
X114140000Y-132334000D01*
X122141000Y-132334000D02*
X114140000Y-132334000D01*
X112649000Y-133604000D02*
X112014000Y-132969000D01*
X114140000Y-133604000D02*
X112649000Y-133604000D01*
X122141000Y-133604000D02*
X114140000Y-133604000D01*
X104648000Y-138049000D02*
X112014000Y-138049000D01*
X114140000Y-138684000D02*
X112649000Y-138684000D01*
X112649000Y-138684000D02*
X112014000Y-138049000D01*
X112649000Y-137414000D02*
X114140000Y-137414000D01*
X112014000Y-138049000D02*
X112649000Y-137414000D01*
X104648000Y-143129000D02*
X112014000Y-143129000D01*
X114140000Y-143764000D02*
X112649000Y-143764000D01*
X112649000Y-143764000D02*
X112014000Y-143129000D01*
X112649000Y-142494000D02*
X114140000Y-142494000D01*
X112014000Y-143129000D02*
X112649000Y-142494000D01*
X122141000Y-148844000D02*
X114140000Y-148844000D01*
X114140000Y-148844000D02*
X112649000Y-148844000D01*
X112649000Y-148844000D02*
X112014000Y-148209000D01*
X122141000Y-147574000D02*
X114140000Y-147574000D01*
X112649000Y-147574000D02*
X114140000Y-147574000D01*
X112649000Y-147574000D02*
X112014000Y-148209000D01*
X104648000Y-148209000D02*
X112014000Y-148209000D01*
X122141000Y-153924000D02*
X114140000Y-153924000D01*
X114140000Y-153924000D02*
X112649000Y-153924000D01*
X112649000Y-153924000D02*
X112014000Y-153289000D01*
X122141000Y-152654000D02*
X114140000Y-152654000D01*
X112649000Y-152654000D02*
X114140000Y-152654000D01*
X112649000Y-152654000D02*
X112014000Y-153289000D01*
X104648000Y-153289000D02*
X112014000Y-153289000D01*
X172980000Y-112950000D02*
X174726381Y-111203619D01*
X174726381Y-111203619D02*
X175226381Y-111203619D01*
X168320000Y-92090000D02*
X168320000Y-88290000D01*
X168320000Y-88290000D02*
X165730000Y-85700000D01*
X186270000Y-114400000D02*
X191100000Y-119230000D01*
X191100000Y-119230000D02*
X191720000Y-119230000D01*
X186830000Y-113650000D02*
X189870000Y-116690000D01*
X189870000Y-116690000D02*
X191720000Y-116690000D01*
X188050000Y-112290000D02*
X189910000Y-114150000D01*
X189910000Y-114150000D02*
X191720000Y-114150000D01*
X172960000Y-103280000D02*
X172960000Y-99499000D01*
X172960000Y-99499000D02*
X169551000Y-96090000D01*
X169551000Y-96090000D02*
X168320000Y-96090000D01*
X180210000Y-112920000D02*
X180210000Y-105840000D01*
X180210000Y-105840000D02*
X178710000Y-104340000D01*
D32*
G36*
X201315000Y-155315000D02*
X102685000Y-155315000D01*
X102685000Y-77089000D01*
X102964655Y-77089000D01*
X103078729Y-77662489D01*
X103403585Y-78148670D01*
X103718366Y-78359000D01*
X103403585Y-78569330D01*
X103078729Y-79055511D01*
X102964655Y-79629000D01*
X103078729Y-80202489D01*
X103403585Y-80688670D01*
X103718366Y-80899000D01*
X103403585Y-81109330D01*
X103078729Y-81595511D01*
X102964655Y-82169000D01*
X103078729Y-82742489D01*
X103403585Y-83228670D01*
X103718366Y-83439000D01*
X103403585Y-83649330D01*
X103078729Y-84135511D01*
X102964655Y-84709000D01*
X103078729Y-85282489D01*
X103403585Y-85768670D01*
X103718366Y-85979000D01*
X103403585Y-86189330D01*
X103078729Y-86675511D01*
X102964655Y-87249000D01*
X103078729Y-87822489D01*
X103403585Y-88308670D01*
X103718366Y-88519000D01*
X103403585Y-88729330D01*
X103078729Y-89215511D01*
X102964655Y-89789000D01*
X103078729Y-90362489D01*
X103403585Y-90848670D01*
X103718366Y-91059000D01*
X103403585Y-91269330D01*
X103078729Y-91755511D01*
X102964655Y-92329000D01*
X103078729Y-92902489D01*
X103403585Y-93388670D01*
X103718366Y-93599000D01*
X103403585Y-93809330D01*
X103078729Y-94295511D01*
X102964655Y-94869000D01*
X103078729Y-95442489D01*
X103403585Y-95928670D01*
X103718366Y-96139000D01*
X103403585Y-96349330D01*
X103078729Y-96835511D01*
X102964655Y-97409000D01*
X103078729Y-97982489D01*
X103403585Y-98468670D01*
X103718366Y-98679000D01*
X103403585Y-98889330D01*
X103078729Y-99375511D01*
X102964655Y-99949000D01*
X103078729Y-100522489D01*
X103403585Y-101008670D01*
X103718366Y-101219000D01*
X103403585Y-101429330D01*
X103078729Y-101915511D01*
X102964655Y-102489000D01*
X103078729Y-103062489D01*
X103403585Y-103548670D01*
X103718366Y-103759000D01*
X103403585Y-103969330D01*
X103078729Y-104455511D01*
X102964655Y-105029000D01*
X103078729Y-105602489D01*
X103403585Y-106088670D01*
X103718366Y-106299000D01*
X103403585Y-106509330D01*
X103078729Y-106995511D01*
X102964655Y-107569000D01*
X103078729Y-108142489D01*
X103403585Y-108628670D01*
X103718366Y-108839000D01*
X103403585Y-109049330D01*
X103078729Y-109535511D01*
X102964655Y-110109000D01*
X103078729Y-110682489D01*
X103403585Y-111168670D01*
X103718366Y-111379000D01*
X103403585Y-111589330D01*
X103078729Y-112075511D01*
X102964655Y-112649000D01*
X103078729Y-113222489D01*
X103403585Y-113708670D01*
X103718366Y-113919000D01*
X103403585Y-114129330D01*
X103078729Y-114615511D01*
X102964655Y-115189000D01*
X103078729Y-115762489D01*
X103403585Y-116248670D01*
X103718366Y-116459000D01*
X103403585Y-116669330D01*
X103078729Y-117155511D01*
X102964655Y-117729000D01*
X103078729Y-118302489D01*
X103403585Y-118788670D01*
X103718366Y-118999000D01*
X103403585Y-119209330D01*
X103078729Y-119695511D01*
X102964655Y-120269000D01*
X103078729Y-120842489D01*
X103403585Y-121328670D01*
X103718366Y-121539000D01*
X103403585Y-121749330D01*
X103078729Y-122235511D01*
X102964655Y-122809000D01*
X103078729Y-123382489D01*
X103403585Y-123868670D01*
X103718366Y-124079000D01*
X103403585Y-124289330D01*
X103078729Y-124775511D01*
X102964655Y-125349000D01*
X103078729Y-125922489D01*
X103403585Y-126408670D01*
X103718366Y-126619000D01*
X103403585Y-126829330D01*
X103078729Y-127315511D01*
X102964655Y-127889000D01*
X103078729Y-128462489D01*
X103403585Y-128948670D01*
X103718366Y-129159000D01*
X103403585Y-129369330D01*
X103078729Y-129855511D01*
X102964655Y-130429000D01*
X103078729Y-131002489D01*
X103403585Y-131488670D01*
X103718366Y-131699000D01*
X103403585Y-131909330D01*
X103078729Y-132395511D01*
X102964655Y-132969000D01*
X103078729Y-133542489D01*
X103403585Y-134028670D01*
X103718366Y-134239000D01*
X103403585Y-134449330D01*
X103078729Y-134935511D01*
X102964655Y-135509000D01*
X103078729Y-136082489D01*
X103403585Y-136568670D01*
X103718366Y-136779000D01*
X103403585Y-136989330D01*
X103078729Y-137475511D01*
X102964655Y-138049000D01*
X103078729Y-138622489D01*
X103403585Y-139108670D01*
X103718366Y-139319000D01*
X103403585Y-139529330D01*
X103078729Y-140015511D01*
X102964655Y-140589000D01*
X103078729Y-141162489D01*
X103403585Y-141648670D01*
X103718366Y-141859000D01*
X103403585Y-142069330D01*
X103078729Y-142555511D01*
X102964655Y-143129000D01*
X103078729Y-143702489D01*
X103403585Y-144188670D01*
X103718366Y-144399000D01*
X103403585Y-144609330D01*
X103078729Y-145095511D01*
X102964655Y-145669000D01*
X103078729Y-146242489D01*
X103403585Y-146728670D01*
X103718366Y-146939000D01*
X103403585Y-147149330D01*
X103078729Y-147635511D01*
X102964655Y-148209000D01*
X103078729Y-148782489D01*
X103403585Y-149268670D01*
X103718366Y-149479000D01*
X103403585Y-149689330D01*
X103078729Y-150175511D01*
X102964655Y-150749000D01*
X103078729Y-151322489D01*
X103403585Y-151808670D01*
X103718366Y-152019000D01*
X103403585Y-152229330D01*
X103078729Y-152715511D01*
X102964655Y-153289000D01*
X103078729Y-153862489D01*
X103403585Y-154348670D01*
X103889766Y-154673526D01*
X104463255Y-154787600D01*
X104832745Y-154787600D01*
X105406234Y-154673526D01*
X105892415Y-154348670D01*
X106048883Y-154114500D01*
X111402472Y-154114500D01*
X111437731Y-154149821D01*
X111811018Y-154304824D01*
X111862435Y-154304869D01*
X112065281Y-154507714D01*
X112065283Y-154507717D01*
X112242142Y-154625890D01*
X112333095Y-154686663D01*
X112649000Y-154749501D01*
X112649005Y-154749500D01*
X121035299Y-154749500D01*
X121139110Y-154820431D01*
X121391000Y-154871440D01*
X122891000Y-154871440D01*
X123126317Y-154827162D01*
X123342441Y-154688090D01*
X123487431Y-154475890D01*
X123538440Y-154224000D01*
X123538440Y-153624000D01*
X123494162Y-153388683D01*
X123430322Y-153289472D01*
X123487431Y-153205890D01*
X123538440Y-152954000D01*
X123538440Y-152354000D01*
X123494162Y-152118683D01*
X123430322Y-152019472D01*
X123487431Y-151935890D01*
X123538440Y-151684000D01*
X123538440Y-151084000D01*
X123494162Y-150848683D01*
X123430322Y-150749472D01*
X123487431Y-150665890D01*
X123538440Y-150414000D01*
X123538440Y-149814000D01*
X123494162Y-149578683D01*
X123430322Y-149479472D01*
X123487431Y-149395890D01*
X123538440Y-149144000D01*
X123538440Y-148544000D01*
X123494162Y-148308683D01*
X123430322Y-148209472D01*
X123487431Y-148125890D01*
X123538440Y-147874000D01*
X123538440Y-147274000D01*
X123494162Y-147038683D01*
X123430322Y-146939472D01*
X123487431Y-146855890D01*
X123538440Y-146604000D01*
X123538440Y-146004000D01*
X123494162Y-145768683D01*
X123430322Y-145669472D01*
X123487431Y-145585890D01*
X123538440Y-145334000D01*
X123538440Y-144734000D01*
X123511250Y-144589500D01*
X125195463Y-144589500D01*
X125095176Y-144831018D01*
X125095131Y-144882435D01*
X125019283Y-144958283D01*
X124840337Y-145226094D01*
X124815710Y-145349905D01*
X124777500Y-145542000D01*
X124777500Y-147066000D01*
X124840337Y-147381906D01*
X124968690Y-147574000D01*
X124840337Y-147766094D01*
X124815075Y-147893094D01*
X124777500Y-148082000D01*
X124777500Y-149606000D01*
X124840337Y-149921906D01*
X124968690Y-150114000D01*
X124840337Y-150306094D01*
X124815075Y-150433094D01*
X124777500Y-150622000D01*
X124777500Y-152146000D01*
X124840337Y-152461906D01*
X125019283Y-152729717D01*
X125527281Y-153237714D01*
X125527283Y-153237717D01*
X125795095Y-153416663D01*
X126111000Y-153479500D01*
X126172822Y-153479500D01*
X126143560Y-153624000D01*
X126143560Y-154224000D01*
X126187838Y-154459317D01*
X126326910Y-154675441D01*
X126539110Y-154820431D01*
X126791000Y-154871440D01*
X128291000Y-154871440D01*
X128526317Y-154827162D01*
X128647007Y-154749500D01*
X129613043Y-154749500D01*
X129661910Y-154825441D01*
X129874110Y-154970431D01*
X130126000Y-155021440D01*
X131326000Y-155021440D01*
X131561317Y-154977162D01*
X131777441Y-154838090D01*
X131825134Y-154768289D01*
X131861910Y-154825441D01*
X132074110Y-154970431D01*
X132326000Y-155021440D01*
X133526000Y-155021440D01*
X133761317Y-154977162D01*
X133977441Y-154838090D01*
X134037972Y-154749500D01*
X148336000Y-154749500D01*
X148651906Y-154686663D01*
X148919717Y-154507717D01*
X157174717Y-146252717D01*
X158571714Y-144855719D01*
X158571717Y-144855717D01*
X158678987Y-144695176D01*
X158750663Y-144587906D01*
X158813500Y-144272000D01*
X158813500Y-134747005D01*
X158813501Y-134747000D01*
X158750663Y-134431094D01*
X158571717Y-134163283D01*
X158139345Y-133730911D01*
X158443208Y-133731176D01*
X158816766Y-133576825D01*
X158853154Y-133540500D01*
X160337500Y-133540500D01*
X160337500Y-148629067D01*
X160059066Y-148907500D01*
X157075528Y-148907500D01*
X157040269Y-148872179D01*
X156666982Y-148717176D01*
X156262792Y-148716824D01*
X155889234Y-148871175D01*
X155603179Y-149156731D01*
X155448176Y-149530018D01*
X155447824Y-149934208D01*
X155602175Y-150307766D01*
X155887731Y-150593821D01*
X156261018Y-150748824D01*
X156665208Y-150749176D01*
X157038766Y-150594825D01*
X157075154Y-150558500D01*
X160401000Y-150558500D01*
X160716906Y-150495663D01*
X160984717Y-150316717D01*
X161746714Y-149554719D01*
X161746717Y-149554717D01*
X161925663Y-149286905D01*
X161953038Y-149149283D01*
X161988501Y-148971000D01*
X161988500Y-148970995D01*
X161988500Y-139095750D01*
X167395000Y-139095750D01*
X167395000Y-140336310D01*
X167491673Y-140569699D01*
X167670302Y-140748327D01*
X167903691Y-140845000D01*
X169144250Y-140845000D01*
X169303000Y-140686250D01*
X169303000Y-138937000D01*
X169557000Y-138937000D01*
X169557000Y-140686250D01*
X169715750Y-140845000D01*
X170956309Y-140845000D01*
X171189698Y-140748327D01*
X171368327Y-140569699D01*
X171465000Y-140336310D01*
X171465000Y-139095750D01*
X171306250Y-138937000D01*
X169557000Y-138937000D01*
X169303000Y-138937000D01*
X167553750Y-138937000D01*
X167395000Y-139095750D01*
X161988500Y-139095750D01*
X161988500Y-137283690D01*
X167395000Y-137283690D01*
X167395000Y-138524250D01*
X167553750Y-138683000D01*
X169303000Y-138683000D01*
X169303000Y-136933750D01*
X169557000Y-136933750D01*
X169557000Y-138683000D01*
X171306250Y-138683000D01*
X171465000Y-138524250D01*
X171465000Y-137283690D01*
X171368327Y-137050301D01*
X171189698Y-136871673D01*
X170956309Y-136775000D01*
X169715750Y-136775000D01*
X169557000Y-136933750D01*
X169303000Y-136933750D01*
X169144250Y-136775000D01*
X167903691Y-136775000D01*
X167670302Y-136871673D01*
X167491673Y-137050301D01*
X167395000Y-137283690D01*
X161988500Y-137283690D01*
X161988500Y-133713011D01*
X167394648Y-133713011D01*
X167703805Y-134461229D01*
X168275760Y-135034183D01*
X169023438Y-135344646D01*
X169833011Y-135345352D01*
X170581229Y-135036195D01*
X171154183Y-134464240D01*
X171464646Y-133716562D01*
X171465352Y-132906989D01*
X171156195Y-132158771D01*
X170584240Y-131585817D01*
X169836562Y-131275354D01*
X169026989Y-131274648D01*
X168278771Y-131583805D01*
X167705817Y-132155760D01*
X167395354Y-132903438D01*
X167394648Y-133713011D01*
X161988500Y-133713011D01*
X161988500Y-133540500D01*
X164125000Y-133540500D01*
X164440906Y-133477663D01*
X164708717Y-133298717D01*
X167011933Y-130995500D01*
X186210066Y-130995500D01*
X186683867Y-131469301D01*
X186683824Y-131519208D01*
X186838175Y-131892766D01*
X187123731Y-132178821D01*
X187497018Y-132333824D01*
X187901208Y-132334176D01*
X188274766Y-132179825D01*
X188560821Y-131894269D01*
X188642340Y-131697950D01*
X200161145Y-120179145D01*
X200363827Y-119875809D01*
X200435000Y-119518000D01*
X200435000Y-89000000D01*
X200363827Y-88642191D01*
X200161145Y-88338855D01*
X196121145Y-84298855D01*
X195817809Y-84096173D01*
X195460000Y-84025000D01*
X192656023Y-84025000D01*
X192579147Y-83909946D01*
X192535223Y-83880597D01*
X192709698Y-83808327D01*
X192888327Y-83629699D01*
X192985000Y-83396310D01*
X192985000Y-82705750D01*
X192826250Y-82547000D01*
X191627000Y-82547000D01*
X191627000Y-82567000D01*
X191373000Y-82567000D01*
X191373000Y-82547000D01*
X190173750Y-82547000D01*
X190015000Y-82705750D01*
X190015000Y-83396310D01*
X190111673Y-83629699D01*
X190290302Y-83808327D01*
X190464777Y-83880597D01*
X190420853Y-83909946D01*
X190098946Y-84391715D01*
X189985907Y-84960000D01*
X190098946Y-85528285D01*
X190420853Y-86010054D01*
X190750026Y-86230000D01*
X190420853Y-86449946D01*
X190270811Y-86674500D01*
X174456095Y-86674500D01*
X174456090Y-86674499D01*
X174140185Y-86737337D01*
X173872373Y-86916283D01*
X173872371Y-86916286D01*
X172054789Y-88733867D01*
X172004882Y-88733824D01*
X171631324Y-88888175D01*
X171345269Y-89173731D01*
X171190266Y-89547018D01*
X171189914Y-89951208D01*
X171344265Y-90324766D01*
X171443896Y-90424571D01*
X171280289Y-90533890D01*
X171204882Y-90533824D01*
X170831324Y-90688175D01*
X170545269Y-90973731D01*
X170390266Y-91347018D01*
X170389914Y-91751208D01*
X170544265Y-92124766D01*
X170829821Y-92410821D01*
X171203108Y-92565824D01*
X171607298Y-92566176D01*
X171980856Y-92411825D01*
X172266911Y-92126269D01*
X172321626Y-91994501D01*
X189334159Y-91994501D01*
X189650065Y-91931664D01*
X189917876Y-91752718D01*
X190516578Y-91154015D01*
X190902622Y-91411961D01*
X191470907Y-91525000D01*
X191529093Y-91525000D01*
X192097378Y-91411961D01*
X192579147Y-91090054D01*
X192901054Y-90608285D01*
X193014093Y-90040000D01*
X192901054Y-89471715D01*
X192579147Y-88989946D01*
X192249974Y-88770000D01*
X192579147Y-88550054D01*
X192901054Y-88068285D01*
X193014093Y-87500000D01*
X192901054Y-86931715D01*
X192579147Y-86449946D01*
X192249974Y-86230000D01*
X192579147Y-86010054D01*
X192656023Y-85895000D01*
X195072710Y-85895000D01*
X198565000Y-89387290D01*
X198565000Y-119130710D01*
X187622572Y-130073138D01*
X187135717Y-129586283D01*
X186867906Y-129407337D01*
X186552000Y-129344500D01*
X166670005Y-129344500D01*
X166670000Y-129344499D01*
X166354095Y-129407337D01*
X166086283Y-129586283D01*
X166086281Y-129586286D01*
X163783066Y-131889500D01*
X158853528Y-131889500D01*
X158818269Y-131854179D01*
X158444982Y-131699176D01*
X158040792Y-131698824D01*
X157667234Y-131853175D01*
X157381179Y-132138731D01*
X157226176Y-132512018D01*
X157225910Y-132817476D01*
X155662934Y-131254500D01*
X159154472Y-131254500D01*
X159189731Y-131289821D01*
X159563018Y-131444824D01*
X159967208Y-131445176D01*
X160340766Y-131290825D01*
X160626821Y-131005269D01*
X160781824Y-130631982D01*
X160782176Y-130227792D01*
X160627825Y-129854234D01*
X160342269Y-129568179D01*
X159968982Y-129413176D01*
X159564792Y-129412824D01*
X159191234Y-129567175D01*
X159154846Y-129603500D01*
X154781178Y-129603500D01*
X154810440Y-129459000D01*
X154810440Y-128859000D01*
X154783250Y-128714500D01*
X161440472Y-128714500D01*
X161475731Y-128749821D01*
X161849018Y-128904824D01*
X162253208Y-128905176D01*
X162626766Y-128750825D01*
X162912821Y-128465269D01*
X163067824Y-128091982D01*
X163068176Y-127687792D01*
X163046310Y-127634871D01*
X163396208Y-127635176D01*
X163769766Y-127480825D01*
X164055821Y-127195269D01*
X164210824Y-126821982D01*
X164211176Y-126417792D01*
X164189310Y-126364871D01*
X164539208Y-126365176D01*
X164912766Y-126210825D01*
X165198821Y-125925269D01*
X165353824Y-125551982D01*
X165354176Y-125147792D01*
X165199825Y-124774234D01*
X165123399Y-124697675D01*
X165175717Y-124662717D01*
X166318717Y-123519717D01*
X166497663Y-123251906D01*
X166560500Y-122936000D01*
X166560500Y-122445746D01*
X166657018Y-122485824D01*
X167061208Y-122486176D01*
X167434766Y-122331825D01*
X167554683Y-122212117D01*
X169166281Y-123823714D01*
X169166283Y-123823717D01*
X169434095Y-124002663D01*
X169686047Y-124052779D01*
X169682560Y-124070000D01*
X169682560Y-126870000D01*
X169726838Y-127105317D01*
X169865910Y-127321441D01*
X170078110Y-127466431D01*
X170330000Y-127517440D01*
X173130000Y-127517440D01*
X173365317Y-127473162D01*
X173581441Y-127334090D01*
X173726431Y-127121890D01*
X173777440Y-126870000D01*
X173777440Y-124070000D01*
X173776593Y-124065500D01*
X174658066Y-124065500D01*
X175330511Y-124737944D01*
X175195354Y-125063438D01*
X175194648Y-125873011D01*
X175503805Y-126621229D01*
X176075760Y-127194183D01*
X176823438Y-127504646D01*
X177633011Y-127505352D01*
X178381229Y-127196195D01*
X178954183Y-126624240D01*
X179264646Y-125876562D01*
X179265352Y-125066989D01*
X178956195Y-124318771D01*
X178384240Y-123745817D01*
X177636562Y-123435354D01*
X176826989Y-123434648D01*
X176498012Y-123570578D01*
X175583717Y-122656283D01*
X175315906Y-122477337D01*
X175000000Y-122414500D01*
X170091933Y-122414500D01*
X168834501Y-121157067D01*
X168834501Y-118934285D01*
X170964760Y-118934285D01*
X171175169Y-119443515D01*
X171564436Y-119833461D01*
X172073298Y-120044759D01*
X172624285Y-120045240D01*
X173133515Y-119834831D01*
X173523461Y-119445564D01*
X173734759Y-118936702D01*
X173734761Y-118934285D01*
X175844760Y-118934285D01*
X176055169Y-119443515D01*
X176444436Y-119833461D01*
X176953298Y-120044759D01*
X177504285Y-120045240D01*
X178013515Y-119834831D01*
X178403461Y-119445564D01*
X178614759Y-118936702D01*
X178615240Y-118385715D01*
X178404831Y-117876485D01*
X178015564Y-117486539D01*
X177506702Y-117275241D01*
X176955715Y-117274760D01*
X176446485Y-117485169D01*
X176056539Y-117874436D01*
X175845241Y-118383298D01*
X175844760Y-118934285D01*
X173734761Y-118934285D01*
X173735240Y-118385715D01*
X173524831Y-117876485D01*
X173135564Y-117486539D01*
X172626702Y-117275241D01*
X172075715Y-117274760D01*
X171566485Y-117485169D01*
X171176539Y-117874436D01*
X170965241Y-118383298D01*
X170964760Y-118934285D01*
X168834501Y-118934285D01*
X168834501Y-114601208D01*
X185253824Y-114601208D01*
X185408175Y-114974766D01*
X185693731Y-115260821D01*
X186067018Y-115415824D01*
X186118435Y-115415869D01*
X190222560Y-119519993D01*
X190222560Y-120080000D01*
X190266838Y-120315317D01*
X190405910Y-120531441D01*
X190618110Y-120676431D01*
X190870000Y-120727440D01*
X192570000Y-120727440D01*
X192805317Y-120683162D01*
X193021441Y-120544090D01*
X193166431Y-120331890D01*
X193217440Y-120080000D01*
X193217440Y-118380000D01*
X193173162Y-118144683D01*
X193034090Y-117928559D01*
X192821890Y-117783569D01*
X192754459Y-117769914D01*
X192799147Y-117740054D01*
X193121054Y-117258285D01*
X193234093Y-116690000D01*
X193121054Y-116121715D01*
X192799147Y-115639946D01*
X192469974Y-115420000D01*
X192799147Y-115200054D01*
X193121054Y-114718285D01*
X193234093Y-114150000D01*
X193121054Y-113581715D01*
X192799147Y-113099946D01*
X192317378Y-112778039D01*
X191749093Y-112665000D01*
X191690907Y-112665000D01*
X191122622Y-112778039D01*
X190640853Y-113099946D01*
X190490811Y-113324500D01*
X190251933Y-113324500D01*
X189066133Y-112138699D01*
X189066176Y-112088792D01*
X188911825Y-111715234D01*
X188626269Y-111429179D01*
X188252982Y-111274176D01*
X187848792Y-111273824D01*
X187475234Y-111428175D01*
X187189179Y-111713731D01*
X187034176Y-112087018D01*
X187033824Y-112491208D01*
X187105306Y-112664208D01*
X187032982Y-112634176D01*
X186628792Y-112633824D01*
X186255234Y-112788175D01*
X185969179Y-113073731D01*
X185814176Y-113447018D01*
X185814139Y-113489044D01*
X185695234Y-113538175D01*
X185409179Y-113823731D01*
X185254176Y-114197018D01*
X185253824Y-114601208D01*
X168834501Y-114601208D01*
X168834501Y-113151208D01*
X171963824Y-113151208D01*
X172118175Y-113524766D01*
X172403731Y-113810821D01*
X172777018Y-113965824D01*
X173181208Y-113966176D01*
X173554766Y-113811825D01*
X173709985Y-113656877D01*
X173823731Y-113770821D01*
X174197018Y-113925824D01*
X174591945Y-113926168D01*
X174606838Y-114005317D01*
X174745910Y-114221441D01*
X174958110Y-114366431D01*
X175210000Y-114417440D01*
X177210000Y-114417440D01*
X177445317Y-114373162D01*
X177661441Y-114234090D01*
X177806431Y-114021890D01*
X177857440Y-113770000D01*
X177857440Y-112070000D01*
X177813162Y-111834683D01*
X177674090Y-111618559D01*
X177461890Y-111473569D01*
X177210000Y-111422560D01*
X176235578Y-111422560D01*
X176242205Y-111406601D01*
X176242557Y-111002411D01*
X176088206Y-110628853D01*
X175802650Y-110342798D01*
X175429363Y-110187795D01*
X175025173Y-110187443D01*
X174651615Y-110341794D01*
X174587567Y-110405730D01*
X174410476Y-110440956D01*
X174142664Y-110619902D01*
X174142662Y-110619905D01*
X172828699Y-111933867D01*
X172778792Y-111933824D01*
X172405234Y-112088175D01*
X172119179Y-112373731D01*
X171964176Y-112747018D01*
X171963824Y-113151208D01*
X168834501Y-113151208D01*
X168834501Y-111675649D01*
X168964766Y-111621825D01*
X169250821Y-111336269D01*
X169405824Y-110962982D01*
X169406176Y-110558792D01*
X169251825Y-110185234D01*
X168966269Y-109899179D01*
X168592982Y-109744176D01*
X168188792Y-109743824D01*
X167815234Y-109898175D01*
X167625500Y-110087578D01*
X167625500Y-109000005D01*
X167625501Y-109000000D01*
X167615869Y-108951576D01*
X167616176Y-108598792D01*
X167461825Y-108225234D01*
X167176269Y-107939179D01*
X166802982Y-107784176D01*
X166560500Y-107783965D01*
X166560500Y-106565000D01*
X169652560Y-106565000D01*
X169652560Y-107815000D01*
X169696838Y-108050317D01*
X169835910Y-108266441D01*
X170048110Y-108411431D01*
X170300000Y-108462440D01*
X171800000Y-108462440D01*
X172035317Y-108418162D01*
X172251441Y-108279090D01*
X172297969Y-108210994D01*
X172440302Y-108353327D01*
X172673691Y-108450000D01*
X173264250Y-108450000D01*
X173423000Y-108291250D01*
X173423000Y-107317000D01*
X173677000Y-107317000D01*
X173677000Y-108291250D01*
X173835750Y-108450000D01*
X174426309Y-108450000D01*
X174659698Y-108353327D01*
X174838327Y-108174699D01*
X174935000Y-107941310D01*
X174935000Y-107475750D01*
X174776250Y-107317000D01*
X173677000Y-107317000D01*
X173423000Y-107317000D01*
X173403000Y-107317000D01*
X173403000Y-107063000D01*
X173423000Y-107063000D01*
X173423000Y-106088750D01*
X173677000Y-106088750D01*
X173677000Y-107063000D01*
X174776250Y-107063000D01*
X174935000Y-106904250D01*
X174935000Y-106438690D01*
X174838327Y-106205301D01*
X174659698Y-106026673D01*
X174426309Y-105930000D01*
X173835750Y-105930000D01*
X173677000Y-106088750D01*
X173423000Y-106088750D01*
X173264250Y-105930000D01*
X173146062Y-105930000D01*
X173146176Y-105798792D01*
X172991825Y-105425234D01*
X172706269Y-105139179D01*
X172332982Y-104984176D01*
X171928792Y-104983824D01*
X171555234Y-105138175D01*
X171269179Y-105423731D01*
X171114176Y-105797018D01*
X171114131Y-105848435D01*
X171045007Y-105917560D01*
X170300000Y-105917560D01*
X170064683Y-105961838D01*
X169848559Y-106100910D01*
X169703569Y-106313110D01*
X169652560Y-106565000D01*
X166560500Y-106565000D01*
X166560500Y-103441528D01*
X166595821Y-103406269D01*
X166750824Y-103032982D01*
X166751176Y-102628792D01*
X166596825Y-102255234D01*
X166560500Y-102218846D01*
X166560500Y-95090000D01*
X166822560Y-95090000D01*
X166822560Y-97090000D01*
X166866838Y-97325317D01*
X167005910Y-97541441D01*
X167218110Y-97686431D01*
X167470000Y-97737440D01*
X169170000Y-97737440D01*
X169405317Y-97693162D01*
X169621441Y-97554090D01*
X169713266Y-97419700D01*
X172134500Y-99840934D01*
X172134500Y-102668472D01*
X172099179Y-102703731D01*
X171944176Y-103077018D01*
X171943824Y-103481208D01*
X172098175Y-103854766D01*
X172383731Y-104140821D01*
X172757018Y-104295824D01*
X173161208Y-104296176D01*
X173534766Y-104141825D01*
X173820821Y-103856269D01*
X173975824Y-103482982D01*
X173976176Y-103078792D01*
X173821825Y-102705234D01*
X173785500Y-102668846D01*
X173785500Y-99831208D01*
X174253824Y-99831208D01*
X174408175Y-100204766D01*
X174693731Y-100490821D01*
X175067018Y-100645824D01*
X175471208Y-100646176D01*
X175844766Y-100491825D01*
X176130821Y-100206269D01*
X176264017Y-99885500D01*
X177524064Y-99885500D01*
X177523824Y-100161208D01*
X177678175Y-100534766D01*
X177963731Y-100820821D01*
X178337018Y-100975824D01*
X178388435Y-100975869D01*
X179582048Y-102169481D01*
X179504176Y-102357018D01*
X179503981Y-102580603D01*
X179195234Y-102708175D01*
X178909179Y-102993731D01*
X178772017Y-103324053D01*
X178508792Y-103323824D01*
X178135234Y-103478175D01*
X177849179Y-103763731D01*
X177694176Y-104137018D01*
X177693824Y-104541208D01*
X177848175Y-104914766D01*
X178133731Y-105200821D01*
X178507018Y-105355824D01*
X178558435Y-105355869D01*
X179384500Y-106181933D01*
X179384500Y-111422560D01*
X179210000Y-111422560D01*
X178974683Y-111466838D01*
X178758559Y-111605910D01*
X178613569Y-111818110D01*
X178562560Y-112070000D01*
X178562560Y-113770000D01*
X178606838Y-114005317D01*
X178745910Y-114221441D01*
X178958110Y-114366431D01*
X179210000Y-114417440D01*
X181210000Y-114417440D01*
X181445317Y-114373162D01*
X181661441Y-114234090D01*
X181806431Y-114021890D01*
X181857440Y-113770000D01*
X181857440Y-112070000D01*
X181813162Y-111834683D01*
X181674090Y-111618559D01*
X181461890Y-111473569D01*
X181210000Y-111422560D01*
X181035500Y-111422560D01*
X181035500Y-106142146D01*
X181237018Y-106225824D01*
X181641208Y-106226176D01*
X182014766Y-106071825D01*
X182300821Y-105786269D01*
X182382392Y-105589825D01*
X186596281Y-109803714D01*
X186596283Y-109803717D01*
X186756824Y-109910987D01*
X186864094Y-109982663D01*
X187180000Y-110045500D01*
X190540811Y-110045500D01*
X190690853Y-110270054D01*
X191172622Y-110591961D01*
X191740907Y-110705000D01*
X191799093Y-110705000D01*
X192367378Y-110591961D01*
X192849147Y-110270054D01*
X193171054Y-109788285D01*
X193284093Y-109220000D01*
X193171054Y-108651715D01*
X192849147Y-108169946D01*
X192519974Y-107950000D01*
X192849147Y-107730054D01*
X193171054Y-107248285D01*
X193284093Y-106680000D01*
X193171054Y-106111715D01*
X192849147Y-105629946D01*
X192519974Y-105410000D01*
X192849147Y-105190054D01*
X193171054Y-104708285D01*
X193284093Y-104140000D01*
X193171054Y-103571715D01*
X192849147Y-103089946D01*
X192519974Y-102870000D01*
X192849147Y-102650054D01*
X193171054Y-102168285D01*
X193284093Y-101600000D01*
X193171054Y-101031715D01*
X192849147Y-100549946D01*
X192519974Y-100330000D01*
X192849147Y-100110054D01*
X193171054Y-99628285D01*
X193284093Y-99060000D01*
X193171054Y-98491715D01*
X192849147Y-98009946D01*
X192805223Y-97980597D01*
X192979698Y-97908327D01*
X193158327Y-97729699D01*
X193255000Y-97496310D01*
X193255000Y-96805750D01*
X193096250Y-96647000D01*
X191897000Y-96647000D01*
X191897000Y-96667000D01*
X191643000Y-96667000D01*
X191643000Y-96647000D01*
X190443750Y-96647000D01*
X190285000Y-96805750D01*
X190285000Y-97496310D01*
X190381673Y-97729699D01*
X190560302Y-97908327D01*
X190734777Y-97980597D01*
X190690853Y-98009946D01*
X190540811Y-98234500D01*
X175840005Y-98234500D01*
X175840000Y-98234499D01*
X175525789Y-98297000D01*
X175524095Y-98297337D01*
X175256283Y-98476283D01*
X175256281Y-98476286D01*
X175118699Y-98613867D01*
X175068792Y-98613824D01*
X174695234Y-98768175D01*
X174409179Y-99053731D01*
X174254176Y-99427018D01*
X174253824Y-99831208D01*
X173785500Y-99831208D01*
X173785500Y-99499000D01*
X173748720Y-99314094D01*
X173722663Y-99183094D01*
X173543717Y-98915283D01*
X170172124Y-95543690D01*
X190285000Y-95543690D01*
X190285000Y-96234250D01*
X190443750Y-96393000D01*
X191643000Y-96393000D01*
X191643000Y-95193750D01*
X191897000Y-95193750D01*
X191897000Y-96393000D01*
X193096250Y-96393000D01*
X193255000Y-96234250D01*
X193255000Y-95543690D01*
X193158327Y-95310301D01*
X192979698Y-95131673D01*
X192746309Y-95035000D01*
X192055750Y-95035000D01*
X191897000Y-95193750D01*
X191643000Y-95193750D01*
X191484250Y-95035000D01*
X190793691Y-95035000D01*
X190560302Y-95131673D01*
X190381673Y-95310301D01*
X190285000Y-95543690D01*
X170172124Y-95543690D01*
X170134717Y-95506283D01*
X169866906Y-95327337D01*
X169817440Y-95317498D01*
X169817440Y-95090000D01*
X169773162Y-94854683D01*
X169634090Y-94638559D01*
X169421890Y-94493569D01*
X169170000Y-94442560D01*
X167470000Y-94442560D01*
X167234683Y-94486838D01*
X167018559Y-94625910D01*
X166873569Y-94838110D01*
X166822560Y-95090000D01*
X166560500Y-95090000D01*
X166560500Y-94234005D01*
X166560501Y-94234000D01*
X166497663Y-93918094D01*
X166318717Y-93650283D01*
X165302717Y-92634283D01*
X165302714Y-92634281D01*
X155662934Y-82994500D01*
X160519147Y-82994500D01*
X162143275Y-84618628D01*
X162139946Y-84620853D01*
X161818039Y-85102622D01*
X161705000Y-85670907D01*
X161705000Y-85729093D01*
X161818039Y-86297378D01*
X162139946Y-86779147D01*
X162621715Y-87101054D01*
X163190000Y-87214093D01*
X163758285Y-87101054D01*
X164240054Y-86779147D01*
X164460000Y-86449974D01*
X164679946Y-86779147D01*
X165161715Y-87101054D01*
X165730000Y-87214093D01*
X166019145Y-87156579D01*
X167494500Y-88631934D01*
X167494500Y-90442560D01*
X167470000Y-90442560D01*
X167234683Y-90486838D01*
X167018559Y-90625910D01*
X166873569Y-90838110D01*
X166822560Y-91090000D01*
X166822560Y-93090000D01*
X166866838Y-93325317D01*
X167005910Y-93541441D01*
X167218110Y-93686431D01*
X167470000Y-93737440D01*
X169170000Y-93737440D01*
X169405317Y-93693162D01*
X169621441Y-93554090D01*
X169766431Y-93341890D01*
X169817440Y-93090000D01*
X169817440Y-91090000D01*
X169773162Y-90854683D01*
X169634090Y-90638559D01*
X169421890Y-90493569D01*
X169170000Y-90442560D01*
X169145500Y-90442560D01*
X169145500Y-88290000D01*
X169124415Y-88184000D01*
X169082663Y-87974094D01*
X168903717Y-87706283D01*
X168382434Y-87185000D01*
X168397002Y-87185000D01*
X168397002Y-87026252D01*
X168555750Y-87185000D01*
X169246310Y-87185000D01*
X169479699Y-87088327D01*
X169658327Y-86909698D01*
X169755000Y-86676309D01*
X169755000Y-85985750D01*
X169596250Y-85827000D01*
X168397000Y-85827000D01*
X168397000Y-85847000D01*
X168143000Y-85847000D01*
X168143000Y-85827000D01*
X168123000Y-85827000D01*
X168123000Y-85573000D01*
X168143000Y-85573000D01*
X168143000Y-84373750D01*
X168397000Y-84373750D01*
X168397000Y-85573000D01*
X169596250Y-85573000D01*
X169755000Y-85414250D01*
X169755000Y-84723691D01*
X169658327Y-84490302D01*
X169479699Y-84311673D01*
X169246310Y-84215000D01*
X168555750Y-84215000D01*
X168397000Y-84373750D01*
X168143000Y-84373750D01*
X167984250Y-84215000D01*
X167293690Y-84215000D01*
X167060301Y-84311673D01*
X166881673Y-84490302D01*
X166809403Y-84664777D01*
X166780054Y-84620853D01*
X166298285Y-84298946D01*
X165730000Y-84185907D01*
X165161715Y-84298946D01*
X164679946Y-84620853D01*
X164460000Y-84950026D01*
X164240054Y-84620853D01*
X164009282Y-84466657D01*
X163952663Y-84182014D01*
X163773717Y-83914202D01*
X162854015Y-82994500D01*
X163322000Y-82994500D01*
X163637906Y-82931663D01*
X163905717Y-82752717D01*
X165214744Y-81443690D01*
X190015000Y-81443690D01*
X190015000Y-82134250D01*
X190173750Y-82293000D01*
X191373000Y-82293000D01*
X191373000Y-81093750D01*
X191627000Y-81093750D01*
X191627000Y-82293000D01*
X192826250Y-82293000D01*
X192985000Y-82134250D01*
X192985000Y-81443690D01*
X192888327Y-81210301D01*
X192709698Y-81031673D01*
X192476309Y-80935000D01*
X191785750Y-80935000D01*
X191627000Y-81093750D01*
X191373000Y-81093750D01*
X191214250Y-80935000D01*
X190523691Y-80935000D01*
X190290302Y-81031673D01*
X190111673Y-81210301D01*
X190015000Y-81443690D01*
X165214744Y-81443690D01*
X167918301Y-78740133D01*
X167968208Y-78740176D01*
X168341766Y-78585825D01*
X168627821Y-78300269D01*
X168782824Y-77926982D01*
X168783176Y-77522792D01*
X168628825Y-77149234D01*
X168343269Y-76863179D01*
X167969982Y-76708176D01*
X167565792Y-76707824D01*
X167192234Y-76862175D01*
X166906179Y-77147731D01*
X166751176Y-77521018D01*
X166751131Y-77572436D01*
X162980066Y-81343500D01*
X154518701Y-81343500D01*
X154414890Y-81272569D01*
X154163000Y-81221560D01*
X153988500Y-81221560D01*
X153988500Y-78487005D01*
X153988501Y-78487000D01*
X153925663Y-78171095D01*
X153900328Y-78133179D01*
X153746717Y-77903283D01*
X153746714Y-77903281D01*
X150316717Y-74473283D01*
X150048906Y-74294337D01*
X149733000Y-74231500D01*
X140803933Y-74231500D01*
X140168933Y-73596500D01*
X152312066Y-73596500D01*
X157218712Y-78503145D01*
X157099176Y-78791018D01*
X157098824Y-79195208D01*
X157253175Y-79568766D01*
X157538731Y-79854821D01*
X157912018Y-80009824D01*
X158316208Y-80010176D01*
X158689766Y-79855825D01*
X158975821Y-79570269D01*
X159130824Y-79196982D01*
X159131176Y-78792792D01*
X158976825Y-78419234D01*
X158940500Y-78382846D01*
X158940500Y-78232000D01*
X158902290Y-78039905D01*
X158877663Y-77916094D01*
X158784584Y-77776792D01*
X158698717Y-77648283D01*
X158698714Y-77648281D01*
X153237717Y-72187283D01*
X152969906Y-72008337D01*
X152654000Y-71945500D01*
X140295933Y-71945500D01*
X140271500Y-71921066D01*
X140271500Y-68580000D01*
X140208663Y-68264095D01*
X140029717Y-67996283D01*
X140029714Y-67996281D01*
X139114717Y-67081283D01*
X138846906Y-66902337D01*
X138531000Y-66839500D01*
X138047440Y-66839500D01*
X138047440Y-66815000D01*
X138023056Y-66685411D01*
X138047440Y-66565000D01*
X138047440Y-66165000D01*
X138023056Y-66035411D01*
X138047440Y-65915000D01*
X138047440Y-65515000D01*
X138023056Y-65385411D01*
X138047440Y-65265000D01*
X138047440Y-64865000D01*
X138023056Y-64735411D01*
X138047440Y-64615000D01*
X138047440Y-64215000D01*
X138023056Y-64085411D01*
X138047440Y-63965000D01*
X138047440Y-63565000D01*
X138023056Y-63435411D01*
X138047440Y-63315000D01*
X138047440Y-63269328D01*
X138256906Y-63227663D01*
X138524717Y-63048717D01*
X139013714Y-62559719D01*
X139013717Y-62559717D01*
X139192663Y-62291905D01*
X139255500Y-61976000D01*
X139255500Y-60074883D01*
X139489670Y-59918415D01*
X139700000Y-59603634D01*
X139910330Y-59918415D01*
X140144500Y-60074883D01*
X140144500Y-61976000D01*
X140207337Y-62291906D01*
X140386283Y-62559717D01*
X140875281Y-63048714D01*
X140875283Y-63048717D01*
X141143095Y-63227663D01*
X141352560Y-63269328D01*
X141352560Y-63315000D01*
X141376944Y-63444589D01*
X141352560Y-63565000D01*
X141352560Y-63965000D01*
X141376944Y-64094589D01*
X141352560Y-64215000D01*
X141352560Y-64615000D01*
X141376944Y-64744589D01*
X141352560Y-64865000D01*
X141352560Y-65265000D01*
X141376944Y-65394589D01*
X141352560Y-65515000D01*
X141352560Y-65915000D01*
X141376944Y-66044589D01*
X141352560Y-66165000D01*
X141352560Y-66565000D01*
X141376944Y-66694589D01*
X141352560Y-66815000D01*
X141352560Y-67215000D01*
X141376944Y-67344589D01*
X141352560Y-67465000D01*
X141352560Y-67865000D01*
X141376944Y-67994589D01*
X141352560Y-68115000D01*
X141352560Y-68515000D01*
X141376944Y-68644589D01*
X141352560Y-68765000D01*
X141352560Y-69165000D01*
X141372450Y-69270705D01*
X141365000Y-69288690D01*
X141365000Y-69356250D01*
X141394004Y-69385254D01*
X141396838Y-69400317D01*
X141535910Y-69616441D01*
X141680156Y-69715000D01*
X141523750Y-69715000D01*
X141365000Y-69873750D01*
X141365000Y-69941310D01*
X141461673Y-70174699D01*
X141640302Y-70353327D01*
X141873691Y-70450000D01*
X142264250Y-70450000D01*
X142423000Y-70291250D01*
X142423000Y-69812440D01*
X142677000Y-69812440D01*
X142677000Y-70291250D01*
X142835750Y-70450000D01*
X143226309Y-70450000D01*
X143459698Y-70353327D01*
X143638327Y-70174699D01*
X143735000Y-69941310D01*
X143735000Y-69873750D01*
X143651750Y-69790500D01*
X160444066Y-69790500D01*
X160654867Y-70001301D01*
X160654824Y-70051208D01*
X160809175Y-70424766D01*
X161094731Y-70710821D01*
X161468018Y-70865824D01*
X161872208Y-70866176D01*
X162245766Y-70711825D01*
X162531821Y-70426269D01*
X162627475Y-70195909D01*
X170560867Y-78129301D01*
X170560824Y-78179208D01*
X170633039Y-78353982D01*
X170569179Y-78417731D01*
X170414176Y-78791018D01*
X170413824Y-79195208D01*
X170568175Y-79568766D01*
X170853731Y-79854821D01*
X171227018Y-80009824D01*
X171631208Y-80010176D01*
X172004766Y-79855825D01*
X172041154Y-79819500D01*
X180975000Y-79819500D01*
X181290906Y-79756663D01*
X181558717Y-79577717D01*
X182193714Y-78942719D01*
X182193717Y-78942717D01*
X182372663Y-78674905D01*
X182382502Y-78625441D01*
X182435501Y-78359000D01*
X182435500Y-78358995D01*
X182435500Y-70417612D01*
X182513691Y-70450000D01*
X182904250Y-70450000D01*
X183063000Y-70291250D01*
X183063000Y-69812440D01*
X183317000Y-69812440D01*
X183317000Y-70291250D01*
X183475750Y-70450000D01*
X183866309Y-70450000D01*
X184099698Y-70353327D01*
X184278327Y-70174699D01*
X184375000Y-69941310D01*
X184375000Y-69873750D01*
X184216250Y-69715000D01*
X184057933Y-69715000D01*
X184191441Y-69629090D01*
X184336431Y-69416890D01*
X184342035Y-69389215D01*
X184375000Y-69356250D01*
X184375000Y-69288690D01*
X184366532Y-69268247D01*
X184387440Y-69165000D01*
X184387440Y-68765000D01*
X184363056Y-68635411D01*
X184387440Y-68515000D01*
X184387440Y-68115000D01*
X184363056Y-67985411D01*
X184387440Y-67865000D01*
X184387440Y-67840500D01*
X195113000Y-67840500D01*
X195428906Y-67777663D01*
X195696717Y-67598717D01*
X199973714Y-63321719D01*
X199973717Y-63321717D01*
X200152663Y-63053905D01*
X200215500Y-62738000D01*
X200215500Y-60337440D01*
X200253600Y-60337440D01*
X200488917Y-60293162D01*
X200705041Y-60154090D01*
X200850031Y-59941890D01*
X200901040Y-59690000D01*
X200901040Y-57658000D01*
X200856762Y-57422683D01*
X200717690Y-57206559D01*
X200505490Y-57061569D01*
X200253600Y-57010560D01*
X198526400Y-57010560D01*
X198291083Y-57054838D01*
X198074959Y-57193910D01*
X197929969Y-57406110D01*
X197921600Y-57447439D01*
X197909670Y-57429585D01*
X197423489Y-57104729D01*
X196850000Y-56990655D01*
X196276511Y-57104729D01*
X195790330Y-57429585D01*
X195580000Y-57744366D01*
X195369670Y-57429585D01*
X194883489Y-57104729D01*
X194310000Y-56990655D01*
X193736511Y-57104729D01*
X193250330Y-57429585D01*
X193040000Y-57744366D01*
X192829670Y-57429585D01*
X192343489Y-57104729D01*
X191770000Y-56990655D01*
X191196511Y-57104729D01*
X190710330Y-57429585D01*
X190500000Y-57744366D01*
X190289670Y-57429585D01*
X189803489Y-57104729D01*
X189230000Y-56990655D01*
X188656511Y-57104729D01*
X188170330Y-57429585D01*
X187960000Y-57744366D01*
X187749670Y-57429585D01*
X187263489Y-57104729D01*
X186690000Y-56990655D01*
X186116511Y-57104729D01*
X185630330Y-57429585D01*
X185420000Y-57744366D01*
X185209670Y-57429585D01*
X184723489Y-57104729D01*
X184150000Y-56990655D01*
X183576511Y-57104729D01*
X183090330Y-57429585D01*
X182880000Y-57744366D01*
X182669670Y-57429585D01*
X182183489Y-57104729D01*
X181610000Y-56990655D01*
X181036511Y-57104729D01*
X180550330Y-57429585D01*
X180340000Y-57744366D01*
X180129670Y-57429585D01*
X179643489Y-57104729D01*
X179070000Y-56990655D01*
X178496511Y-57104729D01*
X178010330Y-57429585D01*
X177800000Y-57744366D01*
X177589670Y-57429585D01*
X177103489Y-57104729D01*
X176530000Y-56990655D01*
X175956511Y-57104729D01*
X175470330Y-57429585D01*
X175260000Y-57744366D01*
X175049670Y-57429585D01*
X174563489Y-57104729D01*
X173990000Y-56990655D01*
X173416511Y-57104729D01*
X172930330Y-57429585D01*
X172720000Y-57744366D01*
X172509670Y-57429585D01*
X172023489Y-57104729D01*
X171450000Y-56990655D01*
X170876511Y-57104729D01*
X170390330Y-57429585D01*
X170180000Y-57744366D01*
X169969670Y-57429585D01*
X169483489Y-57104729D01*
X168910000Y-56990655D01*
X168336511Y-57104729D01*
X167850330Y-57429585D01*
X167640000Y-57744366D01*
X167429670Y-57429585D01*
X166943489Y-57104729D01*
X166370000Y-56990655D01*
X165796511Y-57104729D01*
X165310330Y-57429585D01*
X165100000Y-57744366D01*
X164889670Y-57429585D01*
X164403489Y-57104729D01*
X163830000Y-56990655D01*
X163256511Y-57104729D01*
X162770330Y-57429585D01*
X162560000Y-57744366D01*
X162349670Y-57429585D01*
X161863489Y-57104729D01*
X161290000Y-56990655D01*
X160716511Y-57104729D01*
X160230330Y-57429585D01*
X160020000Y-57744366D01*
X159809670Y-57429585D01*
X159323489Y-57104729D01*
X158750000Y-56990655D01*
X158176511Y-57104729D01*
X157690330Y-57429585D01*
X157480000Y-57744366D01*
X157269670Y-57429585D01*
X156783489Y-57104729D01*
X156210000Y-56990655D01*
X155636511Y-57104729D01*
X155150330Y-57429585D01*
X154940000Y-57744366D01*
X154729670Y-57429585D01*
X154243489Y-57104729D01*
X153670000Y-56990655D01*
X153096511Y-57104729D01*
X152610330Y-57429585D01*
X152400000Y-57744366D01*
X152189670Y-57429585D01*
X151703489Y-57104729D01*
X151130000Y-56990655D01*
X150556511Y-57104729D01*
X150070330Y-57429585D01*
X149860000Y-57744366D01*
X149649670Y-57429585D01*
X149163489Y-57104729D01*
X148590000Y-56990655D01*
X148016511Y-57104729D01*
X147530330Y-57429585D01*
X147320000Y-57744366D01*
X147109670Y-57429585D01*
X146623489Y-57104729D01*
X146050000Y-56990655D01*
X145476511Y-57104729D01*
X144990330Y-57429585D01*
X144780000Y-57744366D01*
X144569670Y-57429585D01*
X144083489Y-57104729D01*
X143510000Y-56990655D01*
X142936511Y-57104729D01*
X142450330Y-57429585D01*
X142240000Y-57744366D01*
X142029670Y-57429585D01*
X141543489Y-57104729D01*
X140970000Y-56990655D01*
X140396511Y-57104729D01*
X139910330Y-57429585D01*
X139700000Y-57744366D01*
X139489670Y-57429585D01*
X139003489Y-57104729D01*
X138430000Y-56990655D01*
X137856511Y-57104729D01*
X137370330Y-57429585D01*
X137160000Y-57744366D01*
X136949670Y-57429585D01*
X136463489Y-57104729D01*
X135890000Y-56990655D01*
X135316511Y-57104729D01*
X134830330Y-57429585D01*
X134620000Y-57744366D01*
X134409670Y-57429585D01*
X133923489Y-57104729D01*
X133350000Y-56990655D01*
X132776511Y-57104729D01*
X132290330Y-57429585D01*
X132080000Y-57744366D01*
X131869670Y-57429585D01*
X131383489Y-57104729D01*
X130810000Y-56990655D01*
X130236511Y-57104729D01*
X129750330Y-57429585D01*
X129540000Y-57744366D01*
X129329670Y-57429585D01*
X128843489Y-57104729D01*
X128270000Y-56990655D01*
X127696511Y-57104729D01*
X127210330Y-57429585D01*
X127000000Y-57744366D01*
X126789670Y-57429585D01*
X126303489Y-57104729D01*
X125730000Y-56990655D01*
X125156511Y-57104729D01*
X124670330Y-57429585D01*
X124460000Y-57744366D01*
X124249670Y-57429585D01*
X123763489Y-57104729D01*
X123190000Y-56990655D01*
X122616511Y-57104729D01*
X122130330Y-57429585D01*
X121920000Y-57744366D01*
X121709670Y-57429585D01*
X121223489Y-57104729D01*
X120650000Y-56990655D01*
X120076511Y-57104729D01*
X119590330Y-57429585D01*
X119265474Y-57915766D01*
X119151400Y-58489255D01*
X119151400Y-58858745D01*
X119265474Y-59432234D01*
X119590330Y-59918415D01*
X119824500Y-60074883D01*
X119824500Y-62992000D01*
X119887337Y-63307906D01*
X120066283Y-63575717D01*
X124089283Y-67598717D01*
X124357094Y-67777663D01*
X124673000Y-67840500D01*
X135652560Y-67840500D01*
X135652560Y-67865000D01*
X135676944Y-67994589D01*
X135652560Y-68115000D01*
X135652560Y-68139500D01*
X135124000Y-68139500D01*
X134808094Y-68202337D01*
X134540283Y-68381283D01*
X134103178Y-68818388D01*
X133924890Y-68696569D01*
X133673000Y-68645560D01*
X132773000Y-68645560D01*
X132537683Y-68689838D01*
X132321559Y-68828910D01*
X132176569Y-69041110D01*
X132125560Y-69293000D01*
X132125560Y-70493000D01*
X132169838Y-70728317D01*
X132308910Y-70944441D01*
X132377006Y-70990969D01*
X132234673Y-71133302D01*
X132138000Y-71366691D01*
X132138000Y-71807250D01*
X132296750Y-71966000D01*
X133096000Y-71966000D01*
X133096000Y-71946000D01*
X133350000Y-71946000D01*
X133350000Y-71966000D01*
X134149250Y-71966000D01*
X134308000Y-71807250D01*
X134308000Y-71366691D01*
X134211327Y-71133302D01*
X134070090Y-70992064D01*
X134124441Y-70957090D01*
X134269431Y-70744890D01*
X134278081Y-70702173D01*
X134511906Y-70655663D01*
X134779717Y-70476717D01*
X135465934Y-69790500D01*
X135652560Y-69790500D01*
X135652560Y-69815000D01*
X135696838Y-70050317D01*
X135835910Y-70266441D01*
X136024500Y-70395299D01*
X136024500Y-71407380D01*
X136017176Y-71425018D01*
X136016824Y-71829208D01*
X136171175Y-72202766D01*
X136456731Y-72488821D01*
X136830018Y-72643824D01*
X136881435Y-72643869D01*
X139878281Y-75640714D01*
X139878283Y-75640717D01*
X140020720Y-75735890D01*
X140146094Y-75819663D01*
X140462000Y-75882500D01*
X149391066Y-75882500D01*
X152337500Y-78828933D01*
X152337500Y-81221560D01*
X152163000Y-81221560D01*
X151927683Y-81265838D01*
X151806993Y-81343500D01*
X148439528Y-81343500D01*
X148404269Y-81308179D01*
X148030982Y-81153176D01*
X147626792Y-81152824D01*
X147253234Y-81307175D01*
X146967179Y-81592731D01*
X146812176Y-81966018D01*
X146811824Y-82370208D01*
X146966175Y-82743766D01*
X147251731Y-83029821D01*
X147625018Y-83184824D01*
X148029208Y-83185176D01*
X148402766Y-83030825D01*
X148439154Y-82994500D01*
X151544822Y-82994500D01*
X151515560Y-83139000D01*
X151515560Y-83739000D01*
X151559838Y-83974317D01*
X151623678Y-84073528D01*
X151566569Y-84157110D01*
X151515560Y-84409000D01*
X151515560Y-85009000D01*
X151559838Y-85244317D01*
X151623678Y-85343528D01*
X151566569Y-85427110D01*
X151515560Y-85679000D01*
X151515560Y-86279000D01*
X151559838Y-86514317D01*
X151623678Y-86613528D01*
X151566569Y-86697110D01*
X151515560Y-86949000D01*
X151515560Y-87549000D01*
X151559838Y-87784317D01*
X151623678Y-87883528D01*
X151566569Y-87967110D01*
X151515560Y-88219000D01*
X151515560Y-88819000D01*
X151559838Y-89054317D01*
X151623678Y-89153528D01*
X151566569Y-89237110D01*
X151515560Y-89489000D01*
X151515560Y-90089000D01*
X151559838Y-90324317D01*
X151623678Y-90423528D01*
X151566569Y-90507110D01*
X151515560Y-90759000D01*
X151515560Y-91359000D01*
X151559838Y-91594317D01*
X151623678Y-91693528D01*
X151566569Y-91777110D01*
X151515560Y-92029000D01*
X151515560Y-92629000D01*
X151559838Y-92864317D01*
X151623678Y-92963528D01*
X151566569Y-93047110D01*
X151515560Y-93299000D01*
X151515560Y-93899000D01*
X151559838Y-94134317D01*
X151623678Y-94233528D01*
X151566569Y-94317110D01*
X151515560Y-94569000D01*
X151515560Y-95169000D01*
X151559838Y-95404317D01*
X151623678Y-95503528D01*
X151566569Y-95587110D01*
X151515560Y-95839000D01*
X151515560Y-96439000D01*
X151559838Y-96674317D01*
X151698910Y-96890441D01*
X151911110Y-97035431D01*
X152163000Y-97086440D01*
X152337500Y-97086440D01*
X152337500Y-97955066D01*
X147994066Y-102298500D01*
X134038957Y-102298500D01*
X133990090Y-102222559D01*
X133777890Y-102077569D01*
X133526000Y-102026560D01*
X132326000Y-102026560D01*
X132090683Y-102070838D01*
X131874559Y-102209910D01*
X131826866Y-102279711D01*
X131790090Y-102222559D01*
X131577890Y-102077569D01*
X131326000Y-102026560D01*
X130126000Y-102026560D01*
X129890683Y-102070838D01*
X129674559Y-102209910D01*
X129614028Y-102298500D01*
X127126945Y-102298500D01*
X127127176Y-102033792D01*
X126972825Y-101660234D01*
X126722528Y-101409500D01*
X129613043Y-101409500D01*
X129661910Y-101485441D01*
X129874110Y-101630431D01*
X130126000Y-101681440D01*
X131326000Y-101681440D01*
X131561317Y-101637162D01*
X131777441Y-101498090D01*
X131825134Y-101428289D01*
X131861910Y-101485441D01*
X132074110Y-101630431D01*
X132326000Y-101681440D01*
X133526000Y-101681440D01*
X133761317Y-101637162D01*
X133977441Y-101498090D01*
X134037972Y-101409500D01*
X134747000Y-101409500D01*
X135062906Y-101346663D01*
X135330717Y-101167717D01*
X140073683Y-96424750D01*
X142128000Y-96424750D01*
X142128000Y-96565310D01*
X142224673Y-96798699D01*
X142403302Y-96977327D01*
X142636691Y-97074000D01*
X143477250Y-97074000D01*
X143636000Y-96915250D01*
X143636000Y-96266000D01*
X143890000Y-96266000D01*
X143890000Y-96915250D01*
X144048750Y-97074000D01*
X144889309Y-97074000D01*
X145122698Y-96977327D01*
X145301327Y-96798699D01*
X145398000Y-96565310D01*
X145398000Y-96424750D01*
X145239250Y-96266000D01*
X143890000Y-96266000D01*
X143636000Y-96266000D01*
X142286750Y-96266000D01*
X142128000Y-96424750D01*
X140073683Y-96424750D01*
X140803933Y-95694500D01*
X142135535Y-95694500D01*
X142128000Y-95712690D01*
X142128000Y-95853250D01*
X142286750Y-96012000D01*
X143636000Y-96012000D01*
X143636000Y-95992000D01*
X143890000Y-95992000D01*
X143890000Y-96012000D01*
X145239250Y-96012000D01*
X145398000Y-95853250D01*
X145398000Y-95712690D01*
X145308194Y-95495878D01*
X145359431Y-95420890D01*
X145410440Y-95169000D01*
X145410440Y-94569000D01*
X145366162Y-94333683D01*
X145302322Y-94234472D01*
X145359431Y-94150890D01*
X145410440Y-93899000D01*
X145410440Y-93299000D01*
X145366162Y-93063683D01*
X145302322Y-92964472D01*
X145359431Y-92880890D01*
X145410440Y-92629000D01*
X145410440Y-92029000D01*
X145366162Y-91793683D01*
X145302322Y-91694472D01*
X145359431Y-91610890D01*
X145410440Y-91359000D01*
X145410440Y-90759000D01*
X145366162Y-90523683D01*
X145302322Y-90424472D01*
X145359431Y-90340890D01*
X145410440Y-90089000D01*
X145410440Y-89489000D01*
X145366162Y-89253683D01*
X145302322Y-89154472D01*
X145359431Y-89070890D01*
X145410440Y-88819000D01*
X145410440Y-88219000D01*
X145366162Y-87983683D01*
X145302322Y-87884472D01*
X145359431Y-87800890D01*
X145410440Y-87549000D01*
X145410440Y-86949000D01*
X145366162Y-86713683D01*
X145302322Y-86614472D01*
X145359431Y-86530890D01*
X145410440Y-86279000D01*
X145410440Y-85679000D01*
X145366162Y-85443683D01*
X145302322Y-85344472D01*
X145359431Y-85260890D01*
X145410440Y-85009000D01*
X145410440Y-84409000D01*
X145366162Y-84173683D01*
X145302322Y-84074472D01*
X145359431Y-83990890D01*
X145410440Y-83739000D01*
X145410440Y-83139000D01*
X145366162Y-82903683D01*
X145302322Y-82804472D01*
X145359431Y-82720890D01*
X145410440Y-82469000D01*
X145410440Y-81869000D01*
X145366162Y-81633683D01*
X145227090Y-81417559D01*
X145014890Y-81272569D01*
X144763000Y-81221560D01*
X142763000Y-81221560D01*
X142527683Y-81265838D01*
X142406993Y-81343500D01*
X142073933Y-81343500D01*
X135330717Y-74600283D01*
X135062906Y-74421337D01*
X134747000Y-74358500D01*
X134038957Y-74358500D01*
X133990090Y-74282559D01*
X133777890Y-74137569D01*
X133526000Y-74086560D01*
X132326000Y-74086560D01*
X132090683Y-74130838D01*
X131874559Y-74269910D01*
X131826866Y-74339711D01*
X131790090Y-74282559D01*
X131577890Y-74137569D01*
X131326000Y-74086560D01*
X130126000Y-74086560D01*
X129890683Y-74130838D01*
X129674559Y-74269910D01*
X129614028Y-74358500D01*
X120908178Y-74358500D01*
X120937440Y-74214000D01*
X120937440Y-73614000D01*
X120893162Y-73378683D01*
X120754090Y-73162559D01*
X120541890Y-73017569D01*
X120290000Y-72966560D01*
X118790000Y-72966560D01*
X118554683Y-73010838D01*
X118433993Y-73088500D01*
X118110000Y-73088500D01*
X117794095Y-73151337D01*
X117526283Y-73330283D01*
X117526281Y-73330286D01*
X117018283Y-73838283D01*
X116839337Y-74106094D01*
X116814075Y-74233094D01*
X116776500Y-74422000D01*
X116776500Y-75946000D01*
X116839337Y-76261906D01*
X116967690Y-76454000D01*
X116839337Y-76646094D01*
X116814075Y-76773094D01*
X116776500Y-76962000D01*
X116776500Y-78486000D01*
X116839337Y-78801906D01*
X116967690Y-78994000D01*
X116839337Y-79186094D01*
X116814193Y-79312501D01*
X116776500Y-79502000D01*
X116776500Y-81026000D01*
X116839337Y-81341906D01*
X117018283Y-81609717D01*
X117526281Y-82117714D01*
X117526283Y-82117717D01*
X117794095Y-82296663D01*
X118110000Y-82359500D01*
X118171822Y-82359500D01*
X118142560Y-82504000D01*
X118142560Y-83104000D01*
X118169750Y-83248500D01*
X115508178Y-83248500D01*
X115537440Y-83104000D01*
X115537440Y-82504000D01*
X115493162Y-82268683D01*
X115429322Y-82169472D01*
X115486431Y-82085890D01*
X115537440Y-81834000D01*
X115537440Y-81234000D01*
X115493162Y-80998683D01*
X115429322Y-80899472D01*
X115486431Y-80815890D01*
X115537440Y-80564000D01*
X115537440Y-79964000D01*
X115493162Y-79728683D01*
X115429322Y-79629472D01*
X115486431Y-79545890D01*
X115537440Y-79294000D01*
X115537440Y-78694000D01*
X115493162Y-78458683D01*
X115429322Y-78359472D01*
X115486431Y-78275890D01*
X115537440Y-78024000D01*
X115537440Y-77424000D01*
X115493162Y-77188683D01*
X115429322Y-77089472D01*
X115486431Y-77005890D01*
X115537440Y-76754000D01*
X115537440Y-76154000D01*
X115493162Y-75918683D01*
X115429322Y-75819472D01*
X115486431Y-75735890D01*
X115537440Y-75484000D01*
X115537440Y-74884000D01*
X115493162Y-74648683D01*
X115429322Y-74549472D01*
X115486431Y-74465890D01*
X115537440Y-74214000D01*
X115537440Y-73614000D01*
X115493162Y-73378683D01*
X115354090Y-73162559D01*
X115141890Y-73017569D01*
X114890000Y-72966560D01*
X113390000Y-72966560D01*
X113154683Y-73010838D01*
X113033993Y-73088500D01*
X112649005Y-73088500D01*
X112649000Y-73088499D01*
X112340269Y-73149910D01*
X112333095Y-73151337D01*
X112065283Y-73330283D01*
X112065281Y-73330286D01*
X111862699Y-73532867D01*
X111812792Y-73532824D01*
X111439234Y-73687175D01*
X111402846Y-73723500D01*
X106311440Y-73723500D01*
X106311440Y-73685400D01*
X106267162Y-73450083D01*
X106128090Y-73233959D01*
X105915890Y-73088969D01*
X105664000Y-73037960D01*
X103632000Y-73037960D01*
X103396683Y-73082238D01*
X103180559Y-73221310D01*
X103035569Y-73433510D01*
X102984560Y-73685400D01*
X102984560Y-75412600D01*
X103028838Y-75647917D01*
X103167910Y-75864041D01*
X103380110Y-76009031D01*
X103421439Y-76017400D01*
X103403585Y-76029330D01*
X103078729Y-76515511D01*
X102964655Y-77089000D01*
X102685000Y-77089000D01*
X102685000Y-72378750D01*
X132138000Y-72378750D01*
X132138000Y-72819309D01*
X132234673Y-73052698D01*
X132413301Y-73231327D01*
X132646690Y-73328000D01*
X132937250Y-73328000D01*
X133096000Y-73169250D01*
X133096000Y-72220000D01*
X133350000Y-72220000D01*
X133350000Y-73169250D01*
X133508750Y-73328000D01*
X133799310Y-73328000D01*
X134032699Y-73231327D01*
X134211327Y-73052698D01*
X134308000Y-72819309D01*
X134308000Y-72378750D01*
X134149250Y-72220000D01*
X133350000Y-72220000D01*
X133096000Y-72220000D01*
X132296750Y-72220000D01*
X132138000Y-72378750D01*
X102685000Y-72378750D01*
X102685000Y-56685000D01*
X201315000Y-56685000D01*
X201315000Y-155315000D01*
X201315000Y-155315000D01*
G37*
X201315000Y-155315000D02*
X102685000Y-155315000D01*
X102685000Y-77089000D01*
X102964655Y-77089000D01*
X103078729Y-77662489D01*
X103403585Y-78148670D01*
X103718366Y-78359000D01*
X103403585Y-78569330D01*
X103078729Y-79055511D01*
X102964655Y-79629000D01*
X103078729Y-80202489D01*
X103403585Y-80688670D01*
X103718366Y-80899000D01*
X103403585Y-81109330D01*
X103078729Y-81595511D01*
X102964655Y-82169000D01*
X103078729Y-82742489D01*
X103403585Y-83228670D01*
X103718366Y-83439000D01*
X103403585Y-83649330D01*
X103078729Y-84135511D01*
X102964655Y-84709000D01*
X103078729Y-85282489D01*
X103403585Y-85768670D01*
X103718366Y-85979000D01*
X103403585Y-86189330D01*
X103078729Y-86675511D01*
X102964655Y-87249000D01*
X103078729Y-87822489D01*
X103403585Y-88308670D01*
X103718366Y-88519000D01*
X103403585Y-88729330D01*
X103078729Y-89215511D01*
X102964655Y-89789000D01*
X103078729Y-90362489D01*
X103403585Y-90848670D01*
X103718366Y-91059000D01*
X103403585Y-91269330D01*
X103078729Y-91755511D01*
X102964655Y-92329000D01*
X103078729Y-92902489D01*
X103403585Y-93388670D01*
X103718366Y-93599000D01*
X103403585Y-93809330D01*
X103078729Y-94295511D01*
X102964655Y-94869000D01*
X103078729Y-95442489D01*
X103403585Y-95928670D01*
X103718366Y-96139000D01*
X103403585Y-96349330D01*
X103078729Y-96835511D01*
X102964655Y-97409000D01*
X103078729Y-97982489D01*
X103403585Y-98468670D01*
X103718366Y-98679000D01*
X103403585Y-98889330D01*
X103078729Y-99375511D01*
X102964655Y-99949000D01*
X103078729Y-100522489D01*
X103403585Y-101008670D01*
X103718366Y-101219000D01*
X103403585Y-101429330D01*
X103078729Y-101915511D01*
X102964655Y-102489000D01*
X103078729Y-103062489D01*
X103403585Y-103548670D01*
X103718366Y-103759000D01*
X103403585Y-103969330D01*
X103078729Y-104455511D01*
X102964655Y-105029000D01*
X103078729Y-105602489D01*
X103403585Y-106088670D01*
X103718366Y-106299000D01*
X103403585Y-106509330D01*
X103078729Y-106995511D01*
X102964655Y-107569000D01*
X103078729Y-108142489D01*
X103403585Y-108628670D01*
X103718366Y-108839000D01*
X103403585Y-109049330D01*
X103078729Y-109535511D01*
X102964655Y-110109000D01*
X103078729Y-110682489D01*
X103403585Y-111168670D01*
X103718366Y-111379000D01*
X103403585Y-111589330D01*
X103078729Y-112075511D01*
X102964655Y-112649000D01*
X103078729Y-113222489D01*
X103403585Y-113708670D01*
X103718366Y-113919000D01*
X103403585Y-114129330D01*
X103078729Y-114615511D01*
X102964655Y-115189000D01*
X103078729Y-115762489D01*
X103403585Y-116248670D01*
X103718366Y-116459000D01*
X103403585Y-116669330D01*
X103078729Y-117155511D01*
X102964655Y-117729000D01*
X103078729Y-118302489D01*
X103403585Y-118788670D01*
X103718366Y-118999000D01*
X103403585Y-119209330D01*
X103078729Y-119695511D01*
X102964655Y-120269000D01*
X103078729Y-120842489D01*
X103403585Y-121328670D01*
X103718366Y-121539000D01*
X103403585Y-121749330D01*
X103078729Y-122235511D01*
X102964655Y-122809000D01*
X103078729Y-123382489D01*
X103403585Y-123868670D01*
X103718366Y-124079000D01*
X103403585Y-124289330D01*
X103078729Y-124775511D01*
X102964655Y-125349000D01*
X103078729Y-125922489D01*
X103403585Y-126408670D01*
X103718366Y-126619000D01*
X103403585Y-126829330D01*
X103078729Y-127315511D01*
X102964655Y-127889000D01*
X103078729Y-128462489D01*
X103403585Y-128948670D01*
X103718366Y-129159000D01*
X103403585Y-129369330D01*
X103078729Y-129855511D01*
X102964655Y-130429000D01*
X103078729Y-131002489D01*
X103403585Y-131488670D01*
X103718366Y-131699000D01*
X103403585Y-131909330D01*
X103078729Y-132395511D01*
X102964655Y-132969000D01*
X103078729Y-133542489D01*
X103403585Y-134028670D01*
X103718366Y-134239000D01*
X103403585Y-134449330D01*
X103078729Y-134935511D01*
X102964655Y-135509000D01*
X103078729Y-136082489D01*
X103403585Y-136568670D01*
X103718366Y-136779000D01*
X103403585Y-136989330D01*
X103078729Y-137475511D01*
X102964655Y-138049000D01*
X103078729Y-138622489D01*
X103403585Y-139108670D01*
X103718366Y-139319000D01*
X103403585Y-139529330D01*
X103078729Y-140015511D01*
X102964655Y-140589000D01*
X103078729Y-141162489D01*
X103403585Y-141648670D01*
X103718366Y-141859000D01*
X103403585Y-142069330D01*
X103078729Y-142555511D01*
X102964655Y-143129000D01*
X103078729Y-143702489D01*
X103403585Y-144188670D01*
X103718366Y-144399000D01*
X103403585Y-144609330D01*
X103078729Y-145095511D01*
X102964655Y-145669000D01*
X103078729Y-146242489D01*
X103403585Y-146728670D01*
X103718366Y-146939000D01*
X103403585Y-147149330D01*
X103078729Y-147635511D01*
X102964655Y-148209000D01*
X103078729Y-148782489D01*
X103403585Y-149268670D01*
X103718366Y-149479000D01*
X103403585Y-149689330D01*
X103078729Y-150175511D01*
X102964655Y-150749000D01*
X103078729Y-151322489D01*
X103403585Y-151808670D01*
X103718366Y-152019000D01*
X103403585Y-152229330D01*
X103078729Y-152715511D01*
X102964655Y-153289000D01*
X103078729Y-153862489D01*
X103403585Y-154348670D01*
X103889766Y-154673526D01*
X104463255Y-154787600D01*
X104832745Y-154787600D01*
X105406234Y-154673526D01*
X105892415Y-154348670D01*
X106048883Y-154114500D01*
X111402472Y-154114500D01*
X111437731Y-154149821D01*
X111811018Y-154304824D01*
X111862435Y-154304869D01*
X112065281Y-154507714D01*
X112065283Y-154507717D01*
X112242142Y-154625890D01*
X112333095Y-154686663D01*
X112649000Y-154749501D01*
X112649005Y-154749500D01*
X121035299Y-154749500D01*
X121139110Y-154820431D01*
X121391000Y-154871440D01*
X122891000Y-154871440D01*
X123126317Y-154827162D01*
X123342441Y-154688090D01*
X123487431Y-154475890D01*
X123538440Y-154224000D01*
X123538440Y-153624000D01*
X123494162Y-153388683D01*
X123430322Y-153289472D01*
X123487431Y-153205890D01*
X123538440Y-152954000D01*
X123538440Y-152354000D01*
X123494162Y-152118683D01*
X123430322Y-152019472D01*
X123487431Y-151935890D01*
X123538440Y-151684000D01*
X123538440Y-151084000D01*
X123494162Y-150848683D01*
X123430322Y-150749472D01*
X123487431Y-150665890D01*
X123538440Y-150414000D01*
X123538440Y-149814000D01*
X123494162Y-149578683D01*
X123430322Y-149479472D01*
X123487431Y-149395890D01*
X123538440Y-149144000D01*
X123538440Y-148544000D01*
X123494162Y-148308683D01*
X123430322Y-148209472D01*
X123487431Y-148125890D01*
X123538440Y-147874000D01*
X123538440Y-147274000D01*
X123494162Y-147038683D01*
X123430322Y-146939472D01*
X123487431Y-146855890D01*
X123538440Y-146604000D01*
X123538440Y-146004000D01*
X123494162Y-145768683D01*
X123430322Y-145669472D01*
X123487431Y-145585890D01*
X123538440Y-145334000D01*
X123538440Y-144734000D01*
X123511250Y-144589500D01*
X125195463Y-144589500D01*
X125095176Y-144831018D01*
X125095131Y-144882435D01*
X125019283Y-144958283D01*
X124840337Y-145226094D01*
X124815710Y-145349905D01*
X124777500Y-145542000D01*
X124777500Y-147066000D01*
X124840337Y-147381906D01*
X124968690Y-147574000D01*
X124840337Y-147766094D01*
X124815075Y-147893094D01*
X124777500Y-148082000D01*
X124777500Y-149606000D01*
X124840337Y-149921906D01*
X124968690Y-150114000D01*
X124840337Y-150306094D01*
X124815075Y-150433094D01*
X124777500Y-150622000D01*
X124777500Y-152146000D01*
X124840337Y-152461906D01*
X125019283Y-152729717D01*
X125527281Y-153237714D01*
X125527283Y-153237717D01*
X125795095Y-153416663D01*
X126111000Y-153479500D01*
X126172822Y-153479500D01*
X126143560Y-153624000D01*
X126143560Y-154224000D01*
X126187838Y-154459317D01*
X126326910Y-154675441D01*
X126539110Y-154820431D01*
X126791000Y-154871440D01*
X128291000Y-154871440D01*
X128526317Y-154827162D01*
X128647007Y-154749500D01*
X129613043Y-154749500D01*
X129661910Y-154825441D01*
X129874110Y-154970431D01*
X130126000Y-155021440D01*
X131326000Y-155021440D01*
X131561317Y-154977162D01*
X131777441Y-154838090D01*
X131825134Y-154768289D01*
X131861910Y-154825441D01*
X132074110Y-154970431D01*
X132326000Y-155021440D01*
X133526000Y-155021440D01*
X133761317Y-154977162D01*
X133977441Y-154838090D01*
X134037972Y-154749500D01*
X148336000Y-154749500D01*
X148651906Y-154686663D01*
X148919717Y-154507717D01*
X157174717Y-146252717D01*
X158571714Y-144855719D01*
X158571717Y-144855717D01*
X158678987Y-144695176D01*
X158750663Y-144587906D01*
X158813500Y-144272000D01*
X158813500Y-134747005D01*
X158813501Y-134747000D01*
X158750663Y-134431094D01*
X158571717Y-134163283D01*
X158139345Y-133730911D01*
X158443208Y-133731176D01*
X158816766Y-133576825D01*
X158853154Y-133540500D01*
X160337500Y-133540500D01*
X160337500Y-148629067D01*
X160059066Y-148907500D01*
X157075528Y-148907500D01*
X157040269Y-148872179D01*
X156666982Y-148717176D01*
X156262792Y-148716824D01*
X155889234Y-148871175D01*
X155603179Y-149156731D01*
X155448176Y-149530018D01*
X155447824Y-149934208D01*
X155602175Y-150307766D01*
X155887731Y-150593821D01*
X156261018Y-150748824D01*
X156665208Y-150749176D01*
X157038766Y-150594825D01*
X157075154Y-150558500D01*
X160401000Y-150558500D01*
X160716906Y-150495663D01*
X160984717Y-150316717D01*
X161746714Y-149554719D01*
X161746717Y-149554717D01*
X161925663Y-149286905D01*
X161953038Y-149149283D01*
X161988501Y-148971000D01*
X161988500Y-148970995D01*
X161988500Y-139095750D01*
X167395000Y-139095750D01*
X167395000Y-140336310D01*
X167491673Y-140569699D01*
X167670302Y-140748327D01*
X167903691Y-140845000D01*
X169144250Y-140845000D01*
X169303000Y-140686250D01*
X169303000Y-138937000D01*
X169557000Y-138937000D01*
X169557000Y-140686250D01*
X169715750Y-140845000D01*
X170956309Y-140845000D01*
X171189698Y-140748327D01*
X171368327Y-140569699D01*
X171465000Y-140336310D01*
X171465000Y-139095750D01*
X171306250Y-138937000D01*
X169557000Y-138937000D01*
X169303000Y-138937000D01*
X167553750Y-138937000D01*
X167395000Y-139095750D01*
X161988500Y-139095750D01*
X161988500Y-137283690D01*
X167395000Y-137283690D01*
X167395000Y-138524250D01*
X167553750Y-138683000D01*
X169303000Y-138683000D01*
X169303000Y-136933750D01*
X169557000Y-136933750D01*
X169557000Y-138683000D01*
X171306250Y-138683000D01*
X171465000Y-138524250D01*
X171465000Y-137283690D01*
X171368327Y-137050301D01*
X171189698Y-136871673D01*
X170956309Y-136775000D01*
X169715750Y-136775000D01*
X169557000Y-136933750D01*
X169303000Y-136933750D01*
X169144250Y-136775000D01*
X167903691Y-136775000D01*
X167670302Y-136871673D01*
X167491673Y-137050301D01*
X167395000Y-137283690D01*
X161988500Y-137283690D01*
X161988500Y-133713011D01*
X167394648Y-133713011D01*
X167703805Y-134461229D01*
X168275760Y-135034183D01*
X169023438Y-135344646D01*
X169833011Y-135345352D01*
X170581229Y-135036195D01*
X171154183Y-134464240D01*
X171464646Y-133716562D01*
X171465352Y-132906989D01*
X171156195Y-132158771D01*
X170584240Y-131585817D01*
X169836562Y-131275354D01*
X169026989Y-131274648D01*
X168278771Y-131583805D01*
X167705817Y-132155760D01*
X167395354Y-132903438D01*
X167394648Y-133713011D01*
X161988500Y-133713011D01*
X161988500Y-133540500D01*
X164125000Y-133540500D01*
X164440906Y-133477663D01*
X164708717Y-133298717D01*
X167011933Y-130995500D01*
X186210066Y-130995500D01*
X186683867Y-131469301D01*
X186683824Y-131519208D01*
X186838175Y-131892766D01*
X187123731Y-132178821D01*
X187497018Y-132333824D01*
X187901208Y-132334176D01*
X188274766Y-132179825D01*
X188560821Y-131894269D01*
X188642340Y-131697950D01*
X200161145Y-120179145D01*
X200363827Y-119875809D01*
X200435000Y-119518000D01*
X200435000Y-89000000D01*
X200363827Y-88642191D01*
X200161145Y-88338855D01*
X196121145Y-84298855D01*
X195817809Y-84096173D01*
X195460000Y-84025000D01*
X192656023Y-84025000D01*
X192579147Y-83909946D01*
X192535223Y-83880597D01*
X192709698Y-83808327D01*
X192888327Y-83629699D01*
X192985000Y-83396310D01*
X192985000Y-82705750D01*
X192826250Y-82547000D01*
X191627000Y-82547000D01*
X191627000Y-82567000D01*
X191373000Y-82567000D01*
X191373000Y-82547000D01*
X190173750Y-82547000D01*
X190015000Y-82705750D01*
X190015000Y-83396310D01*
X190111673Y-83629699D01*
X190290302Y-83808327D01*
X190464777Y-83880597D01*
X190420853Y-83909946D01*
X190098946Y-84391715D01*
X189985907Y-84960000D01*
X190098946Y-85528285D01*
X190420853Y-86010054D01*
X190750026Y-86230000D01*
X190420853Y-86449946D01*
X190270811Y-86674500D01*
X174456095Y-86674500D01*
X174456090Y-86674499D01*
X174140185Y-86737337D01*
X173872373Y-86916283D01*
X173872371Y-86916286D01*
X172054789Y-88733867D01*
X172004882Y-88733824D01*
X171631324Y-88888175D01*
X171345269Y-89173731D01*
X171190266Y-89547018D01*
X171189914Y-89951208D01*
X171344265Y-90324766D01*
X171443896Y-90424571D01*
X171280289Y-90533890D01*
X171204882Y-90533824D01*
X170831324Y-90688175D01*
X170545269Y-90973731D01*
X170390266Y-91347018D01*
X170389914Y-91751208D01*
X170544265Y-92124766D01*
X170829821Y-92410821D01*
X171203108Y-92565824D01*
X171607298Y-92566176D01*
X171980856Y-92411825D01*
X172266911Y-92126269D01*
X172321626Y-91994501D01*
X189334159Y-91994501D01*
X189650065Y-91931664D01*
X189917876Y-91752718D01*
X190516578Y-91154015D01*
X190902622Y-91411961D01*
X191470907Y-91525000D01*
X191529093Y-91525000D01*
X192097378Y-91411961D01*
X192579147Y-91090054D01*
X192901054Y-90608285D01*
X193014093Y-90040000D01*
X192901054Y-89471715D01*
X192579147Y-88989946D01*
X192249974Y-88770000D01*
X192579147Y-88550054D01*
X192901054Y-88068285D01*
X193014093Y-87500000D01*
X192901054Y-86931715D01*
X192579147Y-86449946D01*
X192249974Y-86230000D01*
X192579147Y-86010054D01*
X192656023Y-85895000D01*
X195072710Y-85895000D01*
X198565000Y-89387290D01*
X198565000Y-119130710D01*
X187622572Y-130073138D01*
X187135717Y-129586283D01*
X186867906Y-129407337D01*
X186552000Y-129344500D01*
X166670005Y-129344500D01*
X166670000Y-129344499D01*
X166354095Y-129407337D01*
X166086283Y-129586283D01*
X166086281Y-129586286D01*
X163783066Y-131889500D01*
X158853528Y-131889500D01*
X158818269Y-131854179D01*
X158444982Y-131699176D01*
X158040792Y-131698824D01*
X157667234Y-131853175D01*
X157381179Y-132138731D01*
X157226176Y-132512018D01*
X157225910Y-132817476D01*
X155662934Y-131254500D01*
X159154472Y-131254500D01*
X159189731Y-131289821D01*
X159563018Y-131444824D01*
X159967208Y-131445176D01*
X160340766Y-131290825D01*
X160626821Y-131005269D01*
X160781824Y-130631982D01*
X160782176Y-130227792D01*
X160627825Y-129854234D01*
X160342269Y-129568179D01*
X159968982Y-129413176D01*
X159564792Y-129412824D01*
X159191234Y-129567175D01*
X159154846Y-129603500D01*
X154781178Y-129603500D01*
X154810440Y-129459000D01*
X154810440Y-128859000D01*
X154783250Y-128714500D01*
X161440472Y-128714500D01*
X161475731Y-128749821D01*
X161849018Y-128904824D01*
X162253208Y-128905176D01*
X162626766Y-128750825D01*
X162912821Y-128465269D01*
X163067824Y-128091982D01*
X163068176Y-127687792D01*
X163046310Y-127634871D01*
X163396208Y-127635176D01*
X163769766Y-127480825D01*
X164055821Y-127195269D01*
X164210824Y-126821982D01*
X164211176Y-126417792D01*
X164189310Y-126364871D01*
X164539208Y-126365176D01*
X164912766Y-126210825D01*
X165198821Y-125925269D01*
X165353824Y-125551982D01*
X165354176Y-125147792D01*
X165199825Y-124774234D01*
X165123399Y-124697675D01*
X165175717Y-124662717D01*
X166318717Y-123519717D01*
X166497663Y-123251906D01*
X166560500Y-122936000D01*
X166560500Y-122445746D01*
X166657018Y-122485824D01*
X167061208Y-122486176D01*
X167434766Y-122331825D01*
X167554683Y-122212117D01*
X169166281Y-123823714D01*
X169166283Y-123823717D01*
X169434095Y-124002663D01*
X169686047Y-124052779D01*
X169682560Y-124070000D01*
X169682560Y-126870000D01*
X169726838Y-127105317D01*
X169865910Y-127321441D01*
X170078110Y-127466431D01*
X170330000Y-127517440D01*
X173130000Y-127517440D01*
X173365317Y-127473162D01*
X173581441Y-127334090D01*
X173726431Y-127121890D01*
X173777440Y-126870000D01*
X173777440Y-124070000D01*
X173776593Y-124065500D01*
X174658066Y-124065500D01*
X175330511Y-124737944D01*
X175195354Y-125063438D01*
X175194648Y-125873011D01*
X175503805Y-126621229D01*
X176075760Y-127194183D01*
X176823438Y-127504646D01*
X177633011Y-127505352D01*
X178381229Y-127196195D01*
X178954183Y-126624240D01*
X179264646Y-125876562D01*
X179265352Y-125066989D01*
X178956195Y-124318771D01*
X178384240Y-123745817D01*
X177636562Y-123435354D01*
X176826989Y-123434648D01*
X176498012Y-123570578D01*
X175583717Y-122656283D01*
X175315906Y-122477337D01*
X175000000Y-122414500D01*
X170091933Y-122414500D01*
X168834501Y-121157067D01*
X168834501Y-118934285D01*
X170964760Y-118934285D01*
X171175169Y-119443515D01*
X171564436Y-119833461D01*
X172073298Y-120044759D01*
X172624285Y-120045240D01*
X173133515Y-119834831D01*
X173523461Y-119445564D01*
X173734759Y-118936702D01*
X173734761Y-118934285D01*
X175844760Y-118934285D01*
X176055169Y-119443515D01*
X176444436Y-119833461D01*
X176953298Y-120044759D01*
X177504285Y-120045240D01*
X178013515Y-119834831D01*
X178403461Y-119445564D01*
X178614759Y-118936702D01*
X178615240Y-118385715D01*
X178404831Y-117876485D01*
X178015564Y-117486539D01*
X177506702Y-117275241D01*
X176955715Y-117274760D01*
X176446485Y-117485169D01*
X176056539Y-117874436D01*
X175845241Y-118383298D01*
X175844760Y-118934285D01*
X173734761Y-118934285D01*
X173735240Y-118385715D01*
X173524831Y-117876485D01*
X173135564Y-117486539D01*
X172626702Y-117275241D01*
X172075715Y-117274760D01*
X171566485Y-117485169D01*
X171176539Y-117874436D01*
X170965241Y-118383298D01*
X170964760Y-118934285D01*
X168834501Y-118934285D01*
X168834501Y-114601208D01*
X185253824Y-114601208D01*
X185408175Y-114974766D01*
X185693731Y-115260821D01*
X186067018Y-115415824D01*
X186118435Y-115415869D01*
X190222560Y-119519993D01*
X190222560Y-120080000D01*
X190266838Y-120315317D01*
X190405910Y-120531441D01*
X190618110Y-120676431D01*
X190870000Y-120727440D01*
X192570000Y-120727440D01*
X192805317Y-120683162D01*
X193021441Y-120544090D01*
X193166431Y-120331890D01*
X193217440Y-120080000D01*
X193217440Y-118380000D01*
X193173162Y-118144683D01*
X193034090Y-117928559D01*
X192821890Y-117783569D01*
X192754459Y-117769914D01*
X192799147Y-117740054D01*
X193121054Y-117258285D01*
X193234093Y-116690000D01*
X193121054Y-116121715D01*
X192799147Y-115639946D01*
X192469974Y-115420000D01*
X192799147Y-115200054D01*
X193121054Y-114718285D01*
X193234093Y-114150000D01*
X193121054Y-113581715D01*
X192799147Y-113099946D01*
X192317378Y-112778039D01*
X191749093Y-112665000D01*
X191690907Y-112665000D01*
X191122622Y-112778039D01*
X190640853Y-113099946D01*
X190490811Y-113324500D01*
X190251933Y-113324500D01*
X189066133Y-112138699D01*
X189066176Y-112088792D01*
X188911825Y-111715234D01*
X188626269Y-111429179D01*
X188252982Y-111274176D01*
X187848792Y-111273824D01*
X187475234Y-111428175D01*
X187189179Y-111713731D01*
X187034176Y-112087018D01*
X187033824Y-112491208D01*
X187105306Y-112664208D01*
X187032982Y-112634176D01*
X186628792Y-112633824D01*
X186255234Y-112788175D01*
X185969179Y-113073731D01*
X185814176Y-113447018D01*
X185814139Y-113489044D01*
X185695234Y-113538175D01*
X185409179Y-113823731D01*
X185254176Y-114197018D01*
X185253824Y-114601208D01*
X168834501Y-114601208D01*
X168834501Y-113151208D01*
X171963824Y-113151208D01*
X172118175Y-113524766D01*
X172403731Y-113810821D01*
X172777018Y-113965824D01*
X173181208Y-113966176D01*
X173554766Y-113811825D01*
X173709985Y-113656877D01*
X173823731Y-113770821D01*
X174197018Y-113925824D01*
X174591945Y-113926168D01*
X174606838Y-114005317D01*
X174745910Y-114221441D01*
X174958110Y-114366431D01*
X175210000Y-114417440D01*
X177210000Y-114417440D01*
X177445317Y-114373162D01*
X177661441Y-114234090D01*
X177806431Y-114021890D01*
X177857440Y-113770000D01*
X177857440Y-112070000D01*
X177813162Y-111834683D01*
X177674090Y-111618559D01*
X177461890Y-111473569D01*
X177210000Y-111422560D01*
X176235578Y-111422560D01*
X176242205Y-111406601D01*
X176242557Y-111002411D01*
X176088206Y-110628853D01*
X175802650Y-110342798D01*
X175429363Y-110187795D01*
X175025173Y-110187443D01*
X174651615Y-110341794D01*
X174587567Y-110405730D01*
X174410476Y-110440956D01*
X174142664Y-110619902D01*
X174142662Y-110619905D01*
X172828699Y-111933867D01*
X172778792Y-111933824D01*
X172405234Y-112088175D01*
X172119179Y-112373731D01*
X171964176Y-112747018D01*
X171963824Y-113151208D01*
X168834501Y-113151208D01*
X168834501Y-111675649D01*
X168964766Y-111621825D01*
X169250821Y-111336269D01*
X169405824Y-110962982D01*
X169406176Y-110558792D01*
X169251825Y-110185234D01*
X168966269Y-109899179D01*
X168592982Y-109744176D01*
X168188792Y-109743824D01*
X167815234Y-109898175D01*
X167625500Y-110087578D01*
X167625500Y-109000005D01*
X167625501Y-109000000D01*
X167615869Y-108951576D01*
X167616176Y-108598792D01*
X167461825Y-108225234D01*
X167176269Y-107939179D01*
X166802982Y-107784176D01*
X166560500Y-107783965D01*
X166560500Y-106565000D01*
X169652560Y-106565000D01*
X169652560Y-107815000D01*
X169696838Y-108050317D01*
X169835910Y-108266441D01*
X170048110Y-108411431D01*
X170300000Y-108462440D01*
X171800000Y-108462440D01*
X172035317Y-108418162D01*
X172251441Y-108279090D01*
X172297969Y-108210994D01*
X172440302Y-108353327D01*
X172673691Y-108450000D01*
X173264250Y-108450000D01*
X173423000Y-108291250D01*
X173423000Y-107317000D01*
X173677000Y-107317000D01*
X173677000Y-108291250D01*
X173835750Y-108450000D01*
X174426309Y-108450000D01*
X174659698Y-108353327D01*
X174838327Y-108174699D01*
X174935000Y-107941310D01*
X174935000Y-107475750D01*
X174776250Y-107317000D01*
X173677000Y-107317000D01*
X173423000Y-107317000D01*
X173403000Y-107317000D01*
X173403000Y-107063000D01*
X173423000Y-107063000D01*
X173423000Y-106088750D01*
X173677000Y-106088750D01*
X173677000Y-107063000D01*
X174776250Y-107063000D01*
X174935000Y-106904250D01*
X174935000Y-106438690D01*
X174838327Y-106205301D01*
X174659698Y-106026673D01*
X174426309Y-105930000D01*
X173835750Y-105930000D01*
X173677000Y-106088750D01*
X173423000Y-106088750D01*
X173264250Y-105930000D01*
X173146062Y-105930000D01*
X173146176Y-105798792D01*
X172991825Y-105425234D01*
X172706269Y-105139179D01*
X172332982Y-104984176D01*
X171928792Y-104983824D01*
X171555234Y-105138175D01*
X171269179Y-105423731D01*
X171114176Y-105797018D01*
X171114131Y-105848435D01*
X171045007Y-105917560D01*
X170300000Y-105917560D01*
X170064683Y-105961838D01*
X169848559Y-106100910D01*
X169703569Y-106313110D01*
X169652560Y-106565000D01*
X166560500Y-106565000D01*
X166560500Y-103441528D01*
X166595821Y-103406269D01*
X166750824Y-103032982D01*
X166751176Y-102628792D01*
X166596825Y-102255234D01*
X166560500Y-102218846D01*
X166560500Y-95090000D01*
X166822560Y-95090000D01*
X166822560Y-97090000D01*
X166866838Y-97325317D01*
X167005910Y-97541441D01*
X167218110Y-97686431D01*
X167470000Y-97737440D01*
X169170000Y-97737440D01*
X169405317Y-97693162D01*
X169621441Y-97554090D01*
X169713266Y-97419700D01*
X172134500Y-99840934D01*
X172134500Y-102668472D01*
X172099179Y-102703731D01*
X171944176Y-103077018D01*
X171943824Y-103481208D01*
X172098175Y-103854766D01*
X172383731Y-104140821D01*
X172757018Y-104295824D01*
X173161208Y-104296176D01*
X173534766Y-104141825D01*
X173820821Y-103856269D01*
X173975824Y-103482982D01*
X173976176Y-103078792D01*
X173821825Y-102705234D01*
X173785500Y-102668846D01*
X173785500Y-99831208D01*
X174253824Y-99831208D01*
X174408175Y-100204766D01*
X174693731Y-100490821D01*
X175067018Y-100645824D01*
X175471208Y-100646176D01*
X175844766Y-100491825D01*
X176130821Y-100206269D01*
X176264017Y-99885500D01*
X177524064Y-99885500D01*
X177523824Y-100161208D01*
X177678175Y-100534766D01*
X177963731Y-100820821D01*
X178337018Y-100975824D01*
X178388435Y-100975869D01*
X179582048Y-102169481D01*
X179504176Y-102357018D01*
X179503981Y-102580603D01*
X179195234Y-102708175D01*
X178909179Y-102993731D01*
X178772017Y-103324053D01*
X178508792Y-103323824D01*
X178135234Y-103478175D01*
X177849179Y-103763731D01*
X177694176Y-104137018D01*
X177693824Y-104541208D01*
X177848175Y-104914766D01*
X178133731Y-105200821D01*
X178507018Y-105355824D01*
X178558435Y-105355869D01*
X179384500Y-106181933D01*
X179384500Y-111422560D01*
X179210000Y-111422560D01*
X178974683Y-111466838D01*
X178758559Y-111605910D01*
X178613569Y-111818110D01*
X178562560Y-112070000D01*
X178562560Y-113770000D01*
X178606838Y-114005317D01*
X178745910Y-114221441D01*
X178958110Y-114366431D01*
X179210000Y-114417440D01*
X181210000Y-114417440D01*
X181445317Y-114373162D01*
X181661441Y-114234090D01*
X181806431Y-114021890D01*
X181857440Y-113770000D01*
X181857440Y-112070000D01*
X181813162Y-111834683D01*
X181674090Y-111618559D01*
X181461890Y-111473569D01*
X181210000Y-111422560D01*
X181035500Y-111422560D01*
X181035500Y-106142146D01*
X181237018Y-106225824D01*
X181641208Y-106226176D01*
X182014766Y-106071825D01*
X182300821Y-105786269D01*
X182382392Y-105589825D01*
X186596281Y-109803714D01*
X186596283Y-109803717D01*
X186756824Y-109910987D01*
X186864094Y-109982663D01*
X187180000Y-110045500D01*
X190540811Y-110045500D01*
X190690853Y-110270054D01*
X191172622Y-110591961D01*
X191740907Y-110705000D01*
X191799093Y-110705000D01*
X192367378Y-110591961D01*
X192849147Y-110270054D01*
X193171054Y-109788285D01*
X193284093Y-109220000D01*
X193171054Y-108651715D01*
X192849147Y-108169946D01*
X192519974Y-107950000D01*
X192849147Y-107730054D01*
X193171054Y-107248285D01*
X193284093Y-106680000D01*
X193171054Y-106111715D01*
X192849147Y-105629946D01*
X192519974Y-105410000D01*
X192849147Y-105190054D01*
X193171054Y-104708285D01*
X193284093Y-104140000D01*
X193171054Y-103571715D01*
X192849147Y-103089946D01*
X192519974Y-102870000D01*
X192849147Y-102650054D01*
X193171054Y-102168285D01*
X193284093Y-101600000D01*
X193171054Y-101031715D01*
X192849147Y-100549946D01*
X192519974Y-100330000D01*
X192849147Y-100110054D01*
X193171054Y-99628285D01*
X193284093Y-99060000D01*
X193171054Y-98491715D01*
X192849147Y-98009946D01*
X192805223Y-97980597D01*
X192979698Y-97908327D01*
X193158327Y-97729699D01*
X193255000Y-97496310D01*
X193255000Y-96805750D01*
X193096250Y-96647000D01*
X191897000Y-96647000D01*
X191897000Y-96667000D01*
X191643000Y-96667000D01*
X191643000Y-96647000D01*
X190443750Y-96647000D01*
X190285000Y-96805750D01*
X190285000Y-97496310D01*
X190381673Y-97729699D01*
X190560302Y-97908327D01*
X190734777Y-97980597D01*
X190690853Y-98009946D01*
X190540811Y-98234500D01*
X175840005Y-98234500D01*
X175840000Y-98234499D01*
X175525789Y-98297000D01*
X175524095Y-98297337D01*
X175256283Y-98476283D01*
X175256281Y-98476286D01*
X175118699Y-98613867D01*
X175068792Y-98613824D01*
X174695234Y-98768175D01*
X174409179Y-99053731D01*
X174254176Y-99427018D01*
X174253824Y-99831208D01*
X173785500Y-99831208D01*
X173785500Y-99499000D01*
X173748720Y-99314094D01*
X173722663Y-99183094D01*
X173543717Y-98915283D01*
X170172124Y-95543690D01*
X190285000Y-95543690D01*
X190285000Y-96234250D01*
X190443750Y-96393000D01*
X191643000Y-96393000D01*
X191643000Y-95193750D01*
X191897000Y-95193750D01*
X191897000Y-96393000D01*
X193096250Y-96393000D01*
X193255000Y-96234250D01*
X193255000Y-95543690D01*
X193158327Y-95310301D01*
X192979698Y-95131673D01*
X192746309Y-95035000D01*
X192055750Y-95035000D01*
X191897000Y-95193750D01*
X191643000Y-95193750D01*
X191484250Y-95035000D01*
X190793691Y-95035000D01*
X190560302Y-95131673D01*
X190381673Y-95310301D01*
X190285000Y-95543690D01*
X170172124Y-95543690D01*
X170134717Y-95506283D01*
X169866906Y-95327337D01*
X169817440Y-95317498D01*
X169817440Y-95090000D01*
X169773162Y-94854683D01*
X169634090Y-94638559D01*
X169421890Y-94493569D01*
X169170000Y-94442560D01*
X167470000Y-94442560D01*
X167234683Y-94486838D01*
X167018559Y-94625910D01*
X166873569Y-94838110D01*
X166822560Y-95090000D01*
X166560500Y-95090000D01*
X166560500Y-94234005D01*
X166560501Y-94234000D01*
X166497663Y-93918094D01*
X166318717Y-93650283D01*
X165302717Y-92634283D01*
X165302714Y-92634281D01*
X155662934Y-82994500D01*
X160519147Y-82994500D01*
X162143275Y-84618628D01*
X162139946Y-84620853D01*
X161818039Y-85102622D01*
X161705000Y-85670907D01*
X161705000Y-85729093D01*
X161818039Y-86297378D01*
X162139946Y-86779147D01*
X162621715Y-87101054D01*
X163190000Y-87214093D01*
X163758285Y-87101054D01*
X164240054Y-86779147D01*
X164460000Y-86449974D01*
X164679946Y-86779147D01*
X165161715Y-87101054D01*
X165730000Y-87214093D01*
X166019145Y-87156579D01*
X167494500Y-88631934D01*
X167494500Y-90442560D01*
X167470000Y-90442560D01*
X167234683Y-90486838D01*
X167018559Y-90625910D01*
X166873569Y-90838110D01*
X166822560Y-91090000D01*
X166822560Y-93090000D01*
X166866838Y-93325317D01*
X167005910Y-93541441D01*
X167218110Y-93686431D01*
X167470000Y-93737440D01*
X169170000Y-93737440D01*
X169405317Y-93693162D01*
X169621441Y-93554090D01*
X169766431Y-93341890D01*
X169817440Y-93090000D01*
X169817440Y-91090000D01*
X169773162Y-90854683D01*
X169634090Y-90638559D01*
X169421890Y-90493569D01*
X169170000Y-90442560D01*
X169145500Y-90442560D01*
X169145500Y-88290000D01*
X169124415Y-88184000D01*
X169082663Y-87974094D01*
X168903717Y-87706283D01*
X168382434Y-87185000D01*
X168397002Y-87185000D01*
X168397002Y-87026252D01*
X168555750Y-87185000D01*
X169246310Y-87185000D01*
X169479699Y-87088327D01*
X169658327Y-86909698D01*
X169755000Y-86676309D01*
X169755000Y-85985750D01*
X169596250Y-85827000D01*
X168397000Y-85827000D01*
X168397000Y-85847000D01*
X168143000Y-85847000D01*
X168143000Y-85827000D01*
X168123000Y-85827000D01*
X168123000Y-85573000D01*
X168143000Y-85573000D01*
X168143000Y-84373750D01*
X168397000Y-84373750D01*
X168397000Y-85573000D01*
X169596250Y-85573000D01*
X169755000Y-85414250D01*
X169755000Y-84723691D01*
X169658327Y-84490302D01*
X169479699Y-84311673D01*
X169246310Y-84215000D01*
X168555750Y-84215000D01*
X168397000Y-84373750D01*
X168143000Y-84373750D01*
X167984250Y-84215000D01*
X167293690Y-84215000D01*
X167060301Y-84311673D01*
X166881673Y-84490302D01*
X166809403Y-84664777D01*
X166780054Y-84620853D01*
X166298285Y-84298946D01*
X165730000Y-84185907D01*
X165161715Y-84298946D01*
X164679946Y-84620853D01*
X164460000Y-84950026D01*
X164240054Y-84620853D01*
X164009282Y-84466657D01*
X163952663Y-84182014D01*
X163773717Y-83914202D01*
X162854015Y-82994500D01*
X163322000Y-82994500D01*
X163637906Y-82931663D01*
X163905717Y-82752717D01*
X165214744Y-81443690D01*
X190015000Y-81443690D01*
X190015000Y-82134250D01*
X190173750Y-82293000D01*
X191373000Y-82293000D01*
X191373000Y-81093750D01*
X191627000Y-81093750D01*
X191627000Y-82293000D01*
X192826250Y-82293000D01*
X192985000Y-82134250D01*
X192985000Y-81443690D01*
X192888327Y-81210301D01*
X192709698Y-81031673D01*
X192476309Y-80935000D01*
X191785750Y-80935000D01*
X191627000Y-81093750D01*
X191373000Y-81093750D01*
X191214250Y-80935000D01*
X190523691Y-80935000D01*
X190290302Y-81031673D01*
X190111673Y-81210301D01*
X190015000Y-81443690D01*
X165214744Y-81443690D01*
X167918301Y-78740133D01*
X167968208Y-78740176D01*
X168341766Y-78585825D01*
X168627821Y-78300269D01*
X168782824Y-77926982D01*
X168783176Y-77522792D01*
X168628825Y-77149234D01*
X168343269Y-76863179D01*
X167969982Y-76708176D01*
X167565792Y-76707824D01*
X167192234Y-76862175D01*
X166906179Y-77147731D01*
X166751176Y-77521018D01*
X166751131Y-77572436D01*
X162980066Y-81343500D01*
X154518701Y-81343500D01*
X154414890Y-81272569D01*
X154163000Y-81221560D01*
X153988500Y-81221560D01*
X153988500Y-78487005D01*
X153988501Y-78487000D01*
X153925663Y-78171095D01*
X153900328Y-78133179D01*
X153746717Y-77903283D01*
X153746714Y-77903281D01*
X150316717Y-74473283D01*
X150048906Y-74294337D01*
X149733000Y-74231500D01*
X140803933Y-74231500D01*
X140168933Y-73596500D01*
X152312066Y-73596500D01*
X157218712Y-78503145D01*
X157099176Y-78791018D01*
X157098824Y-79195208D01*
X157253175Y-79568766D01*
X157538731Y-79854821D01*
X157912018Y-80009824D01*
X158316208Y-80010176D01*
X158689766Y-79855825D01*
X158975821Y-79570269D01*
X159130824Y-79196982D01*
X159131176Y-78792792D01*
X158976825Y-78419234D01*
X158940500Y-78382846D01*
X158940500Y-78232000D01*
X158902290Y-78039905D01*
X158877663Y-77916094D01*
X158784584Y-77776792D01*
X158698717Y-77648283D01*
X158698714Y-77648281D01*
X153237717Y-72187283D01*
X152969906Y-72008337D01*
X152654000Y-71945500D01*
X140295933Y-71945500D01*
X140271500Y-71921066D01*
X140271500Y-68580000D01*
X140208663Y-68264095D01*
X140029717Y-67996283D01*
X140029714Y-67996281D01*
X139114717Y-67081283D01*
X138846906Y-66902337D01*
X138531000Y-66839500D01*
X138047440Y-66839500D01*
X138047440Y-66815000D01*
X138023056Y-66685411D01*
X138047440Y-66565000D01*
X138047440Y-66165000D01*
X138023056Y-66035411D01*
X138047440Y-65915000D01*
X138047440Y-65515000D01*
X138023056Y-65385411D01*
X138047440Y-65265000D01*
X138047440Y-64865000D01*
X138023056Y-64735411D01*
X138047440Y-64615000D01*
X138047440Y-64215000D01*
X138023056Y-64085411D01*
X138047440Y-63965000D01*
X138047440Y-63565000D01*
X138023056Y-63435411D01*
X138047440Y-63315000D01*
X138047440Y-63269328D01*
X138256906Y-63227663D01*
X138524717Y-63048717D01*
X139013714Y-62559719D01*
X139013717Y-62559717D01*
X139192663Y-62291905D01*
X139255500Y-61976000D01*
X139255500Y-60074883D01*
X139489670Y-59918415D01*
X139700000Y-59603634D01*
X139910330Y-59918415D01*
X140144500Y-60074883D01*
X140144500Y-61976000D01*
X140207337Y-62291906D01*
X140386283Y-62559717D01*
X140875281Y-63048714D01*
X140875283Y-63048717D01*
X141143095Y-63227663D01*
X141352560Y-63269328D01*
X141352560Y-63315000D01*
X141376944Y-63444589D01*
X141352560Y-63565000D01*
X141352560Y-63965000D01*
X141376944Y-64094589D01*
X141352560Y-64215000D01*
X141352560Y-64615000D01*
X141376944Y-64744589D01*
X141352560Y-64865000D01*
X141352560Y-65265000D01*
X141376944Y-65394589D01*
X141352560Y-65515000D01*
X141352560Y-65915000D01*
X141376944Y-66044589D01*
X141352560Y-66165000D01*
X141352560Y-66565000D01*
X141376944Y-66694589D01*
X141352560Y-66815000D01*
X141352560Y-67215000D01*
X141376944Y-67344589D01*
X141352560Y-67465000D01*
X141352560Y-67865000D01*
X141376944Y-67994589D01*
X141352560Y-68115000D01*
X141352560Y-68515000D01*
X141376944Y-68644589D01*
X141352560Y-68765000D01*
X141352560Y-69165000D01*
X141372450Y-69270705D01*
X141365000Y-69288690D01*
X141365000Y-69356250D01*
X141394004Y-69385254D01*
X141396838Y-69400317D01*
X141535910Y-69616441D01*
X141680156Y-69715000D01*
X141523750Y-69715000D01*
X141365000Y-69873750D01*
X141365000Y-69941310D01*
X141461673Y-70174699D01*
X141640302Y-70353327D01*
X141873691Y-70450000D01*
X142264250Y-70450000D01*
X142423000Y-70291250D01*
X142423000Y-69812440D01*
X142677000Y-69812440D01*
X142677000Y-70291250D01*
X142835750Y-70450000D01*
X143226309Y-70450000D01*
X143459698Y-70353327D01*
X143638327Y-70174699D01*
X143735000Y-69941310D01*
X143735000Y-69873750D01*
X143651750Y-69790500D01*
X160444066Y-69790500D01*
X160654867Y-70001301D01*
X160654824Y-70051208D01*
X160809175Y-70424766D01*
X161094731Y-70710821D01*
X161468018Y-70865824D01*
X161872208Y-70866176D01*
X162245766Y-70711825D01*
X162531821Y-70426269D01*
X162627475Y-70195909D01*
X170560867Y-78129301D01*
X170560824Y-78179208D01*
X170633039Y-78353982D01*
X170569179Y-78417731D01*
X170414176Y-78791018D01*
X170413824Y-79195208D01*
X170568175Y-79568766D01*
X170853731Y-79854821D01*
X171227018Y-80009824D01*
X171631208Y-80010176D01*
X172004766Y-79855825D01*
X172041154Y-79819500D01*
X180975000Y-79819500D01*
X181290906Y-79756663D01*
X181558717Y-79577717D01*
X182193714Y-78942719D01*
X182193717Y-78942717D01*
X182372663Y-78674905D01*
X182382502Y-78625441D01*
X182435501Y-78359000D01*
X182435500Y-78358995D01*
X182435500Y-70417612D01*
X182513691Y-70450000D01*
X182904250Y-70450000D01*
X183063000Y-70291250D01*
X183063000Y-69812440D01*
X183317000Y-69812440D01*
X183317000Y-70291250D01*
X183475750Y-70450000D01*
X183866309Y-70450000D01*
X184099698Y-70353327D01*
X184278327Y-70174699D01*
X184375000Y-69941310D01*
X184375000Y-69873750D01*
X184216250Y-69715000D01*
X184057933Y-69715000D01*
X184191441Y-69629090D01*
X184336431Y-69416890D01*
X184342035Y-69389215D01*
X184375000Y-69356250D01*
X184375000Y-69288690D01*
X184366532Y-69268247D01*
X184387440Y-69165000D01*
X184387440Y-68765000D01*
X184363056Y-68635411D01*
X184387440Y-68515000D01*
X184387440Y-68115000D01*
X184363056Y-67985411D01*
X184387440Y-67865000D01*
X184387440Y-67840500D01*
X195113000Y-67840500D01*
X195428906Y-67777663D01*
X195696717Y-67598717D01*
X199973714Y-63321719D01*
X199973717Y-63321717D01*
X200152663Y-63053905D01*
X200215500Y-62738000D01*
X200215500Y-60337440D01*
X200253600Y-60337440D01*
X200488917Y-60293162D01*
X200705041Y-60154090D01*
X200850031Y-59941890D01*
X200901040Y-59690000D01*
X200901040Y-57658000D01*
X200856762Y-57422683D01*
X200717690Y-57206559D01*
X200505490Y-57061569D01*
X200253600Y-57010560D01*
X198526400Y-57010560D01*
X198291083Y-57054838D01*
X198074959Y-57193910D01*
X197929969Y-57406110D01*
X197921600Y-57447439D01*
X197909670Y-57429585D01*
X197423489Y-57104729D01*
X196850000Y-56990655D01*
X196276511Y-57104729D01*
X195790330Y-57429585D01*
X195580000Y-57744366D01*
X195369670Y-57429585D01*
X194883489Y-57104729D01*
X194310000Y-56990655D01*
X193736511Y-57104729D01*
X193250330Y-57429585D01*
X193040000Y-57744366D01*
X192829670Y-57429585D01*
X192343489Y-57104729D01*
X191770000Y-56990655D01*
X191196511Y-57104729D01*
X190710330Y-57429585D01*
X190500000Y-57744366D01*
X190289670Y-57429585D01*
X189803489Y-57104729D01*
X189230000Y-56990655D01*
X188656511Y-57104729D01*
X188170330Y-57429585D01*
X187960000Y-57744366D01*
X187749670Y-57429585D01*
X187263489Y-57104729D01*
X186690000Y-56990655D01*
X186116511Y-57104729D01*
X185630330Y-57429585D01*
X185420000Y-57744366D01*
X185209670Y-57429585D01*
X184723489Y-57104729D01*
X184150000Y-56990655D01*
X183576511Y-57104729D01*
X183090330Y-57429585D01*
X182880000Y-57744366D01*
X182669670Y-57429585D01*
X182183489Y-57104729D01*
X181610000Y-56990655D01*
X181036511Y-57104729D01*
X180550330Y-57429585D01*
X180340000Y-57744366D01*
X180129670Y-57429585D01*
X179643489Y-57104729D01*
X179070000Y-56990655D01*
X178496511Y-57104729D01*
X178010330Y-57429585D01*
X177800000Y-57744366D01*
X177589670Y-57429585D01*
X177103489Y-57104729D01*
X176530000Y-56990655D01*
X175956511Y-57104729D01*
X175470330Y-57429585D01*
X175260000Y-57744366D01*
X175049670Y-57429585D01*
X174563489Y-57104729D01*
X173990000Y-56990655D01*
X173416511Y-57104729D01*
X172930330Y-57429585D01*
X172720000Y-57744366D01*
X172509670Y-57429585D01*
X172023489Y-57104729D01*
X171450000Y-56990655D01*
X170876511Y-57104729D01*
X170390330Y-57429585D01*
X170180000Y-57744366D01*
X169969670Y-57429585D01*
X169483489Y-57104729D01*
X168910000Y-56990655D01*
X168336511Y-57104729D01*
X167850330Y-57429585D01*
X167640000Y-57744366D01*
X167429670Y-57429585D01*
X166943489Y-57104729D01*
X166370000Y-56990655D01*
X165796511Y-57104729D01*
X165310330Y-57429585D01*
X165100000Y-57744366D01*
X164889670Y-57429585D01*
X164403489Y-57104729D01*
X163830000Y-56990655D01*
X163256511Y-57104729D01*
X162770330Y-57429585D01*
X162560000Y-57744366D01*
X162349670Y-57429585D01*
X161863489Y-57104729D01*
X161290000Y-56990655D01*
X160716511Y-57104729D01*
X160230330Y-57429585D01*
X160020000Y-57744366D01*
X159809670Y-57429585D01*
X159323489Y-57104729D01*
X158750000Y-56990655D01*
X158176511Y-57104729D01*
X157690330Y-57429585D01*
X157480000Y-57744366D01*
X157269670Y-57429585D01*
X156783489Y-57104729D01*
X156210000Y-56990655D01*
X155636511Y-57104729D01*
X155150330Y-57429585D01*
X154940000Y-57744366D01*
X154729670Y-57429585D01*
X154243489Y-57104729D01*
X153670000Y-56990655D01*
X153096511Y-57104729D01*
X152610330Y-57429585D01*
X152400000Y-57744366D01*
X152189670Y-57429585D01*
X151703489Y-57104729D01*
X151130000Y-56990655D01*
X150556511Y-57104729D01*
X150070330Y-57429585D01*
X149860000Y-57744366D01*
X149649670Y-57429585D01*
X149163489Y-57104729D01*
X148590000Y-56990655D01*
X148016511Y-57104729D01*
X147530330Y-57429585D01*
X147320000Y-57744366D01*
X147109670Y-57429585D01*
X146623489Y-57104729D01*
X146050000Y-56990655D01*
X145476511Y-57104729D01*
X144990330Y-57429585D01*
X144780000Y-57744366D01*
X144569670Y-57429585D01*
X144083489Y-57104729D01*
X143510000Y-56990655D01*
X142936511Y-57104729D01*
X142450330Y-57429585D01*
X142240000Y-57744366D01*
X142029670Y-57429585D01*
X141543489Y-57104729D01*
X140970000Y-56990655D01*
X140396511Y-57104729D01*
X139910330Y-57429585D01*
X139700000Y-57744366D01*
X139489670Y-57429585D01*
X139003489Y-57104729D01*
X138430000Y-56990655D01*
X137856511Y-57104729D01*
X137370330Y-57429585D01*
X137160000Y-57744366D01*
X136949670Y-57429585D01*
X136463489Y-57104729D01*
X135890000Y-56990655D01*
X135316511Y-57104729D01*
X134830330Y-57429585D01*
X134620000Y-57744366D01*
X134409670Y-57429585D01*
X133923489Y-57104729D01*
X133350000Y-56990655D01*
X132776511Y-57104729D01*
X132290330Y-57429585D01*
X132080000Y-57744366D01*
X131869670Y-57429585D01*
X131383489Y-57104729D01*
X130810000Y-56990655D01*
X130236511Y-57104729D01*
X129750330Y-57429585D01*
X129540000Y-57744366D01*
X129329670Y-57429585D01*
X128843489Y-57104729D01*
X128270000Y-56990655D01*
X127696511Y-57104729D01*
X127210330Y-57429585D01*
X127000000Y-57744366D01*
X126789670Y-57429585D01*
X126303489Y-57104729D01*
X125730000Y-56990655D01*
X125156511Y-57104729D01*
X124670330Y-57429585D01*
X124460000Y-57744366D01*
X124249670Y-57429585D01*
X123763489Y-57104729D01*
X123190000Y-56990655D01*
X122616511Y-57104729D01*
X122130330Y-57429585D01*
X121920000Y-57744366D01*
X121709670Y-57429585D01*
X121223489Y-57104729D01*
X120650000Y-56990655D01*
X120076511Y-57104729D01*
X119590330Y-57429585D01*
X119265474Y-57915766D01*
X119151400Y-58489255D01*
X119151400Y-58858745D01*
X119265474Y-59432234D01*
X119590330Y-59918415D01*
X119824500Y-60074883D01*
X119824500Y-62992000D01*
X119887337Y-63307906D01*
X120066283Y-63575717D01*
X124089283Y-67598717D01*
X124357094Y-67777663D01*
X124673000Y-67840500D01*
X135652560Y-67840500D01*
X135652560Y-67865000D01*
X135676944Y-67994589D01*
X135652560Y-68115000D01*
X135652560Y-68139500D01*
X135124000Y-68139500D01*
X134808094Y-68202337D01*
X134540283Y-68381283D01*
X134103178Y-68818388D01*
X133924890Y-68696569D01*
X133673000Y-68645560D01*
X132773000Y-68645560D01*
X132537683Y-68689838D01*
X132321559Y-68828910D01*
X132176569Y-69041110D01*
X132125560Y-69293000D01*
X132125560Y-70493000D01*
X132169838Y-70728317D01*
X132308910Y-70944441D01*
X132377006Y-70990969D01*
X132234673Y-71133302D01*
X132138000Y-71366691D01*
X132138000Y-71807250D01*
X132296750Y-71966000D01*
X133096000Y-71966000D01*
X133096000Y-71946000D01*
X133350000Y-71946000D01*
X133350000Y-71966000D01*
X134149250Y-71966000D01*
X134308000Y-71807250D01*
X134308000Y-71366691D01*
X134211327Y-71133302D01*
X134070090Y-70992064D01*
X134124441Y-70957090D01*
X134269431Y-70744890D01*
X134278081Y-70702173D01*
X134511906Y-70655663D01*
X134779717Y-70476717D01*
X135465934Y-69790500D01*
X135652560Y-69790500D01*
X135652560Y-69815000D01*
X135696838Y-70050317D01*
X135835910Y-70266441D01*
X136024500Y-70395299D01*
X136024500Y-71407380D01*
X136017176Y-71425018D01*
X136016824Y-71829208D01*
X136171175Y-72202766D01*
X136456731Y-72488821D01*
X136830018Y-72643824D01*
X136881435Y-72643869D01*
X139878281Y-75640714D01*
X139878283Y-75640717D01*
X140020720Y-75735890D01*
X140146094Y-75819663D01*
X140462000Y-75882500D01*
X149391066Y-75882500D01*
X152337500Y-78828933D01*
X152337500Y-81221560D01*
X152163000Y-81221560D01*
X151927683Y-81265838D01*
X151806993Y-81343500D01*
X148439528Y-81343500D01*
X148404269Y-81308179D01*
X148030982Y-81153176D01*
X147626792Y-81152824D01*
X147253234Y-81307175D01*
X146967179Y-81592731D01*
X146812176Y-81966018D01*
X146811824Y-82370208D01*
X146966175Y-82743766D01*
X147251731Y-83029821D01*
X147625018Y-83184824D01*
X148029208Y-83185176D01*
X148402766Y-83030825D01*
X148439154Y-82994500D01*
X151544822Y-82994500D01*
X151515560Y-83139000D01*
X151515560Y-83739000D01*
X151559838Y-83974317D01*
X151623678Y-84073528D01*
X151566569Y-84157110D01*
X151515560Y-84409000D01*
X151515560Y-85009000D01*
X151559838Y-85244317D01*
X151623678Y-85343528D01*
X151566569Y-85427110D01*
X151515560Y-85679000D01*
X151515560Y-86279000D01*
X151559838Y-86514317D01*
X151623678Y-86613528D01*
X151566569Y-86697110D01*
X151515560Y-86949000D01*
X151515560Y-87549000D01*
X151559838Y-87784317D01*
X151623678Y-87883528D01*
X151566569Y-87967110D01*
X151515560Y-88219000D01*
X151515560Y-88819000D01*
X151559838Y-89054317D01*
X151623678Y-89153528D01*
X151566569Y-89237110D01*
X151515560Y-89489000D01*
X151515560Y-90089000D01*
X151559838Y-90324317D01*
X151623678Y-90423528D01*
X151566569Y-90507110D01*
X151515560Y-90759000D01*
X151515560Y-91359000D01*
X151559838Y-91594317D01*
X151623678Y-91693528D01*
X151566569Y-91777110D01*
X151515560Y-92029000D01*
X151515560Y-92629000D01*
X151559838Y-92864317D01*
X151623678Y-92963528D01*
X151566569Y-93047110D01*
X151515560Y-93299000D01*
X151515560Y-93899000D01*
X151559838Y-94134317D01*
X151623678Y-94233528D01*
X151566569Y-94317110D01*
X151515560Y-94569000D01*
X151515560Y-95169000D01*
X151559838Y-95404317D01*
X151623678Y-95503528D01*
X151566569Y-95587110D01*
X151515560Y-95839000D01*
X151515560Y-96439000D01*
X151559838Y-96674317D01*
X151698910Y-96890441D01*
X151911110Y-97035431D01*
X152163000Y-97086440D01*
X152337500Y-97086440D01*
X152337500Y-97955066D01*
X147994066Y-102298500D01*
X134038957Y-102298500D01*
X133990090Y-102222559D01*
X133777890Y-102077569D01*
X133526000Y-102026560D01*
X132326000Y-102026560D01*
X132090683Y-102070838D01*
X131874559Y-102209910D01*
X131826866Y-102279711D01*
X131790090Y-102222559D01*
X131577890Y-102077569D01*
X131326000Y-102026560D01*
X130126000Y-102026560D01*
X129890683Y-102070838D01*
X129674559Y-102209910D01*
X129614028Y-102298500D01*
X127126945Y-102298500D01*
X127127176Y-102033792D01*
X126972825Y-101660234D01*
X126722528Y-101409500D01*
X129613043Y-101409500D01*
X129661910Y-101485441D01*
X129874110Y-101630431D01*
X130126000Y-101681440D01*
X131326000Y-101681440D01*
X131561317Y-101637162D01*
X131777441Y-101498090D01*
X131825134Y-101428289D01*
X131861910Y-101485441D01*
X132074110Y-101630431D01*
X132326000Y-101681440D01*
X133526000Y-101681440D01*
X133761317Y-101637162D01*
X133977441Y-101498090D01*
X134037972Y-101409500D01*
X134747000Y-101409500D01*
X135062906Y-101346663D01*
X135330717Y-101167717D01*
X140073683Y-96424750D01*
X142128000Y-96424750D01*
X142128000Y-96565310D01*
X142224673Y-96798699D01*
X142403302Y-96977327D01*
X142636691Y-97074000D01*
X143477250Y-97074000D01*
X143636000Y-96915250D01*
X143636000Y-96266000D01*
X143890000Y-96266000D01*
X143890000Y-96915250D01*
X144048750Y-97074000D01*
X144889309Y-97074000D01*
X145122698Y-96977327D01*
X145301327Y-96798699D01*
X145398000Y-96565310D01*
X145398000Y-96424750D01*
X145239250Y-96266000D01*
X143890000Y-96266000D01*
X143636000Y-96266000D01*
X142286750Y-96266000D01*
X142128000Y-96424750D01*
X140073683Y-96424750D01*
X140803933Y-95694500D01*
X142135535Y-95694500D01*
X142128000Y-95712690D01*
X142128000Y-95853250D01*
X142286750Y-96012000D01*
X143636000Y-96012000D01*
X143636000Y-95992000D01*
X143890000Y-95992000D01*
X143890000Y-96012000D01*
X145239250Y-96012000D01*
X145398000Y-95853250D01*
X145398000Y-95712690D01*
X145308194Y-95495878D01*
X145359431Y-95420890D01*
X145410440Y-95169000D01*
X145410440Y-94569000D01*
X145366162Y-94333683D01*
X145302322Y-94234472D01*
X145359431Y-94150890D01*
X145410440Y-93899000D01*
X145410440Y-93299000D01*
X145366162Y-93063683D01*
X145302322Y-92964472D01*
X145359431Y-92880890D01*
X145410440Y-92629000D01*
X145410440Y-92029000D01*
X145366162Y-91793683D01*
X145302322Y-91694472D01*
X145359431Y-91610890D01*
X145410440Y-91359000D01*
X145410440Y-90759000D01*
X145366162Y-90523683D01*
X145302322Y-90424472D01*
X145359431Y-90340890D01*
X145410440Y-90089000D01*
X145410440Y-89489000D01*
X145366162Y-89253683D01*
X145302322Y-89154472D01*
X145359431Y-89070890D01*
X145410440Y-88819000D01*
X145410440Y-88219000D01*
X145366162Y-87983683D01*
X145302322Y-87884472D01*
X145359431Y-87800890D01*
X145410440Y-87549000D01*
X145410440Y-86949000D01*
X145366162Y-86713683D01*
X145302322Y-86614472D01*
X145359431Y-86530890D01*
X145410440Y-86279000D01*
X145410440Y-85679000D01*
X145366162Y-85443683D01*
X145302322Y-85344472D01*
X145359431Y-85260890D01*
X145410440Y-85009000D01*
X145410440Y-84409000D01*
X145366162Y-84173683D01*
X145302322Y-84074472D01*
X145359431Y-83990890D01*
X145410440Y-83739000D01*
X145410440Y-83139000D01*
X145366162Y-82903683D01*
X145302322Y-82804472D01*
X145359431Y-82720890D01*
X145410440Y-82469000D01*
X145410440Y-81869000D01*
X145366162Y-81633683D01*
X145227090Y-81417559D01*
X145014890Y-81272569D01*
X144763000Y-81221560D01*
X142763000Y-81221560D01*
X142527683Y-81265838D01*
X142406993Y-81343500D01*
X142073933Y-81343500D01*
X135330717Y-74600283D01*
X135062906Y-74421337D01*
X134747000Y-74358500D01*
X134038957Y-74358500D01*
X133990090Y-74282559D01*
X133777890Y-74137569D01*
X133526000Y-74086560D01*
X132326000Y-74086560D01*
X132090683Y-74130838D01*
X131874559Y-74269910D01*
X131826866Y-74339711D01*
X131790090Y-74282559D01*
X131577890Y-74137569D01*
X131326000Y-74086560D01*
X130126000Y-74086560D01*
X129890683Y-74130838D01*
X129674559Y-74269910D01*
X129614028Y-74358500D01*
X120908178Y-74358500D01*
X120937440Y-74214000D01*
X120937440Y-73614000D01*
X120893162Y-73378683D01*
X120754090Y-73162559D01*
X120541890Y-73017569D01*
X120290000Y-72966560D01*
X118790000Y-72966560D01*
X118554683Y-73010838D01*
X118433993Y-73088500D01*
X118110000Y-73088500D01*
X117794095Y-73151337D01*
X117526283Y-73330283D01*
X117526281Y-73330286D01*
X117018283Y-73838283D01*
X116839337Y-74106094D01*
X116814075Y-74233094D01*
X116776500Y-74422000D01*
X116776500Y-75946000D01*
X116839337Y-76261906D01*
X116967690Y-76454000D01*
X116839337Y-76646094D01*
X116814075Y-76773094D01*
X116776500Y-76962000D01*
X116776500Y-78486000D01*
X116839337Y-78801906D01*
X116967690Y-78994000D01*
X116839337Y-79186094D01*
X116814193Y-79312501D01*
X116776500Y-79502000D01*
X116776500Y-81026000D01*
X116839337Y-81341906D01*
X117018283Y-81609717D01*
X117526281Y-82117714D01*
X117526283Y-82117717D01*
X117794095Y-82296663D01*
X118110000Y-82359500D01*
X118171822Y-82359500D01*
X118142560Y-82504000D01*
X118142560Y-83104000D01*
X118169750Y-83248500D01*
X115508178Y-83248500D01*
X115537440Y-83104000D01*
X115537440Y-82504000D01*
X115493162Y-82268683D01*
X115429322Y-82169472D01*
X115486431Y-82085890D01*
X115537440Y-81834000D01*
X115537440Y-81234000D01*
X115493162Y-80998683D01*
X115429322Y-80899472D01*
X115486431Y-80815890D01*
X115537440Y-80564000D01*
X115537440Y-79964000D01*
X115493162Y-79728683D01*
X115429322Y-79629472D01*
X115486431Y-79545890D01*
X115537440Y-79294000D01*
X115537440Y-78694000D01*
X115493162Y-78458683D01*
X115429322Y-78359472D01*
X115486431Y-78275890D01*
X115537440Y-78024000D01*
X115537440Y-77424000D01*
X115493162Y-77188683D01*
X115429322Y-77089472D01*
X115486431Y-77005890D01*
X115537440Y-76754000D01*
X115537440Y-76154000D01*
X115493162Y-75918683D01*
X115429322Y-75819472D01*
X115486431Y-75735890D01*
X115537440Y-75484000D01*
X115537440Y-74884000D01*
X115493162Y-74648683D01*
X115429322Y-74549472D01*
X115486431Y-74465890D01*
X115537440Y-74214000D01*
X115537440Y-73614000D01*
X115493162Y-73378683D01*
X115354090Y-73162559D01*
X115141890Y-73017569D01*
X114890000Y-72966560D01*
X113390000Y-72966560D01*
X113154683Y-73010838D01*
X113033993Y-73088500D01*
X112649005Y-73088500D01*
X112649000Y-73088499D01*
X112340269Y-73149910D01*
X112333095Y-73151337D01*
X112065283Y-73330283D01*
X112065281Y-73330286D01*
X111862699Y-73532867D01*
X111812792Y-73532824D01*
X111439234Y-73687175D01*
X111402846Y-73723500D01*
X106311440Y-73723500D01*
X106311440Y-73685400D01*
X106267162Y-73450083D01*
X106128090Y-73233959D01*
X105915890Y-73088969D01*
X105664000Y-73037960D01*
X103632000Y-73037960D01*
X103396683Y-73082238D01*
X103180559Y-73221310D01*
X103035569Y-73433510D01*
X102984560Y-73685400D01*
X102984560Y-75412600D01*
X103028838Y-75647917D01*
X103167910Y-75864041D01*
X103380110Y-76009031D01*
X103421439Y-76017400D01*
X103403585Y-76029330D01*
X103078729Y-76515511D01*
X102964655Y-77089000D01*
X102685000Y-77089000D01*
X102685000Y-72378750D01*
X132138000Y-72378750D01*
X132138000Y-72819309D01*
X132234673Y-73052698D01*
X132413301Y-73231327D01*
X132646690Y-73328000D01*
X132937250Y-73328000D01*
X133096000Y-73169250D01*
X133096000Y-72220000D01*
X133350000Y-72220000D01*
X133350000Y-73169250D01*
X133508750Y-73328000D01*
X133799310Y-73328000D01*
X134032699Y-73231327D01*
X134211327Y-73052698D01*
X134308000Y-72819309D01*
X134308000Y-72378750D01*
X134149250Y-72220000D01*
X133350000Y-72220000D01*
X133096000Y-72220000D01*
X132296750Y-72220000D01*
X132138000Y-72378750D01*
X102685000Y-72378750D01*
X102685000Y-56685000D01*
X201315000Y-56685000D01*
X201315000Y-155315000D01*
G36*
X159194500Y-95210934D02*
X159194500Y-107868472D01*
X159159179Y-107903731D01*
X159004176Y-108277018D01*
X159003824Y-108681208D01*
X159158175Y-109054766D01*
X159194500Y-109091154D01*
X159194500Y-114323472D01*
X159159179Y-114358731D01*
X159004176Y-114732018D01*
X159003824Y-115136208D01*
X159051875Y-115252500D01*
X151384000Y-115252500D01*
X151068095Y-115315337D01*
X150800283Y-115494283D01*
X150800281Y-115494286D01*
X150419283Y-115875283D01*
X150240337Y-116143094D01*
X150194031Y-116375890D01*
X150177500Y-116459000D01*
X150177500Y-116739299D01*
X150106569Y-116843110D01*
X150055560Y-117095000D01*
X150055560Y-117792000D01*
X149926000Y-117792000D01*
X149926000Y-117772000D01*
X149276750Y-117772000D01*
X149118000Y-117930750D01*
X149118000Y-118321309D01*
X149214673Y-118554698D01*
X149393301Y-118733327D01*
X149429747Y-118748423D01*
X149301559Y-118830910D01*
X149156569Y-119043110D01*
X149105560Y-119295000D01*
X149105560Y-120395000D01*
X149149838Y-120630317D01*
X149227500Y-120751007D01*
X149227500Y-128209000D01*
X149290337Y-128524906D01*
X149469283Y-128792717D01*
X150419283Y-129742717D01*
X150687094Y-129921663D01*
X151003000Y-129984501D01*
X151003005Y-129984500D01*
X151544822Y-129984500D01*
X151515560Y-130129000D01*
X151515560Y-130729000D01*
X151559838Y-130964317D01*
X151623678Y-131063528D01*
X151566569Y-131147110D01*
X151515560Y-131399000D01*
X151515560Y-131999000D01*
X151559838Y-132234317D01*
X151623678Y-132333528D01*
X151566569Y-132417110D01*
X151515560Y-132669000D01*
X151515560Y-133269000D01*
X151559838Y-133504317D01*
X151623678Y-133603528D01*
X151566569Y-133687110D01*
X151515560Y-133939000D01*
X151515560Y-134539000D01*
X151559838Y-134774317D01*
X151623678Y-134873528D01*
X151566569Y-134957110D01*
X151515560Y-135209000D01*
X151515560Y-135809000D01*
X151559838Y-136044317D01*
X151623678Y-136143528D01*
X151566569Y-136227110D01*
X151515560Y-136479000D01*
X151515560Y-137079000D01*
X151559838Y-137314317D01*
X151698910Y-137530441D01*
X151911110Y-137675431D01*
X152163000Y-137726440D01*
X152337500Y-137726440D01*
X152337500Y-138595066D01*
X147994066Y-142938500D01*
X134038957Y-142938500D01*
X133990090Y-142862559D01*
X133777890Y-142717569D01*
X133526000Y-142666560D01*
X132326000Y-142666560D01*
X132090683Y-142710838D01*
X131874559Y-142849910D01*
X131826866Y-142919711D01*
X131790090Y-142862559D01*
X131577890Y-142717569D01*
X131326000Y-142666560D01*
X130126000Y-142666560D01*
X129890683Y-142710838D01*
X129674559Y-142849910D01*
X129614028Y-142938500D01*
X127126945Y-142938500D01*
X127127176Y-142673792D01*
X126972825Y-142300234D01*
X126722528Y-142049500D01*
X129613043Y-142049500D01*
X129661910Y-142125441D01*
X129874110Y-142270431D01*
X130126000Y-142321440D01*
X131326000Y-142321440D01*
X131561317Y-142277162D01*
X131777441Y-142138090D01*
X131825134Y-142068289D01*
X131861910Y-142125441D01*
X132074110Y-142270431D01*
X132326000Y-142321440D01*
X133526000Y-142321440D01*
X133761317Y-142277162D01*
X133977441Y-142138090D01*
X134037972Y-142049500D01*
X134747000Y-142049500D01*
X135062906Y-141986663D01*
X135330717Y-141807717D01*
X140073683Y-137064750D01*
X142128000Y-137064750D01*
X142128000Y-137205310D01*
X142224673Y-137438699D01*
X142403302Y-137617327D01*
X142636691Y-137714000D01*
X143477250Y-137714000D01*
X143636000Y-137555250D01*
X143636000Y-136906000D01*
X143890000Y-136906000D01*
X143890000Y-137555250D01*
X144048750Y-137714000D01*
X144889309Y-137714000D01*
X145122698Y-137617327D01*
X145301327Y-137438699D01*
X145398000Y-137205310D01*
X145398000Y-137064750D01*
X145239250Y-136906000D01*
X143890000Y-136906000D01*
X143636000Y-136906000D01*
X142286750Y-136906000D01*
X142128000Y-137064750D01*
X140073683Y-137064750D01*
X140803933Y-136334500D01*
X142135535Y-136334500D01*
X142128000Y-136352690D01*
X142128000Y-136493250D01*
X142286750Y-136652000D01*
X143636000Y-136652000D01*
X143636000Y-136632000D01*
X143890000Y-136632000D01*
X143890000Y-136652000D01*
X145239250Y-136652000D01*
X145398000Y-136493250D01*
X145398000Y-136352690D01*
X145308194Y-136135878D01*
X145359431Y-136060890D01*
X145410440Y-135809000D01*
X145410440Y-135209000D01*
X145366162Y-134973683D01*
X145302322Y-134874472D01*
X145359431Y-134790890D01*
X145410440Y-134539000D01*
X145410440Y-133939000D01*
X145366162Y-133703683D01*
X145302322Y-133604472D01*
X145359431Y-133520890D01*
X145410440Y-133269000D01*
X145410440Y-132669000D01*
X145366162Y-132433683D01*
X145302322Y-132334472D01*
X145359431Y-132250890D01*
X145410440Y-131999000D01*
X145410440Y-131399000D01*
X145366162Y-131163683D01*
X145302322Y-131064472D01*
X145359431Y-130980890D01*
X145410440Y-130729000D01*
X145410440Y-130129000D01*
X145366162Y-129893683D01*
X145302322Y-129794472D01*
X145359431Y-129710890D01*
X145410440Y-129459000D01*
X145410440Y-128859000D01*
X145366162Y-128623683D01*
X145302322Y-128524472D01*
X145359431Y-128440890D01*
X145410440Y-128189000D01*
X145410440Y-127589000D01*
X145366162Y-127353683D01*
X145302322Y-127254472D01*
X145359431Y-127170890D01*
X145410440Y-126919000D01*
X145410440Y-126319000D01*
X145366162Y-126083683D01*
X145302322Y-125984472D01*
X145359431Y-125900890D01*
X145410440Y-125649000D01*
X145410440Y-125049000D01*
X145366162Y-124813683D01*
X145302322Y-124714472D01*
X145359431Y-124630890D01*
X145410440Y-124379000D01*
X145410440Y-123779000D01*
X145366162Y-123543683D01*
X145302322Y-123444472D01*
X145359431Y-123360890D01*
X145410440Y-123109000D01*
X145410440Y-122509000D01*
X145366162Y-122273683D01*
X145227090Y-122057559D01*
X145014890Y-121912569D01*
X144763000Y-121861560D01*
X142763000Y-121861560D01*
X142527683Y-121905838D01*
X142406993Y-121983500D01*
X142073933Y-121983500D01*
X137059125Y-116968691D01*
X149118000Y-116968691D01*
X149118000Y-117359250D01*
X149276750Y-117518000D01*
X149926000Y-117518000D01*
X149926000Y-116618750D01*
X149767250Y-116460000D01*
X149626690Y-116460000D01*
X149393301Y-116556673D01*
X149214673Y-116735302D01*
X149118000Y-116968691D01*
X137059125Y-116968691D01*
X135330717Y-115240283D01*
X135062906Y-115061337D01*
X134747000Y-114998500D01*
X134038957Y-114998500D01*
X133990090Y-114922559D01*
X133777890Y-114777569D01*
X133526000Y-114726560D01*
X132326000Y-114726560D01*
X132090683Y-114770838D01*
X131874559Y-114909910D01*
X131826866Y-114979711D01*
X131790090Y-114922559D01*
X131577890Y-114777569D01*
X131326000Y-114726560D01*
X130126000Y-114726560D01*
X129890683Y-114770838D01*
X129674559Y-114909910D01*
X129614028Y-114998500D01*
X125817934Y-114998500D01*
X126186714Y-114629719D01*
X126186717Y-114629717D01*
X126365663Y-114361905D01*
X126418194Y-114097813D01*
X126539110Y-114180431D01*
X126791000Y-114231440D01*
X128291000Y-114231440D01*
X128526317Y-114187162D01*
X128647007Y-114109500D01*
X129613043Y-114109500D01*
X129661910Y-114185441D01*
X129874110Y-114330431D01*
X130126000Y-114381440D01*
X131326000Y-114381440D01*
X131561317Y-114337162D01*
X131777441Y-114198090D01*
X131825134Y-114128289D01*
X131861910Y-114185441D01*
X132074110Y-114330431D01*
X132326000Y-114381440D01*
X133526000Y-114381440D01*
X133761317Y-114337162D01*
X133977441Y-114198090D01*
X134037972Y-114109500D01*
X148336000Y-114109500D01*
X148651906Y-114046663D01*
X148919717Y-113867717D01*
X156666714Y-106120719D01*
X156666717Y-106120717D01*
X157936714Y-104850719D01*
X157936717Y-104850717D01*
X158571714Y-104215719D01*
X158571717Y-104215717D01*
X158750663Y-103947905D01*
X158767409Y-103863717D01*
X158813501Y-103632000D01*
X158813500Y-103631995D01*
X158813500Y-94829934D01*
X159194500Y-95210934D01*
X159194500Y-95210934D01*
G37*
X159194500Y-95210934D02*
X159194500Y-107868472D01*
X159159179Y-107903731D01*
X159004176Y-108277018D01*
X159003824Y-108681208D01*
X159158175Y-109054766D01*
X159194500Y-109091154D01*
X159194500Y-114323472D01*
X159159179Y-114358731D01*
X159004176Y-114732018D01*
X159003824Y-115136208D01*
X159051875Y-115252500D01*
X151384000Y-115252500D01*
X151068095Y-115315337D01*
X150800283Y-115494283D01*
X150800281Y-115494286D01*
X150419283Y-115875283D01*
X150240337Y-116143094D01*
X150194031Y-116375890D01*
X150177500Y-116459000D01*
X150177500Y-116739299D01*
X150106569Y-116843110D01*
X150055560Y-117095000D01*
X150055560Y-117792000D01*
X149926000Y-117792000D01*
X149926000Y-117772000D01*
X149276750Y-117772000D01*
X149118000Y-117930750D01*
X149118000Y-118321309D01*
X149214673Y-118554698D01*
X149393301Y-118733327D01*
X149429747Y-118748423D01*
X149301559Y-118830910D01*
X149156569Y-119043110D01*
X149105560Y-119295000D01*
X149105560Y-120395000D01*
X149149838Y-120630317D01*
X149227500Y-120751007D01*
X149227500Y-128209000D01*
X149290337Y-128524906D01*
X149469283Y-128792717D01*
X150419283Y-129742717D01*
X150687094Y-129921663D01*
X151003000Y-129984501D01*
X151003005Y-129984500D01*
X151544822Y-129984500D01*
X151515560Y-130129000D01*
X151515560Y-130729000D01*
X151559838Y-130964317D01*
X151623678Y-131063528D01*
X151566569Y-131147110D01*
X151515560Y-131399000D01*
X151515560Y-131999000D01*
X151559838Y-132234317D01*
X151623678Y-132333528D01*
X151566569Y-132417110D01*
X151515560Y-132669000D01*
X151515560Y-133269000D01*
X151559838Y-133504317D01*
X151623678Y-133603528D01*
X151566569Y-133687110D01*
X151515560Y-133939000D01*
X151515560Y-134539000D01*
X151559838Y-134774317D01*
X151623678Y-134873528D01*
X151566569Y-134957110D01*
X151515560Y-135209000D01*
X151515560Y-135809000D01*
X151559838Y-136044317D01*
X151623678Y-136143528D01*
X151566569Y-136227110D01*
X151515560Y-136479000D01*
X151515560Y-137079000D01*
X151559838Y-137314317D01*
X151698910Y-137530441D01*
X151911110Y-137675431D01*
X152163000Y-137726440D01*
X152337500Y-137726440D01*
X152337500Y-138595066D01*
X147994066Y-142938500D01*
X134038957Y-142938500D01*
X133990090Y-142862559D01*
X133777890Y-142717569D01*
X133526000Y-142666560D01*
X132326000Y-142666560D01*
X132090683Y-142710838D01*
X131874559Y-142849910D01*
X131826866Y-142919711D01*
X131790090Y-142862559D01*
X131577890Y-142717569D01*
X131326000Y-142666560D01*
X130126000Y-142666560D01*
X129890683Y-142710838D01*
X129674559Y-142849910D01*
X129614028Y-142938500D01*
X127126945Y-142938500D01*
X127127176Y-142673792D01*
X126972825Y-142300234D01*
X126722528Y-142049500D01*
X129613043Y-142049500D01*
X129661910Y-142125441D01*
X129874110Y-142270431D01*
X130126000Y-142321440D01*
X131326000Y-142321440D01*
X131561317Y-142277162D01*
X131777441Y-142138090D01*
X131825134Y-142068289D01*
X131861910Y-142125441D01*
X132074110Y-142270431D01*
X132326000Y-142321440D01*
X133526000Y-142321440D01*
X133761317Y-142277162D01*
X133977441Y-142138090D01*
X134037972Y-142049500D01*
X134747000Y-142049500D01*
X135062906Y-141986663D01*
X135330717Y-141807717D01*
X140073683Y-137064750D01*
X142128000Y-137064750D01*
X142128000Y-137205310D01*
X142224673Y-137438699D01*
X142403302Y-137617327D01*
X142636691Y-137714000D01*
X143477250Y-137714000D01*
X143636000Y-137555250D01*
X143636000Y-136906000D01*
X143890000Y-136906000D01*
X143890000Y-137555250D01*
X144048750Y-137714000D01*
X144889309Y-137714000D01*
X145122698Y-137617327D01*
X145301327Y-137438699D01*
X145398000Y-137205310D01*
X145398000Y-137064750D01*
X145239250Y-136906000D01*
X143890000Y-136906000D01*
X143636000Y-136906000D01*
X142286750Y-136906000D01*
X142128000Y-137064750D01*
X140073683Y-137064750D01*
X140803933Y-136334500D01*
X142135535Y-136334500D01*
X142128000Y-136352690D01*
X142128000Y-136493250D01*
X142286750Y-136652000D01*
X143636000Y-136652000D01*
X143636000Y-136632000D01*
X143890000Y-136632000D01*
X143890000Y-136652000D01*
X145239250Y-136652000D01*
X145398000Y-136493250D01*
X145398000Y-136352690D01*
X145308194Y-136135878D01*
X145359431Y-136060890D01*
X145410440Y-135809000D01*
X145410440Y-135209000D01*
X145366162Y-134973683D01*
X145302322Y-134874472D01*
X145359431Y-134790890D01*
X145410440Y-134539000D01*
X145410440Y-133939000D01*
X145366162Y-133703683D01*
X145302322Y-133604472D01*
X145359431Y-133520890D01*
X145410440Y-133269000D01*
X145410440Y-132669000D01*
X145366162Y-132433683D01*
X145302322Y-132334472D01*
X145359431Y-132250890D01*
X145410440Y-131999000D01*
X145410440Y-131399000D01*
X145366162Y-131163683D01*
X145302322Y-131064472D01*
X145359431Y-130980890D01*
X145410440Y-130729000D01*
X145410440Y-130129000D01*
X145366162Y-129893683D01*
X145302322Y-129794472D01*
X145359431Y-129710890D01*
X145410440Y-129459000D01*
X145410440Y-128859000D01*
X145366162Y-128623683D01*
X145302322Y-128524472D01*
X145359431Y-128440890D01*
X145410440Y-128189000D01*
X145410440Y-127589000D01*
X145366162Y-127353683D01*
X145302322Y-127254472D01*
X145359431Y-127170890D01*
X145410440Y-126919000D01*
X145410440Y-126319000D01*
X145366162Y-126083683D01*
X145302322Y-125984472D01*
X145359431Y-125900890D01*
X145410440Y-125649000D01*
X145410440Y-125049000D01*
X145366162Y-124813683D01*
X145302322Y-124714472D01*
X145359431Y-124630890D01*
X145410440Y-124379000D01*
X145410440Y-123779000D01*
X145366162Y-123543683D01*
X145302322Y-123444472D01*
X145359431Y-123360890D01*
X145410440Y-123109000D01*
X145410440Y-122509000D01*
X145366162Y-122273683D01*
X145227090Y-122057559D01*
X145014890Y-121912569D01*
X144763000Y-121861560D01*
X142763000Y-121861560D01*
X142527683Y-121905838D01*
X142406993Y-121983500D01*
X142073933Y-121983500D01*
X137059125Y-116968691D01*
X149118000Y-116968691D01*
X149118000Y-117359250D01*
X149276750Y-117518000D01*
X149926000Y-117518000D01*
X149926000Y-116618750D01*
X149767250Y-116460000D01*
X149626690Y-116460000D01*
X149393301Y-116556673D01*
X149214673Y-116735302D01*
X149118000Y-116968691D01*
X137059125Y-116968691D01*
X135330717Y-115240283D01*
X135062906Y-115061337D01*
X134747000Y-114998500D01*
X134038957Y-114998500D01*
X133990090Y-114922559D01*
X133777890Y-114777569D01*
X133526000Y-114726560D01*
X132326000Y-114726560D01*
X132090683Y-114770838D01*
X131874559Y-114909910D01*
X131826866Y-114979711D01*
X131790090Y-114922559D01*
X131577890Y-114777569D01*
X131326000Y-114726560D01*
X130126000Y-114726560D01*
X129890683Y-114770838D01*
X129674559Y-114909910D01*
X129614028Y-114998500D01*
X125817934Y-114998500D01*
X126186714Y-114629719D01*
X126186717Y-114629717D01*
X126365663Y-114361905D01*
X126418194Y-114097813D01*
X126539110Y-114180431D01*
X126791000Y-114231440D01*
X128291000Y-114231440D01*
X128526317Y-114187162D01*
X128647007Y-114109500D01*
X129613043Y-114109500D01*
X129661910Y-114185441D01*
X129874110Y-114330431D01*
X130126000Y-114381440D01*
X131326000Y-114381440D01*
X131561317Y-114337162D01*
X131777441Y-114198090D01*
X131825134Y-114128289D01*
X131861910Y-114185441D01*
X132074110Y-114330431D01*
X132326000Y-114381440D01*
X133526000Y-114381440D01*
X133761317Y-114337162D01*
X133977441Y-114198090D01*
X134037972Y-114109500D01*
X148336000Y-114109500D01*
X148651906Y-114046663D01*
X148919717Y-113867717D01*
X156666714Y-106120719D01*
X156666717Y-106120717D01*
X157936714Y-104850719D01*
X157936717Y-104850717D01*
X158571714Y-104215719D01*
X158571717Y-104215717D01*
X158750663Y-103947905D01*
X158767409Y-103863717D01*
X158813501Y-103632000D01*
X158813500Y-103631995D01*
X158813500Y-94829934D01*
X159194500Y-95210934D01*
G36*
X161480500Y-116482472D02*
X161445179Y-116517731D01*
X161290176Y-116891018D01*
X161289824Y-117295208D01*
X161444175Y-117668766D01*
X161729731Y-117954821D01*
X162103018Y-118109824D01*
X162454691Y-118110130D01*
X162587175Y-118430766D01*
X162872731Y-118716821D01*
X163246018Y-118871824D01*
X163597691Y-118872130D01*
X163730175Y-119192766D01*
X164015731Y-119478821D01*
X164389018Y-119633824D01*
X164793208Y-119634176D01*
X164909500Y-119586125D01*
X164909500Y-122594066D01*
X164250066Y-123253500D01*
X154781178Y-123253500D01*
X154810440Y-123109000D01*
X154810440Y-122509000D01*
X154766162Y-122273683D01*
X154627090Y-122057559D01*
X154414890Y-121912569D01*
X154163000Y-121861560D01*
X153988500Y-121861560D01*
X153988500Y-120143005D01*
X153988501Y-120143000D01*
X153925663Y-119827095D01*
X153911942Y-119806560D01*
X153746717Y-119559283D01*
X153746714Y-119559281D01*
X153448717Y-119261283D01*
X153180906Y-119082337D01*
X152865000Y-119019500D01*
X152830305Y-119019500D01*
X152717090Y-118843559D01*
X152571917Y-118744367D01*
X152704441Y-118659090D01*
X152849431Y-118446890D01*
X152900440Y-118195000D01*
X152900440Y-117095000D01*
X152864407Y-116903500D01*
X160655000Y-116903500D01*
X160970906Y-116840663D01*
X161238717Y-116661717D01*
X161480500Y-116419934D01*
X161480500Y-116482472D01*
X161480500Y-116482472D01*
G37*
X161480500Y-116482472D02*
X161445179Y-116517731D01*
X161290176Y-116891018D01*
X161289824Y-117295208D01*
X161444175Y-117668766D01*
X161729731Y-117954821D01*
X162103018Y-118109824D01*
X162454691Y-118110130D01*
X162587175Y-118430766D01*
X162872731Y-118716821D01*
X163246018Y-118871824D01*
X163597691Y-118872130D01*
X163730175Y-119192766D01*
X164015731Y-119478821D01*
X164389018Y-119633824D01*
X164793208Y-119634176D01*
X164909500Y-119586125D01*
X164909500Y-122594066D01*
X164250066Y-123253500D01*
X154781178Y-123253500D01*
X154810440Y-123109000D01*
X154810440Y-122509000D01*
X154766162Y-122273683D01*
X154627090Y-122057559D01*
X154414890Y-121912569D01*
X154163000Y-121861560D01*
X153988500Y-121861560D01*
X153988500Y-120143005D01*
X153988501Y-120143000D01*
X153925663Y-119827095D01*
X153911942Y-119806560D01*
X153746717Y-119559283D01*
X153746714Y-119559281D01*
X153448717Y-119261283D01*
X153180906Y-119082337D01*
X152865000Y-119019500D01*
X152830305Y-119019500D01*
X152717090Y-118843559D01*
X152571917Y-118744367D01*
X152704441Y-118659090D01*
X152849431Y-118446890D01*
X152900440Y-118195000D01*
X152900440Y-117095000D01*
X152864407Y-116903500D01*
X160655000Y-116903500D01*
X160970906Y-116840663D01*
X161238717Y-116661717D01*
X161480500Y-116419934D01*
X161480500Y-116482472D01*
G36*
X180550330Y-59918415D02*
X180784500Y-60074883D01*
X180784500Y-61976000D01*
X180847337Y-62291906D01*
X181026283Y-62559717D01*
X181515281Y-63048714D01*
X181515283Y-63048717D01*
X181783095Y-63227663D01*
X181992560Y-63269328D01*
X181992560Y-63315000D01*
X182016944Y-63444589D01*
X181992560Y-63565000D01*
X181992560Y-63965000D01*
X182016944Y-64094589D01*
X181992560Y-64215000D01*
X181992560Y-64615000D01*
X182016944Y-64744589D01*
X181992560Y-64865000D01*
X181992560Y-65265000D01*
X182016944Y-65394589D01*
X181992560Y-65515000D01*
X181992560Y-65915000D01*
X182016944Y-66044589D01*
X181992560Y-66165000D01*
X181992560Y-66565000D01*
X182016944Y-66694589D01*
X181992560Y-66815000D01*
X181992560Y-66839500D01*
X181382005Y-66839500D01*
X181382000Y-66839499D01*
X181066095Y-66902337D01*
X180798283Y-67081283D01*
X180798281Y-67081286D01*
X179502283Y-68377283D01*
X179323337Y-68645094D01*
X179299111Y-68766890D01*
X179260500Y-68961000D01*
X179260500Y-76136500D01*
X175351528Y-76136500D01*
X175316269Y-76101179D01*
X174942982Y-75946176D01*
X174538792Y-75945824D01*
X174165234Y-76100175D01*
X174128846Y-76136500D01*
X172680934Y-76136500D01*
X170890717Y-74346283D01*
X170890714Y-74346281D01*
X168923183Y-72378750D01*
X172778000Y-72378750D01*
X172778000Y-72819309D01*
X172874673Y-73052698D01*
X173053301Y-73231327D01*
X173286690Y-73328000D01*
X173577250Y-73328000D01*
X173736000Y-73169250D01*
X173736000Y-72220000D01*
X173990000Y-72220000D01*
X173990000Y-73169250D01*
X174148750Y-73328000D01*
X174439310Y-73328000D01*
X174672699Y-73231327D01*
X174851327Y-73052698D01*
X174948000Y-72819309D01*
X174948000Y-72378750D01*
X174789250Y-72220000D01*
X173990000Y-72220000D01*
X173736000Y-72220000D01*
X172936750Y-72220000D01*
X172778000Y-72378750D01*
X168923183Y-72378750D01*
X166080846Y-69536413D01*
X166309766Y-69441825D01*
X166595821Y-69156269D01*
X166602369Y-69140500D01*
X172796442Y-69140500D01*
X172765560Y-69293000D01*
X172765560Y-70493000D01*
X172809838Y-70728317D01*
X172948910Y-70944441D01*
X173017006Y-70990969D01*
X172874673Y-71133302D01*
X172778000Y-71366691D01*
X172778000Y-71807250D01*
X172936750Y-71966000D01*
X173736000Y-71966000D01*
X173736000Y-71946000D01*
X173990000Y-71946000D01*
X173990000Y-71966000D01*
X174789250Y-71966000D01*
X174948000Y-71807250D01*
X174948000Y-71366691D01*
X174851327Y-71133302D01*
X174710090Y-70992064D01*
X174764441Y-70957090D01*
X174909431Y-70744890D01*
X174918081Y-70702173D01*
X175151906Y-70655663D01*
X175419717Y-70476717D01*
X176105934Y-69790500D01*
X176292560Y-69790500D01*
X176292560Y-69815000D01*
X176336838Y-70050317D01*
X176475910Y-70266441D01*
X176664500Y-70395299D01*
X176664500Y-71407380D01*
X176657176Y-71425018D01*
X176656824Y-71829208D01*
X176811175Y-72202766D01*
X177096731Y-72488821D01*
X177470018Y-72643824D01*
X177874208Y-72644176D01*
X178247766Y-72489825D01*
X178533821Y-72204269D01*
X178688824Y-71830982D01*
X178689176Y-71426792D01*
X178534825Y-71053234D01*
X178315500Y-70833526D01*
X178315500Y-70392305D01*
X178491441Y-70279090D01*
X178636431Y-70066890D01*
X178687440Y-69815000D01*
X178687440Y-69415000D01*
X178663056Y-69285411D01*
X178687440Y-69165000D01*
X178687440Y-68765000D01*
X178663056Y-68635411D01*
X178687440Y-68515000D01*
X178687440Y-68115000D01*
X178663056Y-67985411D01*
X178687440Y-67865000D01*
X178687440Y-67465000D01*
X178663056Y-67335411D01*
X178687440Y-67215000D01*
X178687440Y-66815000D01*
X178663056Y-66685411D01*
X178687440Y-66565000D01*
X178687440Y-66165000D01*
X178663056Y-66035411D01*
X178687440Y-65915000D01*
X178687440Y-65515000D01*
X178663056Y-65385411D01*
X178687440Y-65265000D01*
X178687440Y-64865000D01*
X178663056Y-64735411D01*
X178687440Y-64615000D01*
X178687440Y-64215000D01*
X178663056Y-64085411D01*
X178687440Y-63965000D01*
X178687440Y-63565000D01*
X178663056Y-63435411D01*
X178687440Y-63315000D01*
X178687440Y-63269328D01*
X178896906Y-63227663D01*
X179164717Y-63048717D01*
X179653714Y-62559719D01*
X179653717Y-62559717D01*
X179832663Y-62291905D01*
X179895500Y-61976000D01*
X179895500Y-60074883D01*
X180129670Y-59918415D01*
X180340000Y-59603634D01*
X180550330Y-59918415D01*
X180550330Y-59918415D01*
G37*
X180550330Y-59918415D02*
X180784500Y-60074883D01*
X180784500Y-61976000D01*
X180847337Y-62291906D01*
X181026283Y-62559717D01*
X181515281Y-63048714D01*
X181515283Y-63048717D01*
X181783095Y-63227663D01*
X181992560Y-63269328D01*
X181992560Y-63315000D01*
X182016944Y-63444589D01*
X181992560Y-63565000D01*
X181992560Y-63965000D01*
X182016944Y-64094589D01*
X181992560Y-64215000D01*
X181992560Y-64615000D01*
X182016944Y-64744589D01*
X181992560Y-64865000D01*
X181992560Y-65265000D01*
X182016944Y-65394589D01*
X181992560Y-65515000D01*
X181992560Y-65915000D01*
X182016944Y-66044589D01*
X181992560Y-66165000D01*
X181992560Y-66565000D01*
X182016944Y-66694589D01*
X181992560Y-66815000D01*
X181992560Y-66839500D01*
X181382005Y-66839500D01*
X181382000Y-66839499D01*
X181066095Y-66902337D01*
X180798283Y-67081283D01*
X180798281Y-67081286D01*
X179502283Y-68377283D01*
X179323337Y-68645094D01*
X179299111Y-68766890D01*
X179260500Y-68961000D01*
X179260500Y-76136500D01*
X175351528Y-76136500D01*
X175316269Y-76101179D01*
X174942982Y-75946176D01*
X174538792Y-75945824D01*
X174165234Y-76100175D01*
X174128846Y-76136500D01*
X172680934Y-76136500D01*
X170890717Y-74346283D01*
X170890714Y-74346281D01*
X168923183Y-72378750D01*
X172778000Y-72378750D01*
X172778000Y-72819309D01*
X172874673Y-73052698D01*
X173053301Y-73231327D01*
X173286690Y-73328000D01*
X173577250Y-73328000D01*
X173736000Y-73169250D01*
X173736000Y-72220000D01*
X173990000Y-72220000D01*
X173990000Y-73169250D01*
X174148750Y-73328000D01*
X174439310Y-73328000D01*
X174672699Y-73231327D01*
X174851327Y-73052698D01*
X174948000Y-72819309D01*
X174948000Y-72378750D01*
X174789250Y-72220000D01*
X173990000Y-72220000D01*
X173736000Y-72220000D01*
X172936750Y-72220000D01*
X172778000Y-72378750D01*
X168923183Y-72378750D01*
X166080846Y-69536413D01*
X166309766Y-69441825D01*
X166595821Y-69156269D01*
X166602369Y-69140500D01*
X172796442Y-69140500D01*
X172765560Y-69293000D01*
X172765560Y-70493000D01*
X172809838Y-70728317D01*
X172948910Y-70944441D01*
X173017006Y-70990969D01*
X172874673Y-71133302D01*
X172778000Y-71366691D01*
X172778000Y-71807250D01*
X172936750Y-71966000D01*
X173736000Y-71966000D01*
X173736000Y-71946000D01*
X173990000Y-71946000D01*
X173990000Y-71966000D01*
X174789250Y-71966000D01*
X174948000Y-71807250D01*
X174948000Y-71366691D01*
X174851327Y-71133302D01*
X174710090Y-70992064D01*
X174764441Y-70957090D01*
X174909431Y-70744890D01*
X174918081Y-70702173D01*
X175151906Y-70655663D01*
X175419717Y-70476717D01*
X176105934Y-69790500D01*
X176292560Y-69790500D01*
X176292560Y-69815000D01*
X176336838Y-70050317D01*
X176475910Y-70266441D01*
X176664500Y-70395299D01*
X176664500Y-71407380D01*
X176657176Y-71425018D01*
X176656824Y-71829208D01*
X176811175Y-72202766D01*
X177096731Y-72488821D01*
X177470018Y-72643824D01*
X177874208Y-72644176D01*
X178247766Y-72489825D01*
X178533821Y-72204269D01*
X178688824Y-71830982D01*
X178689176Y-71426792D01*
X178534825Y-71053234D01*
X178315500Y-70833526D01*
X178315500Y-70392305D01*
X178491441Y-70279090D01*
X178636431Y-70066890D01*
X178687440Y-69815000D01*
X178687440Y-69415000D01*
X178663056Y-69285411D01*
X178687440Y-69165000D01*
X178687440Y-68765000D01*
X178663056Y-68635411D01*
X178687440Y-68515000D01*
X178687440Y-68115000D01*
X178663056Y-67985411D01*
X178687440Y-67865000D01*
X178687440Y-67465000D01*
X178663056Y-67335411D01*
X178687440Y-67215000D01*
X178687440Y-66815000D01*
X178663056Y-66685411D01*
X178687440Y-66565000D01*
X178687440Y-66165000D01*
X178663056Y-66035411D01*
X178687440Y-65915000D01*
X178687440Y-65515000D01*
X178663056Y-65385411D01*
X178687440Y-65265000D01*
X178687440Y-64865000D01*
X178663056Y-64735411D01*
X178687440Y-64615000D01*
X178687440Y-64215000D01*
X178663056Y-64085411D01*
X178687440Y-63965000D01*
X178687440Y-63565000D01*
X178663056Y-63435411D01*
X178687440Y-63315000D01*
X178687440Y-63269328D01*
X178896906Y-63227663D01*
X179164717Y-63048717D01*
X179653714Y-62559719D01*
X179653717Y-62559717D01*
X179832663Y-62291905D01*
X179895500Y-61976000D01*
X179895500Y-60074883D01*
X180129670Y-59918415D01*
X180340000Y-59603634D01*
X180550330Y-59918415D01*
M02*
