G04 #@! TF.FileFunction,Paste,Bot*
%FSLAX46Y46*%
G04 Gerber Fmt 4.6, Leading zero omitted, Abs format (unit mm)*
G04 Created by KiCad (PCBNEW 4.0.2+dfsg1-stable) date dim. 24 sept. 2017 10:50:26 CEST*
%MOMM*%
G01*
G04 APERTURE LIST*
%ADD10C,0.100000*%
%ADD11R,1.250000X1.500000*%
%ADD12R,1.500000X1.250000*%
%ADD13R,0.800100X1.800860*%
%ADD14R,4.000000X3.400000*%
%ADD15R,1.200000X0.900000*%
%ADD16R,0.280000X1.200000*%
%ADD17R,1.200000X0.280000*%
%ADD18R,1.000760X0.599440*%
%ADD19R,1.000000X3.000000*%
%ADD20R,1.100000X4.600000*%
%ADD21R,10.800000X9.400000*%
G04 APERTURE END LIST*
D10*
D11*
X146558000Y-134600000D03*
X146558000Y-132100000D03*
X146558000Y-93960000D03*
X146558000Y-91460000D03*
X177165000Y-110637000D03*
X177165000Y-113137000D03*
D12*
X183750000Y-129500000D03*
X186250000Y-129500000D03*
X188750000Y-125000000D03*
X186250000Y-125000000D03*
X179090000Y-71628000D03*
X181590000Y-71628000D03*
X138450000Y-71628000D03*
X140950000Y-71628000D03*
D13*
X138491000Y-78971140D03*
X136591000Y-78971140D03*
X137541000Y-75968860D03*
D14*
X118500000Y-70000000D03*
X128500000Y-70000000D03*
D15*
X140759000Y-78994000D03*
X142959000Y-78994000D03*
D16*
X172946000Y-111327000D03*
X172446000Y-111327000D03*
X171946000Y-111327000D03*
X171446000Y-111327000D03*
X170946000Y-111327000D03*
X170446000Y-111327000D03*
X169946000Y-111327000D03*
X169446000Y-111327000D03*
D17*
X167946000Y-109827000D03*
X167946000Y-109327000D03*
X167946000Y-108827000D03*
X167946000Y-108327000D03*
X167946000Y-107827000D03*
X167946000Y-107327000D03*
X167946000Y-106827000D03*
X167946000Y-106327000D03*
D16*
X169446000Y-104827000D03*
X169946000Y-104827000D03*
X170446000Y-104827000D03*
X170946000Y-104827000D03*
X171446000Y-104827000D03*
X171946000Y-104827000D03*
X172446000Y-104827000D03*
X172946000Y-104827000D03*
D17*
X174446000Y-106327000D03*
X174446000Y-106827000D03*
X174446000Y-107327000D03*
X174446000Y-107827000D03*
X174446000Y-108327000D03*
X174446000Y-108827000D03*
X174446000Y-109327000D03*
X174446000Y-109827000D03*
D18*
X110296960Y-76469240D03*
X110296960Y-75168760D03*
X108397040Y-75819000D03*
X110296960Y-81549240D03*
X110296960Y-80248760D03*
X108397040Y-80899000D03*
X110296960Y-86629240D03*
X110296960Y-85328760D03*
X108397040Y-85979000D03*
X110296960Y-91709240D03*
X110296960Y-90408760D03*
X108397040Y-91059000D03*
X110296960Y-96789240D03*
X110296960Y-95488760D03*
X108397040Y-96139000D03*
X110296960Y-101869240D03*
X110296960Y-100568760D03*
X108397040Y-101219000D03*
X110296960Y-106949240D03*
X110296960Y-105648760D03*
X108397040Y-106299000D03*
X110296960Y-112029240D03*
X110296960Y-110728760D03*
X108397040Y-111379000D03*
X110296960Y-117109240D03*
X110296960Y-115808760D03*
X108397040Y-116459000D03*
X110296960Y-122189240D03*
X110296960Y-120888760D03*
X108397040Y-121539000D03*
X110296960Y-127269240D03*
X110296960Y-125968760D03*
X108397040Y-126619000D03*
X110296960Y-132349240D03*
X110296960Y-131048760D03*
X108397040Y-131699000D03*
X110296960Y-137429240D03*
X110296960Y-136128760D03*
X108397040Y-136779000D03*
X110296960Y-142509240D03*
X110296960Y-141208760D03*
X108397040Y-141859000D03*
X110296960Y-147589240D03*
X110296960Y-146288760D03*
X108397040Y-146939000D03*
X110296960Y-152669240D03*
X110296960Y-151368760D03*
X108397040Y-152019000D03*
D19*
X176500000Y-135000000D03*
X176500000Y-131000000D03*
D20*
X189400000Y-135000000D03*
X187700000Y-135000000D03*
X184300000Y-135000000D03*
D21*
X186000000Y-144150000D03*
D20*
X186000000Y-135000000D03*
X182600000Y-135000000D03*
M02*
