M48
;DRILL file {KiCad 4.0.2+dfsg1-stable} date ven. 05 janv. 2018 23:32:45 CET
;FORMAT={2:4/ absolute / inch / suppress leading zeros}
FMAT,2
INCH,TZ
T1C0.020
T2C0.031
T3C0.039
T4C0.040
T5C0.055
%
G90
G05
M72
T1
X44100Y-29350
X44100Y-30350
X44100Y-31350
X44100Y-32350
X44100Y-33350
X44100Y-34350
X44100Y-35350
X44100Y-36350
X44100Y-37350
X44100Y-38350
X44100Y-39350
X44100Y-40350
X44100Y-41350
X44100Y-42350
X44100Y-43350
X44100Y-44350
X44100Y-45350
X44100Y-46350
X44100Y-47350
X44100Y-48350
X44100Y-49350
X44100Y-50350
X44100Y-51350
X44100Y-52350
X44100Y-53350
X44100Y-54350
X44100Y-55350
X44100Y-56350
X44100Y-57350
X44100Y-58350
X44100Y-59350
X44100Y-60350
X49650Y-32250
X49650Y-33100
X49650Y-40250
X49650Y-41100
X49650Y-48250
X49650Y-49150
X49650Y-56250
X49650Y-57100
X53000Y-29150
X53950Y-28200
X55250Y-30150
X56050Y-28200
X57350Y-37850
X57350Y-53850
X58000Y-46050
X58200Y-32350
X59550Y-48350
X60950Y-46750
X61500Y-31750
X61600Y-58950
X62250Y-31100
X62300Y-52250
X62900Y-51350
X63000Y-42709
X63000Y-45250
X63450Y-41900
X63550Y-31750
X63650Y-27500
X63800Y-50350
X63900Y-41335
X63900Y-46100
X64250Y-49850
X64350Y-41130
X64350Y-46400
X64700Y-49350
X64750Y-26650
X64800Y-40846
X64800Y-46700
X65250Y-27000
X65250Y-40484
X65591Y-42835
X65693Y-47823
X66050Y-30600
X66295Y-43606
X67075Y-40894
X67483Y-36043
X67492Y-31100
X67550Y-30700
X67768Y-41732
X67798Y-35335
X68094Y-40661
X68102Y-44469
X68661Y-44453
X68795Y-30300
X68917Y-42150
X68987Y-43781
X69004Y-39224
X69950Y-28200
X70291Y-39354
X70350Y-29800
X70358Y-41079
X70776Y-40776
X71071Y-40378
X71433Y-41421
X72050Y-28200
X72638Y-45276
X72638Y-47835
X73335Y-45039
X73555Y-44744
X73898Y-51700
X74035Y-44209
T2
X67854Y-46717
X69776Y-46717
T3
X64248Y-33740
X65248Y-33740
X66248Y-33740
X75394Y-32449
X75394Y-33449
X75394Y-34449
X75394Y-35449
X75480Y-44941
X75480Y-45941
X75480Y-46941
X75500Y-38000
X75500Y-39000
X75500Y-40000
X75500Y-41000
X75500Y-42000
X75500Y-43000
T4
X41200Y-29350
X41200Y-30350
X41200Y-31350
X41200Y-32350
X41200Y-33350
X41200Y-34350
X41200Y-35350
X41200Y-36350
X41200Y-37350
X41200Y-38350
X41200Y-39350
X41200Y-40350
X41200Y-41350
X41200Y-42350
X41200Y-43350
X41200Y-44350
X41200Y-45350
X41200Y-46350
X41200Y-47350
X41200Y-48350
X41200Y-49350
X41200Y-50350
X41200Y-51350
X41200Y-52350
X41200Y-53350
X41200Y-54350
X41200Y-55350
X41200Y-56350
X41200Y-57350
X41200Y-58350
X41200Y-59350
X41200Y-60350
X47500Y-23100
X48500Y-23100
X49500Y-23100
X50500Y-23100
X51500Y-23100
X52500Y-23100
X53500Y-23100
X54500Y-23100
X55500Y-23100
X56500Y-23100
X57500Y-23100
X58500Y-23100
X59500Y-23100
X60500Y-23100
X61500Y-23100
X62500Y-23100
X63500Y-23100
X64500Y-23100
X65500Y-23100
X66500Y-23100
X67500Y-23100
X68500Y-23100
X69500Y-23100
X70500Y-23100
X71500Y-23100
X72500Y-23100
X73500Y-23100
X74500Y-23100
X75500Y-23100
X76500Y-23100
X77500Y-23100
X78500Y-23100
T5
X66705Y-52484
X66705Y-54650
X67610Y-49398
X69776Y-49398
T0
M30
